%TF.GenerationSoftware,KiCad,Pcbnew,7.0.9*%
%TF.CreationDate,2023-12-13T22:48:57+01:00*%
%TF.ProjectId,E80-1800-plate-universal,4538302d-3138-4303-902d-706c6174652d,rev?*%
%TF.SameCoordinates,Original*%
%TF.FileFunction,Profile,NP*%
%FSLAX46Y46*%
G04 Gerber Fmt 4.6, Leading zero omitted, Abs format (unit mm)*
G04 Created by KiCad (PCBNEW 7.0.9) date 2023-12-13 22:48:57*
%MOMM*%
%LPD*%
G01*
G04 APERTURE LIST*
%TA.AperFunction,Profile*%
%ADD10C,0.100000*%
%TD*%
G04 APERTURE END LIST*
D10*
X360615890Y-75206250D02*
X360615890Y-58143750D01*
X347115890Y-50150000D02*
X360115890Y-50150000D01*
X361115891Y-58143750D02*
X360615890Y-58143750D01*
X361115892Y-81956250D02*
X360615890Y-81956251D01*
X347115890Y-50150000D02*
G75*
G03*
X346615890Y-50650000I1J-500001D01*
G01*
X360614774Y-50652764D02*
X360615890Y-51393749D01*
X360115890Y-83200000D02*
X347115890Y-83200000D01*
X346615890Y-82700000D02*
G75*
G03*
X347115890Y-83200000I500001J1D01*
G01*
X361615840Y-75706251D02*
G75*
G03*
X361115891Y-75206250I-499950J51D01*
G01*
X360615890Y-82700000D02*
X360615890Y-81956251D01*
X360614727Y-50652764D02*
G75*
G03*
X360114774Y-50152763I-499937J64D01*
G01*
X361115891Y-75206250D02*
X360615890Y-75206250D01*
X346615890Y-82700000D02*
X346615890Y-50650000D01*
X361615891Y-57643749D02*
X361615891Y-51893749D01*
X361115892Y-81956301D02*
G75*
G03*
X361615891Y-81456251I-102J500101D01*
G01*
X361115891Y-58143800D02*
G75*
G03*
X361615890Y-57643751I-101J500100D01*
G01*
X361615840Y-51893750D02*
G75*
G03*
X361115892Y-51393750I-499950J50D01*
G01*
X361615891Y-81456251D02*
X361615891Y-75706251D01*
X360115890Y-83200000D02*
G75*
G03*
X360615890Y-82700000I0J500000D01*
G01*
X361115892Y-51393750D02*
X360615890Y-51393749D01*
X361615891Y-113806251D02*
G75*
G03*
X361115891Y-113306250I-499967J34D01*
G01*
X361615891Y-119556251D02*
X361615891Y-113806251D01*
X361615891Y-95743749D02*
X361615891Y-89993749D01*
X361115891Y-96243700D02*
G75*
G03*
X361615890Y-95743751I-1J500000D01*
G01*
X361115892Y-120056250D02*
G75*
G03*
X361615891Y-119556251I-86J500085D01*
G01*
X361615940Y-89993750D02*
G75*
G03*
X361115892Y-89493750I-500050J-50D01*
G01*
X361115892Y-120056250D02*
X360615890Y-120056251D01*
X361115891Y-113306250D02*
X360615890Y-113306250D01*
X360615890Y-120800000D02*
X360615890Y-120056251D01*
X360614774Y-88752764D02*
X360615890Y-89493749D01*
X361115892Y-89493750D02*
X360615890Y-89493749D01*
X360615890Y-113306250D02*
X360615890Y-96243750D01*
X361115891Y-96243750D02*
X360615890Y-96243750D01*
X346615890Y-120800000D02*
X346615890Y-88750000D01*
X360614827Y-88752764D02*
G75*
G03*
X360114774Y-88252763I-500037J-36D01*
G01*
X360115890Y-121300000D02*
X347115890Y-121300000D01*
X347115890Y-88250000D02*
G75*
G03*
X346615890Y-88750000I0J-500000D01*
G01*
X347115890Y-88250000D02*
X360115890Y-88250000D01*
X346615890Y-120800000D02*
G75*
G03*
X347115890Y-121300000I500001J1D01*
G01*
X360115890Y-121300001D02*
G75*
G03*
X360615890Y-120800000I-2J500002D01*
G01*
X268937500Y-59175000D02*
G75*
G03*
X269437500Y-59675000I500000J0D01*
G01*
X269437499Y-58143700D02*
G75*
G03*
X268937500Y-58643749I1J-500000D01*
G01*
X268937452Y-50893748D02*
G75*
G03*
X269437500Y-51393748I500048J48D01*
G01*
X268937500Y-50650000D02*
G75*
G03*
X268437500Y-50150000I-500000J0D01*
G01*
X271318700Y-60175000D02*
G75*
G03*
X270818750Y-59675000I-500000J0D01*
G01*
X257318500Y-64650000D02*
G75*
G03*
X256818518Y-64150000I-500000J0D01*
G01*
X256818518Y-69200018D02*
G75*
G03*
X257318518Y-68700002I-18J500018D01*
G01*
X254937500Y-63650000D02*
G75*
G03*
X255437500Y-64150000I500000J0D01*
G01*
X268937500Y-50650000D02*
X268937500Y-50893748D01*
X255437500Y-50150000D02*
X268437500Y-50150000D01*
X270318749Y-57643748D02*
X270318749Y-51893748D01*
X269818749Y-58143748D02*
G75*
G03*
X270318748Y-57643749I-16J500015D01*
G01*
X270318748Y-51893748D02*
G75*
G03*
X269818749Y-51393748I-500040J-40D01*
G01*
X269818749Y-51393748D02*
X269437500Y-51393748D01*
X269818749Y-58143748D02*
X269437499Y-58143749D01*
X270818750Y-59675000D02*
X269437500Y-59675000D01*
X268937500Y-59175000D02*
X268937500Y-58643749D01*
X256818518Y-64150000D02*
X255437500Y-64150000D01*
X257318518Y-68700002D02*
X257318518Y-64650000D01*
X307310036Y-124499520D02*
X361812661Y-124499520D01*
X261860036Y-107462500D02*
X261860036Y-92412500D01*
X-8202314Y10200000D02*
G75*
G03*
X-10202314Y8200000I-1J-1999999D01*
G01*
X256870972Y22D02*
G75*
G03*
X254870972Y-1999999I-28J-1999972D01*
G01*
X245396540Y-17050000D02*
X252870973Y-17050000D01*
X53261777Y-17050005D02*
G75*
G03*
X49797686Y-15050000I-3464133J-2000045D01*
G01*
X173295934Y-21050000D02*
X163229166Y-21050000D01*
X305310036Y-112980320D02*
X305310036Y-107462500D01*
X301309994Y-111462500D02*
G75*
G03*
X299310036Y-109462500I-1999950J50D01*
G01*
X361812661Y10200000D02*
X-8202314Y10200000D01*
X242702607Y-15553370D02*
X245396540Y-17050000D01*
X259860036Y-86412442D02*
G75*
G03*
X257860036Y-88412500I8J-2000008D01*
G01*
X231295934Y-17050000D02*
X237295934Y-17050000D01*
X-10202314Y8200000D02*
X-10202314Y-122498140D01*
X254760036Y-23050000D02*
X280260036Y-23050000D01*
X286260036Y-103462500D02*
X286260036Y-57231249D01*
X63328555Y-21050000D02*
X53261787Y-21050000D01*
X263860036Y-90412500D02*
X268060036Y-90412500D01*
X-2202314Y-17050000D02*
X21333584Y-17050000D01*
X282260036Y2000000D02*
X282260036Y4200000D01*
X259860036Y-109462500D02*
X244810036Y-109462500D01*
X-2202315Y-17050000D02*
G75*
G03*
X-2202313Y-21050000I1J-2000000D01*
G01*
X242810036Y-120980320D02*
G75*
G03*
X238810036Y-120980320I-2000000J0D01*
G01*
X73816136Y-105800420D02*
X69066436Y-105800420D01*
X242810036Y-127862020D02*
X242810036Y-120980320D01*
X257860036Y-88412500D02*
X257860036Y-103462500D01*
X301310036Y-112980320D02*
X301310036Y-111462500D01*
X282260036Y-107462500D02*
X282260036Y-92412500D01*
X238810036Y-107462500D02*
X238810036Y-112980320D01*
X276060036Y-90412500D02*
X280260036Y-90412500D01*
X21333590Y-21049995D02*
G75*
G03*
X23259224Y-22742307I3464154J2000045D01*
G01*
X223295934Y-21050000D02*
X180224137Y-21050000D01*
X305309994Y-107462500D02*
G75*
G03*
X303310036Y-105462500I-1999950J50D01*
G01*
X256870973Y0D02*
X280260036Y0D01*
X238810036Y-120980320D02*
X238810036Y-122498140D01*
X286260036Y-57231249D02*
G75*
G03*
X282260036Y-57231249I-2000000J0D01*
G01*
X153229166Y-21050100D02*
G75*
G03*
X153229166Y-17050000I-22J2000050D01*
G01*
X73328555Y-17050000D02*
G75*
G03*
X73328555Y-21050000I-1J-2000000D01*
G01*
X173295935Y-21050000D02*
G75*
G03*
X180224137Y-21050000I3464101J2000001D01*
G01*
X282260036Y-57231249D02*
X282260036Y-84412500D01*
X255860036Y-105462500D02*
X240810036Y-105462500D01*
X180224137Y-17050000D02*
X223295934Y-17050000D01*
X263860036Y-90412442D02*
G75*
G03*
X261860036Y-92412500I8J-2000008D01*
G01*
X51233600Y-22783380D02*
G75*
G03*
X53261785Y-21050000I-1435956J3733430D01*
G01*
X238817464Y-22546629D02*
X247817464Y-27546629D01*
X259860036Y-86412500D02*
X268060036Y-86412500D01*
X361812661Y-124499567D02*
G75*
G03*
X363812661Y-122499520I-17J2000017D01*
G01*
X254760036Y-23049942D02*
G75*
G03*
X253760036Y-24050000I8J-1000008D01*
G01*
X268060036Y-90412600D02*
G75*
G03*
X268060036Y-86412500I8J2000050D01*
G01*
X68066436Y-121797700D02*
X68066436Y-106800420D01*
X-10202313Y-122498140D02*
G75*
G03*
X-8202314Y-124498139I1999999J0D01*
G01*
X299310036Y-129862042D02*
G75*
G03*
X301310036Y-127862020I8J1999992D01*
G01*
X255860036Y-105462542D02*
G75*
G03*
X257860036Y-103462500I8J1999992D01*
G01*
X63328555Y-21050000D02*
G75*
G03*
X63328555Y-17050000I-1J2000000D01*
G01*
X242702620Y-15553343D02*
G75*
G03*
X237295933Y-17050000I-1942576J-3496607D01*
G01*
X-2202314Y-21050000D02*
X21333584Y-21050000D01*
X305310074Y-122499520D02*
G75*
G03*
X307310036Y-124499520I1999970J-30D01*
G01*
X69066436Y-105800442D02*
G75*
G03*
X68066436Y-106800420I8J-1000008D01*
G01*
X286260036Y4200000D02*
G75*
G03*
X282260036Y4200000I-2000000J0D01*
G01*
X238810036Y-112980320D02*
G75*
G03*
X242810036Y-112980320I2000000J0D01*
G01*
X236810036Y-124498140D02*
X-8202314Y-124498140D01*
X252870973Y-17050078D02*
G75*
G03*
X254870972Y-15050000I-29J2000028D01*
G01*
X163229166Y-17050100D02*
G75*
G03*
X163229166Y-21050000I-22J-1999950D01*
G01*
X244810036Y-109462442D02*
G75*
G03*
X242810036Y-111462500I8J-2000008D01*
G01*
X282260094Y-107462500D02*
G75*
G03*
X284260036Y-109462500I1999950J-50D01*
G01*
X363812593Y8200000D02*
G75*
G03*
X361812661Y10199999I-1999949J50D01*
G01*
X74816174Y-106800420D02*
G75*
G03*
X73816136Y-105800420I-1000030J-30D01*
G01*
X244810036Y-129862020D02*
X299310036Y-129862020D01*
X363812661Y-122499520D02*
X363812661Y8200000D01*
X282260036Y-25050000D02*
X282260036Y-49231250D01*
X286260094Y-103462500D02*
G75*
G03*
X288260036Y-105462500I1999950J-50D01*
G01*
X305310036Y-120980320D02*
G75*
G03*
X301310036Y-120980320I-2000000J0D01*
G01*
X299310036Y-109462500D02*
X284260036Y-109462500D01*
X24797686Y-15050000D02*
X49797686Y-15050000D01*
X280260036Y-86412542D02*
G75*
G03*
X282260036Y-84412500I8J1999992D01*
G01*
X282259994Y-25050000D02*
G75*
G03*
X280260036Y-23050000I-1999950J50D01*
G01*
X301310036Y-127862020D02*
X301310036Y-120980320D01*
X74816136Y-106800420D02*
X74816136Y-121797700D01*
X242810074Y-127862020D02*
G75*
G03*
X244810036Y-129862020I1999970J-30D01*
G01*
X153229166Y-21050000D02*
X73328555Y-21050000D01*
X254870973Y-2000000D02*
X254870973Y-15050000D01*
X35259211Y-27742334D02*
G75*
G03*
X38233601Y-27783380I1538433J3692384D01*
G01*
X24797686Y-15050002D02*
G75*
G03*
X21333585Y-17050000I-2J-3999998D01*
G01*
X247817448Y-27546655D02*
G75*
G03*
X253760035Y-24049999I1942596J3496605D01*
G01*
X259860036Y-109462542D02*
G75*
G03*
X261860036Y-107462500I8J1999992D01*
G01*
X236810036Y-124498142D02*
G75*
G03*
X238810036Y-122498140I8J1999992D01*
G01*
X276060036Y-86412400D02*
G75*
G03*
X276060036Y-90412500I8J-2000050D01*
G01*
X73816136Y-122797742D02*
G75*
G03*
X74816136Y-121797700I8J999992D01*
G01*
X163229166Y-17050000D02*
X173295934Y-17050000D01*
X288260036Y-105462500D02*
X303310036Y-105462500D01*
X237295921Y-21050006D02*
G75*
G03*
X238817462Y-22546627I3464123J2000056D01*
G01*
X276060036Y-86412500D02*
X280260036Y-86412500D01*
X53261787Y-17050000D02*
X63328555Y-17050000D01*
X73328555Y-17050000D02*
X153229166Y-17050000D01*
X23259224Y-22742307D02*
X35259224Y-27742307D01*
X280260036Y-42D02*
G75*
G03*
X282260036Y2000000I8J1999992D01*
G01*
X301310036Y-112980320D02*
G75*
G03*
X305310036Y-112980320I2000000J0D01*
G01*
X305310036Y-122499520D02*
X305310036Y-120980320D01*
X240810036Y-105462442D02*
G75*
G03*
X238810036Y-107462500I8J-2000008D01*
G01*
X282260036Y-49231250D02*
G75*
G03*
X286260036Y-49231250I2000000J0D01*
G01*
X286260036Y4200000D02*
X286260036Y-49231250D01*
X180224148Y-17049994D02*
G75*
G03*
X173295936Y-17050001I-3464104J-2000056D01*
G01*
X282259994Y-92412500D02*
G75*
G03*
X280260036Y-90412500I-1999950J50D01*
G01*
X223295934Y-21049900D02*
G75*
G03*
X223295934Y-17050000I10J1999950D01*
G01*
X38233602Y-27783382D02*
X51233602Y-22783382D01*
X242810036Y-111462500D02*
X242810036Y-112980320D01*
X231295934Y-17050100D02*
G75*
G03*
X231295934Y-21050000I10J-1999950D01*
G01*
X237295934Y-21050000D02*
X231295934Y-21050000D01*
X69066436Y-122797700D02*
X73816136Y-122797700D01*
X68066494Y-121797700D02*
G75*
G03*
X69066436Y-122797700I999950J-50D01*
G01*
X-4118750Y-102250000D02*
X-3375000Y-102250001D01*
X20437500Y-102250001D02*
X3375000Y-102250001D01*
X168075000Y-121800001D02*
X168075000Y-121300000D01*
X174825000Y-121800001D02*
X174825000Y-121300001D01*
X177947236Y-121298884D02*
X174825000Y-121300001D01*
X270818750Y-83200050D02*
G75*
G03*
X271318750Y-82700000I-50J500050D01*
G01*
X270075000Y-83700001D02*
X270075000Y-83200000D01*
X270075000Y-83200000D02*
X270818750Y-83200000D01*
X236387500Y-83200000D02*
X239512500Y-83200000D01*
X241893750Y-45600001D02*
X241893750Y-45100000D01*
X248643750Y-45600001D02*
X248643750Y-45100000D01*
X265706250Y-45600001D02*
X265706250Y-45100000D01*
X272456250Y-45600001D02*
X272456250Y-45100000D01*
X273197236Y-45098884D02*
X272456250Y-45100000D01*
X248643750Y-45100000D02*
X265706250Y-45100000D01*
X241150000Y-45100000D02*
X241893750Y-45100000D01*
X241893799Y-45600001D02*
G75*
G03*
X242393750Y-46100001I500001J1D01*
G01*
X242393750Y-46100001D02*
X248143750Y-46100001D01*
X248143750Y-46100050D02*
G75*
G03*
X248643750Y-45600001I-50J500050D01*
G01*
X20437500Y-102750001D02*
G75*
G03*
X20937499Y-103250000I500100J101D01*
G01*
X26687500Y-103250000D02*
G75*
G03*
X27187500Y-102750001I0J500000D01*
G01*
X-3375000Y-102750001D02*
G75*
G03*
X-2875000Y-103250001I500001J1D01*
G01*
X2875000Y-103250000D02*
G75*
G03*
X3375000Y-102750001I0J500000D01*
G01*
X20437500Y-102250001D02*
X20437500Y-102750001D01*
X-2875000Y-103250001D02*
X2875000Y-103250001D01*
X-3375000Y-102250001D02*
X-3375000Y-102750001D01*
X3375000Y-102250001D02*
X3375000Y-102750001D01*
X27187500Y-102250000D02*
X27187500Y-102750001D01*
X20937500Y-103250001D02*
X26687500Y-103250001D01*
X263325000Y-83700001D02*
G75*
G03*
X263824999Y-84200000I500100J101D01*
G01*
X245762500Y-84200000D02*
G75*
G03*
X246262500Y-83700001I0J500000D01*
G01*
X239512499Y-83700001D02*
G75*
G03*
X240012500Y-84200001I500001J1D01*
G01*
X269575000Y-84200000D02*
G75*
G03*
X270075000Y-83700001I0J500000D01*
G01*
X263325000Y-83200000D02*
X263325000Y-83700001D01*
X246262500Y-83200000D02*
X246262500Y-83700001D01*
X240012500Y-84200001D02*
X245762500Y-84200001D01*
X263825000Y-84200001D02*
X269575000Y-84200001D01*
X239512500Y-83200000D02*
X239512500Y-83700001D01*
X265706200Y-45600001D02*
G75*
G03*
X266206249Y-46100000I500100J101D01*
G01*
X271956250Y-46099950D02*
G75*
G03*
X272456250Y-45600001I50J499950D01*
G01*
X266206250Y-46100001D02*
X271956250Y-46100001D01*
X168074999Y-121800001D02*
G75*
G03*
X168574999Y-122300001I500001J1D01*
G01*
X174325000Y-122300000D02*
G75*
G03*
X174825000Y-121800001I0J500000D01*
G01*
X168575000Y-122300001D02*
X174325000Y-122300001D01*
X149024999Y-121800001D02*
G75*
G03*
X149524999Y-122300001I500001J1D01*
G01*
X60524999Y-108800001D02*
G75*
G03*
X60025000Y-108300001I-499999J1D01*
G01*
X53774999Y-121800001D02*
G75*
G03*
X54275000Y-122300001I500001J1D01*
G01*
X155275000Y-122299999D02*
G75*
G03*
X155774999Y-121800001I0J499999D01*
G01*
X54275000Y-108300000D02*
G75*
G03*
X53775000Y-108800001I0J-500000D01*
G01*
X60025000Y-122300000D02*
G75*
G03*
X60525000Y-121800001I0J500000D01*
G01*
X149525000Y-108299999D02*
G75*
G03*
X149024999Y-108800001I0J-500001D01*
G01*
X155773799Y-108800001D02*
G75*
G03*
X155273789Y-108300001I-499999J1D01*
G01*
X149525000Y-122300001D02*
X155275000Y-122300001D01*
X149525000Y-108300001D02*
X155273789Y-108300001D01*
X149025000Y-108800001D02*
X149025000Y-121800001D01*
X155773789Y-108800001D02*
X155775000Y-121800001D01*
X54275000Y-108300001D02*
X60025000Y-108300001D01*
X53775000Y-108800001D02*
X53775000Y-121800001D01*
X54275000Y-122300001D02*
X60025000Y-122300001D01*
X60525000Y-108800001D02*
X60525000Y-121800001D01*
X6497236Y-6998936D02*
G75*
G03*
X6997236Y-6498884I-36J500036D01*
G01*
X-6500000Y7000000D02*
G75*
G03*
X-7000000Y6500000I1J-500001D01*
G01*
X-7000000Y-6500000D02*
G75*
G03*
X-6500000Y-7000000I500001J1D01*
G01*
X7000000Y6500000D02*
G75*
G03*
X6500000Y7000000I-500000J0D01*
G01*
X-7000000Y-6500000D02*
X-7000000Y6500000D01*
X-6500000Y7000000D02*
X6500000Y7000000D01*
X7000000Y6500000D02*
X7000000Y-6500000D01*
X6500000Y-7000000D02*
X-6500000Y-7000000D01*
X121300000Y-107800000D02*
G75*
G03*
X120800000Y-107300000I-500000J0D01*
G01*
X120797236Y-121298836D02*
G75*
G03*
X121297236Y-120798884I64J499936D01*
G01*
X121300000Y-107800000D02*
X121300000Y-120800000D01*
X-4618750Y-82700000D02*
G75*
G03*
X-4118750Y-83200000I500001J1D01*
G01*
X-4118750Y-69200000D02*
G75*
G03*
X-4618750Y-69700000I1J-500001D01*
G01*
X13640986Y-83198884D02*
X-4118750Y-83200000D01*
X-4618750Y-82700000D02*
X-4618750Y-69700000D01*
X-4118750Y-69200000D02*
X13643750Y-69200000D01*
X360113126Y-45098826D02*
G75*
G03*
X360613126Y-44598884I74J499926D01*
G01*
X346615900Y-44600000D02*
G75*
G03*
X347115890Y-45100000I500000J0D01*
G01*
X360615900Y-31600000D02*
G75*
G03*
X360115890Y-31100000I-500000J0D01*
G01*
X347115890Y-31099990D02*
G75*
G03*
X346615890Y-31600000I10J-500010D01*
G01*
X346615890Y-44600000D02*
X346615890Y-31600000D01*
X360115890Y-45100000D02*
X347115890Y-45100000D01*
X347115890Y-31100000D02*
X360115890Y-31100000D01*
X360615890Y-31600000D02*
X360615890Y-44600000D01*
X279057987Y-94107913D02*
G75*
G03*
X278558025Y-93607913I-499987J13D01*
G01*
X278555261Y-107606861D02*
G75*
G03*
X279055261Y-107106797I39J499961D01*
G01*
X265057987Y-107107913D02*
G75*
G03*
X265558025Y-107607913I500013J13D01*
G01*
X265558025Y-93607925D02*
G75*
G03*
X265058025Y-94107913I-25J-499975D01*
G01*
X278558025Y-107607913D02*
X265558025Y-107607913D01*
X265558025Y-93607913D02*
X278558025Y-93607913D01*
X279058025Y-94107913D02*
X279058025Y-107107913D01*
X265058025Y-107107913D02*
X265058025Y-94107913D01*
X-6500000Y-31100000D02*
G75*
G03*
X-7000000Y-31600000I1J-500001D01*
G01*
X7000000Y-31600000D02*
G75*
G03*
X6500000Y-31100000I-500000J0D01*
G01*
X6497236Y-45098836D02*
G75*
G03*
X6997236Y-44598884I64J499936D01*
G01*
X-7000000Y-44600000D02*
G75*
G03*
X-6500000Y-45100000I500001J1D01*
G01*
X6500000Y-45100000D02*
X-6500000Y-45100000D01*
X7000000Y-31600000D02*
X7000000Y-44600000D01*
X-6500000Y-31100000D02*
X6500000Y-31100000D01*
X-7000000Y-44600000D02*
X-7000000Y-31600000D01*
X259505261Y-126656861D02*
G75*
G03*
X260005261Y-126156797I39J499961D01*
G01*
X246508025Y-112657925D02*
G75*
G03*
X246008025Y-113157913I-25J-499975D01*
G01*
X246007987Y-126157913D02*
G75*
G03*
X246508025Y-126657913I500013J13D01*
G01*
X260007987Y-113157913D02*
G75*
G03*
X259508025Y-112657913I-499987J13D01*
G01*
X246508025Y-112657913D02*
X259508025Y-112657913D01*
X246008025Y-126157913D02*
X246008025Y-113157913D01*
X260008025Y-113157913D02*
X260008025Y-126157913D01*
X259508025Y-126657913D02*
X246508025Y-126657913D01*
X303465900Y6500000D02*
G75*
G03*
X302965890Y7000000I-500000J0D01*
G01*
X289965890Y7000010D02*
G75*
G03*
X289465890Y6500000I10J-500010D01*
G01*
X302963126Y-6998826D02*
G75*
G03*
X303463126Y-6498884I74J499926D01*
G01*
X289465900Y-6500000D02*
G75*
G03*
X289965890Y-7000000I500000J0D01*
G01*
X302965890Y-7000000D02*
X289965890Y-7000000D01*
X289465890Y-6500000D02*
X289465890Y6500000D01*
X289965890Y7000000D02*
X302965890Y7000000D01*
X303465890Y6500000D02*
X303465890Y-6500000D01*
X49955069Y-6998869D02*
G75*
G03*
X50455069Y-6498884I31J499969D01*
G01*
X36957833Y6999967D02*
G75*
G03*
X36457833Y6500000I-33J-499967D01*
G01*
X50457800Y6500000D02*
G75*
G03*
X49957833Y7000000I-500000J0D01*
G01*
X36457800Y-6500000D02*
G75*
G03*
X36957833Y-7000000I500000J0D01*
G01*
X49957833Y-7000000D02*
X36957833Y-7000000D01*
X36457833Y-6500000D02*
X36457833Y6500000D01*
X50457833Y6500000D02*
X50457833Y-6500000D01*
X36957833Y7000000D02*
X49957833Y7000000D01*
X251170831Y-6998831D02*
G75*
G03*
X251670831Y-6498884I69J499931D01*
G01*
X238173595Y7000005D02*
G75*
G03*
X237673595Y6500000I5J-500005D01*
G01*
X251673600Y6500000D02*
G75*
G03*
X251173595Y7000000I-500000J0D01*
G01*
X237673600Y-6500000D02*
G75*
G03*
X238173595Y-7000000I500000J0D01*
G01*
X251173595Y-7000000D02*
X238173595Y-7000000D01*
X251673595Y6500000D02*
X251673595Y-6500000D01*
X237673595Y-6500000D02*
X237673595Y6500000D01*
X238173595Y7000000D02*
X251173595Y7000000D01*
X88250080Y-120800120D02*
G75*
G03*
X88750100Y-121300120I500020J20D01*
G01*
X88750100Y-107300100D02*
G75*
G03*
X88250100Y-107800120I0J-500000D01*
G01*
X120797236Y-121298884D02*
X88750100Y-121300120D01*
X88250100Y-120800120D02*
X88250100Y-107800120D01*
X88750100Y-107300120D02*
X120800000Y-107300000D01*
X302963126Y-83198826D02*
G75*
G03*
X303463126Y-82698884I74J499926D01*
G01*
X289965890Y-69199990D02*
G75*
G03*
X289465890Y-69700000I10J-500010D01*
G01*
X303465900Y-69700000D02*
G75*
G03*
X302965890Y-69200000I-500000J0D01*
G01*
X289465900Y-82700000D02*
G75*
G03*
X289965890Y-83200000I500000J0D01*
G01*
X302965890Y-83200000D02*
X289965890Y-83200000D01*
X289965890Y-69200000D02*
X302965890Y-69200000D01*
X289465890Y-82700000D02*
X289465890Y-69700000D01*
X303465890Y-69700000D02*
X303465890Y-82700000D01*
X309015890Y-69199990D02*
G75*
G03*
X308515890Y-69700000I10J-500010D01*
G01*
X308515900Y-82700000D02*
G75*
G03*
X309015890Y-83200000I500000J0D01*
G01*
X322515900Y-69700000D02*
G75*
G03*
X322015890Y-69200000I-500000J0D01*
G01*
X322013126Y-83198826D02*
G75*
G03*
X322513126Y-82698884I74J499926D01*
G01*
X322015890Y-83200000D02*
X309015890Y-83200000D01*
X309015890Y-69200000D02*
X322015890Y-69200000D01*
X322515890Y-69700000D02*
X322515890Y-82700000D01*
X308515890Y-82700000D02*
X308515890Y-69700000D01*
X328065890Y-50149990D02*
G75*
G03*
X327565890Y-50650000I10J-500010D01*
G01*
X341565900Y-50650000D02*
G75*
G03*
X341065890Y-50150000I-500000J0D01*
G01*
X327565900Y-63650000D02*
G75*
G03*
X328065890Y-64150000I500000J0D01*
G01*
X341063126Y-64148826D02*
G75*
G03*
X341563126Y-63648884I74J499926D01*
G01*
X341565890Y-50650000D02*
X341565890Y-63650000D01*
X327565890Y-63650000D02*
X327565890Y-50650000D01*
X328065890Y-50150000D02*
X341065890Y-50150000D01*
X341065890Y-64150000D02*
X328065890Y-64150000D01*
X322515900Y-50650000D02*
G75*
G03*
X322015890Y-50150000I-500000J0D01*
G01*
X322013126Y-64148826D02*
G75*
G03*
X322513126Y-63648884I74J499926D01*
G01*
X309015890Y-50149990D02*
G75*
G03*
X308515890Y-50650000I10J-500010D01*
G01*
X308515900Y-63650000D02*
G75*
G03*
X309015890Y-64150000I500000J0D01*
G01*
X309015890Y-50150000D02*
X322015890Y-50150000D01*
X322515890Y-50650000D02*
X322515890Y-63650000D01*
X322015890Y-64150000D02*
X309015890Y-64150000D01*
X308515890Y-63650000D02*
X308515890Y-50650000D01*
X302963126Y-64148826D02*
G75*
G03*
X303463126Y-63648884I74J499926D01*
G01*
X289965890Y-50149990D02*
G75*
G03*
X289465890Y-50650000I10J-500010D01*
G01*
X303465900Y-50650000D02*
G75*
G03*
X302965890Y-50150000I-500000J0D01*
G01*
X289465900Y-63650000D02*
G75*
G03*
X289965890Y-64150000I500000J0D01*
G01*
X303465890Y-50650000D02*
X303465890Y-63650000D01*
X289465890Y-63650000D02*
X289465890Y-50650000D01*
X302965890Y-64150000D02*
X289965890Y-64150000D01*
X289965890Y-50150000D02*
X302965890Y-50150000D01*
X341565900Y-69700000D02*
G75*
G03*
X341065890Y-69200000I-500000J0D01*
G01*
X341063126Y-83198826D02*
G75*
G03*
X341563126Y-82698884I74J499926D01*
G01*
X327565900Y-82700000D02*
G75*
G03*
X328065890Y-83200000I500000J0D01*
G01*
X328065890Y-69199990D02*
G75*
G03*
X327565890Y-69700000I10J-500010D01*
G01*
X328065890Y-69200000D02*
X341065890Y-69200000D01*
X341065890Y-83200000D02*
X328065890Y-83200000D01*
X327565890Y-82700000D02*
X327565890Y-69700000D01*
X341565890Y-69700000D02*
X341565890Y-82700000D01*
X341063126Y-45098826D02*
G75*
G03*
X341563126Y-44598884I74J499926D01*
G01*
X328065890Y-31099990D02*
G75*
G03*
X327565890Y-31600000I10J-500010D01*
G01*
X341565900Y-31600000D02*
G75*
G03*
X341065890Y-31100000I-500000J0D01*
G01*
X327565900Y-44600000D02*
G75*
G03*
X328065890Y-45100000I500000J0D01*
G01*
X328065890Y-31100000D02*
X341065890Y-31100000D01*
X341065890Y-45100000D02*
X328065890Y-45100000D01*
X341565890Y-31600000D02*
X341565890Y-44600000D01*
X327565890Y-44600000D02*
X327565890Y-31600000D01*
X308515900Y-44600000D02*
G75*
G03*
X309015890Y-45100000I500000J0D01*
G01*
X322515900Y-31600000D02*
G75*
G03*
X322015890Y-31100000I-500000J0D01*
G01*
X322013126Y-45098826D02*
G75*
G03*
X322513126Y-44598884I74J499926D01*
G01*
X309015890Y-31099990D02*
G75*
G03*
X308515890Y-31600000I10J-500010D01*
G01*
X309015890Y-31100000D02*
X322015890Y-31100000D01*
X308515890Y-44600000D02*
X308515890Y-31600000D01*
X322515890Y-31600000D02*
X322515890Y-44600000D01*
X322015890Y-45100000D02*
X309015890Y-45100000D01*
X302963126Y-45098826D02*
G75*
G03*
X303463126Y-44598884I74J499926D01*
G01*
X303465900Y-31600000D02*
G75*
G03*
X302965890Y-31100000I-500000J0D01*
G01*
X289965890Y-31099990D02*
G75*
G03*
X289465890Y-31600000I10J-500010D01*
G01*
X289465900Y-44600000D02*
G75*
G03*
X289965890Y-45100000I500000J0D01*
G01*
X289965890Y-31100000D02*
X302965890Y-31100000D01*
X303465890Y-31600000D02*
X303465890Y-44600000D01*
X289465890Y-44600000D02*
X289465890Y-31600000D01*
X302965890Y-45100000D02*
X289965890Y-45100000D01*
X360615900Y-12550000D02*
G75*
G03*
X360115890Y-12050000I-500000J0D01*
G01*
X347115890Y-12049990D02*
G75*
G03*
X346615890Y-12550000I10J-500010D01*
G01*
X360113126Y-26048826D02*
G75*
G03*
X360613126Y-25548884I74J499926D01*
G01*
X346615900Y-25550000D02*
G75*
G03*
X347115890Y-26050000I500000J0D01*
G01*
X346615890Y-25550000D02*
X346615890Y-12550000D01*
X360115890Y-26050000D02*
X347115890Y-26050000D01*
X347115890Y-12050000D02*
X360115890Y-12050000D01*
X360615890Y-12550000D02*
X360615890Y-25550000D01*
X327565900Y-25550000D02*
G75*
G03*
X328065890Y-26050000I500000J0D01*
G01*
X328065890Y-12049990D02*
G75*
G03*
X327565890Y-12550000I10J-500010D01*
G01*
X341063126Y-26048826D02*
G75*
G03*
X341563126Y-25548884I74J499926D01*
G01*
X341565900Y-12550000D02*
G75*
G03*
X341065890Y-12050000I-500000J0D01*
G01*
X341565890Y-12550000D02*
X341565890Y-25550000D01*
X327565890Y-25550000D02*
X327565890Y-12550000D01*
X328065890Y-12050000D02*
X341065890Y-12050000D01*
X341065890Y-26050000D02*
X328065890Y-26050000D01*
X360113126Y-6998826D02*
G75*
G03*
X360613126Y-6498884I74J499926D01*
G01*
X347115890Y7000010D02*
G75*
G03*
X346615890Y6500000I10J-500010D01*
G01*
X360615900Y6500000D02*
G75*
G03*
X360115890Y7000000I-500000J0D01*
G01*
X346615900Y-6500000D02*
G75*
G03*
X347115890Y-7000000I500000J0D01*
G01*
X346615890Y-6500000D02*
X346615890Y6500000D01*
X360115890Y-7000000D02*
X347115890Y-7000000D01*
X360615890Y6500000D02*
X360615890Y-6500000D01*
X347115890Y7000000D02*
X360115890Y7000000D01*
X302963126Y-26048826D02*
G75*
G03*
X303463126Y-25548884I74J499926D01*
G01*
X303465900Y-12550000D02*
G75*
G03*
X302965890Y-12050000I-500000J0D01*
G01*
X289465900Y-25550000D02*
G75*
G03*
X289965890Y-26050000I500000J0D01*
G01*
X289965890Y-12049990D02*
G75*
G03*
X289465890Y-12550000I10J-500010D01*
G01*
X289465890Y-25550000D02*
X289465890Y-12550000D01*
X303465890Y-12550000D02*
X303465890Y-25550000D01*
X289965890Y-12050000D02*
X302965890Y-12050000D01*
X302965890Y-26050000D02*
X289965890Y-26050000D01*
X341565900Y6500000D02*
G75*
G03*
X341065890Y7000000I-500000J0D01*
G01*
X328065890Y7000010D02*
G75*
G03*
X327565890Y6500000I10J-500010D01*
G01*
X341063126Y-6998826D02*
G75*
G03*
X341563126Y-6498884I74J499926D01*
G01*
X327565900Y-6500000D02*
G75*
G03*
X328065890Y-7000000I500000J0D01*
G01*
X328065890Y7000000D02*
X341065890Y7000000D01*
X341565890Y6500000D02*
X341565890Y-6500000D01*
X327565890Y-6500000D02*
X327565890Y6500000D01*
X341065890Y-7000000D02*
X328065890Y-7000000D01*
X308515900Y-25550000D02*
G75*
G03*
X309015890Y-26050000I500000J0D01*
G01*
X309015890Y-12049990D02*
G75*
G03*
X308515890Y-12550000I10J-500010D01*
G01*
X322013126Y-26048826D02*
G75*
G03*
X322513126Y-25548884I74J499926D01*
G01*
X322515900Y-12550000D02*
G75*
G03*
X322015890Y-12050000I-500000J0D01*
G01*
X322515890Y-12550000D02*
X322515890Y-25550000D01*
X309015890Y-12050000D02*
X322015890Y-12050000D01*
X308515890Y-25550000D02*
X308515890Y-12550000D01*
X322015890Y-26050000D02*
X309015890Y-26050000D01*
X322515900Y6500000D02*
G75*
G03*
X322015890Y7000000I-500000J0D01*
G01*
X309015890Y7000010D02*
G75*
G03*
X308515890Y6500000I10J-500010D01*
G01*
X322013126Y-6998826D02*
G75*
G03*
X322513126Y-6498884I74J499926D01*
G01*
X308515900Y-6500000D02*
G75*
G03*
X309015890Y-7000000I500000J0D01*
G01*
X309015890Y7000000D02*
X322015890Y7000000D01*
X322515890Y6500000D02*
X322515890Y-6500000D01*
X322015890Y-7000000D02*
X309015890Y-7000000D01*
X308515890Y-6500000D02*
X308515890Y6500000D01*
X308515900Y-120800000D02*
G75*
G03*
X309015890Y-121300000I500000J0D01*
G01*
X322515900Y-107800000D02*
G75*
G03*
X322015890Y-107300000I-500000J0D01*
G01*
X322013126Y-121298826D02*
G75*
G03*
X322513126Y-120798884I74J499926D01*
G01*
X309015890Y-107299990D02*
G75*
G03*
X308515890Y-107800000I10J-500010D01*
G01*
X309015890Y-107300000D02*
X322015890Y-107300000D01*
X322515890Y-107800000D02*
X322515890Y-120800000D01*
X308515890Y-120800000D02*
X308515890Y-107800000D01*
X322015890Y-121300000D02*
X309015890Y-121300000D01*
X200073595Y7000005D02*
G75*
G03*
X199573595Y6500000I5J-500005D01*
G01*
X213070831Y-6998831D02*
G75*
G03*
X213570831Y-6498884I69J499931D01*
G01*
X199573600Y-6500000D02*
G75*
G03*
X200073595Y-7000000I500000J0D01*
G01*
X213573600Y6500000D02*
G75*
G03*
X213073595Y7000000I-500000J0D01*
G01*
X200073595Y7000000D02*
X213073595Y7000000D01*
X199573595Y-6500000D02*
X199573595Y6500000D01*
X213573595Y6500000D02*
X213573595Y-6500000D01*
X213073595Y-7000000D02*
X200073595Y-7000000D01*
X99465714Y6999986D02*
G75*
G03*
X98965714Y6500000I-14J-499986D01*
G01*
X112462950Y-6998850D02*
G75*
G03*
X112962950Y-6498884I50J499950D01*
G01*
X98965700Y-6500000D02*
G75*
G03*
X99465714Y-7000000I500000J0D01*
G01*
X112965700Y6500000D02*
G75*
G03*
X112465714Y7000000I-500000J0D01*
G01*
X99465714Y7000000D02*
X112465714Y7000000D01*
X112965714Y6500000D02*
X112965714Y-6500000D01*
X112465714Y-7000000D02*
X99465714Y-7000000D01*
X98965714Y-6500000D02*
X98965714Y6500000D01*
X30905069Y-6998869D02*
G75*
G03*
X31405069Y-6498884I31J499969D01*
G01*
X31407800Y6500000D02*
G75*
G03*
X30907833Y7000000I-500000J0D01*
G01*
X17907833Y6999967D02*
G75*
G03*
X17407833Y6500000I-33J-499967D01*
G01*
X17407800Y-6500000D02*
G75*
G03*
X17907833Y-7000000I500000J0D01*
G01*
X17407833Y-6500000D02*
X17407833Y6500000D01*
X30907833Y-7000000D02*
X17907833Y-7000000D01*
X31407833Y6500000D02*
X31407833Y-6500000D01*
X17907833Y7000000D02*
X30907833Y7000000D01*
X197500000Y-31600000D02*
G75*
G03*
X197000000Y-31100000I-500000J0D01*
G01*
X183500000Y-44600000D02*
G75*
G03*
X184000000Y-45100000I500000J0D01*
G01*
X196997236Y-45098836D02*
G75*
G03*
X197497236Y-44598884I64J499936D01*
G01*
X184000000Y-31100000D02*
G75*
G03*
X183500000Y-31600000I0J-500000D01*
G01*
X197000000Y-45100000D02*
X184000000Y-45100000D01*
X183500000Y-44600000D02*
X183500000Y-31600000D01*
X184000000Y-31100000D02*
X197000000Y-31100000D01*
X197500000Y-31600000D02*
X197500000Y-44600000D01*
X49359736Y-102248836D02*
G75*
G03*
X49859736Y-101748884I64J499936D01*
G01*
X35862500Y-101750000D02*
G75*
G03*
X36362500Y-102250000I500000J0D01*
G01*
X49862500Y-88750000D02*
G75*
G03*
X49362500Y-88250000I-500000J0D01*
G01*
X36362500Y-88250000D02*
G75*
G03*
X35862500Y-88750000I0J-500000D01*
G01*
X49862500Y-88750000D02*
X49862500Y-101750000D01*
X35862500Y-101750000D02*
X35862500Y-88750000D01*
X49362500Y-102250000D02*
X36362500Y-102250000D01*
X36362500Y-88250000D02*
X49362500Y-88250000D01*
X45100000Y-107800000D02*
G75*
G03*
X44600000Y-107300000I-500000J0D01*
G01*
X44597236Y-121298836D02*
G75*
G03*
X45097236Y-120798884I64J499936D01*
G01*
X45100000Y-107800000D02*
X45100000Y-120800000D01*
X328065890Y-107299990D02*
G75*
G03*
X327565890Y-107800000I10J-500010D01*
G01*
X327565900Y-120800000D02*
G75*
G03*
X328065890Y-121300000I500000J0D01*
G01*
X341063126Y-121298826D02*
G75*
G03*
X341563126Y-120798884I74J499926D01*
G01*
X341565900Y-107800000D02*
G75*
G03*
X341065890Y-107300000I-500000J0D01*
G01*
X328065890Y-107300000D02*
X341065890Y-107300000D01*
X327565890Y-120800000D02*
X327565890Y-107800000D01*
X341065890Y-121300000D02*
X328065890Y-121300000D01*
X341565890Y-107800000D02*
X341565890Y-120800000D01*
X298107987Y-113157913D02*
G75*
G03*
X297608025Y-112657913I-499987J13D01*
G01*
X284608025Y-112657925D02*
G75*
G03*
X284108025Y-113157913I-25J-499975D01*
G01*
X284107987Y-126157913D02*
G75*
G03*
X284608025Y-126657913I500013J13D01*
G01*
X297605261Y-126656861D02*
G75*
G03*
X298105261Y-126156797I39J499961D01*
G01*
X284608025Y-112657913D02*
X297608025Y-112657913D01*
X298108025Y-113157913D02*
X298108025Y-126157913D01*
X297608025Y-126657913D02*
X284608025Y-126657913D01*
X284108025Y-126157913D02*
X284108025Y-113157913D01*
X265558025Y-112657925D02*
G75*
G03*
X265058025Y-113157913I-25J-499975D01*
G01*
X279057987Y-113157913D02*
G75*
G03*
X278558025Y-112657913I-499987J13D01*
G01*
X265057987Y-126157913D02*
G75*
G03*
X265558025Y-126657913I500013J13D01*
G01*
X278555261Y-126656861D02*
G75*
G03*
X279055261Y-126156797I39J499961D01*
G01*
X265058025Y-126157913D02*
X265058025Y-113157913D01*
X279058025Y-113157913D02*
X279058025Y-126157913D01*
X265558025Y-112657913D02*
X278558025Y-112657913D01*
X278558025Y-126657913D02*
X265558025Y-126657913D01*
X235097236Y-121298836D02*
G75*
G03*
X235597236Y-120798884I64J499936D01*
G01*
X235600000Y-107800000D02*
G75*
G03*
X235100000Y-107300000I-500000J0D01*
G01*
X235600000Y-107800000D02*
X235600000Y-120800000D01*
X184000000Y-107300000D02*
G75*
G03*
X183500000Y-107800000I0J-500000D01*
G01*
X183500000Y-120800000D02*
G75*
G03*
X184000000Y-121300000I500000J0D01*
G01*
X235097236Y-121298884D02*
X184000000Y-121300000D01*
X184000000Y-107300000D02*
X235100000Y-107300000D01*
X183500000Y-120800000D02*
X183500000Y-107800000D01*
X164450000Y-120800000D02*
G75*
G03*
X164950000Y-121300000I500000J0D01*
G01*
X164950000Y-107300000D02*
G75*
G03*
X164450000Y-107800000I0J-500000D01*
G01*
X177947236Y-121298836D02*
G75*
G03*
X178447236Y-120798884I64J499936D01*
G01*
X178450000Y-107800000D02*
G75*
G03*
X177950000Y-107300000I-500000J0D01*
G01*
X164450000Y-120800000D02*
X164450000Y-107800000D01*
X178450000Y-107800000D02*
X178450000Y-120800000D01*
X164950000Y-107300000D02*
X177950000Y-107300000D01*
X168075000Y-121300000D02*
X164950000Y-121300000D01*
X-6500000Y-107300000D02*
G75*
G03*
X-7000000Y-107800000I1J-500001D01*
G01*
X-7000000Y-120800000D02*
G75*
G03*
X-6500000Y-121300000I500001J1D01*
G01*
X44597236Y-121298884D02*
X-6500000Y-121300000D01*
X-7000000Y-120800000D02*
X-7000000Y-107800000D01*
X-6500000Y-107300000D02*
X44600000Y-107300000D01*
X328065890Y-88249990D02*
G75*
G03*
X327565890Y-88750000I10J-500010D01*
G01*
X341063126Y-102248826D02*
G75*
G03*
X341563126Y-101748884I74J499926D01*
G01*
X341565900Y-88750000D02*
G75*
G03*
X341065890Y-88250000I-500000J0D01*
G01*
X327565900Y-101750000D02*
G75*
G03*
X328065890Y-102250000I500000J0D01*
G01*
X341565890Y-88750000D02*
X341565890Y-101750000D01*
X341065890Y-102250000D02*
X328065890Y-102250000D01*
X328065890Y-88250000D02*
X341065890Y-88250000D01*
X327565890Y-101750000D02*
X327565890Y-88750000D01*
X322515900Y-88750000D02*
G75*
G03*
X322015890Y-88250000I-500000J0D01*
G01*
X322013126Y-102248826D02*
G75*
G03*
X322513126Y-101748884I74J499926D01*
G01*
X309015890Y-88249990D02*
G75*
G03*
X308515890Y-88750000I10J-500010D01*
G01*
X308515900Y-101750000D02*
G75*
G03*
X309015890Y-102250000I500000J0D01*
G01*
X322015890Y-102250000D02*
X309015890Y-102250000D01*
X322515890Y-88750000D02*
X322515890Y-101750000D01*
X308515890Y-101750000D02*
X308515890Y-88750000D01*
X309015890Y-88250000D02*
X322015890Y-88250000D01*
X289965890Y-88249990D02*
G75*
G03*
X289465890Y-88750000I10J-500010D01*
G01*
X303465900Y-88750000D02*
G75*
G03*
X302965890Y-88250000I-500000J0D01*
G01*
X302963126Y-102248826D02*
G75*
G03*
X303463126Y-101748884I74J499926D01*
G01*
X289465900Y-101750000D02*
G75*
G03*
X289965890Y-102250000I500000J0D01*
G01*
X302965890Y-102250000D02*
X289965890Y-102250000D01*
X303465890Y-88750000D02*
X303465890Y-101750000D01*
X289465890Y-101750000D02*
X289465890Y-88750000D01*
X289965890Y-88250000D02*
X302965890Y-88250000D01*
X234006250Y-88249950D02*
G75*
G03*
X233506250Y-88750000I50J-500050D01*
G01*
X233506300Y-101750000D02*
G75*
G03*
X234006250Y-102250000I500000J0D01*
G01*
X247003486Y-102248886D02*
G75*
G03*
X247503486Y-101748884I14J499986D01*
G01*
X247506200Y-88750000D02*
G75*
G03*
X247006250Y-88250000I-500000J0D01*
G01*
X234006250Y-88250000D02*
X247006250Y-88250000D01*
X233506250Y-101750000D02*
X233506250Y-88750000D01*
X247006250Y-102250000D02*
X234006250Y-102250000D01*
X247506250Y-88750000D02*
X247506250Y-101750000D01*
X220809736Y-102248836D02*
G75*
G03*
X221309736Y-101748884I64J499936D01*
G01*
X207812500Y-88250000D02*
G75*
G03*
X207312500Y-88750000I0J-500000D01*
G01*
X221312500Y-88750000D02*
G75*
G03*
X220812500Y-88250000I-500000J0D01*
G01*
X207312500Y-101750000D02*
G75*
G03*
X207812500Y-102250000I500000J0D01*
G01*
X220812500Y-102250000D02*
X207812500Y-102250000D01*
X207312500Y-101750000D02*
X207312500Y-88750000D01*
X221312500Y-88750000D02*
X221312500Y-101750000D01*
X207812500Y-88250000D02*
X220812500Y-88250000D01*
X201759736Y-102248836D02*
G75*
G03*
X202259736Y-101748884I64J499936D01*
G01*
X202262500Y-88750000D02*
G75*
G03*
X201762500Y-88250000I-500000J0D01*
G01*
X188762500Y-88250000D02*
G75*
G03*
X188262500Y-88750000I0J-500000D01*
G01*
X188262500Y-101750000D02*
G75*
G03*
X188762500Y-102250000I500000J0D01*
G01*
X202262500Y-88750000D02*
X202262500Y-101750000D01*
X188262500Y-101750000D02*
X188262500Y-88750000D01*
X201762500Y-102250000D02*
X188762500Y-102250000D01*
X188762500Y-88250000D02*
X201762500Y-88250000D01*
X182709736Y-102248836D02*
G75*
G03*
X183209736Y-101748884I64J499936D01*
G01*
X183212500Y-88750000D02*
G75*
G03*
X182712500Y-88250000I-500000J0D01*
G01*
X169212500Y-101750000D02*
G75*
G03*
X169712500Y-102250000I500000J0D01*
G01*
X169712500Y-88250000D02*
G75*
G03*
X169212500Y-88750000I0J-500000D01*
G01*
X169712500Y-88250000D02*
X182712500Y-88250000D01*
X182712500Y-102250000D02*
X169712500Y-102250000D01*
X169212500Y-101750000D02*
X169212500Y-88750000D01*
X183212500Y-88750000D02*
X183212500Y-101750000D01*
X150662500Y-88250000D02*
G75*
G03*
X150162500Y-88750000I0J-500000D01*
G01*
X164162500Y-88750000D02*
G75*
G03*
X163662500Y-88250000I-500000J0D01*
G01*
X163659736Y-102248836D02*
G75*
G03*
X164159736Y-101748884I64J499936D01*
G01*
X150162500Y-101750000D02*
G75*
G03*
X150662500Y-102250000I500000J0D01*
G01*
X150662500Y-88250000D02*
X163662500Y-88250000D01*
X164162500Y-88750000D02*
X164162500Y-101750000D01*
X150162500Y-101750000D02*
X150162500Y-88750000D01*
X163662500Y-102250000D02*
X150662500Y-102250000D01*
X144609736Y-102248836D02*
G75*
G03*
X145109736Y-101748884I64J499936D01*
G01*
X145112500Y-88750000D02*
G75*
G03*
X144612500Y-88250000I-500000J0D01*
G01*
X131112500Y-101750000D02*
G75*
G03*
X131612500Y-102250000I500000J0D01*
G01*
X131612500Y-88250000D02*
G75*
G03*
X131112500Y-88750000I0J-500000D01*
G01*
X144612500Y-102250000D02*
X131612500Y-102250000D01*
X131112500Y-101750000D02*
X131112500Y-88750000D01*
X131612500Y-88250000D02*
X144612500Y-88250000D01*
X145112500Y-88750000D02*
X145112500Y-101750000D01*
X112062500Y-101750000D02*
G75*
G03*
X112562500Y-102250000I500000J0D01*
G01*
X126062500Y-88750000D02*
G75*
G03*
X125562500Y-88250000I-500000J0D01*
G01*
X112562500Y-88250000D02*
G75*
G03*
X112062500Y-88750000I0J-500000D01*
G01*
X125559736Y-102248836D02*
G75*
G03*
X126059736Y-101748884I64J499936D01*
G01*
X126062500Y-88750000D02*
X126062500Y-101750000D01*
X112562500Y-88250000D02*
X125562500Y-88250000D01*
X125562500Y-102250000D02*
X112562500Y-102250000D01*
X112062500Y-101750000D02*
X112062500Y-88750000D01*
X106509736Y-102248836D02*
G75*
G03*
X107009736Y-101748884I64J499936D01*
G01*
X107012500Y-88750000D02*
G75*
G03*
X106512500Y-88250000I-500000J0D01*
G01*
X93512500Y-88250000D02*
G75*
G03*
X93012500Y-88750000I0J-500000D01*
G01*
X93012500Y-101750000D02*
G75*
G03*
X93512500Y-102250000I500000J0D01*
G01*
X107012500Y-88750000D02*
X107012500Y-101750000D01*
X93512500Y-88250000D02*
X106512500Y-88250000D01*
X106512500Y-102250000D02*
X93512500Y-102250000D01*
X93012500Y-101750000D02*
X93012500Y-88750000D01*
X87962500Y-88750000D02*
G75*
G03*
X87462500Y-88250000I-500000J0D01*
G01*
X74462500Y-88250000D02*
G75*
G03*
X73962500Y-88750000I0J-500000D01*
G01*
X87459736Y-102248836D02*
G75*
G03*
X87959736Y-101748884I64J499936D01*
G01*
X73962500Y-101750000D02*
G75*
G03*
X74462500Y-102250000I500000J0D01*
G01*
X74462500Y-88250000D02*
X87462500Y-88250000D01*
X87962500Y-88750000D02*
X87962500Y-101750000D01*
X73962500Y-101750000D02*
X73962500Y-88750000D01*
X87462500Y-102250000D02*
X74462500Y-102250000D01*
X68409736Y-102248836D02*
G75*
G03*
X68909736Y-101748884I64J499936D01*
G01*
X68912500Y-88750000D02*
G75*
G03*
X68412500Y-88250000I-500000J0D01*
G01*
X54912500Y-101750000D02*
G75*
G03*
X55412500Y-102250000I500000J0D01*
G01*
X55412500Y-88250000D02*
G75*
G03*
X54912500Y-88750000I0J-500000D01*
G01*
X54912500Y-101750000D02*
X54912500Y-88750000D01*
X55412500Y-88250000D02*
X68412500Y-88250000D01*
X68412500Y-102250000D02*
X55412500Y-102250000D01*
X68912500Y-88750000D02*
X68912500Y-101750000D01*
X30309736Y-102248836D02*
G75*
G03*
X30809736Y-101748884I64J499936D01*
G01*
X30812500Y-88750000D02*
G75*
G03*
X30312500Y-88250000I-500000J0D01*
G01*
X30812500Y-88750000D02*
X30812500Y-101750000D01*
X-4118750Y-88250000D02*
G75*
G03*
X-4618750Y-88750000I1J-500001D01*
G01*
X-4618750Y-101750000D02*
G75*
G03*
X-4118750Y-102250000I500001J1D01*
G01*
X-4118750Y-88250000D02*
X30312500Y-88250000D01*
X30309736Y-102248884D02*
X27187500Y-102250000D01*
X-4618750Y-101750000D02*
X-4618750Y-88750000D01*
X263325000Y-83200000D02*
X246262500Y-83200000D01*
X236387500Y-69200000D02*
X256818518Y-69200002D01*
X271318750Y-60175000D02*
X271318750Y-82700000D01*
X235887500Y-82700000D02*
G75*
G03*
X236387500Y-83200000I500000J0D01*
G01*
X236387500Y-69200000D02*
G75*
G03*
X235887500Y-69700000I0J-500000D01*
G01*
X235887500Y-82700000D02*
X235887500Y-69700000D01*
X230837500Y-69700000D02*
G75*
G03*
X230337500Y-69200000I-500000J0D01*
G01*
X217337500Y-69200000D02*
G75*
G03*
X216837500Y-69700000I0J-500000D01*
G01*
X216837500Y-82700000D02*
G75*
G03*
X217337500Y-83200000I500000J0D01*
G01*
X230334736Y-83198836D02*
G75*
G03*
X230834736Y-82698884I64J499936D01*
G01*
X217337500Y-69200000D02*
X230337500Y-69200000D01*
X230337500Y-83200000D02*
X217337500Y-83200000D01*
X216837500Y-82700000D02*
X216837500Y-69700000D01*
X230837500Y-69700000D02*
X230837500Y-82700000D01*
X197787500Y-82700000D02*
G75*
G03*
X198287500Y-83200000I500000J0D01*
G01*
X198287500Y-69200000D02*
G75*
G03*
X197787500Y-69700000I0J-500000D01*
G01*
X211284736Y-83198836D02*
G75*
G03*
X211784736Y-82698884I64J499936D01*
G01*
X211787500Y-69700000D02*
G75*
G03*
X211287500Y-69200000I-500000J0D01*
G01*
X211287500Y-83200000D02*
X198287500Y-83200000D01*
X211787500Y-69700000D02*
X211787500Y-82700000D01*
X198287500Y-69200000D02*
X211287500Y-69200000D01*
X197787500Y-82700000D02*
X197787500Y-69700000D01*
X179237500Y-69200000D02*
G75*
G03*
X178737500Y-69700000I0J-500000D01*
G01*
X192234736Y-83198836D02*
G75*
G03*
X192734736Y-82698884I64J499936D01*
G01*
X192737500Y-69700000D02*
G75*
G03*
X192237500Y-69200000I-500000J0D01*
G01*
X178737500Y-82700000D02*
G75*
G03*
X179237500Y-83200000I500000J0D01*
G01*
X178737500Y-82700000D02*
X178737500Y-69700000D01*
X179237500Y-69200000D02*
X192237500Y-69200000D01*
X192237500Y-83200000D02*
X179237500Y-83200000D01*
X192737500Y-69700000D02*
X192737500Y-82700000D01*
X160187500Y-69200000D02*
G75*
G03*
X159687500Y-69700000I0J-500000D01*
G01*
X159687500Y-82700000D02*
G75*
G03*
X160187500Y-83200000I500000J0D01*
G01*
X173184736Y-83198836D02*
G75*
G03*
X173684736Y-82698884I64J499936D01*
G01*
X173687500Y-69700000D02*
G75*
G03*
X173187500Y-69200000I-500000J0D01*
G01*
X160187500Y-69200000D02*
X173187500Y-69200000D01*
X173187500Y-83200000D02*
X160187500Y-83200000D01*
X159687500Y-82700000D02*
X159687500Y-69700000D01*
X173687500Y-69700000D02*
X173687500Y-82700000D01*
X154637500Y-69700000D02*
G75*
G03*
X154137500Y-69200000I-500000J0D01*
G01*
X141137500Y-69200000D02*
G75*
G03*
X140637500Y-69700000I0J-500000D01*
G01*
X154134736Y-83198836D02*
G75*
G03*
X154634736Y-82698884I64J499936D01*
G01*
X140637500Y-82700000D02*
G75*
G03*
X141137500Y-83200000I500000J0D01*
G01*
X141137500Y-69200000D02*
X154137500Y-69200000D01*
X154637500Y-69700000D02*
X154637500Y-82700000D01*
X154137500Y-83200000D02*
X141137500Y-83200000D01*
X140637500Y-82700000D02*
X140637500Y-69700000D01*
X135587500Y-69700000D02*
G75*
G03*
X135087500Y-69200000I-500000J0D01*
G01*
X121587500Y-82700000D02*
G75*
G03*
X122087500Y-83200000I500000J0D01*
G01*
X122087500Y-69200000D02*
G75*
G03*
X121587500Y-69700000I0J-500000D01*
G01*
X135084736Y-83198836D02*
G75*
G03*
X135584736Y-82698884I64J499936D01*
G01*
X135587500Y-69700000D02*
X135587500Y-82700000D01*
X121587500Y-82700000D02*
X121587500Y-69700000D01*
X135087500Y-83200000D02*
X122087500Y-83200000D01*
X122087500Y-69200000D02*
X135087500Y-69200000D01*
X102537500Y-82700000D02*
G75*
G03*
X103037500Y-83200000I500000J0D01*
G01*
X116537500Y-69700000D02*
G75*
G03*
X116037500Y-69200000I-500000J0D01*
G01*
X116034736Y-83198836D02*
G75*
G03*
X116534736Y-82698884I64J499936D01*
G01*
X103037500Y-69200000D02*
G75*
G03*
X102537500Y-69700000I0J-500000D01*
G01*
X116537500Y-69700000D02*
X116537500Y-82700000D01*
X103037500Y-69200000D02*
X116037500Y-69200000D01*
X116037500Y-83200000D02*
X103037500Y-83200000D01*
X102537500Y-82700000D02*
X102537500Y-69700000D01*
X96984736Y-83198836D02*
G75*
G03*
X97484736Y-82698884I64J499936D01*
G01*
X83487500Y-82700000D02*
G75*
G03*
X83987500Y-83200000I500000J0D01*
G01*
X97487500Y-69700000D02*
G75*
G03*
X96987500Y-69200000I-500000J0D01*
G01*
X83987500Y-69200000D02*
G75*
G03*
X83487500Y-69700000I0J-500000D01*
G01*
X96987500Y-83200000D02*
X83987500Y-83200000D01*
X83487500Y-82700000D02*
X83487500Y-69700000D01*
X83987500Y-69200000D02*
X96987500Y-69200000D01*
X97487500Y-69700000D02*
X97487500Y-82700000D01*
X64937500Y-69200000D02*
G75*
G03*
X64437500Y-69700000I0J-500000D01*
G01*
X77934736Y-83198836D02*
G75*
G03*
X78434736Y-82698884I64J499936D01*
G01*
X78437500Y-69700000D02*
G75*
G03*
X77937500Y-69200000I-500000J0D01*
G01*
X64437500Y-82700000D02*
G75*
G03*
X64937500Y-83200000I500000J0D01*
G01*
X77937500Y-83200000D02*
X64937500Y-83200000D01*
X78437500Y-69700000D02*
X78437500Y-82700000D01*
X64437500Y-82700000D02*
X64437500Y-69700000D01*
X64937500Y-69200000D02*
X77937500Y-69200000D01*
X45887500Y-69200000D02*
G75*
G03*
X45387500Y-69700000I0J-500000D01*
G01*
X59387500Y-69700000D02*
G75*
G03*
X58887500Y-69200000I-500000J0D01*
G01*
X45387500Y-82700000D02*
G75*
G03*
X45887500Y-83200000I500000J0D01*
G01*
X58884736Y-83198836D02*
G75*
G03*
X59384736Y-82698884I64J499936D01*
G01*
X58887500Y-83200000D02*
X45887500Y-83200000D01*
X45387500Y-82700000D02*
X45387500Y-69700000D01*
X59387500Y-69700000D02*
X59387500Y-82700000D01*
X45887500Y-69200000D02*
X58887500Y-69200000D01*
X40337500Y-69700000D02*
G75*
G03*
X39837500Y-69200000I-500000J0D01*
G01*
X26837500Y-69200000D02*
G75*
G03*
X26337500Y-69700000I0J-500000D01*
G01*
X39834736Y-83198836D02*
G75*
G03*
X40334736Y-82698884I64J499936D01*
G01*
X26337500Y-82700000D02*
G75*
G03*
X26837500Y-83200000I500000J0D01*
G01*
X26837500Y-69200000D02*
X39837500Y-69200000D01*
X39837500Y-83200000D02*
X26837500Y-83200000D01*
X26337500Y-82700000D02*
X26337500Y-69700000D01*
X40337500Y-69700000D02*
X40337500Y-82700000D01*
X14143700Y-69700000D02*
G75*
G03*
X13643750Y-69200000I-500000J0D01*
G01*
X13640986Y-83198886D02*
G75*
G03*
X14140986Y-82698884I14J499986D01*
G01*
X14143750Y-69700000D02*
X14143750Y-82700000D01*
X255437500Y-50150000D02*
G75*
G03*
X254937500Y-50650000I0J-500000D01*
G01*
X254937500Y-63650000D02*
X254937500Y-50650000D01*
X244622236Y-64148836D02*
G75*
G03*
X245122236Y-63648884I64J499936D01*
G01*
X231125000Y-63650000D02*
G75*
G03*
X231625000Y-64150000I500000J0D01*
G01*
X231625000Y-50150000D02*
G75*
G03*
X231125000Y-50650000I0J-500000D01*
G01*
X245125000Y-50650000D02*
G75*
G03*
X244625000Y-50150000I-500000J0D01*
G01*
X231125000Y-63650000D02*
X231125000Y-50650000D01*
X231625000Y-50150000D02*
X244625000Y-50150000D01*
X244625000Y-64150000D02*
X231625000Y-64150000D01*
X245125000Y-50650000D02*
X245125000Y-63650000D01*
X225572236Y-64148836D02*
G75*
G03*
X226072236Y-63648884I64J499936D01*
G01*
X226075000Y-50650000D02*
G75*
G03*
X225575000Y-50150000I-500000J0D01*
G01*
X212575000Y-50150000D02*
G75*
G03*
X212075000Y-50650000I0J-500000D01*
G01*
X212075000Y-63650000D02*
G75*
G03*
X212575000Y-64150000I500000J0D01*
G01*
X225575000Y-64150000D02*
X212575000Y-64150000D01*
X212075000Y-63650000D02*
X212075000Y-50650000D01*
X226075000Y-50650000D02*
X226075000Y-63650000D01*
X212575000Y-50150000D02*
X225575000Y-50150000D01*
X207025000Y-50650000D02*
G75*
G03*
X206525000Y-50150000I-500000J0D01*
G01*
X193025000Y-63650000D02*
G75*
G03*
X193525000Y-64150000I500000J0D01*
G01*
X193525000Y-50150000D02*
G75*
G03*
X193025000Y-50650000I0J-500000D01*
G01*
X206522236Y-64148836D02*
G75*
G03*
X207022236Y-63648884I64J499936D01*
G01*
X206525000Y-64150000D02*
X193525000Y-64150000D01*
X193025000Y-63650000D02*
X193025000Y-50650000D01*
X193525000Y-50150000D02*
X206525000Y-50150000D01*
X207025000Y-50650000D02*
X207025000Y-63650000D01*
X173975000Y-63650000D02*
G75*
G03*
X174475000Y-64150000I500000J0D01*
G01*
X187472236Y-64148836D02*
G75*
G03*
X187972236Y-63648884I64J499936D01*
G01*
X174475000Y-50150000D02*
G75*
G03*
X173975000Y-50650000I0J-500000D01*
G01*
X187975000Y-50650000D02*
G75*
G03*
X187475000Y-50150000I-500000J0D01*
G01*
X187975000Y-50650000D02*
X187975000Y-63650000D01*
X187475000Y-64150000D02*
X174475000Y-64150000D01*
X173975000Y-63650000D02*
X173975000Y-50650000D01*
X174475000Y-50150000D02*
X187475000Y-50150000D01*
X155425000Y-50150000D02*
G75*
G03*
X154925000Y-50650000I0J-500000D01*
G01*
X168925000Y-50650000D02*
G75*
G03*
X168425000Y-50150000I-500000J0D01*
G01*
X168422236Y-64148836D02*
G75*
G03*
X168922236Y-63648884I64J499936D01*
G01*
X154925000Y-63650000D02*
G75*
G03*
X155425000Y-64150000I500000J0D01*
G01*
X168425000Y-64150000D02*
X155425000Y-64150000D01*
X155425000Y-50150000D02*
X168425000Y-50150000D01*
X154925000Y-63650000D02*
X154925000Y-50650000D01*
X168925000Y-50650000D02*
X168925000Y-63650000D01*
X136375000Y-50150000D02*
G75*
G03*
X135875000Y-50650000I0J-500000D01*
G01*
X149372236Y-64148836D02*
G75*
G03*
X149872236Y-63648884I64J499936D01*
G01*
X149875000Y-50650000D02*
G75*
G03*
X149375000Y-50150000I-500000J0D01*
G01*
X135875000Y-63650000D02*
G75*
G03*
X136375000Y-64150000I500000J0D01*
G01*
X135875000Y-63650000D02*
X135875000Y-50650000D01*
X136375000Y-50150000D02*
X149375000Y-50150000D01*
X149875000Y-50650000D02*
X149875000Y-63650000D01*
X149375000Y-64150000D02*
X136375000Y-64150000D01*
X117325000Y-50150000D02*
G75*
G03*
X116825000Y-50650000I0J-500000D01*
G01*
X130825000Y-50650000D02*
G75*
G03*
X130325000Y-50150000I-500000J0D01*
G01*
X130322236Y-64148836D02*
G75*
G03*
X130822236Y-63648884I64J499936D01*
G01*
X116825000Y-63650000D02*
G75*
G03*
X117325000Y-64150000I500000J0D01*
G01*
X130825000Y-50650000D02*
X130825000Y-63650000D01*
X116825000Y-63650000D02*
X116825000Y-50650000D01*
X130325000Y-64150000D02*
X117325000Y-64150000D01*
X117325000Y-50150000D02*
X130325000Y-50150000D01*
X98275000Y-50150000D02*
G75*
G03*
X97775000Y-50650000I0J-500000D01*
G01*
X97775000Y-63650000D02*
G75*
G03*
X98275000Y-64150000I500000J0D01*
G01*
X111272236Y-64148836D02*
G75*
G03*
X111772236Y-63648884I64J499936D01*
G01*
X111775000Y-50650000D02*
G75*
G03*
X111275000Y-50150000I-500000J0D01*
G01*
X97775000Y-63650000D02*
X97775000Y-50650000D01*
X98275000Y-50150000D02*
X111275000Y-50150000D01*
X111275000Y-64150000D02*
X98275000Y-64150000D01*
X111775000Y-50650000D02*
X111775000Y-63650000D01*
X79225000Y-50150000D02*
G75*
G03*
X78725000Y-50650000I0J-500000D01*
G01*
X78725000Y-63650000D02*
G75*
G03*
X79225000Y-64150000I500000J0D01*
G01*
X92222236Y-64148836D02*
G75*
G03*
X92722236Y-63648884I64J499936D01*
G01*
X92725000Y-50650000D02*
G75*
G03*
X92225000Y-50150000I-500000J0D01*
G01*
X92725000Y-50650000D02*
X92725000Y-63650000D01*
X78725000Y-63650000D02*
X78725000Y-50650000D01*
X79225000Y-50150000D02*
X92225000Y-50150000D01*
X92225000Y-64150000D02*
X79225000Y-64150000D01*
X59675000Y-63650000D02*
G75*
G03*
X60175000Y-64150000I500000J0D01*
G01*
X60175000Y-50150000D02*
G75*
G03*
X59675000Y-50650000I0J-500000D01*
G01*
X73172236Y-64148836D02*
G75*
G03*
X73672236Y-63648884I64J499936D01*
G01*
X73675000Y-50650000D02*
G75*
G03*
X73175000Y-50150000I-500000J0D01*
G01*
X73175000Y-64150000D02*
X60175000Y-64150000D01*
X59675000Y-63650000D02*
X59675000Y-50650000D01*
X73675000Y-50650000D02*
X73675000Y-63650000D01*
X60175000Y-50150000D02*
X73175000Y-50150000D01*
X40625000Y-63650000D02*
G75*
G03*
X41125000Y-64150000I500000J0D01*
G01*
X41125000Y-50150000D02*
G75*
G03*
X40625000Y-50650000I0J-500000D01*
G01*
X54122236Y-64148836D02*
G75*
G03*
X54622236Y-63648884I64J499936D01*
G01*
X54625000Y-50650000D02*
G75*
G03*
X54125000Y-50150000I-500000J0D01*
G01*
X40625000Y-63650000D02*
X40625000Y-50650000D01*
X54125000Y-64150000D02*
X41125000Y-64150000D01*
X41125000Y-50150000D02*
X54125000Y-50150000D01*
X54625000Y-50650000D02*
X54625000Y-63650000D01*
X35072236Y-64148836D02*
G75*
G03*
X35572236Y-63648884I64J499936D01*
G01*
X35575000Y-50650000D02*
G75*
G03*
X35075000Y-50150000I-500000J0D01*
G01*
X22075000Y-50150000D02*
G75*
G03*
X21575000Y-50650000I0J-500000D01*
G01*
X21575000Y-63650000D02*
G75*
G03*
X22075000Y-64150000I500000J0D01*
G01*
X21575000Y-63650000D02*
X21575000Y-50650000D01*
X35075000Y-64150000D02*
X22075000Y-64150000D01*
X35575000Y-50650000D02*
X35575000Y-63650000D01*
X22075000Y-50150000D02*
X35075000Y-50150000D01*
X-1737500Y-50150000D02*
G75*
G03*
X-2237500Y-50650000I1J-500001D01*
G01*
X11259736Y-64148836D02*
G75*
G03*
X11759736Y-63648884I64J499936D01*
G01*
X-2237500Y-63650000D02*
G75*
G03*
X-1737500Y-64150000I500001J1D01*
G01*
X11762500Y-50650000D02*
G75*
G03*
X11262500Y-50150000I-500000J0D01*
G01*
X11262500Y-64150000D02*
X-1737500Y-64150000D01*
X-2237500Y-63650000D02*
X-2237500Y-50650000D01*
X-1737500Y-50150000D02*
X11262500Y-50150000D01*
X11762500Y-50650000D02*
X11762500Y-63650000D01*
X235097236Y-45098836D02*
G75*
G03*
X235597236Y-44598884I64J499936D01*
G01*
X221600000Y-44600000D02*
G75*
G03*
X222100000Y-45100000I500000J0D01*
G01*
X222100000Y-31100000D02*
G75*
G03*
X221600000Y-31600000I0J-500000D01*
G01*
X235600000Y-31600000D02*
G75*
G03*
X235100000Y-31100000I-500000J0D01*
G01*
X222100000Y-31100000D02*
X235100000Y-31100000D01*
X235600000Y-31600000D02*
X235600000Y-44600000D01*
X221600000Y-44600000D02*
X221600000Y-31600000D01*
X235100000Y-45100000D02*
X222100000Y-45100000D01*
X216047236Y-45098836D02*
G75*
G03*
X216547236Y-44598884I64J499936D01*
G01*
X202550000Y-44600000D02*
G75*
G03*
X203050000Y-45100000I500000J0D01*
G01*
X203050000Y-31100000D02*
G75*
G03*
X202550000Y-31600000I0J-500000D01*
G01*
X216550000Y-31600000D02*
G75*
G03*
X216050000Y-31100000I-500000J0D01*
G01*
X216050000Y-45100000D02*
X203050000Y-45100000D01*
X202550000Y-44600000D02*
X202550000Y-31600000D01*
X203050000Y-31100000D02*
X216050000Y-31100000D01*
X216550000Y-31600000D02*
X216550000Y-44600000D01*
X164950000Y-31100000D02*
G75*
G03*
X164450000Y-31600000I0J-500000D01*
G01*
X177947236Y-45098836D02*
G75*
G03*
X178447236Y-44598884I64J499936D01*
G01*
X178450000Y-31600000D02*
G75*
G03*
X177950000Y-31100000I-500000J0D01*
G01*
X164450000Y-44600000D02*
G75*
G03*
X164950000Y-45100000I500000J0D01*
G01*
X164450000Y-44600000D02*
X164450000Y-31600000D01*
X164950000Y-31100000D02*
X177950000Y-31100000D01*
X177950000Y-45100000D02*
X164950000Y-45100000D01*
X178450000Y-31600000D02*
X178450000Y-44600000D01*
X145400000Y-44600000D02*
G75*
G03*
X145900000Y-45100000I500000J0D01*
G01*
X159400000Y-31600000D02*
G75*
G03*
X158900000Y-31100000I-500000J0D01*
G01*
X158897236Y-45098836D02*
G75*
G03*
X159397236Y-44598884I64J499936D01*
G01*
X145900000Y-31100000D02*
G75*
G03*
X145400000Y-31600000I0J-500000D01*
G01*
X158900000Y-45100000D02*
X145900000Y-45100000D01*
X145900000Y-31100000D02*
X158900000Y-31100000D01*
X145400000Y-44600000D02*
X145400000Y-31600000D01*
X159400000Y-31600000D02*
X159400000Y-44600000D01*
X139847236Y-45098836D02*
G75*
G03*
X140347236Y-44598884I64J499936D01*
G01*
X126350000Y-44600000D02*
G75*
G03*
X126850000Y-45100000I500000J0D01*
G01*
X126850000Y-31100000D02*
G75*
G03*
X126350000Y-31600000I0J-500000D01*
G01*
X140350000Y-31600000D02*
G75*
G03*
X139850000Y-31100000I-500000J0D01*
G01*
X126850000Y-31100000D02*
X139850000Y-31100000D01*
X139850000Y-45100000D02*
X126850000Y-45100000D01*
X126350000Y-44600000D02*
X126350000Y-31600000D01*
X140350000Y-31600000D02*
X140350000Y-44600000D01*
X121300000Y-31600000D02*
G75*
G03*
X120800000Y-31100000I-500000J0D01*
G01*
X107800000Y-31100000D02*
G75*
G03*
X107300000Y-31600000I0J-500000D01*
G01*
X107300000Y-44600000D02*
G75*
G03*
X107800000Y-45100000I500000J0D01*
G01*
X120797236Y-45098836D02*
G75*
G03*
X121297236Y-44598884I64J499936D01*
G01*
X107800000Y-31100000D02*
X120800000Y-31100000D01*
X107300000Y-44600000D02*
X107300000Y-31600000D01*
X120800000Y-45100000D02*
X107800000Y-45100000D01*
X121300000Y-31600000D02*
X121300000Y-44600000D01*
X88750000Y-31100000D02*
G75*
G03*
X88250000Y-31600000I0J-500000D01*
G01*
X102250000Y-31600000D02*
G75*
G03*
X101750000Y-31100000I-500000J0D01*
G01*
X101747236Y-45098836D02*
G75*
G03*
X102247236Y-44598884I64J499936D01*
G01*
X88250000Y-44600000D02*
G75*
G03*
X88750000Y-45100000I500000J0D01*
G01*
X101750000Y-45100000D02*
X88750000Y-45100000D01*
X102250000Y-31600000D02*
X102250000Y-44600000D01*
X88750000Y-31100000D02*
X101750000Y-31100000D01*
X88250000Y-44600000D02*
X88250000Y-31600000D01*
X69700000Y-31100000D02*
G75*
G03*
X69200000Y-31600000I0J-500000D01*
G01*
X82697236Y-45098836D02*
G75*
G03*
X83197236Y-44598884I64J499936D01*
G01*
X69200000Y-44600000D02*
G75*
G03*
X69700000Y-45100000I500000J0D01*
G01*
X83200000Y-31600000D02*
G75*
G03*
X82700000Y-31100000I-500000J0D01*
G01*
X69200000Y-44600000D02*
X69200000Y-31600000D01*
X82700000Y-45100000D02*
X69700000Y-45100000D01*
X83200000Y-31600000D02*
X83200000Y-44600000D01*
X69700000Y-31100000D02*
X82700000Y-31100000D01*
X50150000Y-44600000D02*
G75*
G03*
X50650000Y-45100000I500000J0D01*
G01*
X63647236Y-45098836D02*
G75*
G03*
X64147236Y-44598884I64J499936D01*
G01*
X64150000Y-31600000D02*
G75*
G03*
X63650000Y-31100000I-500000J0D01*
G01*
X50650000Y-31100000D02*
G75*
G03*
X50150000Y-31600000I0J-500000D01*
G01*
X50650000Y-31100000D02*
X63650000Y-31100000D01*
X63650000Y-45100000D02*
X50650000Y-45100000D01*
X64150000Y-31600000D02*
X64150000Y-44600000D01*
X50150000Y-44600000D02*
X50150000Y-31600000D01*
X31100000Y-44600000D02*
G75*
G03*
X31600000Y-45100000I500000J0D01*
G01*
X44597236Y-45098836D02*
G75*
G03*
X45097236Y-44598884I64J499936D01*
G01*
X31600000Y-31100000D02*
G75*
G03*
X31100000Y-31600000I0J-500000D01*
G01*
X45100000Y-31600000D02*
G75*
G03*
X44600000Y-31100000I-500000J0D01*
G01*
X31600000Y-31100000D02*
X44600000Y-31100000D01*
X45100000Y-31600000D02*
X45100000Y-44600000D01*
X44600000Y-45100000D02*
X31600000Y-45100000D01*
X31100000Y-44600000D02*
X31100000Y-31600000D01*
X26050000Y-31600000D02*
G75*
G03*
X25550000Y-31100000I-500000J0D01*
G01*
X25547236Y-45098836D02*
G75*
G03*
X26047236Y-44598884I64J499936D01*
G01*
X12550000Y-31100000D02*
G75*
G03*
X12050000Y-31600000I0J-500000D01*
G01*
X12050000Y-44600000D02*
G75*
G03*
X12550000Y-45100000I500000J0D01*
G01*
X12550000Y-31100000D02*
X25550000Y-31100000D01*
X26050000Y-31600000D02*
X26050000Y-44600000D01*
X25550000Y-45100000D02*
X12550000Y-45100000D01*
X12050000Y-44600000D02*
X12050000Y-31600000D01*
X232623600Y6500000D02*
G75*
G03*
X232123595Y7000000I-500000J0D01*
G01*
X232120831Y-6998831D02*
G75*
G03*
X232620831Y-6498884I69J499931D01*
G01*
X218623600Y-6500000D02*
G75*
G03*
X219123595Y-7000000I500000J0D01*
G01*
X219123595Y7000005D02*
G75*
G03*
X218623595Y6500000I5J-500005D01*
G01*
X232123595Y-7000000D02*
X219123595Y-7000000D01*
X232623595Y6500000D02*
X232623595Y-6500000D01*
X219123595Y7000000D02*
X232123595Y7000000D01*
X218623595Y-6500000D02*
X218623595Y6500000D01*
X194020831Y-6998831D02*
G75*
G03*
X194520831Y-6498884I69J499931D01*
G01*
X180523600Y-6500000D02*
G75*
G03*
X181023595Y-7000000I500000J0D01*
G01*
X181023595Y7000005D02*
G75*
G03*
X180523595Y6500000I5J-500005D01*
G01*
X194523600Y6500000D02*
G75*
G03*
X194023595Y7000000I-500000J0D01*
G01*
X194023595Y-7000000D02*
X181023595Y-7000000D01*
X180523595Y-6500000D02*
X180523595Y6500000D01*
X194523595Y6500000D02*
X194523595Y-6500000D01*
X181023595Y7000000D02*
X194023595Y7000000D01*
X170115700Y6500000D02*
G75*
G03*
X169615714Y7000000I-500000J0D01*
G01*
X156615714Y6999986D02*
G75*
G03*
X156115714Y6500000I-14J-499986D01*
G01*
X156115700Y-6500000D02*
G75*
G03*
X156615714Y-7000000I500000J0D01*
G01*
X169612950Y-6998850D02*
G75*
G03*
X170112950Y-6498884I50J499950D01*
G01*
X156615714Y7000000D02*
X169615714Y7000000D01*
X170115714Y6500000D02*
X170115714Y-6500000D01*
X169615714Y-7000000D02*
X156615714Y-7000000D01*
X156115714Y-6500000D02*
X156115714Y6500000D01*
X137565714Y6999986D02*
G75*
G03*
X137065714Y6500000I-14J-499986D01*
G01*
X150562950Y-6998850D02*
G75*
G03*
X151062950Y-6498884I50J499950D01*
G01*
X151065700Y6500000D02*
G75*
G03*
X150565714Y7000000I-500000J0D01*
G01*
X137065700Y-6500000D02*
G75*
G03*
X137565714Y-7000000I500000J0D01*
G01*
X137565714Y7000000D02*
X150565714Y7000000D01*
X150565714Y-7000000D02*
X137565714Y-7000000D01*
X151065714Y6500000D02*
X151065714Y-6500000D01*
X137065714Y-6500000D02*
X137065714Y6500000D01*
X131512950Y-6998850D02*
G75*
G03*
X132012950Y-6498884I50J499950D01*
G01*
X118015700Y-6500000D02*
G75*
G03*
X118515714Y-7000000I500000J0D01*
G01*
X118515714Y6999986D02*
G75*
G03*
X118015714Y6500000I-14J-499986D01*
G01*
X132015700Y6500000D02*
G75*
G03*
X131515714Y7000000I-500000J0D01*
G01*
X132015714Y6500000D02*
X132015714Y-6500000D01*
X118015714Y-6500000D02*
X118015714Y6500000D01*
X118515714Y7000000D02*
X131515714Y7000000D01*
X131515714Y-7000000D02*
X118515714Y-7000000D01*
X88055069Y-6998869D02*
G75*
G03*
X88555069Y-6498884I31J499969D01*
G01*
X75057833Y6999967D02*
G75*
G03*
X74557833Y6500000I-33J-499967D01*
G01*
X74557800Y-6500000D02*
G75*
G03*
X75057833Y-7000000I500000J0D01*
G01*
X88557800Y6500000D02*
G75*
G03*
X88057833Y7000000I-500000J0D01*
G01*
X88057833Y-7000000D02*
X75057833Y-7000000D01*
X74557833Y-6500000D02*
X74557833Y6500000D01*
X88557833Y6500000D02*
X88557833Y-6500000D01*
X75057833Y7000000D02*
X88057833Y7000000D01*
X69005069Y-6998869D02*
G75*
G03*
X69505069Y-6498884I31J499969D01*
G01*
X55507800Y-6500000D02*
G75*
G03*
X56007833Y-7000000I500000J0D01*
G01*
X56007833Y6999967D02*
G75*
G03*
X55507833Y6500000I-33J-499967D01*
G01*
X69507800Y6500000D02*
G75*
G03*
X69007833Y7000000I-500000J0D01*
G01*
X69507833Y6500000D02*
X69507833Y-6500000D01*
X56007833Y7000000D02*
X69007833Y7000000D01*
X55507833Y-6500000D02*
X55507833Y6500000D01*
X69007833Y-7000000D02*
X56007833Y-7000000D01*
X240650000Y-44600000D02*
G75*
G03*
X241150000Y-45100000I500000J0D01*
G01*
X241150000Y-31100000D02*
G75*
G03*
X240650000Y-31600000I0J-500000D01*
G01*
X241150000Y-31100000D02*
X273200000Y-31100000D01*
X240650000Y-44600000D02*
X240650000Y-31600000D01*
X273197236Y-45098836D02*
G75*
G03*
X273697236Y-44598884I64J499936D01*
G01*
X273700000Y-31600000D02*
G75*
G03*
X273200000Y-31100000I-500000J0D01*
G01*
X273700000Y-31600000D02*
X273700000Y-44600000D01*
M02*
