M48
; DRILL file {KiCad (5.1.6)-1} date 06/29/20 21:46:54
; FORMAT={3:3/ absolute / metric / suppress leading zeros}
; #@! TF.CreationDate,2020-06-29T21:46:54+02:00
; #@! TF.GenerationSoftware,Kicad,Pcbnew,(5.1.6)-1
FMAT,2
METRIC,TZ
T1C0.400
T2C0.600
T3C0.900
T4C1.000
T5C1.040
T6C1.470
T7C0.650
T8C1.750
T9C3.048
T10C3.988
T11C4.000
T12C6.000
%
G90
G05
T1
X20638Y9843
X39648Y9843
X58698Y9843
X77724Y9843
X91440Y9843
X102172Y9843
X121285Y9843
X140272Y9843
X159258Y9843
X167108Y-119634
X175109Y-121158
X183769Y9843
X202819Y9843
X221869Y9843
X239498Y-82804
X240792Y9843
X246483Y-82931
X256442Y11895
X257070Y11129
X257683Y10351
X257786Y-76073
X258445Y9645
X259143Y13971
X259183Y-78232
X259461Y8692
X260524Y7295
X261366Y11685
X264351Y14077
X266001Y7875
X266383Y11304
X266509Y-3619
X268478Y20511
X269177Y-3619
X269438Y13216
X269870Y7759
X271272Y16447
X271653Y-571
X271709Y25861
X271957Y15685
X272046Y3124
X273216Y1715
X273216Y15685
X273304Y17717
X275058Y24384
X275058Y23114
X275058Y21844
X276733Y-3614
X276860Y22289
X277114Y191
X277368Y13018
X277876Y-1142
X277962Y12226
X278304Y-112538
X278384Y21527
X278575Y-2095
X278618Y11483
X279273Y10732
X279400Y-1142
X279973Y10032
X280162Y17209
X280202Y-2095
X280892Y-1079
X281621Y-2095
X282337Y-1079
X283040Y-2095
X283440Y15685
X283782Y-1079
X283821Y-124206
X284226Y-11874
X284734Y16955
X285177Y-31004
X285281Y3683
X285496Y-2603
X285567Y-50054
X285623Y-69024
X286051Y-88154
X286639Y8065
X288227Y5589
X289282Y-7747
X289282Y-24130
X289282Y-43180
X289282Y-62230
X289282Y-81280
X289409Y-104992
X290298Y11303
X291568Y8636
X295283Y11303
X296584Y8636
X300267Y11303
X301601Y8636
X302236Y27940
X304268Y27940
X304268Y21590
X305252Y11303
X306617Y8636
X308229Y12320
X309220Y12320
X310210Y12320
X311634Y8636
X312650Y13589
X312853Y21184
X314047Y11049
X314072Y21184
X314262Y3112
X314809Y16002
X315014Y3930
X316587Y13589
X317603Y16002
X318289Y21184
X318339Y20168
X320778Y21590
X320778Y19812
X320778Y18288
X322302Y23114
X322302Y18288
X323826Y23114
X323826Y21590
X323826Y19812
X323826Y18288
X328906Y27940
X328906Y21590
X328906Y19812
T3
X263128Y-5358
X265668Y-5358
X270272Y-5358
X272812Y-5358
X277416Y-5358
X279956Y-5358
T4
X257341Y26098
X257341Y23559
X257341Y21019
X257341Y18479
T5
X260667Y-62230
X263208Y-62230
X236855Y-62230
X239395Y-62230
X255905Y-43180
X258445Y-43180
X222568Y-81280
X225108Y-81280
X227330Y-43180
X229870Y-43180
X295196Y-81280
X297736Y-81280
X123746Y-5080
X126286Y-5080
X170180Y-119380
X172720Y-119380
X108268Y-81280
X110807Y-81280
X314246Y-24130
X316786Y-24130
X333296Y-100330
X335836Y-100330
X333296Y-119380
X335836Y-119380
X79693Y-100330
X82233Y-100330
X208280Y-119380
X210820Y-119380
X3493Y-62230
X6033Y-62230
X46355Y-62230
X48895Y-62230
X333296Y-81280
X335836Y-81280
X17780Y-43180
X20320Y-43180
X352346Y-62230
X354886Y-62230
X-1270Y-43180
X1270Y-43180
X103505Y-62230
X106045Y-62230
X93980Y-43180
X96520Y-43180
X189230Y-119380
X191770Y-119380
X127318Y-81280
X129857Y-81280
X170180Y-43180
X172720Y-43180
X251738Y-124738
X254278Y-124738
X113030Y-43180
X115570Y-43180
X113030Y-119380
X115570Y-119380
X239236Y-100330
X241776Y-100330
X93980Y-119380
X96520Y-119380
X352346Y-109855
X354886Y-109855
X241617Y-81280
X244158Y-81280
X141605Y-62230
X144145Y-62230
X208280Y-43180
X210820Y-43180
X84455Y-62230
X86995Y-62230
X55880Y-43180
X58420Y-43180
X160655Y-62230
X163195Y-62230
X314246Y-5080
X316786Y-5080
X213042Y-100330
X215583Y-100330
X314246Y-81280
X316786Y-81280
X142796Y-5080
X145336Y-5080
X60643Y-100330
X63182Y-100330
X243404Y-5080
X245944Y-5080
X227330Y-119380
X229870Y-119380
X193992Y-100330
X196533Y-100330
X270788Y-124738
X273328Y-124738
X65405Y-62230
X67945Y-62230
X-1270Y-5080
X1270Y-5080
X333296Y-62230
X335836Y-62230
X80288Y-5080
X82828Y-5080
X179705Y-62230
X182245Y-62230
X189230Y-43180
X191770Y-43180
X51118Y-81280
X53658Y-81280
X333296Y-5080
X335836Y-5080
X17780Y-119380
X20320Y-119380
X352346Y-81280
X354886Y-81280
X161846Y-5080
X164386Y-5080
X174943Y-100330
X177483Y-100330
X98743Y-100330
X101283Y-100330
X22543Y-100330
X25083Y-100330
X136843Y-100330
X139382Y-100330
X3493Y-119380
X6033Y-119380
X1111Y-81280
X3651Y-81280
X198755Y-62230
X201295Y-62230
X42188Y-5080
X44728Y-5080
X253524Y-81280
X256064Y-81280
X104696Y-5080
X107236Y-5080
X146368Y-81280
X148908Y-81280
X314246Y-43180
X316786Y-43180
X89218Y-81280
X91758Y-81280
X295196Y-43180
X297736Y-43180
X295196Y-100330
X297736Y-100330
X333296Y-43180
X335836Y-43180
X205304Y-5080
X207844Y-5080
X23138Y-5080
X25678Y-5080
X-1270Y-119380
X1270Y-119380
X270788Y-105688
X273328Y-105688
X32067Y-119380
X34608Y-119380
X113030Y-119380
X115570Y-119380
X259239Y-65405
X259239Y-67945
X184468Y-81280
X187008Y-81280
X352346Y-5080
X354886Y-5080
X70168Y-81280
X72707Y-81280
X186254Y-5080
X188794Y-5080
X32067Y-81280
X34608Y-81280
X151130Y-43180
X153670Y-43180
X314246Y-62230
X316786Y-62230
X352346Y-24130
X354886Y-24130
X36830Y-119380
X39370Y-119380
X352346Y-43180
X354886Y-43180
X132080Y-43180
X134620Y-43180
X1111Y-100330
X3651Y-100330
X61238Y-5080
X63778Y-5080
X117793Y-100330
X120333Y-100330
X155892Y-100330
X158433Y-100330
X193992Y-119380
X196533Y-119380
X27305Y-62230
X29845Y-62230
X122555Y-62230
X125095Y-62230
X295196Y-24130
X297736Y-24130
X203517Y-81280
X206058Y-81280
X295196Y-5080
X297736Y-5080
X165418Y-81280
X167958Y-81280
X74930Y-43180
X77470Y-43180
X295196Y-62230
X297736Y-62230
X36830Y-43180
X39370Y-43180
X314246Y-119380
X316786Y-119380
X217805Y-62230
X220345Y-62230
X224354Y-5080
X226894Y-5080
X10636Y-100330
X13176Y-100330
X333296Y-24130
X335836Y-24130
X289838Y-124738
X292378Y-124738
X41593Y-100330
X44133Y-100330
X314246Y-100330
X316786Y-100330
X5874Y-81280
X8414Y-81280
X222568Y-119380
X225108Y-119380
T6
X3334Y-73660
X9684Y-71120
X220028Y-111760
X226378Y-109220
X258128Y-54610
X264477Y-52070
X234315Y-54610
X240665Y-52070
X253365Y-35560
X259715Y-33020
X220028Y-73660
X226378Y-71120
X224790Y-35560
X231140Y-33020
X292656Y-73660
X299006Y-71120
X121206Y2540
X127556Y5080
X167640Y-111760
X173990Y-109220
X105727Y-73660
X112078Y-71120
X311706Y-16510
X318056Y-13970
X330756Y-92710
X337106Y-90170
X330756Y-111760
X337106Y-109220
X77153Y-92710
X83503Y-90170
X205740Y-111760
X212090Y-109220
X952Y-54610
X7302Y-52070
X43815Y-54610
X50165Y-52070
X330756Y-73660
X337106Y-71120
X15240Y-35560
X21590Y-33020
X349806Y-54610
X356156Y-52070
X-3810Y-35560
X2540Y-33020
X100965Y-54610
X107315Y-52070
X91440Y-35560
X97790Y-33020
X186690Y-111760
X193040Y-109220
X124777Y-73660
X131128Y-71120
X167640Y-35560
X173990Y-33020
X249198Y-117118
X255548Y-114578
X110490Y-35560
X116840Y-33020
X110490Y-111760
X116840Y-109220
X236696Y-92710
X243046Y-90170
X91440Y-111760
X97790Y-109220
X349806Y-102235
X356156Y-99695
X239077Y-73660
X245427Y-71120
X139065Y-54610
X145415Y-52070
X205740Y-35560
X212090Y-33020
X81915Y-54610
X88265Y-52070
X53340Y-35560
X59690Y-33020
X158115Y-54610
X164465Y-52070
X311706Y2540
X318056Y5080
X210503Y-92710
X216853Y-90170
X311706Y-73660
X318056Y-71120
X140256Y2540
X146606Y5080
X58103Y-92710
X64453Y-90170
X240864Y2540
X247214Y5080
X224790Y-111760
X231140Y-109220
X191453Y-92710
X197803Y-90170
X268248Y-117118
X274598Y-114578
X62865Y-54610
X69215Y-52070
X-3810Y2540
X2540Y5080
X330756Y-54610
X337106Y-52070
X77748Y2540
X84098Y5080
X177165Y-54610
X183515Y-52070
X186690Y-35560
X193040Y-33020
X48578Y-73660
X54928Y-71120
X330756Y2540
X337106Y5080
X15240Y-111760
X21590Y-109220
X349806Y-73660
X356156Y-71120
X159306Y2540
X165656Y5080
X172403Y-92710
X178753Y-90170
X96203Y-92710
X102552Y-90170
X20002Y-92710
X26353Y-90170
X134302Y-92710
X140653Y-90170
X952Y-111760
X7302Y-109220
X-1429Y-73660
X4921Y-71120
X196215Y-54610
X202565Y-52070
X39648Y2540
X45998Y5080
X250984Y-73660
X257334Y-71120
X102156Y2540
X108506Y5080
X143827Y-73660
X150177Y-71120
X311706Y-35560
X318056Y-33020
X86678Y-73660
X93027Y-71120
X292656Y-35560
X299006Y-33020
X292656Y-92710
X299006Y-90170
X330756Y-35560
X337106Y-33020
X202764Y2540
X209114Y5080
X20598Y2540
X26948Y5080
X-3810Y-111760
X2540Y-109220
X268248Y-98068
X274598Y-95528
X29528Y-111760
X35878Y-109220
X110490Y-111760
X116840Y-109220
X266859Y-62865
X269399Y-69215
X181928Y-73660
X188278Y-71120
X349806Y2540
X356156Y5080
X67628Y-73660
X73977Y-71120
X183714Y2540
X190064Y5080
X29528Y-73660
X35878Y-71120
X148590Y-35560
X154940Y-33020
X311706Y-54610
X318056Y-52070
X349806Y-16510
X356156Y-13970
X34290Y-111760
X40640Y-109220
X349806Y-35560
X356156Y-33020
X129540Y-35560
X135890Y-33020
X-1429Y-92710
X4921Y-90170
X58698Y2540
X65048Y5080
X115253Y-92710
X121602Y-90170
X153352Y-92710
X159702Y-90170
X191453Y-111760
X197803Y-109220
X24765Y-54610
X31115Y-52070
X120015Y-54610
X126365Y-52070
X292656Y-16510
X299006Y-13970
X200978Y-73660
X207327Y-71120
X292656Y2540
X299006Y5080
X162878Y-73660
X169228Y-71120
X72390Y-35560
X78740Y-33020
X292656Y-54610
X299006Y-52070
X34290Y-35560
X40640Y-33020
X311706Y-111760
X318056Y-109220
X215265Y-54610
X221615Y-52070
X221814Y2540
X228164Y5080
X8096Y-92710
X14446Y-90170
X330756Y-16510
X337106Y-13970
X287298Y-117118
X293648Y-114578
X39053Y-92710
X45403Y-90170
X311706Y-92710
X318056Y-90170
T7
X313316Y24176
X319096Y24176
T8
X61595Y-57150
X71755Y-57150
X-5080Y0
X5080Y0
X329486Y-57150
X339646Y-57150
X76478Y0
X86638Y0
X175895Y-57150
X186055Y-57150
X185420Y-38100
X195580Y-38100
X47308Y-76200
X57468Y-76200
X329486Y0
X339646Y0
X13970Y-114300
X24130Y-114300
X348536Y-76200
X358696Y-76200
X158036Y0
X168196Y0
X171133Y-95250
X181293Y-95250
X94933Y-95250
X105093Y-95250
X18733Y-95250
X28892Y-95250
X133033Y-95250
X143193Y-95250
X-318Y-114300
X9843Y-114300
X-2699Y-76200
X7461Y-76200
X194945Y-57150
X205105Y-57150
X38378Y0
X48538Y0
X249714Y-76200
X259874Y-76200
X100886Y0
X111046Y0
X142558Y-76200
X152718Y-76200
X310436Y-38100
X320596Y-38100
X85408Y-76200
X95568Y-76200
X291386Y-38100
X301546Y-38100
X291386Y-95250
X301546Y-95250
X329486Y-38100
X339646Y-38100
X201494Y0
X211654Y0
X19328Y0
X29488Y0
X-5080Y-114300
X5080Y-114300
X266978Y-100608
X277138Y-100608
X28258Y-114300
X38417Y-114300
X109220Y-114300
X119380Y-114300
X264319Y-61595
X264319Y-71755
X180658Y-76200
X190818Y-76200
X348536Y0
X358696Y0
X66358Y-76200
X76518Y-76200
X182444Y0
X192604Y0
X28258Y-76200
X38417Y-76200
X147320Y-38100
X157480Y-38100
X310436Y-57150
X320596Y-57150
X348536Y-19050
X358696Y-19050
X33020Y-114300
X43180Y-114300
X348536Y-38100
X358696Y-38100
X128270Y-38100
X138430Y-38100
X-2699Y-95250
X7461Y-95250
X57428Y0
X67588Y0
X113983Y-95250
X124143Y-95250
X152082Y-95250
X162243Y-95250
X190183Y-114300
X200343Y-114300
X23495Y-57150
X33655Y-57150
X118745Y-57150
X128905Y-57150
X291386Y-19050
X301546Y-19050
X199708Y-76200
X209867Y-76200
X291386Y0
X301546Y0
X161607Y-76200
X171767Y-76200
X71120Y-38100
X81280Y-38100
X291386Y-57150
X301546Y-57150
X33020Y-38100
X43180Y-38100
X310436Y-114300
X320596Y-114300
X213995Y-57150
X224155Y-57150
X220544Y0
X230704Y0
X6826Y-95250
X16986Y-95250
X329486Y-19050
X339646Y-19050
X286028Y-119658
X296188Y-119658
X37783Y-95250
X47943Y-95250
X310436Y-95250
X320596Y-95250
X2064Y-76200
X12224Y-76200
X218758Y-114300
X228917Y-114300
X256858Y-57150
X267017Y-57150
X233045Y-57150
X243205Y-57150
X252095Y-38100
X262255Y-38100
X218758Y-76200
X228917Y-76200
X223520Y-38100
X233680Y-38100
X291386Y-76200
X301546Y-76200
X119936Y0
X130096Y0
X166370Y-114300
X176530Y-114300
X104458Y-76200
X114618Y-76200
X310436Y-19050
X320596Y-19050
X329486Y-95250
X339646Y-95250
X329486Y-114300
X339646Y-114300
X75882Y-95250
X86043Y-95250
X204470Y-114300
X214630Y-114300
X-318Y-57150
X9843Y-57150
X42545Y-57150
X52705Y-57150
X329486Y-76200
X339646Y-76200
X13970Y-38100
X24130Y-38100
X348536Y-57150
X358696Y-57150
X-5080Y-38100
X5080Y-38100
X99695Y-57150
X109855Y-57150
X90170Y-38100
X100330Y-38100
X185420Y-114300
X195580Y-114300
X123507Y-76200
X133668Y-76200
X166370Y-38100
X176530Y-38100
X247928Y-119658
X258088Y-119658
X109220Y-38100
X119380Y-38100
X109220Y-114300
X119380Y-114300
X235426Y-95250
X245586Y-95250
X90170Y-114300
X100330Y-114300
X348536Y-104775
X358696Y-104775
X237808Y-76200
X247968Y-76200
X137795Y-57150
X147955Y-57150
X204470Y-38100
X214630Y-38100
X80645Y-57150
X90805Y-57150
X52070Y-38100
X62230Y-38100
X156845Y-57150
X167005Y-57150
X310436Y0
X320596Y0
X209233Y-95250
X219392Y-95250
X310436Y-76200
X320596Y-76200
X138986Y0
X149146Y0
X56832Y-95250
X66993Y-95250
X239594Y0
X249754Y0
X223520Y-114300
X233680Y-114300
X190183Y-95250
X200343Y-95250
X266978Y-119658
X277138Y-119658
T9
X57150Y-107315
X152400Y-107315
X346631Y-92837
X346631Y-116713
X242856Y-69215
X266732Y-69215
X171450Y-107315
X271304Y-54737
X271304Y-78613
X-32Y-88265
X23844Y-88265
X245237Y-31115
X269113Y-31115
T10
X185737Y-76200
X353616Y0
X71438Y-76200
X187524Y0
X33338Y-76200
X152400Y-38100
X315516Y-57150
X353616Y-19050
X38100Y-114300
X353616Y-38100
X133350Y-38100
X2381Y-95250
X62508Y0
X119063Y-95250
X157163Y-95250
X195263Y-114300
X28575Y-57150
X123825Y-57150
X296466Y-19050
X204788Y-76200
X296466Y0
X166688Y-76200
X76200Y-38100
X296466Y-57150
X38100Y-38100
X315516Y-114300
X219075Y-57150
X225624Y0
X-32Y-103505
X11906Y-95250
X23844Y-103505
X334566Y-19050
X291108Y-119658
X42863Y-95250
X315516Y-95250
X7144Y-76200
X223838Y-114300
X261938Y-57150
X238125Y-57150
X245237Y-46355
X257175Y-38100
X269113Y-46355
X223838Y-76200
X228600Y-38100
X296466Y-76200
X125016Y0
X171450Y-114300
X109538Y-76200
X315516Y-19050
X334566Y-95250
X334566Y-114300
X80962Y-95250
X209550Y-114300
X4763Y-57150
X47625Y-57150
X334566Y-76200
X19050Y-38100
X353616Y-57150
X0Y-38100
X104775Y-57150
X95250Y-38100
X190500Y-114300
X128588Y-76200
X171450Y-38100
X253008Y-119658
X114300Y-38100
X57150Y-122555
X114300Y-114300
X152400Y-122555
X240506Y-95250
X95250Y-114300
X353616Y-104775
X361871Y-92837
X361871Y-116713
X242888Y-76200
X142875Y-57150
X209550Y-38100
X85725Y-57150
X57150Y-38100
X161925Y-57150
X315516Y0
X214313Y-95250
X315516Y-76200
X144066Y0
X61913Y-95250
X244674Y0
X228600Y-114300
X195263Y-95250
X272058Y-119658
X66675Y-57150
X0Y0
X334566Y-57150
X81558Y0
X180975Y-57150
X190500Y-38100
X52388Y-76200
X334566Y0
X19050Y-114300
X353616Y-76200
X163116Y0
X176213Y-95250
X100012Y-95250
X23813Y-95250
X138112Y-95250
X4763Y-114300
X2381Y-76200
X200025Y-57150
X43458Y0
X242856Y-84455
X254794Y-76200
X266732Y-84455
X105966Y0
X147638Y-76200
X315516Y-38100
X90488Y-76200
X296466Y-38100
X296466Y-95250
X334566Y-38100
X206574Y0
X24408Y0
X0Y-114300
X272058Y-100608
X33338Y-114300
X114300Y-114300
X171450Y-122555
X256064Y-54737
X256064Y-78613
X264319Y-66675
T11
X304205Y-123825
T12
X49411Y-19050
X241411Y-19050
X309195Y21550
T2
G00X311886Y28126
M15
G01X311886Y27526
M16
G05
G00X311886Y24196
M15
G01X311886Y23096
M16
G05
G00X320526Y28126
M15
G01X320526Y27526
M16
G05
G00X320526Y24196
M15
G01X320526Y23096
M16
G05
T0
M30
