G04 #@! TF.GenerationSoftware,KiCad,Pcbnew,(5.1.6)-1*
G04 #@! TF.CreationDate,2020-06-29T21:56:33+02:00*
G04 #@! TF.ProjectId,E80-1800-pcb-universal,4538302d-3138-4303-902d-7063622d756e,rev?*
G04 #@! TF.SameCoordinates,Original*
G04 #@! TF.FileFunction,Paste,Bot*
G04 #@! TF.FilePolarity,Positive*
%FSLAX46Y46*%
G04 Gerber Fmt 4.6, Leading zero omitted, Abs format (unit mm)*
G04 Created by KiCad (PCBNEW (5.1.6)-1) date 2020-06-29 21:56:33*
%MOMM*%
%LPD*%
G01*
G04 APERTURE LIST*
%ADD10R,1.060000X0.650000*%
%ADD11R,0.600000X1.450000*%
%ADD12R,0.300000X1.450000*%
%ADD13R,0.800000X0.900000*%
%ADD14R,0.900000X0.800000*%
G04 APERTURE END LIST*
G36*
G01*
X268176750Y10171500D02*
X268651750Y10171500D01*
G75*
G02*
X268889250Y9934000I0J-237500D01*
G01*
X268889250Y9359000D01*
G75*
G02*
X268651750Y9121500I-237500J0D01*
G01*
X268176750Y9121500D01*
G75*
G02*
X267939250Y9359000I0J237500D01*
G01*
X267939250Y9934000D01*
G75*
G02*
X268176750Y10171500I237500J0D01*
G01*
G37*
G36*
G01*
X268176750Y8421500D02*
X268651750Y8421500D01*
G75*
G02*
X268889250Y8184000I0J-237500D01*
G01*
X268889250Y7609000D01*
G75*
G02*
X268651750Y7371500I-237500J0D01*
G01*
X268176750Y7371500D01*
G75*
G02*
X267939250Y7609000I0J237500D01*
G01*
X267939250Y8184000D01*
G75*
G02*
X268176750Y8421500I237500J0D01*
G01*
G37*
G36*
G01*
X275396990Y-4120400D02*
X274921990Y-4120400D01*
G75*
G02*
X274684490Y-3882900I0J237500D01*
G01*
X274684490Y-3307900D01*
G75*
G02*
X274921990Y-3070400I237500J0D01*
G01*
X275396990Y-3070400D01*
G75*
G02*
X275634490Y-3307900I0J-237500D01*
G01*
X275634490Y-3882900D01*
G75*
G02*
X275396990Y-4120400I-237500J0D01*
G01*
G37*
G36*
G01*
X275396990Y-5870400D02*
X274921990Y-5870400D01*
G75*
G02*
X274684490Y-5632900I0J237500D01*
G01*
X274684490Y-5057900D01*
G75*
G02*
X274921990Y-4820400I237500J0D01*
G01*
X275396990Y-4820400D01*
G75*
G02*
X275634490Y-5057900I0J-237500D01*
G01*
X275634490Y-5632900D01*
G75*
G02*
X275396990Y-5870400I-237500J0D01*
G01*
G37*
G36*
G01*
X268183390Y-4144500D02*
X267708390Y-4144500D01*
G75*
G02*
X267470890Y-3907000I0J237500D01*
G01*
X267470890Y-3332000D01*
G75*
G02*
X267708390Y-3094500I237500J0D01*
G01*
X268183390Y-3094500D01*
G75*
G02*
X268420890Y-3332000I0J-237500D01*
G01*
X268420890Y-3907000D01*
G75*
G02*
X268183390Y-4144500I-237500J0D01*
G01*
G37*
G36*
G01*
X268183390Y-5894500D02*
X267708390Y-5894500D01*
G75*
G02*
X267470890Y-5657000I0J237500D01*
G01*
X267470890Y-5082000D01*
G75*
G02*
X267708390Y-4844500I237500J0D01*
G01*
X268183390Y-4844500D01*
G75*
G02*
X268420890Y-5082000I0J-237500D01*
G01*
X268420890Y-5657000D01*
G75*
G02*
X268183390Y-5894500I-237500J0D01*
G01*
G37*
G36*
G01*
X260969790Y-4120400D02*
X260494790Y-4120400D01*
G75*
G02*
X260257290Y-3882900I0J237500D01*
G01*
X260257290Y-3307900D01*
G75*
G02*
X260494790Y-3070400I237500J0D01*
G01*
X260969790Y-3070400D01*
G75*
G02*
X261207290Y-3307900I0J-237500D01*
G01*
X261207290Y-3882900D01*
G75*
G02*
X260969790Y-4120400I-237500J0D01*
G01*
G37*
G36*
G01*
X260969790Y-5870400D02*
X260494790Y-5870400D01*
G75*
G02*
X260257290Y-5632900I0J237500D01*
G01*
X260257290Y-5057900D01*
G75*
G02*
X260494790Y-4820400I237500J0D01*
G01*
X260969790Y-4820400D01*
G75*
G02*
X261207290Y-5057900I0J-237500D01*
G01*
X261207290Y-5632900D01*
G75*
G02*
X260969790Y-5870400I-237500J0D01*
G01*
G37*
G36*
G01*
X285059890Y-6397000D02*
X285059890Y-5922000D01*
G75*
G02*
X285297390Y-5684500I237500J0D01*
G01*
X285872390Y-5684500D01*
G75*
G02*
X286109890Y-5922000I0J-237500D01*
G01*
X286109890Y-6397000D01*
G75*
G02*
X285872390Y-6634500I-237500J0D01*
G01*
X285297390Y-6634500D01*
G75*
G02*
X285059890Y-6397000I0J237500D01*
G01*
G37*
G36*
G01*
X283309890Y-6397000D02*
X283309890Y-5922000D01*
G75*
G02*
X283547390Y-5684500I237500J0D01*
G01*
X284122390Y-5684500D01*
G75*
G02*
X284359890Y-5922000I0J-237500D01*
G01*
X284359890Y-6397000D01*
G75*
G02*
X284122390Y-6634500I-237500J0D01*
G01*
X283547390Y-6634500D01*
G75*
G02*
X283309890Y-6397000I0J237500D01*
G01*
G37*
G36*
G01*
X322539390Y21037000D02*
X322064390Y21037000D01*
G75*
G02*
X321826890Y21274500I0J237500D01*
G01*
X321826890Y21849500D01*
G75*
G02*
X322064390Y22087000I237500J0D01*
G01*
X322539390Y22087000D01*
G75*
G02*
X322776890Y21849500I0J-237500D01*
G01*
X322776890Y21274500D01*
G75*
G02*
X322539390Y21037000I-237500J0D01*
G01*
G37*
G36*
G01*
X322539390Y19287000D02*
X322064390Y19287000D01*
G75*
G02*
X321826890Y19524500I0J237500D01*
G01*
X321826890Y20099500D01*
G75*
G02*
X322064390Y20337000I237500J0D01*
G01*
X322539390Y20337000D01*
G75*
G02*
X322776890Y20099500I0J-237500D01*
G01*
X322776890Y19524500D01*
G75*
G02*
X322539390Y19287000I-237500J0D01*
G01*
G37*
D10*
X315105890Y18417000D03*
X315105890Y19367000D03*
X315105890Y17467000D03*
X317305890Y17467000D03*
X317305890Y18417000D03*
X317305890Y19367000D03*
G36*
G01*
X309007500Y26449000D02*
X309482500Y26449000D01*
G75*
G02*
X309720000Y26211500I0J-237500D01*
G01*
X309720000Y25636500D01*
G75*
G02*
X309482500Y25399000I-237500J0D01*
G01*
X309007500Y25399000D01*
G75*
G02*
X308770000Y25636500I0J237500D01*
G01*
X308770000Y26211500D01*
G75*
G02*
X309007500Y26449000I237500J0D01*
G01*
G37*
G36*
G01*
X309007500Y28199000D02*
X309482500Y28199000D01*
G75*
G02*
X309720000Y27961500I0J-237500D01*
G01*
X309720000Y27386500D01*
G75*
G02*
X309482500Y27149000I-237500J0D01*
G01*
X309007500Y27149000D01*
G75*
G02*
X308770000Y27386500I0J237500D01*
G01*
X308770000Y27961500D01*
G75*
G02*
X309007500Y28199000I237500J0D01*
G01*
G37*
G36*
G01*
X322877190Y26421600D02*
X323352190Y26421600D01*
G75*
G02*
X323589690Y26184100I0J-237500D01*
G01*
X323589690Y25609100D01*
G75*
G02*
X323352190Y25371600I-237500J0D01*
G01*
X322877190Y25371600D01*
G75*
G02*
X322639690Y25609100I0J237500D01*
G01*
X322639690Y26184100D01*
G75*
G02*
X322877190Y26421600I237500J0D01*
G01*
G37*
G36*
G01*
X322877190Y28171600D02*
X323352190Y28171600D01*
G75*
G02*
X323589690Y27934100I0J-237500D01*
G01*
X323589690Y27359100D01*
G75*
G02*
X323352190Y27121600I-237500J0D01*
G01*
X322877190Y27121600D01*
G75*
G02*
X322639690Y27359100I0J237500D01*
G01*
X322639690Y27934100D01*
G75*
G02*
X322877190Y28171600I237500J0D01*
G01*
G37*
D11*
X319455890Y22731000D03*
X318655890Y22731000D03*
X313755890Y22731000D03*
X312955890Y22731000D03*
X312955890Y22731000D03*
X313755890Y22731000D03*
X318655890Y22731000D03*
X319455890Y22731000D03*
D12*
X314455890Y22731000D03*
X314955890Y22731000D03*
X315455890Y22731000D03*
X316455890Y22731000D03*
X316955890Y22731000D03*
X317455890Y22731000D03*
X317955890Y22731000D03*
X315955890Y22731000D03*
G36*
G01*
X312576390Y17158000D02*
X311326390Y17158000D01*
G75*
G02*
X311076390Y17408000I0J250000D01*
G01*
X311076390Y18333000D01*
G75*
G02*
X311326390Y18583000I250000J0D01*
G01*
X312576390Y18583000D01*
G75*
G02*
X312826390Y18333000I0J-250000D01*
G01*
X312826390Y17408000D01*
G75*
G02*
X312576390Y17158000I-250000J0D01*
G01*
G37*
G36*
G01*
X312576390Y14183000D02*
X311326390Y14183000D01*
G75*
G02*
X311076390Y14433000I0J250000D01*
G01*
X311076390Y15358000D01*
G75*
G02*
X311326390Y15608000I250000J0D01*
G01*
X312576390Y15608000D01*
G75*
G02*
X312826390Y15358000I0J-250000D01*
G01*
X312826390Y14433000D01*
G75*
G02*
X312576390Y14183000I-250000J0D01*
G01*
G37*
G36*
G01*
X274564250Y334000D02*
X274564250Y809000D01*
G75*
G02*
X274801750Y1046500I237500J0D01*
G01*
X275376750Y1046500D01*
G75*
G02*
X275614250Y809000I0J-237500D01*
G01*
X275614250Y334000D01*
G75*
G02*
X275376750Y96500I-237500J0D01*
G01*
X274801750Y96500D01*
G75*
G02*
X274564250Y334000I0J237500D01*
G01*
G37*
G36*
G01*
X272814250Y334000D02*
X272814250Y809000D01*
G75*
G02*
X273051750Y1046500I237500J0D01*
G01*
X273626750Y1046500D01*
G75*
G02*
X273864250Y809000I0J-237500D01*
G01*
X273864250Y334000D01*
G75*
G02*
X273626750Y96500I-237500J0D01*
G01*
X273051750Y96500D01*
G75*
G02*
X272814250Y334000I0J237500D01*
G01*
G37*
G36*
G01*
X267051750Y9121500D02*
X266576750Y9121500D01*
G75*
G02*
X266339250Y9359000I0J237500D01*
G01*
X266339250Y9934000D01*
G75*
G02*
X266576750Y10171500I237500J0D01*
G01*
X267051750Y10171500D01*
G75*
G02*
X267289250Y9934000I0J-237500D01*
G01*
X267289250Y9359000D01*
G75*
G02*
X267051750Y9121500I-237500J0D01*
G01*
G37*
G36*
G01*
X267051750Y7371500D02*
X266576750Y7371500D01*
G75*
G02*
X266339250Y7609000I0J237500D01*
G01*
X266339250Y8184000D01*
G75*
G02*
X266576750Y8421500I237500J0D01*
G01*
X267051750Y8421500D01*
G75*
G02*
X267289250Y8184000I0J-237500D01*
G01*
X267289250Y7609000D01*
G75*
G02*
X267051750Y7371500I-237500J0D01*
G01*
G37*
G36*
G01*
X274965750Y-1299000D02*
X274965750Y-1774000D01*
G75*
G02*
X274728250Y-2011500I-237500J0D01*
G01*
X274153250Y-2011500D01*
G75*
G02*
X273915750Y-1774000I0J237500D01*
G01*
X273915750Y-1299000D01*
G75*
G02*
X274153250Y-1061500I237500J0D01*
G01*
X274728250Y-1061500D01*
G75*
G02*
X274965750Y-1299000I0J-237500D01*
G01*
G37*
G36*
G01*
X276715750Y-1299000D02*
X276715750Y-1774000D01*
G75*
G02*
X276478250Y-2011500I-237500J0D01*
G01*
X275903250Y-2011500D01*
G75*
G02*
X275665750Y-1774000I0J237500D01*
G01*
X275665750Y-1299000D01*
G75*
G02*
X275903250Y-1061500I237500J0D01*
G01*
X276478250Y-1061500D01*
G75*
G02*
X276715750Y-1299000I0J-237500D01*
G01*
G37*
G36*
G01*
X140034000Y-109632992D02*
X140509000Y-109632992D01*
G75*
G02*
X140746500Y-109870492I0J-237500D01*
G01*
X140746500Y-110445492D01*
G75*
G02*
X140509000Y-110682992I-237500J0D01*
G01*
X140034000Y-110682992D01*
G75*
G02*
X139796500Y-110445492I0J237500D01*
G01*
X139796500Y-109870492D01*
G75*
G02*
X140034000Y-109632992I237500J0D01*
G01*
G37*
G36*
G01*
X140034000Y-107882992D02*
X140509000Y-107882992D01*
G75*
G02*
X140746500Y-108120492I0J-237500D01*
G01*
X140746500Y-108695492D01*
G75*
G02*
X140509000Y-108932992I-237500J0D01*
G01*
X140034000Y-108932992D01*
G75*
G02*
X139796500Y-108695492I0J237500D01*
G01*
X139796500Y-108120492D01*
G75*
G02*
X140034000Y-107882992I237500J0D01*
G01*
G37*
G36*
G01*
X272437890Y19971500D02*
X271962890Y19971500D01*
G75*
G02*
X271725390Y20209000I0J237500D01*
G01*
X271725390Y20784000D01*
G75*
G02*
X271962890Y21021500I237500J0D01*
G01*
X272437890Y21021500D01*
G75*
G02*
X272675390Y20784000I0J-237500D01*
G01*
X272675390Y20209000D01*
G75*
G02*
X272437890Y19971500I-237500J0D01*
G01*
G37*
G36*
G01*
X272437890Y18221500D02*
X271962890Y18221500D01*
G75*
G02*
X271725390Y18459000I0J237500D01*
G01*
X271725390Y19034000D01*
G75*
G02*
X271962890Y19271500I237500J0D01*
G01*
X272437890Y19271500D01*
G75*
G02*
X272675390Y19034000I0J-237500D01*
G01*
X272675390Y18459000D01*
G75*
G02*
X272437890Y18221500I-237500J0D01*
G01*
G37*
G36*
G01*
X276645390Y19996140D02*
X276170390Y19996140D01*
G75*
G02*
X275932890Y20233640I0J237500D01*
G01*
X275932890Y20808640D01*
G75*
G02*
X276170390Y21046140I237500J0D01*
G01*
X276645390Y21046140D01*
G75*
G02*
X276882890Y20808640I0J-237500D01*
G01*
X276882890Y20233640D01*
G75*
G02*
X276645390Y19996140I-237500J0D01*
G01*
G37*
G36*
G01*
X276645390Y18246140D02*
X276170390Y18246140D01*
G75*
G02*
X275932890Y18483640I0J237500D01*
G01*
X275932890Y19058640D01*
G75*
G02*
X276170390Y19296140I237500J0D01*
G01*
X276645390Y19296140D01*
G75*
G02*
X276882890Y19058640I0J-237500D01*
G01*
X276882890Y18483640D01*
G75*
G02*
X276645390Y18246140I-237500J0D01*
G01*
G37*
G36*
G01*
X282137390Y17209000D02*
X282137390Y16734000D01*
G75*
G02*
X281899890Y16496500I-237500J0D01*
G01*
X281324890Y16496500D01*
G75*
G02*
X281087390Y16734000I0J237500D01*
G01*
X281087390Y17209000D01*
G75*
G02*
X281324890Y17446500I237500J0D01*
G01*
X281899890Y17446500D01*
G75*
G02*
X282137390Y17209000I0J-237500D01*
G01*
G37*
G36*
G01*
X283887390Y17209000D02*
X283887390Y16734000D01*
G75*
G02*
X283649890Y16496500I-237500J0D01*
G01*
X283074890Y16496500D01*
G75*
G02*
X282837390Y16734000I0J237500D01*
G01*
X282837390Y17209000D01*
G75*
G02*
X283074890Y17446500I237500J0D01*
G01*
X283649890Y17446500D01*
G75*
G02*
X283887390Y17209000I0J-237500D01*
G01*
G37*
G36*
G01*
X275000750Y17209000D02*
X275000750Y16734000D01*
G75*
G02*
X274763250Y16496500I-237500J0D01*
G01*
X274188250Y16496500D01*
G75*
G02*
X273950750Y16734000I0J237500D01*
G01*
X273950750Y17209000D01*
G75*
G02*
X274188250Y17446500I237500J0D01*
G01*
X274763250Y17446500D01*
G75*
G02*
X275000750Y17209000I0J-237500D01*
G01*
G37*
G36*
G01*
X276750750Y17209000D02*
X276750750Y16734000D01*
G75*
G02*
X276513250Y16496500I-237500J0D01*
G01*
X275938250Y16496500D01*
G75*
G02*
X275700750Y16734000I0J237500D01*
G01*
X275700750Y17209000D01*
G75*
G02*
X275938250Y17446500I237500J0D01*
G01*
X276513250Y17446500D01*
G75*
G02*
X276750750Y17209000I0J-237500D01*
G01*
G37*
G36*
G01*
X268890000Y12366508D02*
X268890000Y11891508D01*
G75*
G02*
X268652500Y11654008I-237500J0D01*
G01*
X268077500Y11654008D01*
G75*
G02*
X267840000Y11891508I0J237500D01*
G01*
X267840000Y12366508D01*
G75*
G02*
X268077500Y12604008I237500J0D01*
G01*
X268652500Y12604008D01*
G75*
G02*
X268890000Y12366508I0J-237500D01*
G01*
G37*
G36*
G01*
X270640000Y12366508D02*
X270640000Y11891508D01*
G75*
G02*
X270402500Y11654008I-237500J0D01*
G01*
X269827500Y11654008D01*
G75*
G02*
X269590000Y11891508I0J237500D01*
G01*
X269590000Y12366508D01*
G75*
G02*
X269827500Y12604008I237500J0D01*
G01*
X270402500Y12604008D01*
G75*
G02*
X270640000Y12366508I0J-237500D01*
G01*
G37*
G36*
G01*
X286686000Y4541508D02*
X286211000Y4541508D01*
G75*
G02*
X285973500Y4779008I0J237500D01*
G01*
X285973500Y5354008D01*
G75*
G02*
X286211000Y5591508I237500J0D01*
G01*
X286686000Y5591508D01*
G75*
G02*
X286923500Y5354008I0J-237500D01*
G01*
X286923500Y4779008D01*
G75*
G02*
X286686000Y4541508I-237500J0D01*
G01*
G37*
G36*
G01*
X286686000Y2791508D02*
X286211000Y2791508D01*
G75*
G02*
X285973500Y3029008I0J237500D01*
G01*
X285973500Y3604008D01*
G75*
G02*
X286211000Y3841508I237500J0D01*
G01*
X286686000Y3841508D01*
G75*
G02*
X286923500Y3604008I0J-237500D01*
G01*
X286923500Y3029008D01*
G75*
G02*
X286686000Y2791508I-237500J0D01*
G01*
G37*
G36*
G01*
X274645390Y19996140D02*
X274170390Y19996140D01*
G75*
G02*
X273932890Y20233640I0J237500D01*
G01*
X273932890Y20808640D01*
G75*
G02*
X274170390Y21046140I237500J0D01*
G01*
X274645390Y21046140D01*
G75*
G02*
X274882890Y20808640I0J-237500D01*
G01*
X274882890Y20233640D01*
G75*
G02*
X274645390Y19996140I-237500J0D01*
G01*
G37*
G36*
G01*
X274645390Y18246140D02*
X274170390Y18246140D01*
G75*
G02*
X273932890Y18483640I0J237500D01*
G01*
X273932890Y19058640D01*
G75*
G02*
X274170390Y19296140I237500J0D01*
G01*
X274645390Y19296140D01*
G75*
G02*
X274882890Y19058640I0J-237500D01*
G01*
X274882890Y18483640D01*
G75*
G02*
X274645390Y18246140I-237500J0D01*
G01*
G37*
G36*
G01*
X269692890Y24964360D02*
X269692890Y25439360D01*
G75*
G02*
X269930390Y25676860I237500J0D01*
G01*
X270505390Y25676860D01*
G75*
G02*
X270742890Y25439360I0J-237500D01*
G01*
X270742890Y24964360D01*
G75*
G02*
X270505390Y24726860I-237500J0D01*
G01*
X269930390Y24726860D01*
G75*
G02*
X269692890Y24964360I0J237500D01*
G01*
G37*
G36*
G01*
X267942890Y24964360D02*
X267942890Y25439360D01*
G75*
G02*
X268180390Y25676860I237500J0D01*
G01*
X268755390Y25676860D01*
G75*
G02*
X268992890Y25439360I0J-237500D01*
G01*
X268992890Y24964360D01*
G75*
G02*
X268755390Y24726860I-237500J0D01*
G01*
X268180390Y24726860D01*
G75*
G02*
X267942890Y24964360I0J237500D01*
G01*
G37*
G36*
G01*
X269692890Y22678360D02*
X269692890Y23153360D01*
G75*
G02*
X269930390Y23390860I237500J0D01*
G01*
X270505390Y23390860D01*
G75*
G02*
X270742890Y23153360I0J-237500D01*
G01*
X270742890Y22678360D01*
G75*
G02*
X270505390Y22440860I-237500J0D01*
G01*
X269930390Y22440860D01*
G75*
G02*
X269692890Y22678360I0J237500D01*
G01*
G37*
G36*
G01*
X267942890Y22678360D02*
X267942890Y23153360D01*
G75*
G02*
X268180390Y23390860I237500J0D01*
G01*
X268755390Y23390860D01*
G75*
G02*
X268992890Y23153360I0J-237500D01*
G01*
X268992890Y22678360D01*
G75*
G02*
X268755390Y22440860I-237500J0D01*
G01*
X268180390Y22440860D01*
G75*
G02*
X267942890Y22678360I0J237500D01*
G01*
G37*
G36*
G01*
X277661255Y-124500413D02*
X277661255Y-124975413D01*
G75*
G02*
X277423755Y-125212913I-237500J0D01*
G01*
X276848755Y-125212913D01*
G75*
G02*
X276611255Y-124975413I0J237500D01*
G01*
X276611255Y-124500413D01*
G75*
G02*
X276848755Y-124262913I237500J0D01*
G01*
X277423755Y-124262913D01*
G75*
G02*
X277661255Y-124500413I0J-237500D01*
G01*
G37*
G36*
G01*
X279411255Y-124500413D02*
X279411255Y-124975413D01*
G75*
G02*
X279173755Y-125212913I-237500J0D01*
G01*
X278598755Y-125212913D01*
G75*
G02*
X278361255Y-124975413I0J237500D01*
G01*
X278361255Y-124500413D01*
G75*
G02*
X278598755Y-124262913I237500J0D01*
G01*
X279173755Y-124262913D01*
G75*
G02*
X279411255Y-124500413I0J-237500D01*
G01*
G37*
G36*
G01*
X258611175Y-124500413D02*
X258611175Y-124975413D01*
G75*
G02*
X258373675Y-125212913I-237500J0D01*
G01*
X257798675Y-125212913D01*
G75*
G02*
X257561175Y-124975413I0J237500D01*
G01*
X257561175Y-124500413D01*
G75*
G02*
X257798675Y-124262913I237500J0D01*
G01*
X258373675Y-124262913D01*
G75*
G02*
X258611175Y-124500413I0J-237500D01*
G01*
G37*
G36*
G01*
X260361175Y-124500413D02*
X260361175Y-124975413D01*
G75*
G02*
X260123675Y-125212913I-237500J0D01*
G01*
X259548675Y-125212913D01*
G75*
G02*
X259311175Y-124975413I0J237500D01*
G01*
X259311175Y-124500413D01*
G75*
G02*
X259548675Y-124262913I237500J0D01*
G01*
X260123675Y-124262913D01*
G75*
G02*
X260361175Y-124500413I0J-237500D01*
G01*
G37*
G36*
G01*
X234204110Y-119142820D02*
X234204110Y-119617820D01*
G75*
G02*
X233966610Y-119855320I-237500J0D01*
G01*
X233391610Y-119855320D01*
G75*
G02*
X233154110Y-119617820I0J237500D01*
G01*
X233154110Y-119142820D01*
G75*
G02*
X233391610Y-118905320I237500J0D01*
G01*
X233966610Y-118905320D01*
G75*
G02*
X234204110Y-119142820I0J-237500D01*
G01*
G37*
G36*
G01*
X235954110Y-119142820D02*
X235954110Y-119617820D01*
G75*
G02*
X235716610Y-119855320I-237500J0D01*
G01*
X235141610Y-119855320D01*
G75*
G02*
X234904110Y-119617820I0J237500D01*
G01*
X234904110Y-119142820D01*
G75*
G02*
X235141610Y-118905320I237500J0D01*
G01*
X235716610Y-118905320D01*
G75*
G02*
X235954110Y-119142820I0J-237500D01*
G01*
G37*
G36*
G01*
X215154030Y-119142820D02*
X215154030Y-119617820D01*
G75*
G02*
X214916530Y-119855320I-237500J0D01*
G01*
X214341530Y-119855320D01*
G75*
G02*
X214104030Y-119617820I0J237500D01*
G01*
X214104030Y-119142820D01*
G75*
G02*
X214341530Y-118905320I237500J0D01*
G01*
X214916530Y-118905320D01*
G75*
G02*
X215154030Y-119142820I0J-237500D01*
G01*
G37*
G36*
G01*
X216904030Y-119142820D02*
X216904030Y-119617820D01*
G75*
G02*
X216666530Y-119855320I-237500J0D01*
G01*
X216091530Y-119855320D01*
G75*
G02*
X215854030Y-119617820I0J237500D01*
G01*
X215854030Y-119142820D01*
G75*
G02*
X216091530Y-118905320I237500J0D01*
G01*
X216666530Y-118905320D01*
G75*
G02*
X216904030Y-119142820I0J-237500D01*
G01*
G37*
G36*
G01*
X201182100Y-119142820D02*
X201182100Y-119617820D01*
G75*
G02*
X200944600Y-119855320I-237500J0D01*
G01*
X200369600Y-119855320D01*
G75*
G02*
X200132100Y-119617820I0J237500D01*
G01*
X200132100Y-119142820D01*
G75*
G02*
X200369600Y-118905320I237500J0D01*
G01*
X200944600Y-118905320D01*
G75*
G02*
X201182100Y-119142820I0J-237500D01*
G01*
G37*
G36*
G01*
X202932100Y-119142820D02*
X202932100Y-119617820D01*
G75*
G02*
X202694600Y-119855320I-237500J0D01*
G01*
X202119600Y-119855320D01*
G75*
G02*
X201882100Y-119617820I0J237500D01*
G01*
X201882100Y-119142820D01*
G75*
G02*
X202119600Y-118905320I237500J0D01*
G01*
X202694600Y-118905320D01*
G75*
G02*
X202932100Y-119142820I0J-237500D01*
G01*
G37*
G36*
G01*
X177369500Y-119142820D02*
X177369500Y-119617820D01*
G75*
G02*
X177132000Y-119855320I-237500J0D01*
G01*
X176557000Y-119855320D01*
G75*
G02*
X176319500Y-119617820I0J237500D01*
G01*
X176319500Y-119142820D01*
G75*
G02*
X176557000Y-118905320I237500J0D01*
G01*
X177132000Y-118905320D01*
G75*
G02*
X177369500Y-119142820I0J-237500D01*
G01*
G37*
G36*
G01*
X179119500Y-119142820D02*
X179119500Y-119617820D01*
G75*
G02*
X178882000Y-119855320I-237500J0D01*
G01*
X178307000Y-119855320D01*
G75*
G02*
X178069500Y-119617820I0J237500D01*
G01*
X178069500Y-119142820D01*
G75*
G02*
X178307000Y-118905320I237500J0D01*
G01*
X178882000Y-118905320D01*
G75*
G02*
X179119500Y-119142820I0J-237500D01*
G01*
G37*
G36*
G01*
X43703310Y-119142820D02*
X43703310Y-119617820D01*
G75*
G02*
X43465810Y-119855320I-237500J0D01*
G01*
X42890810Y-119855320D01*
G75*
G02*
X42653310Y-119617820I0J237500D01*
G01*
X42653310Y-119142820D01*
G75*
G02*
X42890810Y-118905320I237500J0D01*
G01*
X43465810Y-118905320D01*
G75*
G02*
X43703310Y-119142820I0J-237500D01*
G01*
G37*
G36*
G01*
X45453310Y-119142820D02*
X45453310Y-119617820D01*
G75*
G02*
X45215810Y-119855320I-237500J0D01*
G01*
X44640810Y-119855320D01*
G75*
G02*
X44403310Y-119617820I0J237500D01*
G01*
X44403310Y-119142820D01*
G75*
G02*
X44640810Y-118905320I237500J0D01*
G01*
X45215810Y-118905320D01*
G75*
G02*
X45453310Y-119142820I0J-237500D01*
G01*
G37*
G36*
G01*
X24653230Y-119142820D02*
X24653230Y-119617820D01*
G75*
G02*
X24415730Y-119855320I-237500J0D01*
G01*
X23840730Y-119855320D01*
G75*
G02*
X23603230Y-119617820I0J237500D01*
G01*
X23603230Y-119142820D01*
G75*
G02*
X23840730Y-118905320I237500J0D01*
G01*
X24415730Y-118905320D01*
G75*
G02*
X24653230Y-119142820I0J-237500D01*
G01*
G37*
G36*
G01*
X26403230Y-119142820D02*
X26403230Y-119617820D01*
G75*
G02*
X26165730Y-119855320I-237500J0D01*
G01*
X25590730Y-119855320D01*
G75*
G02*
X25353230Y-119617820I0J237500D01*
G01*
X25353230Y-119142820D01*
G75*
G02*
X25590730Y-118905320I237500J0D01*
G01*
X26165730Y-118905320D01*
G75*
G02*
X26403230Y-119142820I0J-237500D01*
G01*
G37*
G36*
G01*
X10365670Y-119142820D02*
X10365670Y-119617820D01*
G75*
G02*
X10128170Y-119855320I-237500J0D01*
G01*
X9553170Y-119855320D01*
G75*
G02*
X9315670Y-119617820I0J237500D01*
G01*
X9315670Y-119142820D01*
G75*
G02*
X9553170Y-118905320I237500J0D01*
G01*
X10128170Y-118905320D01*
G75*
G02*
X10365670Y-119142820I0J-237500D01*
G01*
G37*
G36*
G01*
X12115670Y-119142820D02*
X12115670Y-119617820D01*
G75*
G02*
X11878170Y-119855320I-237500J0D01*
G01*
X11303170Y-119855320D01*
G75*
G02*
X11065670Y-119617820I0J237500D01*
G01*
X11065670Y-119142820D01*
G75*
G02*
X11303170Y-118905320I237500J0D01*
G01*
X11878170Y-118905320D01*
G75*
G02*
X12115670Y-119142820I0J-237500D01*
G01*
G37*
G36*
G01*
X277661255Y-105450333D02*
X277661255Y-105925333D01*
G75*
G02*
X277423755Y-106162833I-237500J0D01*
G01*
X276848755Y-106162833D01*
G75*
G02*
X276611255Y-105925333I0J237500D01*
G01*
X276611255Y-105450333D01*
G75*
G02*
X276848755Y-105212833I237500J0D01*
G01*
X277423755Y-105212833D01*
G75*
G02*
X277661255Y-105450333I0J-237500D01*
G01*
G37*
G36*
G01*
X279411255Y-105450333D02*
X279411255Y-105925333D01*
G75*
G02*
X279173755Y-106162833I-237500J0D01*
G01*
X278598755Y-106162833D01*
G75*
G02*
X278361255Y-105925333I0J237500D01*
G01*
X278361255Y-105450333D01*
G75*
G02*
X278598755Y-105212833I237500J0D01*
G01*
X279173755Y-105212833D01*
G75*
G02*
X279411255Y-105450333I0J-237500D01*
G01*
G37*
G36*
G01*
X246110410Y-100092740D02*
X246110410Y-100567740D01*
G75*
G02*
X245872910Y-100805240I-237500J0D01*
G01*
X245297910Y-100805240D01*
G75*
G02*
X245060410Y-100567740I0J237500D01*
G01*
X245060410Y-100092740D01*
G75*
G02*
X245297910Y-99855240I237500J0D01*
G01*
X245872910Y-99855240D01*
G75*
G02*
X246110410Y-100092740I0J-237500D01*
G01*
G37*
G36*
G01*
X247860410Y-100092740D02*
X247860410Y-100567740D01*
G75*
G02*
X247622910Y-100805240I-237500J0D01*
G01*
X247047910Y-100805240D01*
G75*
G02*
X246810410Y-100567740I0J237500D01*
G01*
X246810410Y-100092740D01*
G75*
G02*
X247047910Y-99855240I237500J0D01*
G01*
X247622910Y-99855240D01*
G75*
G02*
X247860410Y-100092740I0J-237500D01*
G01*
G37*
G36*
G01*
X219916550Y-100092740D02*
X219916550Y-100567740D01*
G75*
G02*
X219679050Y-100805240I-237500J0D01*
G01*
X219104050Y-100805240D01*
G75*
G02*
X218866550Y-100567740I0J237500D01*
G01*
X218866550Y-100092740D01*
G75*
G02*
X219104050Y-99855240I237500J0D01*
G01*
X219679050Y-99855240D01*
G75*
G02*
X219916550Y-100092740I0J-237500D01*
G01*
G37*
G36*
G01*
X221666550Y-100092740D02*
X221666550Y-100567740D01*
G75*
G02*
X221429050Y-100805240I-237500J0D01*
G01*
X220854050Y-100805240D01*
G75*
G02*
X220616550Y-100567740I0J237500D01*
G01*
X220616550Y-100092740D01*
G75*
G02*
X220854050Y-99855240I237500J0D01*
G01*
X221429050Y-99855240D01*
G75*
G02*
X221666550Y-100092740I0J-237500D01*
G01*
G37*
G36*
G01*
X200866470Y-100092740D02*
X200866470Y-100567740D01*
G75*
G02*
X200628970Y-100805240I-237500J0D01*
G01*
X200053970Y-100805240D01*
G75*
G02*
X199816470Y-100567740I0J237500D01*
G01*
X199816470Y-100092740D01*
G75*
G02*
X200053970Y-99855240I237500J0D01*
G01*
X200628970Y-99855240D01*
G75*
G02*
X200866470Y-100092740I0J-237500D01*
G01*
G37*
G36*
G01*
X202616470Y-100092740D02*
X202616470Y-100567740D01*
G75*
G02*
X202378970Y-100805240I-237500J0D01*
G01*
X201803970Y-100805240D01*
G75*
G02*
X201566470Y-100567740I0J237500D01*
G01*
X201566470Y-100092740D01*
G75*
G02*
X201803970Y-99855240I237500J0D01*
G01*
X202378970Y-99855240D01*
G75*
G02*
X202616470Y-100092740I0J-237500D01*
G01*
G37*
G36*
G01*
X181816390Y-100092740D02*
X181816390Y-100567740D01*
G75*
G02*
X181578890Y-100805240I-237500J0D01*
G01*
X181003890Y-100805240D01*
G75*
G02*
X180766390Y-100567740I0J237500D01*
G01*
X180766390Y-100092740D01*
G75*
G02*
X181003890Y-99855240I237500J0D01*
G01*
X181578890Y-99855240D01*
G75*
G02*
X181816390Y-100092740I0J-237500D01*
G01*
G37*
G36*
G01*
X183566390Y-100092740D02*
X183566390Y-100567740D01*
G75*
G02*
X183328890Y-100805240I-237500J0D01*
G01*
X182753890Y-100805240D01*
G75*
G02*
X182516390Y-100567740I0J237500D01*
G01*
X182516390Y-100092740D01*
G75*
G02*
X182753890Y-99855240I237500J0D01*
G01*
X183328890Y-99855240D01*
G75*
G02*
X183566390Y-100092740I0J-237500D01*
G01*
G37*
G36*
G01*
X162766310Y-100092740D02*
X162766310Y-100567740D01*
G75*
G02*
X162528810Y-100805240I-237500J0D01*
G01*
X161953810Y-100805240D01*
G75*
G02*
X161716310Y-100567740I0J237500D01*
G01*
X161716310Y-100092740D01*
G75*
G02*
X161953810Y-99855240I237500J0D01*
G01*
X162528810Y-99855240D01*
G75*
G02*
X162766310Y-100092740I0J-237500D01*
G01*
G37*
G36*
G01*
X164516310Y-100092740D02*
X164516310Y-100567740D01*
G75*
G02*
X164278810Y-100805240I-237500J0D01*
G01*
X163703810Y-100805240D01*
G75*
G02*
X163466310Y-100567740I0J237500D01*
G01*
X163466310Y-100092740D01*
G75*
G02*
X163703810Y-99855240I237500J0D01*
G01*
X164278810Y-99855240D01*
G75*
G02*
X164516310Y-100092740I0J-237500D01*
G01*
G37*
G36*
G01*
X143716230Y-100092740D02*
X143716230Y-100567740D01*
G75*
G02*
X143478730Y-100805240I-237500J0D01*
G01*
X142903730Y-100805240D01*
G75*
G02*
X142666230Y-100567740I0J237500D01*
G01*
X142666230Y-100092740D01*
G75*
G02*
X142903730Y-99855240I237500J0D01*
G01*
X143478730Y-99855240D01*
G75*
G02*
X143716230Y-100092740I0J-237500D01*
G01*
G37*
G36*
G01*
X145466230Y-100092740D02*
X145466230Y-100567740D01*
G75*
G02*
X145228730Y-100805240I-237500J0D01*
G01*
X144653730Y-100805240D01*
G75*
G02*
X144416230Y-100567740I0J237500D01*
G01*
X144416230Y-100092740D01*
G75*
G02*
X144653730Y-99855240I237500J0D01*
G01*
X145228730Y-99855240D01*
G75*
G02*
X145466230Y-100092740I0J-237500D01*
G01*
G37*
G36*
G01*
X124666150Y-100092740D02*
X124666150Y-100567740D01*
G75*
G02*
X124428650Y-100805240I-237500J0D01*
G01*
X123853650Y-100805240D01*
G75*
G02*
X123616150Y-100567740I0J237500D01*
G01*
X123616150Y-100092740D01*
G75*
G02*
X123853650Y-99855240I237500J0D01*
G01*
X124428650Y-99855240D01*
G75*
G02*
X124666150Y-100092740I0J-237500D01*
G01*
G37*
G36*
G01*
X126416150Y-100092740D02*
X126416150Y-100567740D01*
G75*
G02*
X126178650Y-100805240I-237500J0D01*
G01*
X125603650Y-100805240D01*
G75*
G02*
X125366150Y-100567740I0J237500D01*
G01*
X125366150Y-100092740D01*
G75*
G02*
X125603650Y-99855240I237500J0D01*
G01*
X126178650Y-99855240D01*
G75*
G02*
X126416150Y-100092740I0J-237500D01*
G01*
G37*
G36*
G01*
X105616070Y-100092740D02*
X105616070Y-100567740D01*
G75*
G02*
X105378570Y-100805240I-237500J0D01*
G01*
X104803570Y-100805240D01*
G75*
G02*
X104566070Y-100567740I0J237500D01*
G01*
X104566070Y-100092740D01*
G75*
G02*
X104803570Y-99855240I237500J0D01*
G01*
X105378570Y-99855240D01*
G75*
G02*
X105616070Y-100092740I0J-237500D01*
G01*
G37*
G36*
G01*
X107366070Y-100092740D02*
X107366070Y-100567740D01*
G75*
G02*
X107128570Y-100805240I-237500J0D01*
G01*
X106553570Y-100805240D01*
G75*
G02*
X106316070Y-100567740I0J237500D01*
G01*
X106316070Y-100092740D01*
G75*
G02*
X106553570Y-99855240I237500J0D01*
G01*
X107128570Y-99855240D01*
G75*
G02*
X107366070Y-100092740I0J-237500D01*
G01*
G37*
G36*
G01*
X86565990Y-100092740D02*
X86565990Y-100567740D01*
G75*
G02*
X86328490Y-100805240I-237500J0D01*
G01*
X85753490Y-100805240D01*
G75*
G02*
X85515990Y-100567740I0J237500D01*
G01*
X85515990Y-100092740D01*
G75*
G02*
X85753490Y-99855240I237500J0D01*
G01*
X86328490Y-99855240D01*
G75*
G02*
X86565990Y-100092740I0J-237500D01*
G01*
G37*
G36*
G01*
X88315990Y-100092740D02*
X88315990Y-100567740D01*
G75*
G02*
X88078490Y-100805240I-237500J0D01*
G01*
X87503490Y-100805240D01*
G75*
G02*
X87265990Y-100567740I0J237500D01*
G01*
X87265990Y-100092740D01*
G75*
G02*
X87503490Y-99855240I237500J0D01*
G01*
X88078490Y-99855240D01*
G75*
G02*
X88315990Y-100092740I0J-237500D01*
G01*
G37*
G36*
G01*
X67515910Y-100092740D02*
X67515910Y-100567740D01*
G75*
G02*
X67278410Y-100805240I-237500J0D01*
G01*
X66703410Y-100805240D01*
G75*
G02*
X66465910Y-100567740I0J237500D01*
G01*
X66465910Y-100092740D01*
G75*
G02*
X66703410Y-99855240I237500J0D01*
G01*
X67278410Y-99855240D01*
G75*
G02*
X67515910Y-100092740I0J-237500D01*
G01*
G37*
G36*
G01*
X69265910Y-100092740D02*
X69265910Y-100567740D01*
G75*
G02*
X69028410Y-100805240I-237500J0D01*
G01*
X68453410Y-100805240D01*
G75*
G02*
X68215910Y-100567740I0J237500D01*
G01*
X68215910Y-100092740D01*
G75*
G02*
X68453410Y-99855240I237500J0D01*
G01*
X69028410Y-99855240D01*
G75*
G02*
X69265910Y-100092740I0J-237500D01*
G01*
G37*
G36*
G01*
X48465830Y-100092740D02*
X48465830Y-100567740D01*
G75*
G02*
X48228330Y-100805240I-237500J0D01*
G01*
X47653330Y-100805240D01*
G75*
G02*
X47415830Y-100567740I0J237500D01*
G01*
X47415830Y-100092740D01*
G75*
G02*
X47653330Y-99855240I237500J0D01*
G01*
X48228330Y-99855240D01*
G75*
G02*
X48465830Y-100092740I0J-237500D01*
G01*
G37*
G36*
G01*
X50215830Y-100092740D02*
X50215830Y-100567740D01*
G75*
G02*
X49978330Y-100805240I-237500J0D01*
G01*
X49403330Y-100805240D01*
G75*
G02*
X49165830Y-100567740I0J237500D01*
G01*
X49165830Y-100092740D01*
G75*
G02*
X49403330Y-99855240I237500J0D01*
G01*
X49978330Y-99855240D01*
G75*
G02*
X50215830Y-100092740I0J-237500D01*
G01*
G37*
G36*
G01*
X29415750Y-100092740D02*
X29415750Y-100567740D01*
G75*
G02*
X29178250Y-100805240I-237500J0D01*
G01*
X28603250Y-100805240D01*
G75*
G02*
X28365750Y-100567740I0J237500D01*
G01*
X28365750Y-100092740D01*
G75*
G02*
X28603250Y-99855240I237500J0D01*
G01*
X29178250Y-99855240D01*
G75*
G02*
X29415750Y-100092740I0J-237500D01*
G01*
G37*
G36*
G01*
X31165750Y-100092740D02*
X31165750Y-100567740D01*
G75*
G02*
X30928250Y-100805240I-237500J0D01*
G01*
X30353250Y-100805240D01*
G75*
G02*
X30115750Y-100567740I0J237500D01*
G01*
X30115750Y-100092740D01*
G75*
G02*
X30353250Y-99855240I237500J0D01*
G01*
X30928250Y-99855240D01*
G75*
G02*
X31165750Y-100092740I0J-237500D01*
G01*
G37*
G36*
G01*
X17509450Y-100092740D02*
X17509450Y-100567740D01*
G75*
G02*
X17271950Y-100805240I-237500J0D01*
G01*
X16696950Y-100805240D01*
G75*
G02*
X16459450Y-100567740I0J237500D01*
G01*
X16459450Y-100092740D01*
G75*
G02*
X16696950Y-99855240I237500J0D01*
G01*
X17271950Y-99855240D01*
G75*
G02*
X17509450Y-100092740I0J-237500D01*
G01*
G37*
G36*
G01*
X19259450Y-100092740D02*
X19259450Y-100567740D01*
G75*
G02*
X19021950Y-100805240I-237500J0D01*
G01*
X18446950Y-100805240D01*
G75*
G02*
X18209450Y-100567740I0J237500D01*
G01*
X18209450Y-100092740D01*
G75*
G02*
X18446950Y-99855240I237500J0D01*
G01*
X19021950Y-99855240D01*
G75*
G02*
X19259450Y-100092740I0J-237500D01*
G01*
G37*
G36*
G01*
X260397970Y-81042660D02*
X260397970Y-81517660D01*
G75*
G02*
X260160470Y-81755160I-237500J0D01*
G01*
X259585470Y-81755160D01*
G75*
G02*
X259347970Y-81517660I0J237500D01*
G01*
X259347970Y-81042660D01*
G75*
G02*
X259585470Y-80805160I237500J0D01*
G01*
X260160470Y-80805160D01*
G75*
G02*
X260397970Y-81042660I0J-237500D01*
G01*
G37*
G36*
G01*
X262147970Y-81042660D02*
X262147970Y-81517660D01*
G75*
G02*
X261910470Y-81755160I-237500J0D01*
G01*
X261335470Y-81755160D01*
G75*
G02*
X261097970Y-81517660I0J237500D01*
G01*
X261097970Y-81042660D01*
G75*
G02*
X261335470Y-80805160I237500J0D01*
G01*
X261910470Y-80805160D01*
G75*
G02*
X262147970Y-81042660I0J-237500D01*
G01*
G37*
G36*
G01*
X248491670Y-81042660D02*
X248491670Y-81517660D01*
G75*
G02*
X248254170Y-81755160I-237500J0D01*
G01*
X247679170Y-81755160D01*
G75*
G02*
X247441670Y-81517660I0J237500D01*
G01*
X247441670Y-81042660D01*
G75*
G02*
X247679170Y-80805160I237500J0D01*
G01*
X248254170Y-80805160D01*
G75*
G02*
X248491670Y-81042660I0J-237500D01*
G01*
G37*
G36*
G01*
X250241670Y-81042660D02*
X250241670Y-81517660D01*
G75*
G02*
X250004170Y-81755160I-237500J0D01*
G01*
X249429170Y-81755160D01*
G75*
G02*
X249191670Y-81517660I0J237500D01*
G01*
X249191670Y-81042660D01*
G75*
G02*
X249429170Y-80805160I237500J0D01*
G01*
X250004170Y-80805160D01*
G75*
G02*
X250241670Y-81042660I0J-237500D01*
G01*
G37*
G36*
G01*
X229441590Y-81042660D02*
X229441590Y-81517660D01*
G75*
G02*
X229204090Y-81755160I-237500J0D01*
G01*
X228629090Y-81755160D01*
G75*
G02*
X228391590Y-81517660I0J237500D01*
G01*
X228391590Y-81042660D01*
G75*
G02*
X228629090Y-80805160I237500J0D01*
G01*
X229204090Y-80805160D01*
G75*
G02*
X229441590Y-81042660I0J-237500D01*
G01*
G37*
G36*
G01*
X231191590Y-81042660D02*
X231191590Y-81517660D01*
G75*
G02*
X230954090Y-81755160I-237500J0D01*
G01*
X230379090Y-81755160D01*
G75*
G02*
X230141590Y-81517660I0J237500D01*
G01*
X230141590Y-81042660D01*
G75*
G02*
X230379090Y-80805160I237500J0D01*
G01*
X230954090Y-80805160D01*
G75*
G02*
X231191590Y-81042660I0J-237500D01*
G01*
G37*
G36*
G01*
X210391510Y-81042660D02*
X210391510Y-81517660D01*
G75*
G02*
X210154010Y-81755160I-237500J0D01*
G01*
X209579010Y-81755160D01*
G75*
G02*
X209341510Y-81517660I0J237500D01*
G01*
X209341510Y-81042660D01*
G75*
G02*
X209579010Y-80805160I237500J0D01*
G01*
X210154010Y-80805160D01*
G75*
G02*
X210391510Y-81042660I0J-237500D01*
G01*
G37*
G36*
G01*
X212141510Y-81042660D02*
X212141510Y-81517660D01*
G75*
G02*
X211904010Y-81755160I-237500J0D01*
G01*
X211329010Y-81755160D01*
G75*
G02*
X211091510Y-81517660I0J237500D01*
G01*
X211091510Y-81042660D01*
G75*
G02*
X211329010Y-80805160I237500J0D01*
G01*
X211904010Y-80805160D01*
G75*
G02*
X212141510Y-81042660I0J-237500D01*
G01*
G37*
G36*
G01*
X191341430Y-81042660D02*
X191341430Y-81517660D01*
G75*
G02*
X191103930Y-81755160I-237500J0D01*
G01*
X190528930Y-81755160D01*
G75*
G02*
X190291430Y-81517660I0J237500D01*
G01*
X190291430Y-81042660D01*
G75*
G02*
X190528930Y-80805160I237500J0D01*
G01*
X191103930Y-80805160D01*
G75*
G02*
X191341430Y-81042660I0J-237500D01*
G01*
G37*
G36*
G01*
X193091430Y-81042660D02*
X193091430Y-81517660D01*
G75*
G02*
X192853930Y-81755160I-237500J0D01*
G01*
X192278930Y-81755160D01*
G75*
G02*
X192041430Y-81517660I0J237500D01*
G01*
X192041430Y-81042660D01*
G75*
G02*
X192278930Y-80805160I237500J0D01*
G01*
X192853930Y-80805160D01*
G75*
G02*
X193091430Y-81042660I0J-237500D01*
G01*
G37*
G36*
G01*
X172291350Y-81042660D02*
X172291350Y-81517660D01*
G75*
G02*
X172053850Y-81755160I-237500J0D01*
G01*
X171478850Y-81755160D01*
G75*
G02*
X171241350Y-81517660I0J237500D01*
G01*
X171241350Y-81042660D01*
G75*
G02*
X171478850Y-80805160I237500J0D01*
G01*
X172053850Y-80805160D01*
G75*
G02*
X172291350Y-81042660I0J-237500D01*
G01*
G37*
G36*
G01*
X174041350Y-81042660D02*
X174041350Y-81517660D01*
G75*
G02*
X173803850Y-81755160I-237500J0D01*
G01*
X173228850Y-81755160D01*
G75*
G02*
X172991350Y-81517660I0J237500D01*
G01*
X172991350Y-81042660D01*
G75*
G02*
X173228850Y-80805160I237500J0D01*
G01*
X173803850Y-80805160D01*
G75*
G02*
X174041350Y-81042660I0J-237500D01*
G01*
G37*
G36*
G01*
X153241270Y-81042660D02*
X153241270Y-81517660D01*
G75*
G02*
X153003770Y-81755160I-237500J0D01*
G01*
X152428770Y-81755160D01*
G75*
G02*
X152191270Y-81517660I0J237500D01*
G01*
X152191270Y-81042660D01*
G75*
G02*
X152428770Y-80805160I237500J0D01*
G01*
X153003770Y-80805160D01*
G75*
G02*
X153241270Y-81042660I0J-237500D01*
G01*
G37*
G36*
G01*
X154991270Y-81042660D02*
X154991270Y-81517660D01*
G75*
G02*
X154753770Y-81755160I-237500J0D01*
G01*
X154178770Y-81755160D01*
G75*
G02*
X153941270Y-81517660I0J237500D01*
G01*
X153941270Y-81042660D01*
G75*
G02*
X154178770Y-80805160I237500J0D01*
G01*
X154753770Y-80805160D01*
G75*
G02*
X154991270Y-81042660I0J-237500D01*
G01*
G37*
G36*
G01*
X134191190Y-81042660D02*
X134191190Y-81517660D01*
G75*
G02*
X133953690Y-81755160I-237500J0D01*
G01*
X133378690Y-81755160D01*
G75*
G02*
X133141190Y-81517660I0J237500D01*
G01*
X133141190Y-81042660D01*
G75*
G02*
X133378690Y-80805160I237500J0D01*
G01*
X133953690Y-80805160D01*
G75*
G02*
X134191190Y-81042660I0J-237500D01*
G01*
G37*
G36*
G01*
X135941190Y-81042660D02*
X135941190Y-81517660D01*
G75*
G02*
X135703690Y-81755160I-237500J0D01*
G01*
X135128690Y-81755160D01*
G75*
G02*
X134891190Y-81517660I0J237500D01*
G01*
X134891190Y-81042660D01*
G75*
G02*
X135128690Y-80805160I237500J0D01*
G01*
X135703690Y-80805160D01*
G75*
G02*
X135941190Y-81042660I0J-237500D01*
G01*
G37*
G36*
G01*
X115141110Y-81042660D02*
X115141110Y-81517660D01*
G75*
G02*
X114903610Y-81755160I-237500J0D01*
G01*
X114328610Y-81755160D01*
G75*
G02*
X114091110Y-81517660I0J237500D01*
G01*
X114091110Y-81042660D01*
G75*
G02*
X114328610Y-80805160I237500J0D01*
G01*
X114903610Y-80805160D01*
G75*
G02*
X115141110Y-81042660I0J-237500D01*
G01*
G37*
G36*
G01*
X116891110Y-81042660D02*
X116891110Y-81517660D01*
G75*
G02*
X116653610Y-81755160I-237500J0D01*
G01*
X116078610Y-81755160D01*
G75*
G02*
X115841110Y-81517660I0J237500D01*
G01*
X115841110Y-81042660D01*
G75*
G02*
X116078610Y-80805160I237500J0D01*
G01*
X116653610Y-80805160D01*
G75*
G02*
X116891110Y-81042660I0J-237500D01*
G01*
G37*
G36*
G01*
X96091030Y-81042660D02*
X96091030Y-81517660D01*
G75*
G02*
X95853530Y-81755160I-237500J0D01*
G01*
X95278530Y-81755160D01*
G75*
G02*
X95041030Y-81517660I0J237500D01*
G01*
X95041030Y-81042660D01*
G75*
G02*
X95278530Y-80805160I237500J0D01*
G01*
X95853530Y-80805160D01*
G75*
G02*
X96091030Y-81042660I0J-237500D01*
G01*
G37*
G36*
G01*
X97841030Y-81042660D02*
X97841030Y-81517660D01*
G75*
G02*
X97603530Y-81755160I-237500J0D01*
G01*
X97028530Y-81755160D01*
G75*
G02*
X96791030Y-81517660I0J237500D01*
G01*
X96791030Y-81042660D01*
G75*
G02*
X97028530Y-80805160I237500J0D01*
G01*
X97603530Y-80805160D01*
G75*
G02*
X97841030Y-81042660I0J-237500D01*
G01*
G37*
G36*
G01*
X77040950Y-81042660D02*
X77040950Y-81517660D01*
G75*
G02*
X76803450Y-81755160I-237500J0D01*
G01*
X76228450Y-81755160D01*
G75*
G02*
X75990950Y-81517660I0J237500D01*
G01*
X75990950Y-81042660D01*
G75*
G02*
X76228450Y-80805160I237500J0D01*
G01*
X76803450Y-80805160D01*
G75*
G02*
X77040950Y-81042660I0J-237500D01*
G01*
G37*
G36*
G01*
X78790950Y-81042660D02*
X78790950Y-81517660D01*
G75*
G02*
X78553450Y-81755160I-237500J0D01*
G01*
X77978450Y-81755160D01*
G75*
G02*
X77740950Y-81517660I0J237500D01*
G01*
X77740950Y-81042660D01*
G75*
G02*
X77978450Y-80805160I237500J0D01*
G01*
X78553450Y-80805160D01*
G75*
G02*
X78790950Y-81042660I0J-237500D01*
G01*
G37*
G36*
G01*
X57990870Y-81042660D02*
X57990870Y-81517660D01*
G75*
G02*
X57753370Y-81755160I-237500J0D01*
G01*
X57178370Y-81755160D01*
G75*
G02*
X56940870Y-81517660I0J237500D01*
G01*
X56940870Y-81042660D01*
G75*
G02*
X57178370Y-80805160I237500J0D01*
G01*
X57753370Y-80805160D01*
G75*
G02*
X57990870Y-81042660I0J-237500D01*
G01*
G37*
G36*
G01*
X59740870Y-81042660D02*
X59740870Y-81517660D01*
G75*
G02*
X59503370Y-81755160I-237500J0D01*
G01*
X58928370Y-81755160D01*
G75*
G02*
X58690870Y-81517660I0J237500D01*
G01*
X58690870Y-81042660D01*
G75*
G02*
X58928370Y-80805160I237500J0D01*
G01*
X59503370Y-80805160D01*
G75*
G02*
X59740870Y-81042660I0J-237500D01*
G01*
G37*
G36*
G01*
X38940790Y-81042660D02*
X38940790Y-81517660D01*
G75*
G02*
X38703290Y-81755160I-237500J0D01*
G01*
X38128290Y-81755160D01*
G75*
G02*
X37890790Y-81517660I0J237500D01*
G01*
X37890790Y-81042660D01*
G75*
G02*
X38128290Y-80805160I237500J0D01*
G01*
X38703290Y-80805160D01*
G75*
G02*
X38940790Y-81042660I0J-237500D01*
G01*
G37*
G36*
G01*
X40690790Y-81042660D02*
X40690790Y-81517660D01*
G75*
G02*
X40453290Y-81755160I-237500J0D01*
G01*
X39878290Y-81755160D01*
G75*
G02*
X39640790Y-81517660I0J237500D01*
G01*
X39640790Y-81042660D01*
G75*
G02*
X39878290Y-80805160I237500J0D01*
G01*
X40453290Y-80805160D01*
G75*
G02*
X40690790Y-81042660I0J-237500D01*
G01*
G37*
G36*
G01*
X12746930Y-81042660D02*
X12746930Y-81517660D01*
G75*
G02*
X12509430Y-81755160I-237500J0D01*
G01*
X11934430Y-81755160D01*
G75*
G02*
X11696930Y-81517660I0J237500D01*
G01*
X11696930Y-81042660D01*
G75*
G02*
X11934430Y-80805160I237500J0D01*
G01*
X12509430Y-80805160D01*
G75*
G02*
X12746930Y-81042660I0J-237500D01*
G01*
G37*
G36*
G01*
X14496930Y-81042660D02*
X14496930Y-81517660D01*
G75*
G02*
X14259430Y-81755160I-237500J0D01*
G01*
X13684430Y-81755160D01*
G75*
G02*
X13446930Y-81517660I0J237500D01*
G01*
X13446930Y-81042660D01*
G75*
G02*
X13684430Y-80805160I237500J0D01*
G01*
X14259430Y-80805160D01*
G75*
G02*
X14496930Y-81042660I0J-237500D01*
G01*
G37*
G36*
G01*
X100853550Y-119142820D02*
X100853550Y-119617820D01*
G75*
G02*
X100616050Y-119855320I-237500J0D01*
G01*
X100041050Y-119855320D01*
G75*
G02*
X99803550Y-119617820I0J237500D01*
G01*
X99803550Y-119142820D01*
G75*
G02*
X100041050Y-118905320I237500J0D01*
G01*
X100616050Y-118905320D01*
G75*
G02*
X100853550Y-119142820I0J-237500D01*
G01*
G37*
G36*
G01*
X102603550Y-119142820D02*
X102603550Y-119617820D01*
G75*
G02*
X102366050Y-119855320I-237500J0D01*
G01*
X101791050Y-119855320D01*
G75*
G02*
X101553550Y-119617820I0J237500D01*
G01*
X101553550Y-119142820D01*
G75*
G02*
X101791050Y-118905320I237500J0D01*
G01*
X102366050Y-118905320D01*
G75*
G02*
X102603550Y-119142820I0J-237500D01*
G01*
G37*
G36*
G01*
X119903630Y-119142820D02*
X119903630Y-119617820D01*
G75*
G02*
X119666130Y-119855320I-237500J0D01*
G01*
X119091130Y-119855320D01*
G75*
G02*
X118853630Y-119617820I0J237500D01*
G01*
X118853630Y-119142820D01*
G75*
G02*
X119091130Y-118905320I237500J0D01*
G01*
X119666130Y-118905320D01*
G75*
G02*
X119903630Y-119142820I0J-237500D01*
G01*
G37*
G36*
G01*
X121653630Y-119142820D02*
X121653630Y-119617820D01*
G75*
G02*
X121416130Y-119855320I-237500J0D01*
G01*
X120841130Y-119855320D01*
G75*
G02*
X120603630Y-119617820I0J237500D01*
G01*
X120603630Y-119142820D01*
G75*
G02*
X120841130Y-118905320I237500J0D01*
G01*
X121416130Y-118905320D01*
G75*
G02*
X121653630Y-119142820I0J-237500D01*
G01*
G37*
G36*
G01*
X340169200Y-119142980D02*
X340169200Y-119617980D01*
G75*
G02*
X339931700Y-119855480I-237500J0D01*
G01*
X339356700Y-119855480D01*
G75*
G02*
X339119200Y-119617980I0J237500D01*
G01*
X339119200Y-119142980D01*
G75*
G02*
X339356700Y-118905480I237500J0D01*
G01*
X339931700Y-118905480D01*
G75*
G02*
X340169200Y-119142980I0J-237500D01*
G01*
G37*
G36*
G01*
X341919200Y-119142980D02*
X341919200Y-119617980D01*
G75*
G02*
X341681700Y-119855480I-237500J0D01*
G01*
X341106700Y-119855480D01*
G75*
G02*
X340869200Y-119617980I0J237500D01*
G01*
X340869200Y-119142980D01*
G75*
G02*
X341106700Y-118905480I237500J0D01*
G01*
X341681700Y-118905480D01*
G75*
G02*
X341919200Y-119142980I0J-237500D01*
G01*
G37*
G36*
G01*
X321119120Y-119142980D02*
X321119120Y-119617980D01*
G75*
G02*
X320881620Y-119855480I-237500J0D01*
G01*
X320306620Y-119855480D01*
G75*
G02*
X320069120Y-119617980I0J237500D01*
G01*
X320069120Y-119142980D01*
G75*
G02*
X320306620Y-118905480I237500J0D01*
G01*
X320881620Y-118905480D01*
G75*
G02*
X321119120Y-119142980I0J-237500D01*
G01*
G37*
G36*
G01*
X322869120Y-119142980D02*
X322869120Y-119617980D01*
G75*
G02*
X322631620Y-119855480I-237500J0D01*
G01*
X322056620Y-119855480D01*
G75*
G02*
X321819120Y-119617980I0J237500D01*
G01*
X321819120Y-119142980D01*
G75*
G02*
X322056620Y-118905480I237500J0D01*
G01*
X322631620Y-118905480D01*
G75*
G02*
X322869120Y-119142980I0J-237500D01*
G01*
G37*
G36*
G01*
X296711335Y-124500413D02*
X296711335Y-124975413D01*
G75*
G02*
X296473835Y-125212913I-237500J0D01*
G01*
X295898835Y-125212913D01*
G75*
G02*
X295661335Y-124975413I0J237500D01*
G01*
X295661335Y-124500413D01*
G75*
G02*
X295898835Y-124262913I237500J0D01*
G01*
X296473835Y-124262913D01*
G75*
G02*
X296711335Y-124500413I0J-237500D01*
G01*
G37*
G36*
G01*
X298461335Y-124500413D02*
X298461335Y-124975413D01*
G75*
G02*
X298223835Y-125212913I-237500J0D01*
G01*
X297648835Y-125212913D01*
G75*
G02*
X297411335Y-124975413I0J237500D01*
G01*
X297411335Y-124500413D01*
G75*
G02*
X297648835Y-124262913I237500J0D01*
G01*
X298223835Y-124262913D01*
G75*
G02*
X298461335Y-124500413I0J-237500D01*
G01*
G37*
G36*
G01*
X359219280Y-109617940D02*
X359219280Y-110092940D01*
G75*
G02*
X358981780Y-110330440I-237500J0D01*
G01*
X358406780Y-110330440D01*
G75*
G02*
X358169280Y-110092940I0J237500D01*
G01*
X358169280Y-109617940D01*
G75*
G02*
X358406780Y-109380440I237500J0D01*
G01*
X358981780Y-109380440D01*
G75*
G02*
X359219280Y-109617940I0J-237500D01*
G01*
G37*
G36*
G01*
X360969280Y-109617940D02*
X360969280Y-110092940D01*
G75*
G02*
X360731780Y-110330440I-237500J0D01*
G01*
X360156780Y-110330440D01*
G75*
G02*
X359919280Y-110092940I0J237500D01*
G01*
X359919280Y-109617940D01*
G75*
G02*
X360156780Y-109380440I237500J0D01*
G01*
X360731780Y-109380440D01*
G75*
G02*
X360969280Y-109617940I0J-237500D01*
G01*
G37*
G36*
G01*
X340169200Y-100092900D02*
X340169200Y-100567900D01*
G75*
G02*
X339931700Y-100805400I-237500J0D01*
G01*
X339356700Y-100805400D01*
G75*
G02*
X339119200Y-100567900I0J237500D01*
G01*
X339119200Y-100092900D01*
G75*
G02*
X339356700Y-99855400I237500J0D01*
G01*
X339931700Y-99855400D01*
G75*
G02*
X340169200Y-100092900I0J-237500D01*
G01*
G37*
G36*
G01*
X341919200Y-100092900D02*
X341919200Y-100567900D01*
G75*
G02*
X341681700Y-100805400I-237500J0D01*
G01*
X341106700Y-100805400D01*
G75*
G02*
X340869200Y-100567900I0J237500D01*
G01*
X340869200Y-100092900D01*
G75*
G02*
X341106700Y-99855400I237500J0D01*
G01*
X341681700Y-99855400D01*
G75*
G02*
X341919200Y-100092900I0J-237500D01*
G01*
G37*
G36*
G01*
X321119120Y-100092900D02*
X321119120Y-100567900D01*
G75*
G02*
X320881620Y-100805400I-237500J0D01*
G01*
X320306620Y-100805400D01*
G75*
G02*
X320069120Y-100567900I0J237500D01*
G01*
X320069120Y-100092900D01*
G75*
G02*
X320306620Y-99855400I237500J0D01*
G01*
X320881620Y-99855400D01*
G75*
G02*
X321119120Y-100092900I0J-237500D01*
G01*
G37*
G36*
G01*
X322869120Y-100092900D02*
X322869120Y-100567900D01*
G75*
G02*
X322631620Y-100805400I-237500J0D01*
G01*
X322056620Y-100805400D01*
G75*
G02*
X321819120Y-100567900I0J237500D01*
G01*
X321819120Y-100092900D01*
G75*
G02*
X322056620Y-99855400I237500J0D01*
G01*
X322631620Y-99855400D01*
G75*
G02*
X322869120Y-100092900I0J-237500D01*
G01*
G37*
G36*
G01*
X302069040Y-100092900D02*
X302069040Y-100567900D01*
G75*
G02*
X301831540Y-100805400I-237500J0D01*
G01*
X301256540Y-100805400D01*
G75*
G02*
X301019040Y-100567900I0J237500D01*
G01*
X301019040Y-100092900D01*
G75*
G02*
X301256540Y-99855400I237500J0D01*
G01*
X301831540Y-99855400D01*
G75*
G02*
X302069040Y-100092900I0J-237500D01*
G01*
G37*
G36*
G01*
X303819040Y-100092900D02*
X303819040Y-100567900D01*
G75*
G02*
X303581540Y-100805400I-237500J0D01*
G01*
X303006540Y-100805400D01*
G75*
G02*
X302769040Y-100567900I0J237500D01*
G01*
X302769040Y-100092900D01*
G75*
G02*
X303006540Y-99855400I237500J0D01*
G01*
X303581540Y-99855400D01*
G75*
G02*
X303819040Y-100092900I0J-237500D01*
G01*
G37*
G36*
G01*
X359219280Y-81042820D02*
X359219280Y-81517820D01*
G75*
G02*
X358981780Y-81755320I-237500J0D01*
G01*
X358406780Y-81755320D01*
G75*
G02*
X358169280Y-81517820I0J237500D01*
G01*
X358169280Y-81042820D01*
G75*
G02*
X358406780Y-80805320I237500J0D01*
G01*
X358981780Y-80805320D01*
G75*
G02*
X359219280Y-81042820I0J-237500D01*
G01*
G37*
G36*
G01*
X360969280Y-81042820D02*
X360969280Y-81517820D01*
G75*
G02*
X360731780Y-81755320I-237500J0D01*
G01*
X360156780Y-81755320D01*
G75*
G02*
X359919280Y-81517820I0J237500D01*
G01*
X359919280Y-81042820D01*
G75*
G02*
X360156780Y-80805320I237500J0D01*
G01*
X360731780Y-80805320D01*
G75*
G02*
X360969280Y-81042820I0J-237500D01*
G01*
G37*
G36*
G01*
X340169200Y-81042820D02*
X340169200Y-81517820D01*
G75*
G02*
X339931700Y-81755320I-237500J0D01*
G01*
X339356700Y-81755320D01*
G75*
G02*
X339119200Y-81517820I0J237500D01*
G01*
X339119200Y-81042820D01*
G75*
G02*
X339356700Y-80805320I237500J0D01*
G01*
X339931700Y-80805320D01*
G75*
G02*
X340169200Y-81042820I0J-237500D01*
G01*
G37*
G36*
G01*
X341919200Y-81042820D02*
X341919200Y-81517820D01*
G75*
G02*
X341681700Y-81755320I-237500J0D01*
G01*
X341106700Y-81755320D01*
G75*
G02*
X340869200Y-81517820I0J237500D01*
G01*
X340869200Y-81042820D01*
G75*
G02*
X341106700Y-80805320I237500J0D01*
G01*
X341681700Y-80805320D01*
G75*
G02*
X341919200Y-81042820I0J-237500D01*
G01*
G37*
G36*
G01*
X321119120Y-81042820D02*
X321119120Y-81517820D01*
G75*
G02*
X320881620Y-81755320I-237500J0D01*
G01*
X320306620Y-81755320D01*
G75*
G02*
X320069120Y-81517820I0J237500D01*
G01*
X320069120Y-81042820D01*
G75*
G02*
X320306620Y-80805320I237500J0D01*
G01*
X320881620Y-80805320D01*
G75*
G02*
X321119120Y-81042820I0J-237500D01*
G01*
G37*
G36*
G01*
X322869120Y-81042820D02*
X322869120Y-81517820D01*
G75*
G02*
X322631620Y-81755320I-237500J0D01*
G01*
X322056620Y-81755320D01*
G75*
G02*
X321819120Y-81517820I0J237500D01*
G01*
X321819120Y-81042820D01*
G75*
G02*
X322056620Y-80805320I237500J0D01*
G01*
X322631620Y-80805320D01*
G75*
G02*
X322869120Y-81042820I0J-237500D01*
G01*
G37*
G36*
G01*
X302069040Y-81042820D02*
X302069040Y-81517820D01*
G75*
G02*
X301831540Y-81755320I-237500J0D01*
G01*
X301256540Y-81755320D01*
G75*
G02*
X301019040Y-81517820I0J237500D01*
G01*
X301019040Y-81042820D01*
G75*
G02*
X301256540Y-80805320I237500J0D01*
G01*
X301831540Y-80805320D01*
G75*
G02*
X302069040Y-81042820I0J-237500D01*
G01*
G37*
G36*
G01*
X303819040Y-81042820D02*
X303819040Y-81517820D01*
G75*
G02*
X303581540Y-81755320I-237500J0D01*
G01*
X303006540Y-81755320D01*
G75*
G02*
X302769040Y-81517820I0J237500D01*
G01*
X302769040Y-81042820D01*
G75*
G02*
X303006540Y-80805320I237500J0D01*
G01*
X303581540Y-80805320D01*
G75*
G02*
X303819040Y-81042820I0J-237500D01*
G01*
G37*
G36*
G01*
X359219280Y-61992740D02*
X359219280Y-62467740D01*
G75*
G02*
X358981780Y-62705240I-237500J0D01*
G01*
X358406780Y-62705240D01*
G75*
G02*
X358169280Y-62467740I0J237500D01*
G01*
X358169280Y-61992740D01*
G75*
G02*
X358406780Y-61755240I237500J0D01*
G01*
X358981780Y-61755240D01*
G75*
G02*
X359219280Y-61992740I0J-237500D01*
G01*
G37*
G36*
G01*
X360969280Y-61992740D02*
X360969280Y-62467740D01*
G75*
G02*
X360731780Y-62705240I-237500J0D01*
G01*
X360156780Y-62705240D01*
G75*
G02*
X359919280Y-62467740I0J237500D01*
G01*
X359919280Y-61992740D01*
G75*
G02*
X360156780Y-61755240I237500J0D01*
G01*
X360731780Y-61755240D01*
G75*
G02*
X360969280Y-61992740I0J-237500D01*
G01*
G37*
G36*
G01*
X340169200Y-61992740D02*
X340169200Y-62467740D01*
G75*
G02*
X339931700Y-62705240I-237500J0D01*
G01*
X339356700Y-62705240D01*
G75*
G02*
X339119200Y-62467740I0J237500D01*
G01*
X339119200Y-61992740D01*
G75*
G02*
X339356700Y-61755240I237500J0D01*
G01*
X339931700Y-61755240D01*
G75*
G02*
X340169200Y-61992740I0J-237500D01*
G01*
G37*
G36*
G01*
X341919200Y-61992740D02*
X341919200Y-62467740D01*
G75*
G02*
X341681700Y-62705240I-237500J0D01*
G01*
X341106700Y-62705240D01*
G75*
G02*
X340869200Y-62467740I0J237500D01*
G01*
X340869200Y-61992740D01*
G75*
G02*
X341106700Y-61755240I237500J0D01*
G01*
X341681700Y-61755240D01*
G75*
G02*
X341919200Y-61992740I0J-237500D01*
G01*
G37*
G36*
G01*
X321119120Y-61992740D02*
X321119120Y-62467740D01*
G75*
G02*
X320881620Y-62705240I-237500J0D01*
G01*
X320306620Y-62705240D01*
G75*
G02*
X320069120Y-62467740I0J237500D01*
G01*
X320069120Y-61992740D01*
G75*
G02*
X320306620Y-61755240I237500J0D01*
G01*
X320881620Y-61755240D01*
G75*
G02*
X321119120Y-61992740I0J-237500D01*
G01*
G37*
G36*
G01*
X322869120Y-61992740D02*
X322869120Y-62467740D01*
G75*
G02*
X322631620Y-62705240I-237500J0D01*
G01*
X322056620Y-62705240D01*
G75*
G02*
X321819120Y-62467740I0J237500D01*
G01*
X321819120Y-61992740D01*
G75*
G02*
X322056620Y-61755240I237500J0D01*
G01*
X322631620Y-61755240D01*
G75*
G02*
X322869120Y-61992740I0J-237500D01*
G01*
G37*
G36*
G01*
X302069040Y-61992740D02*
X302069040Y-62467740D01*
G75*
G02*
X301831540Y-62705240I-237500J0D01*
G01*
X301256540Y-62705240D01*
G75*
G02*
X301019040Y-62467740I0J237500D01*
G01*
X301019040Y-61992740D01*
G75*
G02*
X301256540Y-61755240I237500J0D01*
G01*
X301831540Y-61755240D01*
G75*
G02*
X302069040Y-61992740I0J-237500D01*
G01*
G37*
G36*
G01*
X303819040Y-61992740D02*
X303819040Y-62467740D01*
G75*
G02*
X303581540Y-62705240I-237500J0D01*
G01*
X303006540Y-62705240D01*
G75*
G02*
X302769040Y-62467740I0J237500D01*
G01*
X302769040Y-61992740D01*
G75*
G02*
X303006540Y-61755240I237500J0D01*
G01*
X303581540Y-61755240D01*
G75*
G02*
X303819040Y-61992740I0J-237500D01*
G01*
G37*
G36*
G01*
X270071025Y-62016413D02*
X270071025Y-62491413D01*
G75*
G02*
X269833525Y-62728913I-237500J0D01*
G01*
X269258525Y-62728913D01*
G75*
G02*
X269021025Y-62491413I0J237500D01*
G01*
X269021025Y-62016413D01*
G75*
G02*
X269258525Y-61778913I237500J0D01*
G01*
X269833525Y-61778913D01*
G75*
G02*
X270071025Y-62016413I0J-237500D01*
G01*
G37*
G36*
G01*
X271821025Y-62016413D02*
X271821025Y-62491413D01*
G75*
G02*
X271583525Y-62728913I-237500J0D01*
G01*
X271008525Y-62728913D01*
G75*
G02*
X270771025Y-62491413I0J237500D01*
G01*
X270771025Y-62016413D01*
G75*
G02*
X271008525Y-61778913I237500J0D01*
G01*
X271583525Y-61778913D01*
G75*
G02*
X271821025Y-62016413I0J-237500D01*
G01*
G37*
G36*
G01*
X243729150Y-61992580D02*
X243729150Y-62467580D01*
G75*
G02*
X243491650Y-62705080I-237500J0D01*
G01*
X242916650Y-62705080D01*
G75*
G02*
X242679150Y-62467580I0J237500D01*
G01*
X242679150Y-61992580D01*
G75*
G02*
X242916650Y-61755080I237500J0D01*
G01*
X243491650Y-61755080D01*
G75*
G02*
X243729150Y-61992580I0J-237500D01*
G01*
G37*
G36*
G01*
X245479150Y-61992580D02*
X245479150Y-62467580D01*
G75*
G02*
X245241650Y-62705080I-237500J0D01*
G01*
X244666650Y-62705080D01*
G75*
G02*
X244429150Y-62467580I0J237500D01*
G01*
X244429150Y-61992580D01*
G75*
G02*
X244666650Y-61755080I237500J0D01*
G01*
X245241650Y-61755080D01*
G75*
G02*
X245479150Y-61992580I0J-237500D01*
G01*
G37*
G36*
G01*
X224679070Y-61992580D02*
X224679070Y-62467580D01*
G75*
G02*
X224441570Y-62705080I-237500J0D01*
G01*
X223866570Y-62705080D01*
G75*
G02*
X223629070Y-62467580I0J237500D01*
G01*
X223629070Y-61992580D01*
G75*
G02*
X223866570Y-61755080I237500J0D01*
G01*
X224441570Y-61755080D01*
G75*
G02*
X224679070Y-61992580I0J-237500D01*
G01*
G37*
G36*
G01*
X226429070Y-61992580D02*
X226429070Y-62467580D01*
G75*
G02*
X226191570Y-62705080I-237500J0D01*
G01*
X225616570Y-62705080D01*
G75*
G02*
X225379070Y-62467580I0J237500D01*
G01*
X225379070Y-61992580D01*
G75*
G02*
X225616570Y-61755080I237500J0D01*
G01*
X226191570Y-61755080D01*
G75*
G02*
X226429070Y-61992580I0J-237500D01*
G01*
G37*
G36*
G01*
X205628990Y-61992580D02*
X205628990Y-62467580D01*
G75*
G02*
X205391490Y-62705080I-237500J0D01*
G01*
X204816490Y-62705080D01*
G75*
G02*
X204578990Y-62467580I0J237500D01*
G01*
X204578990Y-61992580D01*
G75*
G02*
X204816490Y-61755080I237500J0D01*
G01*
X205391490Y-61755080D01*
G75*
G02*
X205628990Y-61992580I0J-237500D01*
G01*
G37*
G36*
G01*
X207378990Y-61992580D02*
X207378990Y-62467580D01*
G75*
G02*
X207141490Y-62705080I-237500J0D01*
G01*
X206566490Y-62705080D01*
G75*
G02*
X206328990Y-62467580I0J237500D01*
G01*
X206328990Y-61992580D01*
G75*
G02*
X206566490Y-61755080I237500J0D01*
G01*
X207141490Y-61755080D01*
G75*
G02*
X207378990Y-61992580I0J-237500D01*
G01*
G37*
G36*
G01*
X186578910Y-61992580D02*
X186578910Y-62467580D01*
G75*
G02*
X186341410Y-62705080I-237500J0D01*
G01*
X185766410Y-62705080D01*
G75*
G02*
X185528910Y-62467580I0J237500D01*
G01*
X185528910Y-61992580D01*
G75*
G02*
X185766410Y-61755080I237500J0D01*
G01*
X186341410Y-61755080D01*
G75*
G02*
X186578910Y-61992580I0J-237500D01*
G01*
G37*
G36*
G01*
X188328910Y-61992580D02*
X188328910Y-62467580D01*
G75*
G02*
X188091410Y-62705080I-237500J0D01*
G01*
X187516410Y-62705080D01*
G75*
G02*
X187278910Y-62467580I0J237500D01*
G01*
X187278910Y-61992580D01*
G75*
G02*
X187516410Y-61755080I237500J0D01*
G01*
X188091410Y-61755080D01*
G75*
G02*
X188328910Y-61992580I0J-237500D01*
G01*
G37*
G36*
G01*
X167528830Y-61992580D02*
X167528830Y-62467580D01*
G75*
G02*
X167291330Y-62705080I-237500J0D01*
G01*
X166716330Y-62705080D01*
G75*
G02*
X166478830Y-62467580I0J237500D01*
G01*
X166478830Y-61992580D01*
G75*
G02*
X166716330Y-61755080I237500J0D01*
G01*
X167291330Y-61755080D01*
G75*
G02*
X167528830Y-61992580I0J-237500D01*
G01*
G37*
G36*
G01*
X169278830Y-61992580D02*
X169278830Y-62467580D01*
G75*
G02*
X169041330Y-62705080I-237500J0D01*
G01*
X168466330Y-62705080D01*
G75*
G02*
X168228830Y-62467580I0J237500D01*
G01*
X168228830Y-61992580D01*
G75*
G02*
X168466330Y-61755080I237500J0D01*
G01*
X169041330Y-61755080D01*
G75*
G02*
X169278830Y-61992580I0J-237500D01*
G01*
G37*
G36*
G01*
X148478750Y-61992580D02*
X148478750Y-62467580D01*
G75*
G02*
X148241250Y-62705080I-237500J0D01*
G01*
X147666250Y-62705080D01*
G75*
G02*
X147428750Y-62467580I0J237500D01*
G01*
X147428750Y-61992580D01*
G75*
G02*
X147666250Y-61755080I237500J0D01*
G01*
X148241250Y-61755080D01*
G75*
G02*
X148478750Y-61992580I0J-237500D01*
G01*
G37*
G36*
G01*
X150228750Y-61992580D02*
X150228750Y-62467580D01*
G75*
G02*
X149991250Y-62705080I-237500J0D01*
G01*
X149416250Y-62705080D01*
G75*
G02*
X149178750Y-62467580I0J237500D01*
G01*
X149178750Y-61992580D01*
G75*
G02*
X149416250Y-61755080I237500J0D01*
G01*
X149991250Y-61755080D01*
G75*
G02*
X150228750Y-61992580I0J-237500D01*
G01*
G37*
G36*
G01*
X129428670Y-61992580D02*
X129428670Y-62467580D01*
G75*
G02*
X129191170Y-62705080I-237500J0D01*
G01*
X128616170Y-62705080D01*
G75*
G02*
X128378670Y-62467580I0J237500D01*
G01*
X128378670Y-61992580D01*
G75*
G02*
X128616170Y-61755080I237500J0D01*
G01*
X129191170Y-61755080D01*
G75*
G02*
X129428670Y-61992580I0J-237500D01*
G01*
G37*
G36*
G01*
X131178670Y-61992580D02*
X131178670Y-62467580D01*
G75*
G02*
X130941170Y-62705080I-237500J0D01*
G01*
X130366170Y-62705080D01*
G75*
G02*
X130128670Y-62467580I0J237500D01*
G01*
X130128670Y-61992580D01*
G75*
G02*
X130366170Y-61755080I237500J0D01*
G01*
X130941170Y-61755080D01*
G75*
G02*
X131178670Y-61992580I0J-237500D01*
G01*
G37*
G36*
G01*
X110378590Y-61992580D02*
X110378590Y-62467580D01*
G75*
G02*
X110141090Y-62705080I-237500J0D01*
G01*
X109566090Y-62705080D01*
G75*
G02*
X109328590Y-62467580I0J237500D01*
G01*
X109328590Y-61992580D01*
G75*
G02*
X109566090Y-61755080I237500J0D01*
G01*
X110141090Y-61755080D01*
G75*
G02*
X110378590Y-61992580I0J-237500D01*
G01*
G37*
G36*
G01*
X112128590Y-61992580D02*
X112128590Y-62467580D01*
G75*
G02*
X111891090Y-62705080I-237500J0D01*
G01*
X111316090Y-62705080D01*
G75*
G02*
X111078590Y-62467580I0J237500D01*
G01*
X111078590Y-61992580D01*
G75*
G02*
X111316090Y-61755080I237500J0D01*
G01*
X111891090Y-61755080D01*
G75*
G02*
X112128590Y-61992580I0J-237500D01*
G01*
G37*
G36*
G01*
X91328510Y-61992580D02*
X91328510Y-62467580D01*
G75*
G02*
X91091010Y-62705080I-237500J0D01*
G01*
X90516010Y-62705080D01*
G75*
G02*
X90278510Y-62467580I0J237500D01*
G01*
X90278510Y-61992580D01*
G75*
G02*
X90516010Y-61755080I237500J0D01*
G01*
X91091010Y-61755080D01*
G75*
G02*
X91328510Y-61992580I0J-237500D01*
G01*
G37*
G36*
G01*
X93078510Y-61992580D02*
X93078510Y-62467580D01*
G75*
G02*
X92841010Y-62705080I-237500J0D01*
G01*
X92266010Y-62705080D01*
G75*
G02*
X92028510Y-62467580I0J237500D01*
G01*
X92028510Y-61992580D01*
G75*
G02*
X92266010Y-61755080I237500J0D01*
G01*
X92841010Y-61755080D01*
G75*
G02*
X93078510Y-61992580I0J-237500D01*
G01*
G37*
G36*
G01*
X72278430Y-61992580D02*
X72278430Y-62467580D01*
G75*
G02*
X72040930Y-62705080I-237500J0D01*
G01*
X71465930Y-62705080D01*
G75*
G02*
X71228430Y-62467580I0J237500D01*
G01*
X71228430Y-61992580D01*
G75*
G02*
X71465930Y-61755080I237500J0D01*
G01*
X72040930Y-61755080D01*
G75*
G02*
X72278430Y-61992580I0J-237500D01*
G01*
G37*
G36*
G01*
X74028430Y-61992580D02*
X74028430Y-62467580D01*
G75*
G02*
X73790930Y-62705080I-237500J0D01*
G01*
X73215930Y-62705080D01*
G75*
G02*
X72978430Y-62467580I0J237500D01*
G01*
X72978430Y-61992580D01*
G75*
G02*
X73215930Y-61755080I237500J0D01*
G01*
X73790930Y-61755080D01*
G75*
G02*
X74028430Y-61992580I0J-237500D01*
G01*
G37*
G36*
G01*
X53228350Y-61992580D02*
X53228350Y-62467580D01*
G75*
G02*
X52990850Y-62705080I-237500J0D01*
G01*
X52415850Y-62705080D01*
G75*
G02*
X52178350Y-62467580I0J237500D01*
G01*
X52178350Y-61992580D01*
G75*
G02*
X52415850Y-61755080I237500J0D01*
G01*
X52990850Y-61755080D01*
G75*
G02*
X53228350Y-61992580I0J-237500D01*
G01*
G37*
G36*
G01*
X54978350Y-61992580D02*
X54978350Y-62467580D01*
G75*
G02*
X54740850Y-62705080I-237500J0D01*
G01*
X54165850Y-62705080D01*
G75*
G02*
X53928350Y-62467580I0J237500D01*
G01*
X53928350Y-61992580D01*
G75*
G02*
X54165850Y-61755080I237500J0D01*
G01*
X54740850Y-61755080D01*
G75*
G02*
X54978350Y-61992580I0J-237500D01*
G01*
G37*
G36*
G01*
X34493900Y-61992580D02*
X34493900Y-62467580D01*
G75*
G02*
X34256400Y-62705080I-237500J0D01*
G01*
X33681400Y-62705080D01*
G75*
G02*
X33443900Y-62467580I0J237500D01*
G01*
X33443900Y-61992580D01*
G75*
G02*
X33681400Y-61755080I237500J0D01*
G01*
X34256400Y-61755080D01*
G75*
G02*
X34493900Y-61992580I0J-237500D01*
G01*
G37*
G36*
G01*
X36243900Y-61992580D02*
X36243900Y-62467580D01*
G75*
G02*
X36006400Y-62705080I-237500J0D01*
G01*
X35431400Y-62705080D01*
G75*
G02*
X35193900Y-62467580I0J237500D01*
G01*
X35193900Y-61992580D01*
G75*
G02*
X35431400Y-61755080I237500J0D01*
G01*
X36006400Y-61755080D01*
G75*
G02*
X36243900Y-61992580I0J-237500D01*
G01*
G37*
G36*
G01*
X10365670Y-61992580D02*
X10365670Y-62467580D01*
G75*
G02*
X10128170Y-62705080I-237500J0D01*
G01*
X9553170Y-62705080D01*
G75*
G02*
X9315670Y-62467580I0J237500D01*
G01*
X9315670Y-61992580D01*
G75*
G02*
X9553170Y-61755080I237500J0D01*
G01*
X10128170Y-61755080D01*
G75*
G02*
X10365670Y-61992580I0J-237500D01*
G01*
G37*
G36*
G01*
X12115670Y-61992580D02*
X12115670Y-62467580D01*
G75*
G02*
X11878170Y-62705080I-237500J0D01*
G01*
X11303170Y-62705080D01*
G75*
G02*
X11065670Y-62467580I0J237500D01*
G01*
X11065670Y-61992580D01*
G75*
G02*
X11303170Y-61755080I237500J0D01*
G01*
X11878170Y-61755080D01*
G75*
G02*
X12115670Y-61992580I0J-237500D01*
G01*
G37*
G36*
G01*
X359219280Y-42942500D02*
X359219280Y-43417500D01*
G75*
G02*
X358981780Y-43655000I-237500J0D01*
G01*
X358406780Y-43655000D01*
G75*
G02*
X358169280Y-43417500I0J237500D01*
G01*
X358169280Y-42942500D01*
G75*
G02*
X358406780Y-42705000I237500J0D01*
G01*
X358981780Y-42705000D01*
G75*
G02*
X359219280Y-42942500I0J-237500D01*
G01*
G37*
G36*
G01*
X360969280Y-42942500D02*
X360969280Y-43417500D01*
G75*
G02*
X360731780Y-43655000I-237500J0D01*
G01*
X360156780Y-43655000D01*
G75*
G02*
X359919280Y-43417500I0J237500D01*
G01*
X359919280Y-42942500D01*
G75*
G02*
X360156780Y-42705000I237500J0D01*
G01*
X360731780Y-42705000D01*
G75*
G02*
X360969280Y-42942500I0J-237500D01*
G01*
G37*
G36*
G01*
X340169015Y-42942500D02*
X340169015Y-43417500D01*
G75*
G02*
X339931515Y-43655000I-237500J0D01*
G01*
X339356515Y-43655000D01*
G75*
G02*
X339119015Y-43417500I0J237500D01*
G01*
X339119015Y-42942500D01*
G75*
G02*
X339356515Y-42705000I237500J0D01*
G01*
X339931515Y-42705000D01*
G75*
G02*
X340169015Y-42942500I0J-237500D01*
G01*
G37*
G36*
G01*
X341919015Y-42942500D02*
X341919015Y-43417500D01*
G75*
G02*
X341681515Y-43655000I-237500J0D01*
G01*
X341106515Y-43655000D01*
G75*
G02*
X340869015Y-43417500I0J237500D01*
G01*
X340869015Y-42942500D01*
G75*
G02*
X341106515Y-42705000I237500J0D01*
G01*
X341681515Y-42705000D01*
G75*
G02*
X341919015Y-42942500I0J-237500D01*
G01*
G37*
G36*
G01*
X321434640Y-42942500D02*
X321434640Y-43417500D01*
G75*
G02*
X321197140Y-43655000I-237500J0D01*
G01*
X320622140Y-43655000D01*
G75*
G02*
X320384640Y-43417500I0J237500D01*
G01*
X320384640Y-42942500D01*
G75*
G02*
X320622140Y-42705000I237500J0D01*
G01*
X321197140Y-42705000D01*
G75*
G02*
X321434640Y-42942500I0J-237500D01*
G01*
G37*
G36*
G01*
X323184640Y-42942500D02*
X323184640Y-43417500D01*
G75*
G02*
X322947140Y-43655000I-237500J0D01*
G01*
X322372140Y-43655000D01*
G75*
G02*
X322134640Y-43417500I0J237500D01*
G01*
X322134640Y-42942500D01*
G75*
G02*
X322372140Y-42705000I237500J0D01*
G01*
X322947140Y-42705000D01*
G75*
G02*
X323184640Y-42942500I0J-237500D01*
G01*
G37*
G36*
G01*
X302384640Y-42942500D02*
X302384640Y-43417500D01*
G75*
G02*
X302147140Y-43655000I-237500J0D01*
G01*
X301572140Y-43655000D01*
G75*
G02*
X301334640Y-43417500I0J237500D01*
G01*
X301334640Y-42942500D01*
G75*
G02*
X301572140Y-42705000I237500J0D01*
G01*
X302147140Y-42705000D01*
G75*
G02*
X302384640Y-42942500I0J-237500D01*
G01*
G37*
G36*
G01*
X304134640Y-42942500D02*
X304134640Y-43417500D01*
G75*
G02*
X303897140Y-43655000I-237500J0D01*
G01*
X303322140Y-43655000D01*
G75*
G02*
X303084640Y-43417500I0J237500D01*
G01*
X303084640Y-42942500D01*
G75*
G02*
X303322140Y-42705000I237500J0D01*
G01*
X303897140Y-42705000D01*
G75*
G02*
X304134640Y-42942500I0J-237500D01*
G01*
G37*
G36*
G01*
X263093750Y-42942500D02*
X263093750Y-43417500D01*
G75*
G02*
X262856250Y-43655000I-237500J0D01*
G01*
X262281250Y-43655000D01*
G75*
G02*
X262043750Y-43417500I0J237500D01*
G01*
X262043750Y-42942500D01*
G75*
G02*
X262281250Y-42705000I237500J0D01*
G01*
X262856250Y-42705000D01*
G75*
G02*
X263093750Y-42942500I0J-237500D01*
G01*
G37*
G36*
G01*
X264843750Y-42942500D02*
X264843750Y-43417500D01*
G75*
G02*
X264606250Y-43655000I-237500J0D01*
G01*
X264031250Y-43655000D01*
G75*
G02*
X263793750Y-43417500I0J237500D01*
G01*
X263793750Y-42942500D01*
G75*
G02*
X264031250Y-42705000I237500J0D01*
G01*
X264606250Y-42705000D01*
G75*
G02*
X264843750Y-42942500I0J-237500D01*
G01*
G37*
G36*
G01*
X234203125Y-42942500D02*
X234203125Y-43417500D01*
G75*
G02*
X233965625Y-43655000I-237500J0D01*
G01*
X233390625Y-43655000D01*
G75*
G02*
X233153125Y-43417500I0J237500D01*
G01*
X233153125Y-42942500D01*
G75*
G02*
X233390625Y-42705000I237500J0D01*
G01*
X233965625Y-42705000D01*
G75*
G02*
X234203125Y-42942500I0J-237500D01*
G01*
G37*
G36*
G01*
X235953125Y-42942500D02*
X235953125Y-43417500D01*
G75*
G02*
X235715625Y-43655000I-237500J0D01*
G01*
X235140625Y-43655000D01*
G75*
G02*
X234903125Y-43417500I0J237500D01*
G01*
X234903125Y-42942500D01*
G75*
G02*
X235140625Y-42705000I237500J0D01*
G01*
X235715625Y-42705000D01*
G75*
G02*
X235953125Y-42942500I0J-237500D01*
G01*
G37*
G36*
G01*
X215153125Y-42942500D02*
X215153125Y-43417500D01*
G75*
G02*
X214915625Y-43655000I-237500J0D01*
G01*
X214340625Y-43655000D01*
G75*
G02*
X214103125Y-43417500I0J237500D01*
G01*
X214103125Y-42942500D01*
G75*
G02*
X214340625Y-42705000I237500J0D01*
G01*
X214915625Y-42705000D01*
G75*
G02*
X215153125Y-42942500I0J-237500D01*
G01*
G37*
G36*
G01*
X216903125Y-42942500D02*
X216903125Y-43417500D01*
G75*
G02*
X216665625Y-43655000I-237500J0D01*
G01*
X216090625Y-43655000D01*
G75*
G02*
X215853125Y-43417500I0J237500D01*
G01*
X215853125Y-42942500D01*
G75*
G02*
X216090625Y-42705000I237500J0D01*
G01*
X216665625Y-42705000D01*
G75*
G02*
X216903125Y-42942500I0J-237500D01*
G01*
G37*
G36*
G01*
X196103125Y-42942500D02*
X196103125Y-43417500D01*
G75*
G02*
X195865625Y-43655000I-237500J0D01*
G01*
X195290625Y-43655000D01*
G75*
G02*
X195053125Y-43417500I0J237500D01*
G01*
X195053125Y-42942500D01*
G75*
G02*
X195290625Y-42705000I237500J0D01*
G01*
X195865625Y-42705000D01*
G75*
G02*
X196103125Y-42942500I0J-237500D01*
G01*
G37*
G36*
G01*
X197853125Y-42942500D02*
X197853125Y-43417500D01*
G75*
G02*
X197615625Y-43655000I-237500J0D01*
G01*
X197040625Y-43655000D01*
G75*
G02*
X196803125Y-43417500I0J237500D01*
G01*
X196803125Y-42942500D01*
G75*
G02*
X197040625Y-42705000I237500J0D01*
G01*
X197615625Y-42705000D01*
G75*
G02*
X197853125Y-42942500I0J-237500D01*
G01*
G37*
G36*
G01*
X177368750Y-42942500D02*
X177368750Y-43417500D01*
G75*
G02*
X177131250Y-43655000I-237500J0D01*
G01*
X176556250Y-43655000D01*
G75*
G02*
X176318750Y-43417500I0J237500D01*
G01*
X176318750Y-42942500D01*
G75*
G02*
X176556250Y-42705000I237500J0D01*
G01*
X177131250Y-42705000D01*
G75*
G02*
X177368750Y-42942500I0J-237500D01*
G01*
G37*
G36*
G01*
X179118750Y-42942500D02*
X179118750Y-43417500D01*
G75*
G02*
X178881250Y-43655000I-237500J0D01*
G01*
X178306250Y-43655000D01*
G75*
G02*
X178068750Y-43417500I0J237500D01*
G01*
X178068750Y-42942500D01*
G75*
G02*
X178306250Y-42705000I237500J0D01*
G01*
X178881250Y-42705000D01*
G75*
G02*
X179118750Y-42942500I0J-237500D01*
G01*
G37*
G36*
G01*
X158003125Y-42942500D02*
X158003125Y-43417500D01*
G75*
G02*
X157765625Y-43655000I-237500J0D01*
G01*
X157190625Y-43655000D01*
G75*
G02*
X156953125Y-43417500I0J237500D01*
G01*
X156953125Y-42942500D01*
G75*
G02*
X157190625Y-42705000I237500J0D01*
G01*
X157765625Y-42705000D01*
G75*
G02*
X158003125Y-42942500I0J-237500D01*
G01*
G37*
G36*
G01*
X159753125Y-42942500D02*
X159753125Y-43417500D01*
G75*
G02*
X159515625Y-43655000I-237500J0D01*
G01*
X158940625Y-43655000D01*
G75*
G02*
X158703125Y-43417500I0J237500D01*
G01*
X158703125Y-42942500D01*
G75*
G02*
X158940625Y-42705000I237500J0D01*
G01*
X159515625Y-42705000D01*
G75*
G02*
X159753125Y-42942500I0J-237500D01*
G01*
G37*
G36*
G01*
X138953125Y-42942500D02*
X138953125Y-43417500D01*
G75*
G02*
X138715625Y-43655000I-237500J0D01*
G01*
X138140625Y-43655000D01*
G75*
G02*
X137903125Y-43417500I0J237500D01*
G01*
X137903125Y-42942500D01*
G75*
G02*
X138140625Y-42705000I237500J0D01*
G01*
X138715625Y-42705000D01*
G75*
G02*
X138953125Y-42942500I0J-237500D01*
G01*
G37*
G36*
G01*
X140703125Y-42942500D02*
X140703125Y-43417500D01*
G75*
G02*
X140465625Y-43655000I-237500J0D01*
G01*
X139890625Y-43655000D01*
G75*
G02*
X139653125Y-43417500I0J237500D01*
G01*
X139653125Y-42942500D01*
G75*
G02*
X139890625Y-42705000I237500J0D01*
G01*
X140465625Y-42705000D01*
G75*
G02*
X140703125Y-42942500I0J-237500D01*
G01*
G37*
G36*
G01*
X120218750Y-42942500D02*
X120218750Y-43417500D01*
G75*
G02*
X119981250Y-43655000I-237500J0D01*
G01*
X119406250Y-43655000D01*
G75*
G02*
X119168750Y-43417500I0J237500D01*
G01*
X119168750Y-42942500D01*
G75*
G02*
X119406250Y-42705000I237500J0D01*
G01*
X119981250Y-42705000D01*
G75*
G02*
X120218750Y-42942500I0J-237500D01*
G01*
G37*
G36*
G01*
X121968750Y-42942500D02*
X121968750Y-43417500D01*
G75*
G02*
X121731250Y-43655000I-237500J0D01*
G01*
X121156250Y-43655000D01*
G75*
G02*
X120918750Y-43417500I0J237500D01*
G01*
X120918750Y-42942500D01*
G75*
G02*
X121156250Y-42705000I237500J0D01*
G01*
X121731250Y-42705000D01*
G75*
G02*
X121968750Y-42942500I0J-237500D01*
G01*
G37*
G36*
G01*
X101168750Y-42942500D02*
X101168750Y-43417500D01*
G75*
G02*
X100931250Y-43655000I-237500J0D01*
G01*
X100356250Y-43655000D01*
G75*
G02*
X100118750Y-43417500I0J237500D01*
G01*
X100118750Y-42942500D01*
G75*
G02*
X100356250Y-42705000I237500J0D01*
G01*
X100931250Y-42705000D01*
G75*
G02*
X101168750Y-42942500I0J-237500D01*
G01*
G37*
G36*
G01*
X102918750Y-42942500D02*
X102918750Y-43417500D01*
G75*
G02*
X102681250Y-43655000I-237500J0D01*
G01*
X102106250Y-43655000D01*
G75*
G02*
X101868750Y-43417500I0J237500D01*
G01*
X101868750Y-42942500D01*
G75*
G02*
X102106250Y-42705000I237500J0D01*
G01*
X102681250Y-42705000D01*
G75*
G02*
X102918750Y-42942500I0J-237500D01*
G01*
G37*
G36*
G01*
X82118750Y-42942500D02*
X82118750Y-43417500D01*
G75*
G02*
X81881250Y-43655000I-237500J0D01*
G01*
X81306250Y-43655000D01*
G75*
G02*
X81068750Y-43417500I0J237500D01*
G01*
X81068750Y-42942500D01*
G75*
G02*
X81306250Y-42705000I237500J0D01*
G01*
X81881250Y-42705000D01*
G75*
G02*
X82118750Y-42942500I0J-237500D01*
G01*
G37*
G36*
G01*
X83868750Y-42942500D02*
X83868750Y-43417500D01*
G75*
G02*
X83631250Y-43655000I-237500J0D01*
G01*
X83056250Y-43655000D01*
G75*
G02*
X82818750Y-43417500I0J237500D01*
G01*
X82818750Y-42942500D01*
G75*
G02*
X83056250Y-42705000I237500J0D01*
G01*
X83631250Y-42705000D01*
G75*
G02*
X83868750Y-42942500I0J-237500D01*
G01*
G37*
G36*
G01*
X63068750Y-42942500D02*
X63068750Y-43417500D01*
G75*
G02*
X62831250Y-43655000I-237500J0D01*
G01*
X62256250Y-43655000D01*
G75*
G02*
X62018750Y-43417500I0J237500D01*
G01*
X62018750Y-42942500D01*
G75*
G02*
X62256250Y-42705000I237500J0D01*
G01*
X62831250Y-42705000D01*
G75*
G02*
X63068750Y-42942500I0J-237500D01*
G01*
G37*
G36*
G01*
X64818750Y-42942500D02*
X64818750Y-43417500D01*
G75*
G02*
X64581250Y-43655000I-237500J0D01*
G01*
X64006250Y-43655000D01*
G75*
G02*
X63768750Y-43417500I0J237500D01*
G01*
X63768750Y-42942500D01*
G75*
G02*
X64006250Y-42705000I237500J0D01*
G01*
X64581250Y-42705000D01*
G75*
G02*
X64818750Y-42942500I0J-237500D01*
G01*
G37*
G36*
G01*
X44018750Y-42942500D02*
X44018750Y-43417500D01*
G75*
G02*
X43781250Y-43655000I-237500J0D01*
G01*
X43206250Y-43655000D01*
G75*
G02*
X42968750Y-43417500I0J237500D01*
G01*
X42968750Y-42942500D01*
G75*
G02*
X43206250Y-42705000I237500J0D01*
G01*
X43781250Y-42705000D01*
G75*
G02*
X44018750Y-42942500I0J-237500D01*
G01*
G37*
G36*
G01*
X45768750Y-42942500D02*
X45768750Y-43417500D01*
G75*
G02*
X45531250Y-43655000I-237500J0D01*
G01*
X44956250Y-43655000D01*
G75*
G02*
X44718750Y-43417500I0J237500D01*
G01*
X44718750Y-42942500D01*
G75*
G02*
X44956250Y-42705000I237500J0D01*
G01*
X45531250Y-42705000D01*
G75*
G02*
X45768750Y-42942500I0J-237500D01*
G01*
G37*
G36*
G01*
X24653125Y-42942500D02*
X24653125Y-43417500D01*
G75*
G02*
X24415625Y-43655000I-237500J0D01*
G01*
X23840625Y-43655000D01*
G75*
G02*
X23603125Y-43417500I0J237500D01*
G01*
X23603125Y-42942500D01*
G75*
G02*
X23840625Y-42705000I237500J0D01*
G01*
X24415625Y-42705000D01*
G75*
G02*
X24653125Y-42942500I0J-237500D01*
G01*
G37*
G36*
G01*
X26403125Y-42942500D02*
X26403125Y-43417500D01*
G75*
G02*
X26165625Y-43655000I-237500J0D01*
G01*
X25590625Y-43655000D01*
G75*
G02*
X25353125Y-43417500I0J237500D01*
G01*
X25353125Y-42942500D01*
G75*
G02*
X25590625Y-42705000I237500J0D01*
G01*
X26165625Y-42705000D01*
G75*
G02*
X26403125Y-42942500I0J-237500D01*
G01*
G37*
G36*
G01*
X5603125Y-42942500D02*
X5603125Y-43417500D01*
G75*
G02*
X5365625Y-43655000I-237500J0D01*
G01*
X4790625Y-43655000D01*
G75*
G02*
X4553125Y-43417500I0J237500D01*
G01*
X4553125Y-42942500D01*
G75*
G02*
X4790625Y-42705000I237500J0D01*
G01*
X5365625Y-42705000D01*
G75*
G02*
X5603125Y-42942500I0J-237500D01*
G01*
G37*
G36*
G01*
X7353125Y-42942500D02*
X7353125Y-43417500D01*
G75*
G02*
X7115625Y-43655000I-237500J0D01*
G01*
X6540625Y-43655000D01*
G75*
G02*
X6303125Y-43417500I0J237500D01*
G01*
X6303125Y-42942500D01*
G75*
G02*
X6540625Y-42705000I237500J0D01*
G01*
X7115625Y-42705000D01*
G75*
G02*
X7353125Y-42942500I0J-237500D01*
G01*
G37*
G36*
G01*
X359219280Y-23892420D02*
X359219280Y-24367420D01*
G75*
G02*
X358981780Y-24604920I-237500J0D01*
G01*
X358406780Y-24604920D01*
G75*
G02*
X358169280Y-24367420I0J237500D01*
G01*
X358169280Y-23892420D01*
G75*
G02*
X358406780Y-23654920I237500J0D01*
G01*
X358981780Y-23654920D01*
G75*
G02*
X359219280Y-23892420I0J-237500D01*
G01*
G37*
G36*
G01*
X360969280Y-23892420D02*
X360969280Y-24367420D01*
G75*
G02*
X360731780Y-24604920I-237500J0D01*
G01*
X360156780Y-24604920D01*
G75*
G02*
X359919280Y-24367420I0J237500D01*
G01*
X359919280Y-23892420D01*
G75*
G02*
X360156780Y-23654920I237500J0D01*
G01*
X360731780Y-23654920D01*
G75*
G02*
X360969280Y-23892420I0J-237500D01*
G01*
G37*
G36*
G01*
X340169015Y-23892500D02*
X340169015Y-24367500D01*
G75*
G02*
X339931515Y-24605000I-237500J0D01*
G01*
X339356515Y-24605000D01*
G75*
G02*
X339119015Y-24367500I0J237500D01*
G01*
X339119015Y-23892500D01*
G75*
G02*
X339356515Y-23655000I237500J0D01*
G01*
X339931515Y-23655000D01*
G75*
G02*
X340169015Y-23892500I0J-237500D01*
G01*
G37*
G36*
G01*
X341919015Y-23892500D02*
X341919015Y-24367500D01*
G75*
G02*
X341681515Y-24605000I-237500J0D01*
G01*
X341106515Y-24605000D01*
G75*
G02*
X340869015Y-24367500I0J237500D01*
G01*
X340869015Y-23892500D01*
G75*
G02*
X341106515Y-23655000I237500J0D01*
G01*
X341681515Y-23655000D01*
G75*
G02*
X341919015Y-23892500I0J-237500D01*
G01*
G37*
G36*
G01*
X321434640Y-23892500D02*
X321434640Y-24367500D01*
G75*
G02*
X321197140Y-24605000I-237500J0D01*
G01*
X320622140Y-24605000D01*
G75*
G02*
X320384640Y-24367500I0J237500D01*
G01*
X320384640Y-23892500D01*
G75*
G02*
X320622140Y-23655000I237500J0D01*
G01*
X321197140Y-23655000D01*
G75*
G02*
X321434640Y-23892500I0J-237500D01*
G01*
G37*
G36*
G01*
X323184640Y-23892500D02*
X323184640Y-24367500D01*
G75*
G02*
X322947140Y-24605000I-237500J0D01*
G01*
X322372140Y-24605000D01*
G75*
G02*
X322134640Y-24367500I0J237500D01*
G01*
X322134640Y-23892500D01*
G75*
G02*
X322372140Y-23655000I237500J0D01*
G01*
X322947140Y-23655000D01*
G75*
G02*
X323184640Y-23892500I0J-237500D01*
G01*
G37*
G36*
G01*
X302069015Y-23892500D02*
X302069015Y-24367500D01*
G75*
G02*
X301831515Y-24605000I-237500J0D01*
G01*
X301256515Y-24605000D01*
G75*
G02*
X301019015Y-24367500I0J237500D01*
G01*
X301019015Y-23892500D01*
G75*
G02*
X301256515Y-23655000I237500J0D01*
G01*
X301831515Y-23655000D01*
G75*
G02*
X302069015Y-23892500I0J-237500D01*
G01*
G37*
G36*
G01*
X303819015Y-23892500D02*
X303819015Y-24367500D01*
G75*
G02*
X303581515Y-24605000I-237500J0D01*
G01*
X303006515Y-24605000D01*
G75*
G02*
X302769015Y-24367500I0J237500D01*
G01*
X302769015Y-23892500D01*
G75*
G02*
X303006515Y-23655000I237500J0D01*
G01*
X303581515Y-23655000D01*
G75*
G02*
X303819015Y-23892500I0J-237500D01*
G01*
G37*
G36*
G01*
X359219280Y-4842340D02*
X359219280Y-5317340D01*
G75*
G02*
X358981780Y-5554840I-237500J0D01*
G01*
X358406780Y-5554840D01*
G75*
G02*
X358169280Y-5317340I0J237500D01*
G01*
X358169280Y-4842340D01*
G75*
G02*
X358406780Y-4604840I237500J0D01*
G01*
X358981780Y-4604840D01*
G75*
G02*
X359219280Y-4842340I0J-237500D01*
G01*
G37*
G36*
G01*
X360969280Y-4842340D02*
X360969280Y-5317340D01*
G75*
G02*
X360731780Y-5554840I-237500J0D01*
G01*
X360156780Y-5554840D01*
G75*
G02*
X359919280Y-5317340I0J237500D01*
G01*
X359919280Y-4842340D01*
G75*
G02*
X360156780Y-4604840I237500J0D01*
G01*
X360731780Y-4604840D01*
G75*
G02*
X360969280Y-4842340I0J-237500D01*
G01*
G37*
G36*
G01*
X340169015Y-4842500D02*
X340169015Y-5317500D01*
G75*
G02*
X339931515Y-5555000I-237500J0D01*
G01*
X339356515Y-5555000D01*
G75*
G02*
X339119015Y-5317500I0J237500D01*
G01*
X339119015Y-4842500D01*
G75*
G02*
X339356515Y-4605000I237500J0D01*
G01*
X339931515Y-4605000D01*
G75*
G02*
X340169015Y-4842500I0J-237500D01*
G01*
G37*
G36*
G01*
X341919015Y-4842500D02*
X341919015Y-5317500D01*
G75*
G02*
X341681515Y-5555000I-237500J0D01*
G01*
X341106515Y-5555000D01*
G75*
G02*
X340869015Y-5317500I0J237500D01*
G01*
X340869015Y-4842500D01*
G75*
G02*
X341106515Y-4605000I237500J0D01*
G01*
X341681515Y-4605000D01*
G75*
G02*
X341919015Y-4842500I0J-237500D01*
G01*
G37*
G36*
G01*
X321434640Y-4842500D02*
X321434640Y-5317500D01*
G75*
G02*
X321197140Y-5555000I-237500J0D01*
G01*
X320622140Y-5555000D01*
G75*
G02*
X320384640Y-5317500I0J237500D01*
G01*
X320384640Y-4842500D01*
G75*
G02*
X320622140Y-4605000I237500J0D01*
G01*
X321197140Y-4605000D01*
G75*
G02*
X321434640Y-4842500I0J-237500D01*
G01*
G37*
G36*
G01*
X323184640Y-4842500D02*
X323184640Y-5317500D01*
G75*
G02*
X322947140Y-5555000I-237500J0D01*
G01*
X322372140Y-5555000D01*
G75*
G02*
X322134640Y-5317500I0J237500D01*
G01*
X322134640Y-4842500D01*
G75*
G02*
X322372140Y-4605000I237500J0D01*
G01*
X322947140Y-4605000D01*
G75*
G02*
X323184640Y-4842500I0J-237500D01*
G01*
G37*
G36*
G01*
X302069015Y-4842500D02*
X302069015Y-5317500D01*
G75*
G02*
X301831515Y-5555000I-237500J0D01*
G01*
X301256515Y-5555000D01*
G75*
G02*
X301019015Y-5317500I0J237500D01*
G01*
X301019015Y-4842500D01*
G75*
G02*
X301256515Y-4605000I237500J0D01*
G01*
X301831515Y-4605000D01*
G75*
G02*
X302069015Y-4842500I0J-237500D01*
G01*
G37*
G36*
G01*
X303819015Y-4842500D02*
X303819015Y-5317500D01*
G75*
G02*
X303581515Y-5555000I-237500J0D01*
G01*
X303006515Y-5555000D01*
G75*
G02*
X302769015Y-5317500I0J237500D01*
G01*
X302769015Y-4842500D01*
G75*
G02*
X303006515Y-4605000I237500J0D01*
G01*
X303581515Y-4605000D01*
G75*
G02*
X303819015Y-4842500I0J-237500D01*
G01*
G37*
G36*
G01*
X250276720Y-4842500D02*
X250276720Y-5317500D01*
G75*
G02*
X250039220Y-5555000I-237500J0D01*
G01*
X249464220Y-5555000D01*
G75*
G02*
X249226720Y-5317500I0J237500D01*
G01*
X249226720Y-4842500D01*
G75*
G02*
X249464220Y-4605000I237500J0D01*
G01*
X250039220Y-4605000D01*
G75*
G02*
X250276720Y-4842500I0J-237500D01*
G01*
G37*
G36*
G01*
X252026720Y-4842500D02*
X252026720Y-5317500D01*
G75*
G02*
X251789220Y-5555000I-237500J0D01*
G01*
X251214220Y-5555000D01*
G75*
G02*
X250976720Y-5317500I0J237500D01*
G01*
X250976720Y-4842500D01*
G75*
G02*
X251214220Y-4605000I237500J0D01*
G01*
X251789220Y-4605000D01*
G75*
G02*
X252026720Y-4842500I0J-237500D01*
G01*
G37*
G36*
G01*
X231226720Y-4842500D02*
X231226720Y-5317500D01*
G75*
G02*
X230989220Y-5555000I-237500J0D01*
G01*
X230414220Y-5555000D01*
G75*
G02*
X230176720Y-5317500I0J237500D01*
G01*
X230176720Y-4842500D01*
G75*
G02*
X230414220Y-4605000I237500J0D01*
G01*
X230989220Y-4605000D01*
G75*
G02*
X231226720Y-4842500I0J-237500D01*
G01*
G37*
G36*
G01*
X232976720Y-4842500D02*
X232976720Y-5317500D01*
G75*
G02*
X232739220Y-5555000I-237500J0D01*
G01*
X232164220Y-5555000D01*
G75*
G02*
X231926720Y-5317500I0J237500D01*
G01*
X231926720Y-4842500D01*
G75*
G02*
X232164220Y-4605000I237500J0D01*
G01*
X232739220Y-4605000D01*
G75*
G02*
X232976720Y-4842500I0J-237500D01*
G01*
G37*
G36*
G01*
X212176720Y-4842500D02*
X212176720Y-5317500D01*
G75*
G02*
X211939220Y-5555000I-237500J0D01*
G01*
X211364220Y-5555000D01*
G75*
G02*
X211126720Y-5317500I0J237500D01*
G01*
X211126720Y-4842500D01*
G75*
G02*
X211364220Y-4605000I237500J0D01*
G01*
X211939220Y-4605000D01*
G75*
G02*
X212176720Y-4842500I0J-237500D01*
G01*
G37*
G36*
G01*
X213926720Y-4842500D02*
X213926720Y-5317500D01*
G75*
G02*
X213689220Y-5555000I-237500J0D01*
G01*
X213114220Y-5555000D01*
G75*
G02*
X212876720Y-5317500I0J237500D01*
G01*
X212876720Y-4842500D01*
G75*
G02*
X213114220Y-4605000I237500J0D01*
G01*
X213689220Y-4605000D01*
G75*
G02*
X213926720Y-4842500I0J-237500D01*
G01*
G37*
G36*
G01*
X193126720Y-4842500D02*
X193126720Y-5317500D01*
G75*
G02*
X192889220Y-5555000I-237500J0D01*
G01*
X192314220Y-5555000D01*
G75*
G02*
X192076720Y-5317500I0J237500D01*
G01*
X192076720Y-4842500D01*
G75*
G02*
X192314220Y-4605000I237500J0D01*
G01*
X192889220Y-4605000D01*
G75*
G02*
X193126720Y-4842500I0J-237500D01*
G01*
G37*
G36*
G01*
X194876720Y-4842500D02*
X194876720Y-5317500D01*
G75*
G02*
X194639220Y-5555000I-237500J0D01*
G01*
X194064220Y-5555000D01*
G75*
G02*
X193826720Y-5317500I0J237500D01*
G01*
X193826720Y-4842500D01*
G75*
G02*
X194064220Y-4605000I237500J0D01*
G01*
X194639220Y-4605000D01*
G75*
G02*
X194876720Y-4842500I0J-237500D01*
G01*
G37*
G36*
G01*
X168718839Y-4842500D02*
X168718839Y-5317500D01*
G75*
G02*
X168481339Y-5555000I-237500J0D01*
G01*
X167906339Y-5555000D01*
G75*
G02*
X167668839Y-5317500I0J237500D01*
G01*
X167668839Y-4842500D01*
G75*
G02*
X167906339Y-4605000I237500J0D01*
G01*
X168481339Y-4605000D01*
G75*
G02*
X168718839Y-4842500I0J-237500D01*
G01*
G37*
G36*
G01*
X170468839Y-4842500D02*
X170468839Y-5317500D01*
G75*
G02*
X170231339Y-5555000I-237500J0D01*
G01*
X169656339Y-5555000D01*
G75*
G02*
X169418839Y-5317500I0J237500D01*
G01*
X169418839Y-4842500D01*
G75*
G02*
X169656339Y-4605000I237500J0D01*
G01*
X170231339Y-4605000D01*
G75*
G02*
X170468839Y-4842500I0J-237500D01*
G01*
G37*
G36*
G01*
X149668839Y-4842500D02*
X149668839Y-5317500D01*
G75*
G02*
X149431339Y-5555000I-237500J0D01*
G01*
X148856339Y-5555000D01*
G75*
G02*
X148618839Y-5317500I0J237500D01*
G01*
X148618839Y-4842500D01*
G75*
G02*
X148856339Y-4605000I237500J0D01*
G01*
X149431339Y-4605000D01*
G75*
G02*
X149668839Y-4842500I0J-237500D01*
G01*
G37*
G36*
G01*
X151418839Y-4842500D02*
X151418839Y-5317500D01*
G75*
G02*
X151181339Y-5555000I-237500J0D01*
G01*
X150606339Y-5555000D01*
G75*
G02*
X150368839Y-5317500I0J237500D01*
G01*
X150368839Y-4842500D01*
G75*
G02*
X150606339Y-4605000I237500J0D01*
G01*
X151181339Y-4605000D01*
G75*
G02*
X151418839Y-4842500I0J-237500D01*
G01*
G37*
G36*
G01*
X130618839Y-4842500D02*
X130618839Y-5317500D01*
G75*
G02*
X130381339Y-5555000I-237500J0D01*
G01*
X129806339Y-5555000D01*
G75*
G02*
X129568839Y-5317500I0J237500D01*
G01*
X129568839Y-4842500D01*
G75*
G02*
X129806339Y-4605000I237500J0D01*
G01*
X130381339Y-4605000D01*
G75*
G02*
X130618839Y-4842500I0J-237500D01*
G01*
G37*
G36*
G01*
X132368839Y-4842500D02*
X132368839Y-5317500D01*
G75*
G02*
X132131339Y-5555000I-237500J0D01*
G01*
X131556339Y-5555000D01*
G75*
G02*
X131318839Y-5317500I0J237500D01*
G01*
X131318839Y-4842500D01*
G75*
G02*
X131556339Y-4605000I237500J0D01*
G01*
X132131339Y-4605000D01*
G75*
G02*
X132368839Y-4842500I0J-237500D01*
G01*
G37*
G36*
G01*
X111568839Y-4842500D02*
X111568839Y-5317500D01*
G75*
G02*
X111331339Y-5555000I-237500J0D01*
G01*
X110756339Y-5555000D01*
G75*
G02*
X110518839Y-5317500I0J237500D01*
G01*
X110518839Y-4842500D01*
G75*
G02*
X110756339Y-4605000I237500J0D01*
G01*
X111331339Y-4605000D01*
G75*
G02*
X111568839Y-4842500I0J-237500D01*
G01*
G37*
G36*
G01*
X113318839Y-4842500D02*
X113318839Y-5317500D01*
G75*
G02*
X113081339Y-5555000I-237500J0D01*
G01*
X112506339Y-5555000D01*
G75*
G02*
X112268839Y-5317500I0J237500D01*
G01*
X112268839Y-4842500D01*
G75*
G02*
X112506339Y-4605000I237500J0D01*
G01*
X113081339Y-4605000D01*
G75*
G02*
X113318839Y-4842500I0J-237500D01*
G01*
G37*
G36*
G01*
X87160958Y-4842500D02*
X87160958Y-5317500D01*
G75*
G02*
X86923458Y-5555000I-237500J0D01*
G01*
X86348458Y-5555000D01*
G75*
G02*
X86110958Y-5317500I0J237500D01*
G01*
X86110958Y-4842500D01*
G75*
G02*
X86348458Y-4605000I237500J0D01*
G01*
X86923458Y-4605000D01*
G75*
G02*
X87160958Y-4842500I0J-237500D01*
G01*
G37*
G36*
G01*
X88910958Y-4842500D02*
X88910958Y-5317500D01*
G75*
G02*
X88673458Y-5555000I-237500J0D01*
G01*
X88098458Y-5555000D01*
G75*
G02*
X87860958Y-5317500I0J237500D01*
G01*
X87860958Y-4842500D01*
G75*
G02*
X88098458Y-4605000I237500J0D01*
G01*
X88673458Y-4605000D01*
G75*
G02*
X88910958Y-4842500I0J-237500D01*
G01*
G37*
G36*
G01*
X68110958Y-4842500D02*
X68110958Y-5317500D01*
G75*
G02*
X67873458Y-5555000I-237500J0D01*
G01*
X67298458Y-5555000D01*
G75*
G02*
X67060958Y-5317500I0J237500D01*
G01*
X67060958Y-4842500D01*
G75*
G02*
X67298458Y-4605000I237500J0D01*
G01*
X67873458Y-4605000D01*
G75*
G02*
X68110958Y-4842500I0J-237500D01*
G01*
G37*
G36*
G01*
X69860958Y-4842500D02*
X69860958Y-5317500D01*
G75*
G02*
X69623458Y-5555000I-237500J0D01*
G01*
X69048458Y-5555000D01*
G75*
G02*
X68810958Y-5317500I0J237500D01*
G01*
X68810958Y-4842500D01*
G75*
G02*
X69048458Y-4605000I237500J0D01*
G01*
X69623458Y-4605000D01*
G75*
G02*
X69860958Y-4842500I0J-237500D01*
G01*
G37*
G36*
G01*
X49060958Y-4842500D02*
X49060958Y-5317500D01*
G75*
G02*
X48823458Y-5555000I-237500J0D01*
G01*
X48248458Y-5555000D01*
G75*
G02*
X48010958Y-5317500I0J237500D01*
G01*
X48010958Y-4842500D01*
G75*
G02*
X48248458Y-4605000I237500J0D01*
G01*
X48823458Y-4605000D01*
G75*
G02*
X49060958Y-4842500I0J-237500D01*
G01*
G37*
G36*
G01*
X50810958Y-4842500D02*
X50810958Y-5317500D01*
G75*
G02*
X50573458Y-5555000I-237500J0D01*
G01*
X49998458Y-5555000D01*
G75*
G02*
X49760958Y-5317500I0J237500D01*
G01*
X49760958Y-4842500D01*
G75*
G02*
X49998458Y-4605000I237500J0D01*
G01*
X50573458Y-4605000D01*
G75*
G02*
X50810958Y-4842500I0J-237500D01*
G01*
G37*
G36*
G01*
X30010958Y-4842500D02*
X30010958Y-5317500D01*
G75*
G02*
X29773458Y-5555000I-237500J0D01*
G01*
X29198458Y-5555000D01*
G75*
G02*
X28960958Y-5317500I0J237500D01*
G01*
X28960958Y-4842500D01*
G75*
G02*
X29198458Y-4605000I237500J0D01*
G01*
X29773458Y-4605000D01*
G75*
G02*
X30010958Y-4842500I0J-237500D01*
G01*
G37*
G36*
G01*
X31760958Y-4842500D02*
X31760958Y-5317500D01*
G75*
G02*
X31523458Y-5555000I-237500J0D01*
G01*
X30948458Y-5555000D01*
G75*
G02*
X30710958Y-5317500I0J237500D01*
G01*
X30710958Y-4842500D01*
G75*
G02*
X30948458Y-4605000I237500J0D01*
G01*
X31523458Y-4605000D01*
G75*
G02*
X31760958Y-4842500I0J-237500D01*
G01*
G37*
G36*
G01*
X5603125Y-4842500D02*
X5603125Y-5317500D01*
G75*
G02*
X5365625Y-5555000I-237500J0D01*
G01*
X4790625Y-5555000D01*
G75*
G02*
X4553125Y-5317500I0J237500D01*
G01*
X4553125Y-4842500D01*
G75*
G02*
X4790625Y-4605000I237500J0D01*
G01*
X5365625Y-4605000D01*
G75*
G02*
X5603125Y-4842500I0J-237500D01*
G01*
G37*
G36*
G01*
X7353125Y-4842500D02*
X7353125Y-5317500D01*
G75*
G02*
X7115625Y-5555000I-237500J0D01*
G01*
X6540625Y-5555000D01*
G75*
G02*
X6303125Y-5317500I0J237500D01*
G01*
X6303125Y-4842500D01*
G75*
G02*
X6540625Y-4605000I237500J0D01*
G01*
X7115625Y-4605000D01*
G75*
G02*
X7353125Y-4842500I0J-237500D01*
G01*
G37*
G36*
G01*
X265389390Y9121500D02*
X264914390Y9121500D01*
G75*
G02*
X264676890Y9359000I0J237500D01*
G01*
X264676890Y9934000D01*
G75*
G02*
X264914390Y10171500I237500J0D01*
G01*
X265389390Y10171500D01*
G75*
G02*
X265626890Y9934000I0J-237500D01*
G01*
X265626890Y9359000D01*
G75*
G02*
X265389390Y9121500I-237500J0D01*
G01*
G37*
G36*
G01*
X265389390Y7371500D02*
X264914390Y7371500D01*
G75*
G02*
X264676890Y7609000I0J237500D01*
G01*
X264676890Y8184000D01*
G75*
G02*
X264914390Y8421500I237500J0D01*
G01*
X265389390Y8421500D01*
G75*
G02*
X265626890Y8184000I0J-237500D01*
G01*
X265626890Y7609000D01*
G75*
G02*
X265389390Y7371500I-237500J0D01*
G01*
G37*
G36*
G01*
X260333500Y3017508D02*
X259858500Y3017508D01*
G75*
G02*
X259621000Y3255008I0J237500D01*
G01*
X259621000Y3830008D01*
G75*
G02*
X259858500Y4067508I237500J0D01*
G01*
X260333500Y4067508D01*
G75*
G02*
X260571000Y3830008I0J-237500D01*
G01*
X260571000Y3255008D01*
G75*
G02*
X260333500Y3017508I-237500J0D01*
G01*
G37*
G36*
G01*
X260333500Y1267508D02*
X259858500Y1267508D01*
G75*
G02*
X259621000Y1505008I0J237500D01*
G01*
X259621000Y2080008D01*
G75*
G02*
X259858500Y2317508I237500J0D01*
G01*
X260333500Y2317508D01*
G75*
G02*
X260571000Y2080008I0J-237500D01*
G01*
X260571000Y1505008D01*
G75*
G02*
X260333500Y1267508I-237500J0D01*
G01*
G37*
G36*
G01*
X264914390Y11906008D02*
X265389390Y11906008D01*
G75*
G02*
X265626890Y11668508I0J-237500D01*
G01*
X265626890Y11093508D01*
G75*
G02*
X265389390Y10856008I-237500J0D01*
G01*
X264914390Y10856008D01*
G75*
G02*
X264676890Y11093508I0J237500D01*
G01*
X264676890Y11668508D01*
G75*
G02*
X264914390Y11906008I237500J0D01*
G01*
G37*
G36*
G01*
X264914390Y13656008D02*
X265389390Y13656008D01*
G75*
G02*
X265626890Y13418508I0J-237500D01*
G01*
X265626890Y12843508D01*
G75*
G02*
X265389390Y12606008I-237500J0D01*
G01*
X264914390Y12606008D01*
G75*
G02*
X264676890Y12843508I0J237500D01*
G01*
X264676890Y13418508D01*
G75*
G02*
X264914390Y13656008I237500J0D01*
G01*
G37*
G36*
G01*
X263033500Y11906008D02*
X263508500Y11906008D01*
G75*
G02*
X263746000Y11668508I0J-237500D01*
G01*
X263746000Y11093508D01*
G75*
G02*
X263508500Y10856008I-237500J0D01*
G01*
X263033500Y10856008D01*
G75*
G02*
X262796000Y11093508I0J237500D01*
G01*
X262796000Y11668508D01*
G75*
G02*
X263033500Y11906008I237500J0D01*
G01*
G37*
G36*
G01*
X263033500Y13656008D02*
X263508500Y13656008D01*
G75*
G02*
X263746000Y13418508I0J-237500D01*
G01*
X263746000Y12843508D01*
G75*
G02*
X263508500Y12606008I-237500J0D01*
G01*
X263033500Y12606008D01*
G75*
G02*
X262796000Y12843508I0J237500D01*
G01*
X262796000Y13418508D01*
G75*
G02*
X263033500Y13656008I237500J0D01*
G01*
G37*
G36*
G01*
X272165750Y-1774000D02*
X272165750Y-1299000D01*
G75*
G02*
X272403250Y-1061500I237500J0D01*
G01*
X272978250Y-1061500D01*
G75*
G02*
X273215750Y-1299000I0J-237500D01*
G01*
X273215750Y-1774000D01*
G75*
G02*
X272978250Y-2011500I-237500J0D01*
G01*
X272403250Y-2011500D01*
G75*
G02*
X272165750Y-1774000I0J237500D01*
G01*
G37*
G36*
G01*
X270415750Y-1774000D02*
X270415750Y-1299000D01*
G75*
G02*
X270653250Y-1061500I237500J0D01*
G01*
X271228250Y-1061500D01*
G75*
G02*
X271465750Y-1299000I0J-237500D01*
G01*
X271465750Y-1774000D01*
G75*
G02*
X271228250Y-2011500I-237500J0D01*
G01*
X270653250Y-2011500D01*
G75*
G02*
X270415750Y-1774000I0J237500D01*
G01*
G37*
G36*
G01*
X285059890Y-4502500D02*
X285059890Y-4027500D01*
G75*
G02*
X285297390Y-3790000I237500J0D01*
G01*
X285872390Y-3790000D01*
G75*
G02*
X286109890Y-4027500I0J-237500D01*
G01*
X286109890Y-4502500D01*
G75*
G02*
X285872390Y-4740000I-237500J0D01*
G01*
X285297390Y-4740000D01*
G75*
G02*
X285059890Y-4502500I0J237500D01*
G01*
G37*
G36*
G01*
X283309890Y-4502500D02*
X283309890Y-4027500D01*
G75*
G02*
X283547390Y-3790000I237500J0D01*
G01*
X284122390Y-3790000D01*
G75*
G02*
X284359890Y-4027500I0J-237500D01*
G01*
X284359890Y-4502500D01*
G75*
G02*
X284122390Y-4740000I-237500J0D01*
G01*
X283547390Y-4740000D01*
G75*
G02*
X283309890Y-4502500I0J237500D01*
G01*
G37*
D13*
X341376000Y-107204000D03*
X340426000Y-109204000D03*
X342326000Y-109204000D03*
X306070000Y-107204000D03*
X305120000Y-109204000D03*
X307020000Y-109204000D03*
X262382000Y-112538000D03*
X261432000Y-114538000D03*
X263332000Y-114538000D03*
X218948000Y-107204000D03*
X217998000Y-109204000D03*
X219898000Y-109204000D03*
X201930000Y-107204000D03*
X200980000Y-109204000D03*
X202880000Y-109204000D03*
X47752000Y-107204000D03*
X46802000Y-109204000D03*
X48702000Y-109204000D03*
X11938000Y-107204000D03*
X10988000Y-109204000D03*
X12888000Y-109204000D03*
X341376000Y-88154000D03*
X340426000Y-90154000D03*
X342326000Y-90154000D03*
X306070000Y-88154000D03*
X305120000Y-90154000D03*
X307020000Y-90154000D03*
X257302000Y-88154000D03*
X256352000Y-90154000D03*
X258252000Y-90154000D03*
X204724000Y-88154000D03*
X203774000Y-90154000D03*
X205674000Y-90154000D03*
X166624000Y-88154000D03*
X165674000Y-90154000D03*
X167574000Y-90154000D03*
X128524000Y-88154000D03*
X127574000Y-90154000D03*
X129474000Y-90154000D03*
X90424000Y-88154000D03*
X89474000Y-90154000D03*
X91374000Y-90154000D03*
X52324000Y-88154000D03*
X51374000Y-90154000D03*
X53274000Y-90154000D03*
X17780000Y-88154000D03*
X16830000Y-90154000D03*
X18730000Y-90154000D03*
X344170000Y-69104000D03*
X343220000Y-71104000D03*
X345120000Y-71104000D03*
X306070000Y-69104000D03*
X305120000Y-71104000D03*
X307020000Y-71104000D03*
X252476000Y-69104000D03*
X251526000Y-71104000D03*
X253426000Y-71104000D03*
X214376000Y-69104000D03*
X213426000Y-71104000D03*
X215326000Y-71104000D03*
X176276000Y-69104000D03*
X175326000Y-71104000D03*
X177226000Y-71104000D03*
X138176000Y-69104000D03*
X137226000Y-71104000D03*
X139126000Y-71104000D03*
X100076000Y-69104000D03*
X99126000Y-71104000D03*
X101026000Y-71104000D03*
X61976000Y-69104000D03*
X61026000Y-71104000D03*
X62926000Y-71104000D03*
X23876000Y-69104000D03*
X22926000Y-71104000D03*
X24826000Y-71104000D03*
X344170000Y-50054000D03*
X343220000Y-52054000D03*
X345120000Y-52054000D03*
X306070000Y-50054000D03*
X305120000Y-52054000D03*
X307020000Y-52054000D03*
X250190000Y-50054000D03*
X249240000Y-52054000D03*
X251140000Y-52054000D03*
X209550000Y-50054000D03*
X208600000Y-52054000D03*
X210500000Y-52054000D03*
X171450000Y-50054000D03*
X170500000Y-52054000D03*
X172400000Y-52054000D03*
X133350000Y-50054000D03*
X132400000Y-52054000D03*
X134300000Y-52054000D03*
X95250000Y-50054000D03*
X94300000Y-52054000D03*
X96200000Y-52054000D03*
X57150000Y-50054000D03*
X56200000Y-52054000D03*
X58100000Y-52054000D03*
X19050000Y-50054000D03*
X18100000Y-52054000D03*
X20000000Y-52054000D03*
X344170000Y-31004000D03*
X343220000Y-33004000D03*
X345120000Y-33004000D03*
X306070000Y-31004000D03*
X305120000Y-33004000D03*
X307020000Y-33004000D03*
X238252000Y-31004000D03*
X237302000Y-33004000D03*
X239202000Y-33004000D03*
X200152000Y-31004000D03*
X199202000Y-33004000D03*
X201102000Y-33004000D03*
X162052000Y-31004000D03*
X161102000Y-33004000D03*
X163002000Y-33004000D03*
X123952000Y-31004000D03*
X123002000Y-33004000D03*
X124902000Y-33004000D03*
X85852000Y-31004000D03*
X84902000Y-33004000D03*
X86802000Y-33004000D03*
X47752000Y-31004000D03*
X46802000Y-33004000D03*
X48702000Y-33004000D03*
X9652000Y-31004000D03*
X8702000Y-33004000D03*
X10602000Y-33004000D03*
X344170000Y-11954000D03*
X343220000Y-13954000D03*
X345120000Y-13954000D03*
X306070000Y-11954000D03*
X305120000Y-13954000D03*
X307020000Y-13954000D03*
X344170000Y7096000D03*
X343220000Y5096000D03*
X345120000Y5096000D03*
X306070000Y7096000D03*
X305120000Y5096000D03*
X307020000Y5096000D03*
X254254000Y7096000D03*
X253304000Y5096000D03*
X255204000Y5096000D03*
X216154000Y7096000D03*
X215204000Y5096000D03*
X217104000Y5096000D03*
X175260000Y7096000D03*
X174310000Y5096000D03*
X176210000Y5096000D03*
X134620000Y7096000D03*
X133670000Y5096000D03*
X135570000Y5096000D03*
X93726000Y7096000D03*
X92776000Y5096000D03*
X94676000Y5096000D03*
X53086000Y7096000D03*
X52136000Y5096000D03*
X54036000Y5096000D03*
X12192000Y7096000D03*
X11242000Y5096000D03*
X13142000Y5096000D03*
G36*
G01*
X274452250Y2324500D02*
X274452250Y3724500D01*
G75*
G02*
X274527250Y3799500I75000J0D01*
G01*
X274677250Y3799500D01*
G75*
G02*
X274752250Y3724500I0J-75000D01*
G01*
X274752250Y2324500D01*
G75*
G02*
X274677250Y2249500I-75000J0D01*
G01*
X274527250Y2249500D01*
G75*
G02*
X274452250Y2324500I0J75000D01*
G01*
G37*
G36*
G01*
X274952250Y2324500D02*
X274952250Y3724500D01*
G75*
G02*
X275027250Y3799500I75000J0D01*
G01*
X275177250Y3799500D01*
G75*
G02*
X275252250Y3724500I0J-75000D01*
G01*
X275252250Y2324500D01*
G75*
G02*
X275177250Y2249500I-75000J0D01*
G01*
X275027250Y2249500D01*
G75*
G02*
X274952250Y2324500I0J75000D01*
G01*
G37*
G36*
G01*
X275452250Y2324500D02*
X275452250Y3724500D01*
G75*
G02*
X275527250Y3799500I75000J0D01*
G01*
X275677250Y3799500D01*
G75*
G02*
X275752250Y3724500I0J-75000D01*
G01*
X275752250Y2324500D01*
G75*
G02*
X275677250Y2249500I-75000J0D01*
G01*
X275527250Y2249500D01*
G75*
G02*
X275452250Y2324500I0J75000D01*
G01*
G37*
G36*
G01*
X275952250Y2324500D02*
X275952250Y3724500D01*
G75*
G02*
X276027250Y3799500I75000J0D01*
G01*
X276177250Y3799500D01*
G75*
G02*
X276252250Y3724500I0J-75000D01*
G01*
X276252250Y2324500D01*
G75*
G02*
X276177250Y2249500I-75000J0D01*
G01*
X276027250Y2249500D01*
G75*
G02*
X275952250Y2324500I0J75000D01*
G01*
G37*
G36*
G01*
X276452250Y2324500D02*
X276452250Y3724500D01*
G75*
G02*
X276527250Y3799500I75000J0D01*
G01*
X276677250Y3799500D01*
G75*
G02*
X276752250Y3724500I0J-75000D01*
G01*
X276752250Y2324500D01*
G75*
G02*
X276677250Y2249500I-75000J0D01*
G01*
X276527250Y2249500D01*
G75*
G02*
X276452250Y2324500I0J75000D01*
G01*
G37*
G36*
G01*
X276952250Y2324500D02*
X276952250Y3724500D01*
G75*
G02*
X277027250Y3799500I75000J0D01*
G01*
X277177250Y3799500D01*
G75*
G02*
X277252250Y3724500I0J-75000D01*
G01*
X277252250Y2324500D01*
G75*
G02*
X277177250Y2249500I-75000J0D01*
G01*
X277027250Y2249500D01*
G75*
G02*
X276952250Y2324500I0J75000D01*
G01*
G37*
G36*
G01*
X277452250Y2324500D02*
X277452250Y3724500D01*
G75*
G02*
X277527250Y3799500I75000J0D01*
G01*
X277677250Y3799500D01*
G75*
G02*
X277752250Y3724500I0J-75000D01*
G01*
X277752250Y2324500D01*
G75*
G02*
X277677250Y2249500I-75000J0D01*
G01*
X277527250Y2249500D01*
G75*
G02*
X277452250Y2324500I0J75000D01*
G01*
G37*
G36*
G01*
X277952250Y2324500D02*
X277952250Y3724500D01*
G75*
G02*
X278027250Y3799500I75000J0D01*
G01*
X278177250Y3799500D01*
G75*
G02*
X278252250Y3724500I0J-75000D01*
G01*
X278252250Y2324500D01*
G75*
G02*
X278177250Y2249500I-75000J0D01*
G01*
X278027250Y2249500D01*
G75*
G02*
X277952250Y2324500I0J75000D01*
G01*
G37*
G36*
G01*
X278452250Y2324500D02*
X278452250Y3724500D01*
G75*
G02*
X278527250Y3799500I75000J0D01*
G01*
X278677250Y3799500D01*
G75*
G02*
X278752250Y3724500I0J-75000D01*
G01*
X278752250Y2324500D01*
G75*
G02*
X278677250Y2249500I-75000J0D01*
G01*
X278527250Y2249500D01*
G75*
G02*
X278452250Y2324500I0J75000D01*
G01*
G37*
G36*
G01*
X278952250Y2324500D02*
X278952250Y3724500D01*
G75*
G02*
X279027250Y3799500I75000J0D01*
G01*
X279177250Y3799500D01*
G75*
G02*
X279252250Y3724500I0J-75000D01*
G01*
X279252250Y2324500D01*
G75*
G02*
X279177250Y2249500I-75000J0D01*
G01*
X279027250Y2249500D01*
G75*
G02*
X278952250Y2324500I0J75000D01*
G01*
G37*
G36*
G01*
X279452250Y2324500D02*
X279452250Y3724500D01*
G75*
G02*
X279527250Y3799500I75000J0D01*
G01*
X279677250Y3799500D01*
G75*
G02*
X279752250Y3724500I0J-75000D01*
G01*
X279752250Y2324500D01*
G75*
G02*
X279677250Y2249500I-75000J0D01*
G01*
X279527250Y2249500D01*
G75*
G02*
X279452250Y2324500I0J75000D01*
G01*
G37*
G36*
G01*
X279952250Y2324500D02*
X279952250Y3724500D01*
G75*
G02*
X280027250Y3799500I75000J0D01*
G01*
X280177250Y3799500D01*
G75*
G02*
X280252250Y3724500I0J-75000D01*
G01*
X280252250Y2324500D01*
G75*
G02*
X280177250Y2249500I-75000J0D01*
G01*
X280027250Y2249500D01*
G75*
G02*
X279952250Y2324500I0J75000D01*
G01*
G37*
G36*
G01*
X280452250Y2324500D02*
X280452250Y3724500D01*
G75*
G02*
X280527250Y3799500I75000J0D01*
G01*
X280677250Y3799500D01*
G75*
G02*
X280752250Y3724500I0J-75000D01*
G01*
X280752250Y2324500D01*
G75*
G02*
X280677250Y2249500I-75000J0D01*
G01*
X280527250Y2249500D01*
G75*
G02*
X280452250Y2324500I0J75000D01*
G01*
G37*
G36*
G01*
X280952250Y2324500D02*
X280952250Y3724500D01*
G75*
G02*
X281027250Y3799500I75000J0D01*
G01*
X281177250Y3799500D01*
G75*
G02*
X281252250Y3724500I0J-75000D01*
G01*
X281252250Y2324500D01*
G75*
G02*
X281177250Y2249500I-75000J0D01*
G01*
X281027250Y2249500D01*
G75*
G02*
X280952250Y2324500I0J75000D01*
G01*
G37*
G36*
G01*
X281452250Y2324500D02*
X281452250Y3724500D01*
G75*
G02*
X281527250Y3799500I75000J0D01*
G01*
X281677250Y3799500D01*
G75*
G02*
X281752250Y3724500I0J-75000D01*
G01*
X281752250Y2324500D01*
G75*
G02*
X281677250Y2249500I-75000J0D01*
G01*
X281527250Y2249500D01*
G75*
G02*
X281452250Y2324500I0J75000D01*
G01*
G37*
G36*
G01*
X281952250Y2324500D02*
X281952250Y3724500D01*
G75*
G02*
X282027250Y3799500I75000J0D01*
G01*
X282177250Y3799500D01*
G75*
G02*
X282252250Y3724500I0J-75000D01*
G01*
X282252250Y2324500D01*
G75*
G02*
X282177250Y2249500I-75000J0D01*
G01*
X282027250Y2249500D01*
G75*
G02*
X281952250Y2324500I0J75000D01*
G01*
G37*
G36*
G01*
X283252250Y4874500D02*
X283252250Y5024500D01*
G75*
G02*
X283327250Y5099500I75000J0D01*
G01*
X284727250Y5099500D01*
G75*
G02*
X284802250Y5024500I0J-75000D01*
G01*
X284802250Y4874500D01*
G75*
G02*
X284727250Y4799500I-75000J0D01*
G01*
X283327250Y4799500D01*
G75*
G02*
X283252250Y4874500I0J75000D01*
G01*
G37*
G36*
G01*
X283252250Y5374500D02*
X283252250Y5524500D01*
G75*
G02*
X283327250Y5599500I75000J0D01*
G01*
X284727250Y5599500D01*
G75*
G02*
X284802250Y5524500I0J-75000D01*
G01*
X284802250Y5374500D01*
G75*
G02*
X284727250Y5299500I-75000J0D01*
G01*
X283327250Y5299500D01*
G75*
G02*
X283252250Y5374500I0J75000D01*
G01*
G37*
G36*
G01*
X283252250Y5874500D02*
X283252250Y6024500D01*
G75*
G02*
X283327250Y6099500I75000J0D01*
G01*
X284727250Y6099500D01*
G75*
G02*
X284802250Y6024500I0J-75000D01*
G01*
X284802250Y5874500D01*
G75*
G02*
X284727250Y5799500I-75000J0D01*
G01*
X283327250Y5799500D01*
G75*
G02*
X283252250Y5874500I0J75000D01*
G01*
G37*
G36*
G01*
X283252250Y6374500D02*
X283252250Y6524500D01*
G75*
G02*
X283327250Y6599500I75000J0D01*
G01*
X284727250Y6599500D01*
G75*
G02*
X284802250Y6524500I0J-75000D01*
G01*
X284802250Y6374500D01*
G75*
G02*
X284727250Y6299500I-75000J0D01*
G01*
X283327250Y6299500D01*
G75*
G02*
X283252250Y6374500I0J75000D01*
G01*
G37*
G36*
G01*
X283252250Y6874500D02*
X283252250Y7024500D01*
G75*
G02*
X283327250Y7099500I75000J0D01*
G01*
X284727250Y7099500D01*
G75*
G02*
X284802250Y7024500I0J-75000D01*
G01*
X284802250Y6874500D01*
G75*
G02*
X284727250Y6799500I-75000J0D01*
G01*
X283327250Y6799500D01*
G75*
G02*
X283252250Y6874500I0J75000D01*
G01*
G37*
G36*
G01*
X283252250Y7374500D02*
X283252250Y7524500D01*
G75*
G02*
X283327250Y7599500I75000J0D01*
G01*
X284727250Y7599500D01*
G75*
G02*
X284802250Y7524500I0J-75000D01*
G01*
X284802250Y7374500D01*
G75*
G02*
X284727250Y7299500I-75000J0D01*
G01*
X283327250Y7299500D01*
G75*
G02*
X283252250Y7374500I0J75000D01*
G01*
G37*
G36*
G01*
X283252250Y7874500D02*
X283252250Y8024500D01*
G75*
G02*
X283327250Y8099500I75000J0D01*
G01*
X284727250Y8099500D01*
G75*
G02*
X284802250Y8024500I0J-75000D01*
G01*
X284802250Y7874500D01*
G75*
G02*
X284727250Y7799500I-75000J0D01*
G01*
X283327250Y7799500D01*
G75*
G02*
X283252250Y7874500I0J75000D01*
G01*
G37*
G36*
G01*
X283252250Y8374500D02*
X283252250Y8524500D01*
G75*
G02*
X283327250Y8599500I75000J0D01*
G01*
X284727250Y8599500D01*
G75*
G02*
X284802250Y8524500I0J-75000D01*
G01*
X284802250Y8374500D01*
G75*
G02*
X284727250Y8299500I-75000J0D01*
G01*
X283327250Y8299500D01*
G75*
G02*
X283252250Y8374500I0J75000D01*
G01*
G37*
G36*
G01*
X283252250Y8874500D02*
X283252250Y9024500D01*
G75*
G02*
X283327250Y9099500I75000J0D01*
G01*
X284727250Y9099500D01*
G75*
G02*
X284802250Y9024500I0J-75000D01*
G01*
X284802250Y8874500D01*
G75*
G02*
X284727250Y8799500I-75000J0D01*
G01*
X283327250Y8799500D01*
G75*
G02*
X283252250Y8874500I0J75000D01*
G01*
G37*
G36*
G01*
X283252250Y9374500D02*
X283252250Y9524500D01*
G75*
G02*
X283327250Y9599500I75000J0D01*
G01*
X284727250Y9599500D01*
G75*
G02*
X284802250Y9524500I0J-75000D01*
G01*
X284802250Y9374500D01*
G75*
G02*
X284727250Y9299500I-75000J0D01*
G01*
X283327250Y9299500D01*
G75*
G02*
X283252250Y9374500I0J75000D01*
G01*
G37*
G36*
G01*
X283252250Y9874500D02*
X283252250Y10024500D01*
G75*
G02*
X283327250Y10099500I75000J0D01*
G01*
X284727250Y10099500D01*
G75*
G02*
X284802250Y10024500I0J-75000D01*
G01*
X284802250Y9874500D01*
G75*
G02*
X284727250Y9799500I-75000J0D01*
G01*
X283327250Y9799500D01*
G75*
G02*
X283252250Y9874500I0J75000D01*
G01*
G37*
G36*
G01*
X283252250Y10374500D02*
X283252250Y10524500D01*
G75*
G02*
X283327250Y10599500I75000J0D01*
G01*
X284727250Y10599500D01*
G75*
G02*
X284802250Y10524500I0J-75000D01*
G01*
X284802250Y10374500D01*
G75*
G02*
X284727250Y10299500I-75000J0D01*
G01*
X283327250Y10299500D01*
G75*
G02*
X283252250Y10374500I0J75000D01*
G01*
G37*
G36*
G01*
X283252250Y10874500D02*
X283252250Y11024500D01*
G75*
G02*
X283327250Y11099500I75000J0D01*
G01*
X284727250Y11099500D01*
G75*
G02*
X284802250Y11024500I0J-75000D01*
G01*
X284802250Y10874500D01*
G75*
G02*
X284727250Y10799500I-75000J0D01*
G01*
X283327250Y10799500D01*
G75*
G02*
X283252250Y10874500I0J75000D01*
G01*
G37*
G36*
G01*
X283252250Y11374500D02*
X283252250Y11524500D01*
G75*
G02*
X283327250Y11599500I75000J0D01*
G01*
X284727250Y11599500D01*
G75*
G02*
X284802250Y11524500I0J-75000D01*
G01*
X284802250Y11374500D01*
G75*
G02*
X284727250Y11299500I-75000J0D01*
G01*
X283327250Y11299500D01*
G75*
G02*
X283252250Y11374500I0J75000D01*
G01*
G37*
G36*
G01*
X283252250Y11874500D02*
X283252250Y12024500D01*
G75*
G02*
X283327250Y12099500I75000J0D01*
G01*
X284727250Y12099500D01*
G75*
G02*
X284802250Y12024500I0J-75000D01*
G01*
X284802250Y11874500D01*
G75*
G02*
X284727250Y11799500I-75000J0D01*
G01*
X283327250Y11799500D01*
G75*
G02*
X283252250Y11874500I0J75000D01*
G01*
G37*
G36*
G01*
X283252250Y12374500D02*
X283252250Y12524500D01*
G75*
G02*
X283327250Y12599500I75000J0D01*
G01*
X284727250Y12599500D01*
G75*
G02*
X284802250Y12524500I0J-75000D01*
G01*
X284802250Y12374500D01*
G75*
G02*
X284727250Y12299500I-75000J0D01*
G01*
X283327250Y12299500D01*
G75*
G02*
X283252250Y12374500I0J75000D01*
G01*
G37*
G36*
G01*
X281952250Y13674500D02*
X281952250Y15074500D01*
G75*
G02*
X282027250Y15149500I75000J0D01*
G01*
X282177250Y15149500D01*
G75*
G02*
X282252250Y15074500I0J-75000D01*
G01*
X282252250Y13674500D01*
G75*
G02*
X282177250Y13599500I-75000J0D01*
G01*
X282027250Y13599500D01*
G75*
G02*
X281952250Y13674500I0J75000D01*
G01*
G37*
G36*
G01*
X281452250Y13674500D02*
X281452250Y15074500D01*
G75*
G02*
X281527250Y15149500I75000J0D01*
G01*
X281677250Y15149500D01*
G75*
G02*
X281752250Y15074500I0J-75000D01*
G01*
X281752250Y13674500D01*
G75*
G02*
X281677250Y13599500I-75000J0D01*
G01*
X281527250Y13599500D01*
G75*
G02*
X281452250Y13674500I0J75000D01*
G01*
G37*
G36*
G01*
X280952250Y13674500D02*
X280952250Y15074500D01*
G75*
G02*
X281027250Y15149500I75000J0D01*
G01*
X281177250Y15149500D01*
G75*
G02*
X281252250Y15074500I0J-75000D01*
G01*
X281252250Y13674500D01*
G75*
G02*
X281177250Y13599500I-75000J0D01*
G01*
X281027250Y13599500D01*
G75*
G02*
X280952250Y13674500I0J75000D01*
G01*
G37*
G36*
G01*
X280452250Y13674500D02*
X280452250Y15074500D01*
G75*
G02*
X280527250Y15149500I75000J0D01*
G01*
X280677250Y15149500D01*
G75*
G02*
X280752250Y15074500I0J-75000D01*
G01*
X280752250Y13674500D01*
G75*
G02*
X280677250Y13599500I-75000J0D01*
G01*
X280527250Y13599500D01*
G75*
G02*
X280452250Y13674500I0J75000D01*
G01*
G37*
G36*
G01*
X279952250Y13674500D02*
X279952250Y15074500D01*
G75*
G02*
X280027250Y15149500I75000J0D01*
G01*
X280177250Y15149500D01*
G75*
G02*
X280252250Y15074500I0J-75000D01*
G01*
X280252250Y13674500D01*
G75*
G02*
X280177250Y13599500I-75000J0D01*
G01*
X280027250Y13599500D01*
G75*
G02*
X279952250Y13674500I0J75000D01*
G01*
G37*
G36*
G01*
X279452250Y13674500D02*
X279452250Y15074500D01*
G75*
G02*
X279527250Y15149500I75000J0D01*
G01*
X279677250Y15149500D01*
G75*
G02*
X279752250Y15074500I0J-75000D01*
G01*
X279752250Y13674500D01*
G75*
G02*
X279677250Y13599500I-75000J0D01*
G01*
X279527250Y13599500D01*
G75*
G02*
X279452250Y13674500I0J75000D01*
G01*
G37*
G36*
G01*
X278952250Y13674500D02*
X278952250Y15074500D01*
G75*
G02*
X279027250Y15149500I75000J0D01*
G01*
X279177250Y15149500D01*
G75*
G02*
X279252250Y15074500I0J-75000D01*
G01*
X279252250Y13674500D01*
G75*
G02*
X279177250Y13599500I-75000J0D01*
G01*
X279027250Y13599500D01*
G75*
G02*
X278952250Y13674500I0J75000D01*
G01*
G37*
G36*
G01*
X278452250Y13674500D02*
X278452250Y15074500D01*
G75*
G02*
X278527250Y15149500I75000J0D01*
G01*
X278677250Y15149500D01*
G75*
G02*
X278752250Y15074500I0J-75000D01*
G01*
X278752250Y13674500D01*
G75*
G02*
X278677250Y13599500I-75000J0D01*
G01*
X278527250Y13599500D01*
G75*
G02*
X278452250Y13674500I0J75000D01*
G01*
G37*
G36*
G01*
X277952250Y13674500D02*
X277952250Y15074500D01*
G75*
G02*
X278027250Y15149500I75000J0D01*
G01*
X278177250Y15149500D01*
G75*
G02*
X278252250Y15074500I0J-75000D01*
G01*
X278252250Y13674500D01*
G75*
G02*
X278177250Y13599500I-75000J0D01*
G01*
X278027250Y13599500D01*
G75*
G02*
X277952250Y13674500I0J75000D01*
G01*
G37*
G36*
G01*
X277452250Y13674500D02*
X277452250Y15074500D01*
G75*
G02*
X277527250Y15149500I75000J0D01*
G01*
X277677250Y15149500D01*
G75*
G02*
X277752250Y15074500I0J-75000D01*
G01*
X277752250Y13674500D01*
G75*
G02*
X277677250Y13599500I-75000J0D01*
G01*
X277527250Y13599500D01*
G75*
G02*
X277452250Y13674500I0J75000D01*
G01*
G37*
G36*
G01*
X276952250Y13674500D02*
X276952250Y15074500D01*
G75*
G02*
X277027250Y15149500I75000J0D01*
G01*
X277177250Y15149500D01*
G75*
G02*
X277252250Y15074500I0J-75000D01*
G01*
X277252250Y13674500D01*
G75*
G02*
X277177250Y13599500I-75000J0D01*
G01*
X277027250Y13599500D01*
G75*
G02*
X276952250Y13674500I0J75000D01*
G01*
G37*
G36*
G01*
X276452250Y13674500D02*
X276452250Y15074500D01*
G75*
G02*
X276527250Y15149500I75000J0D01*
G01*
X276677250Y15149500D01*
G75*
G02*
X276752250Y15074500I0J-75000D01*
G01*
X276752250Y13674500D01*
G75*
G02*
X276677250Y13599500I-75000J0D01*
G01*
X276527250Y13599500D01*
G75*
G02*
X276452250Y13674500I0J75000D01*
G01*
G37*
G36*
G01*
X275952250Y13674500D02*
X275952250Y15074500D01*
G75*
G02*
X276027250Y15149500I75000J0D01*
G01*
X276177250Y15149500D01*
G75*
G02*
X276252250Y15074500I0J-75000D01*
G01*
X276252250Y13674500D01*
G75*
G02*
X276177250Y13599500I-75000J0D01*
G01*
X276027250Y13599500D01*
G75*
G02*
X275952250Y13674500I0J75000D01*
G01*
G37*
G36*
G01*
X275452250Y13674500D02*
X275452250Y15074500D01*
G75*
G02*
X275527250Y15149500I75000J0D01*
G01*
X275677250Y15149500D01*
G75*
G02*
X275752250Y15074500I0J-75000D01*
G01*
X275752250Y13674500D01*
G75*
G02*
X275677250Y13599500I-75000J0D01*
G01*
X275527250Y13599500D01*
G75*
G02*
X275452250Y13674500I0J75000D01*
G01*
G37*
G36*
G01*
X274952250Y13674500D02*
X274952250Y15074500D01*
G75*
G02*
X275027250Y15149500I75000J0D01*
G01*
X275177250Y15149500D01*
G75*
G02*
X275252250Y15074500I0J-75000D01*
G01*
X275252250Y13674500D01*
G75*
G02*
X275177250Y13599500I-75000J0D01*
G01*
X275027250Y13599500D01*
G75*
G02*
X274952250Y13674500I0J75000D01*
G01*
G37*
G36*
G01*
X274452250Y13674500D02*
X274452250Y15074500D01*
G75*
G02*
X274527250Y15149500I75000J0D01*
G01*
X274677250Y15149500D01*
G75*
G02*
X274752250Y15074500I0J-75000D01*
G01*
X274752250Y13674500D01*
G75*
G02*
X274677250Y13599500I-75000J0D01*
G01*
X274527250Y13599500D01*
G75*
G02*
X274452250Y13674500I0J75000D01*
G01*
G37*
G36*
G01*
X271902250Y12374500D02*
X271902250Y12524500D01*
G75*
G02*
X271977250Y12599500I75000J0D01*
G01*
X273377250Y12599500D01*
G75*
G02*
X273452250Y12524500I0J-75000D01*
G01*
X273452250Y12374500D01*
G75*
G02*
X273377250Y12299500I-75000J0D01*
G01*
X271977250Y12299500D01*
G75*
G02*
X271902250Y12374500I0J75000D01*
G01*
G37*
G36*
G01*
X271902250Y11874500D02*
X271902250Y12024500D01*
G75*
G02*
X271977250Y12099500I75000J0D01*
G01*
X273377250Y12099500D01*
G75*
G02*
X273452250Y12024500I0J-75000D01*
G01*
X273452250Y11874500D01*
G75*
G02*
X273377250Y11799500I-75000J0D01*
G01*
X271977250Y11799500D01*
G75*
G02*
X271902250Y11874500I0J75000D01*
G01*
G37*
G36*
G01*
X271902250Y11374500D02*
X271902250Y11524500D01*
G75*
G02*
X271977250Y11599500I75000J0D01*
G01*
X273377250Y11599500D01*
G75*
G02*
X273452250Y11524500I0J-75000D01*
G01*
X273452250Y11374500D01*
G75*
G02*
X273377250Y11299500I-75000J0D01*
G01*
X271977250Y11299500D01*
G75*
G02*
X271902250Y11374500I0J75000D01*
G01*
G37*
G36*
G01*
X271902250Y10874500D02*
X271902250Y11024500D01*
G75*
G02*
X271977250Y11099500I75000J0D01*
G01*
X273377250Y11099500D01*
G75*
G02*
X273452250Y11024500I0J-75000D01*
G01*
X273452250Y10874500D01*
G75*
G02*
X273377250Y10799500I-75000J0D01*
G01*
X271977250Y10799500D01*
G75*
G02*
X271902250Y10874500I0J75000D01*
G01*
G37*
G36*
G01*
X271902250Y10374500D02*
X271902250Y10524500D01*
G75*
G02*
X271977250Y10599500I75000J0D01*
G01*
X273377250Y10599500D01*
G75*
G02*
X273452250Y10524500I0J-75000D01*
G01*
X273452250Y10374500D01*
G75*
G02*
X273377250Y10299500I-75000J0D01*
G01*
X271977250Y10299500D01*
G75*
G02*
X271902250Y10374500I0J75000D01*
G01*
G37*
G36*
G01*
X271902250Y9874500D02*
X271902250Y10024500D01*
G75*
G02*
X271977250Y10099500I75000J0D01*
G01*
X273377250Y10099500D01*
G75*
G02*
X273452250Y10024500I0J-75000D01*
G01*
X273452250Y9874500D01*
G75*
G02*
X273377250Y9799500I-75000J0D01*
G01*
X271977250Y9799500D01*
G75*
G02*
X271902250Y9874500I0J75000D01*
G01*
G37*
G36*
G01*
X271902250Y9374500D02*
X271902250Y9524500D01*
G75*
G02*
X271977250Y9599500I75000J0D01*
G01*
X273377250Y9599500D01*
G75*
G02*
X273452250Y9524500I0J-75000D01*
G01*
X273452250Y9374500D01*
G75*
G02*
X273377250Y9299500I-75000J0D01*
G01*
X271977250Y9299500D01*
G75*
G02*
X271902250Y9374500I0J75000D01*
G01*
G37*
G36*
G01*
X271902250Y8874500D02*
X271902250Y9024500D01*
G75*
G02*
X271977250Y9099500I75000J0D01*
G01*
X273377250Y9099500D01*
G75*
G02*
X273452250Y9024500I0J-75000D01*
G01*
X273452250Y8874500D01*
G75*
G02*
X273377250Y8799500I-75000J0D01*
G01*
X271977250Y8799500D01*
G75*
G02*
X271902250Y8874500I0J75000D01*
G01*
G37*
G36*
G01*
X271902250Y8374500D02*
X271902250Y8524500D01*
G75*
G02*
X271977250Y8599500I75000J0D01*
G01*
X273377250Y8599500D01*
G75*
G02*
X273452250Y8524500I0J-75000D01*
G01*
X273452250Y8374500D01*
G75*
G02*
X273377250Y8299500I-75000J0D01*
G01*
X271977250Y8299500D01*
G75*
G02*
X271902250Y8374500I0J75000D01*
G01*
G37*
G36*
G01*
X271902250Y7874500D02*
X271902250Y8024500D01*
G75*
G02*
X271977250Y8099500I75000J0D01*
G01*
X273377250Y8099500D01*
G75*
G02*
X273452250Y8024500I0J-75000D01*
G01*
X273452250Y7874500D01*
G75*
G02*
X273377250Y7799500I-75000J0D01*
G01*
X271977250Y7799500D01*
G75*
G02*
X271902250Y7874500I0J75000D01*
G01*
G37*
G36*
G01*
X271902250Y7374500D02*
X271902250Y7524500D01*
G75*
G02*
X271977250Y7599500I75000J0D01*
G01*
X273377250Y7599500D01*
G75*
G02*
X273452250Y7524500I0J-75000D01*
G01*
X273452250Y7374500D01*
G75*
G02*
X273377250Y7299500I-75000J0D01*
G01*
X271977250Y7299500D01*
G75*
G02*
X271902250Y7374500I0J75000D01*
G01*
G37*
G36*
G01*
X271902250Y6874500D02*
X271902250Y7024500D01*
G75*
G02*
X271977250Y7099500I75000J0D01*
G01*
X273377250Y7099500D01*
G75*
G02*
X273452250Y7024500I0J-75000D01*
G01*
X273452250Y6874500D01*
G75*
G02*
X273377250Y6799500I-75000J0D01*
G01*
X271977250Y6799500D01*
G75*
G02*
X271902250Y6874500I0J75000D01*
G01*
G37*
G36*
G01*
X271902250Y6374500D02*
X271902250Y6524500D01*
G75*
G02*
X271977250Y6599500I75000J0D01*
G01*
X273377250Y6599500D01*
G75*
G02*
X273452250Y6524500I0J-75000D01*
G01*
X273452250Y6374500D01*
G75*
G02*
X273377250Y6299500I-75000J0D01*
G01*
X271977250Y6299500D01*
G75*
G02*
X271902250Y6374500I0J75000D01*
G01*
G37*
G36*
G01*
X271902250Y5874500D02*
X271902250Y6024500D01*
G75*
G02*
X271977250Y6099500I75000J0D01*
G01*
X273377250Y6099500D01*
G75*
G02*
X273452250Y6024500I0J-75000D01*
G01*
X273452250Y5874500D01*
G75*
G02*
X273377250Y5799500I-75000J0D01*
G01*
X271977250Y5799500D01*
G75*
G02*
X271902250Y5874500I0J75000D01*
G01*
G37*
G36*
G01*
X271902250Y5374500D02*
X271902250Y5524500D01*
G75*
G02*
X271977250Y5599500I75000J0D01*
G01*
X273377250Y5599500D01*
G75*
G02*
X273452250Y5524500I0J-75000D01*
G01*
X273452250Y5374500D01*
G75*
G02*
X273377250Y5299500I-75000J0D01*
G01*
X271977250Y5299500D01*
G75*
G02*
X271902250Y5374500I0J75000D01*
G01*
G37*
G36*
G01*
X271902250Y4874500D02*
X271902250Y5024500D01*
G75*
G02*
X271977250Y5099500I75000J0D01*
G01*
X273377250Y5099500D01*
G75*
G02*
X273452250Y5024500I0J-75000D01*
G01*
X273452250Y4874500D01*
G75*
G02*
X273377250Y4799500I-75000J0D01*
G01*
X271977250Y4799500D01*
G75*
G02*
X271902250Y4874500I0J75000D01*
G01*
G37*
D14*
X268342890Y19613860D03*
X270342890Y18663860D03*
X270342890Y20563860D03*
D13*
X289232750Y-6265000D03*
X290182750Y-4265000D03*
X288282750Y-4265000D03*
G36*
G01*
X289514999Y15041008D02*
X290815001Y15041008D01*
G75*
G02*
X291065000Y14791009I0J-249999D01*
G01*
X291065000Y14091007D01*
G75*
G02*
X290815001Y13841008I-249999J0D01*
G01*
X289514999Y13841008D01*
G75*
G02*
X289265000Y14091007I0J249999D01*
G01*
X289265000Y14791009D01*
G75*
G02*
X289514999Y15041008I249999J0D01*
G01*
G37*
G36*
G01*
X289514999Y24641008D02*
X290815001Y24641008D01*
G75*
G02*
X291065000Y24391009I0J-249999D01*
G01*
X291065000Y23691007D01*
G75*
G02*
X290815001Y23441008I-249999J0D01*
G01*
X289514999Y23441008D01*
G75*
G02*
X289265000Y23691007I0J249999D01*
G01*
X289265000Y24391009D01*
G75*
G02*
X289514999Y24641008I249999J0D01*
G01*
G37*
G36*
G01*
X285665000Y16041008D02*
X286915000Y16041008D01*
G75*
G02*
X287065000Y15891008I0J-150000D01*
G01*
X287065000Y15591008D01*
G75*
G02*
X286915000Y15441008I-150000J0D01*
G01*
X285665000Y15441008D01*
G75*
G02*
X285515000Y15591008I0J150000D01*
G01*
X285515000Y15891008D01*
G75*
G02*
X285665000Y16041008I150000J0D01*
G01*
G37*
G36*
G01*
X285665000Y17041008D02*
X286915000Y17041008D01*
G75*
G02*
X287065000Y16891008I0J-150000D01*
G01*
X287065000Y16591008D01*
G75*
G02*
X286915000Y16441008I-150000J0D01*
G01*
X285665000Y16441008D01*
G75*
G02*
X285515000Y16591008I0J150000D01*
G01*
X285515000Y16891008D01*
G75*
G02*
X285665000Y17041008I150000J0D01*
G01*
G37*
G36*
G01*
X285665000Y18041008D02*
X286915000Y18041008D01*
G75*
G02*
X287065000Y17891008I0J-150000D01*
G01*
X287065000Y17591008D01*
G75*
G02*
X286915000Y17441008I-150000J0D01*
G01*
X285665000Y17441008D01*
G75*
G02*
X285515000Y17591008I0J150000D01*
G01*
X285515000Y17891008D01*
G75*
G02*
X285665000Y18041008I150000J0D01*
G01*
G37*
G36*
G01*
X285665000Y19041008D02*
X286915000Y19041008D01*
G75*
G02*
X287065000Y18891008I0J-150000D01*
G01*
X287065000Y18591008D01*
G75*
G02*
X286915000Y18441008I-150000J0D01*
G01*
X285665000Y18441008D01*
G75*
G02*
X285515000Y18591008I0J150000D01*
G01*
X285515000Y18891008D01*
G75*
G02*
X285665000Y19041008I150000J0D01*
G01*
G37*
G36*
G01*
X285665000Y20041008D02*
X286915000Y20041008D01*
G75*
G02*
X287065000Y19891008I0J-150000D01*
G01*
X287065000Y19591008D01*
G75*
G02*
X286915000Y19441008I-150000J0D01*
G01*
X285665000Y19441008D01*
G75*
G02*
X285515000Y19591008I0J150000D01*
G01*
X285515000Y19891008D01*
G75*
G02*
X285665000Y20041008I150000J0D01*
G01*
G37*
G36*
G01*
X285665000Y21041008D02*
X286915000Y21041008D01*
G75*
G02*
X287065000Y20891008I0J-150000D01*
G01*
X287065000Y20591008D01*
G75*
G02*
X286915000Y20441008I-150000J0D01*
G01*
X285665000Y20441008D01*
G75*
G02*
X285515000Y20591008I0J150000D01*
G01*
X285515000Y20891008D01*
G75*
G02*
X285665000Y21041008I150000J0D01*
G01*
G37*
G36*
G01*
X285665000Y22041008D02*
X286915000Y22041008D01*
G75*
G02*
X287065000Y21891008I0J-150000D01*
G01*
X287065000Y21591008D01*
G75*
G02*
X286915000Y21441008I-150000J0D01*
G01*
X285665000Y21441008D01*
G75*
G02*
X285515000Y21591008I0J150000D01*
G01*
X285515000Y21891008D01*
G75*
G02*
X285665000Y22041008I150000J0D01*
G01*
G37*
G36*
G01*
X285665000Y23041008D02*
X286915000Y23041008D01*
G75*
G02*
X287065000Y22891008I0J-150000D01*
G01*
X287065000Y22591008D01*
G75*
G02*
X286915000Y22441008I-150000J0D01*
G01*
X285665000Y22441008D01*
G75*
G02*
X285515000Y22591008I0J150000D01*
G01*
X285515000Y22891008D01*
G75*
G02*
X285665000Y23041008I150000J0D01*
G01*
G37*
G36*
G01*
X272727889Y23861000D02*
X273577891Y23861000D01*
G75*
G02*
X273827890Y23611001I0J-249999D01*
G01*
X273827890Y22710999D01*
G75*
G02*
X273577891Y22461000I-249999J0D01*
G01*
X272727889Y22461000D01*
G75*
G02*
X272477890Y22710999I0J249999D01*
G01*
X272477890Y23611001D01*
G75*
G02*
X272727889Y23861000I249999J0D01*
G01*
G37*
G36*
G01*
X272727889Y26561000D02*
X273577891Y26561000D01*
G75*
G02*
X273827890Y26311001I0J-249999D01*
G01*
X273827890Y25410999D01*
G75*
G02*
X273577891Y25161000I-249999J0D01*
G01*
X272727889Y25161000D01*
G75*
G02*
X272477890Y25410999I0J249999D01*
G01*
X272477890Y26311001D01*
G75*
G02*
X272727889Y26561000I249999J0D01*
G01*
G37*
M02*
