G04 #@! TF.GenerationSoftware,KiCad,Pcbnew,(5.1.6)-1*
G04 #@! TF.CreationDate,2020-06-29T21:56:33+02:00*
G04 #@! TF.ProjectId,E80-1800-pcb-universal,4538302d-3138-4303-902d-7063622d756e,rev?*
G04 #@! TF.SameCoordinates,Original*
G04 #@! TF.FileFunction,Legend,Top*
G04 #@! TF.FilePolarity,Positive*
%FSLAX46Y46*%
G04 Gerber Fmt 4.6, Leading zero omitted, Abs format (unit mm)*
G04 Created by KiCad (PCBNEW (5.1.6)-1) date 2020-06-29 21:56:33*
%MOMM*%
%LPD*%
G01*
G04 APERTURE LIST*
%ADD10C,3.000000*%
%ADD11C,0.120000*%
%ADD12C,0.150000*%
%ADD13C,4.100000*%
%ADD14C,1.900000*%
%ADD15R,1.900000X1.900000*%
%ADD16C,6.100000*%
%ADD17O,1.100000X2.200000*%
%ADD18C,0.750000*%
%ADD19O,1.100000X1.700000*%
%ADD20O,1.800000X1.800000*%
%ADD21R,1.800000X1.800000*%
%ADD22C,1.850000*%
%ADD23C,4.087800*%
%ADD24C,3.148000*%
%ADD25R,1.200000X1.900000*%
G04 APERTURE END LIST*
D10*
G36*
X276225000Y-85725000D02*
G01*
X257175000Y-85725000D01*
X257175000Y-104775000D01*
X238125000Y-104775000D01*
X238125000Y-123825000D01*
X-9525000Y-123825000D01*
X-9500000Y-28586992D01*
X276225000Y-28575000D01*
X276225000Y-85725000D01*
G37*
X276225000Y-85725000D02*
X257175000Y-85725000D01*
X257175000Y-104775000D01*
X238125000Y-104775000D01*
X238125000Y-123825000D01*
X-9525000Y-123825000D01*
X-9500000Y-28586992D01*
X276225000Y-28575000D01*
X276225000Y-85725000D01*
G36*
X281583025Y-110132913D02*
G01*
X300633025Y-110132913D01*
X300633025Y-129182913D01*
X243483025Y-129182913D01*
X243483025Y-110132913D01*
X262533025Y-110132913D01*
X262533025Y-91082913D01*
X281583025Y-91082913D01*
X281583025Y-110132913D01*
G37*
X281583025Y-110132913D02*
X300633025Y-110132913D01*
X300633025Y-129182913D01*
X243483025Y-129182913D01*
X243483025Y-110132913D01*
X262533025Y-110132913D01*
X262533025Y-91082913D01*
X281583025Y-91082913D01*
X281583025Y-110132913D01*
G36*
X363140890Y-123825000D02*
G01*
X305990890Y-123825000D01*
X305990890Y-104775000D01*
X286940890Y-104775000D01*
X286940890Y9525000D01*
X363140890Y9525000D01*
X363140890Y-123825000D01*
G37*
X363140890Y-123825000D02*
X305990890Y-123825000D01*
X305990890Y-104775000D01*
X286940890Y-104775000D01*
X286940890Y9525000D01*
X363140890Y9525000D01*
X363140890Y-123825000D01*
G36*
X254198595Y-9525000D02*
G01*
X177998595Y-9525000D01*
X177998595Y9525000D01*
X254198595Y9525000D01*
X254198595Y-9525000D01*
G37*
X254198595Y-9525000D02*
X177998595Y-9525000D01*
X177998595Y9525000D01*
X254198595Y9525000D01*
X254198595Y-9525000D01*
G36*
X172640714Y-9525000D02*
G01*
X96440714Y-9525000D01*
X96440714Y9525000D01*
X172640714Y9525000D01*
X172640714Y-9525000D01*
G37*
X172640714Y-9525000D02*
X96440714Y-9525000D01*
X96440714Y9525000D01*
X172640714Y9525000D01*
X172640714Y-9525000D01*
G36*
X91082833Y-9525000D02*
G01*
X14882833Y-9525000D01*
X14882833Y9525000D01*
X91082833Y9525000D01*
X91082833Y-9525000D01*
G37*
X91082833Y-9525000D02*
X14882833Y-9525000D01*
X14882833Y9525000D01*
X91082833Y9525000D01*
X91082833Y-9525000D01*
G36*
X9525000Y-9525000D02*
G01*
X-9525000Y-9525000D01*
X-9525000Y9525000D01*
X9525000Y9525000D01*
X9525000Y-9525000D01*
G37*
X9525000Y-9525000D02*
X-9525000Y-9525000D01*
X-9525000Y9525000D01*
X9525000Y9525000D01*
X9525000Y-9525000D01*
D11*
X277125992Y-6437792D02*
X277125992Y-6593792D01*
X277125992Y-4121792D02*
X277125992Y-4277792D01*
X279727122Y-6437629D02*
G75*
G02*
X277645031Y-6437792I-1041130J1079837D01*
G01*
X279727122Y-4277955D02*
G75*
G03*
X277645031Y-4277792I-1041130J-1079837D01*
G01*
X280358327Y-6436400D02*
G75*
G02*
X277125992Y-6593308I-1672335J1078608D01*
G01*
X280358327Y-4279184D02*
G75*
G03*
X277125992Y-4122276I-1672335J-1078608D01*
G01*
X269981992Y-6437792D02*
X269981992Y-6593792D01*
X269981992Y-4121792D02*
X269981992Y-4277792D01*
X272583122Y-6437629D02*
G75*
G02*
X270501031Y-6437792I-1041130J1079837D01*
G01*
X272583122Y-4277955D02*
G75*
G03*
X270501031Y-4277792I-1041130J-1079837D01*
G01*
X273214327Y-6436400D02*
G75*
G02*
X269981992Y-6593308I-1672335J1078608D01*
G01*
X273214327Y-4279184D02*
G75*
G03*
X269981992Y-4122276I-1672335J-1078608D01*
G01*
X262837992Y-6437792D02*
X262837992Y-6593792D01*
X262837992Y-4121792D02*
X262837992Y-4277792D01*
X265439122Y-6437629D02*
G75*
G02*
X263357031Y-6437792I-1041130J1079837D01*
G01*
X265439122Y-4277955D02*
G75*
G03*
X263357031Y-4277792I-1041130J-1079837D01*
G01*
X266070327Y-6436400D02*
G75*
G02*
X262837992Y-6593308I-1672335J1078608D01*
G01*
X266070327Y-4279184D02*
G75*
G03*
X262837992Y-4122276I-1672335J-1078608D01*
G01*
X256011390Y27428500D02*
X257341390Y27428500D01*
X256011390Y26098500D02*
X256011390Y27428500D01*
X256011390Y24828500D02*
X258671390Y24828500D01*
X258671390Y24828500D02*
X258671390Y17148500D01*
X256011390Y24828500D02*
X256011390Y17148500D01*
X256011390Y17148500D02*
X258671390Y17148500D01*
D12*
X130203250Y-108906000D02*
X130203250Y-114106000D01*
X130203250Y-114106000D02*
X125003250Y-114106000D01*
X125003250Y-114106000D02*
X125003250Y-108906000D01*
X125003250Y-108906000D02*
X130203250Y-108906000D01*
X128603250Y-111506000D02*
G75*
G03*
X128603250Y-111506000I-1000000J0D01*
G01*
X137569250Y-108906000D02*
X137569250Y-114106000D01*
X137569250Y-114106000D02*
X132369250Y-114106000D01*
X132369250Y-114106000D02*
X132369250Y-108906000D01*
X132369250Y-108906000D02*
X137569250Y-108906000D01*
X135969250Y-111506000D02*
G75*
G03*
X135969250Y-111506000I-1000000J0D01*
G01*
X302014515Y-119277372D02*
X302014515Y-118277372D01*
X302014515Y-118753563D02*
X302585944Y-118753563D01*
X302585944Y-119277372D02*
X302585944Y-118277372D01*
X302966896Y-118277372D02*
X303585944Y-118277372D01*
X303252611Y-118658325D01*
X303395468Y-118658325D01*
X303490706Y-118705944D01*
X303538325Y-118753563D01*
X303585944Y-118848801D01*
X303585944Y-119086896D01*
X303538325Y-119182134D01*
X303490706Y-119229753D01*
X303395468Y-119277372D01*
X303109753Y-119277372D01*
X303014515Y-119229753D01*
X302966896Y-119182134D01*
X304204992Y-118277372D02*
X304300230Y-118277372D01*
X304395468Y-118324992D01*
X304443087Y-118372611D01*
X304490706Y-118467849D01*
X304538325Y-118658325D01*
X304538325Y-118896420D01*
X304490706Y-119086896D01*
X304443087Y-119182134D01*
X304395468Y-119229753D01*
X304300230Y-119277372D01*
X304204992Y-119277372D01*
X304109753Y-119229753D01*
X304062134Y-119182134D01*
X304014515Y-119086896D01*
X303966896Y-118896420D01*
X303966896Y-118658325D01*
X304014515Y-118467849D01*
X304062134Y-118372611D01*
X304109753Y-118324992D01*
X304204992Y-118277372D01*
X305157372Y-118277372D02*
X305252611Y-118277372D01*
X305347849Y-118324992D01*
X305395468Y-118372611D01*
X305443087Y-118467849D01*
X305490706Y-118658325D01*
X305490706Y-118896420D01*
X305443087Y-119086896D01*
X305395468Y-119182134D01*
X305347849Y-119229753D01*
X305252611Y-119277372D01*
X305157372Y-119277372D01*
X305062134Y-119229753D01*
X305014515Y-119182134D01*
X304966896Y-119086896D01*
X304919277Y-118896420D01*
X304919277Y-118658325D01*
X304966896Y-118467849D01*
X305014515Y-118372611D01*
X305062134Y-118324992D01*
X305157372Y-118277372D01*
X306443087Y-119277372D02*
X305871658Y-119277372D01*
X306157372Y-119277372D02*
X306157372Y-118277372D01*
X306062134Y-118420230D01*
X305966896Y-118515468D01*
X305871658Y-118563087D01*
X277947896Y-2850172D02*
X277947896Y-1850172D01*
X278185992Y-1850172D01*
X278328849Y-1897792D01*
X278424087Y-1993030D01*
X278471706Y-2088268D01*
X278519325Y-2278744D01*
X278519325Y-2421601D01*
X278471706Y-2612077D01*
X278424087Y-2707315D01*
X278328849Y-2802553D01*
X278185992Y-2850172D01*
X277947896Y-2850172D01*
X278852658Y-1850172D02*
X279471706Y-1850172D01*
X279138372Y-2231125D01*
X279281230Y-2231125D01*
X279376468Y-2278744D01*
X279424087Y-2326363D01*
X279471706Y-2421601D01*
X279471706Y-2659696D01*
X279424087Y-2754934D01*
X279376468Y-2802553D01*
X279281230Y-2850172D01*
X278995515Y-2850172D01*
X278900277Y-2802553D01*
X278852658Y-2754934D01*
X270803896Y-2850172D02*
X270803896Y-1850172D01*
X271041992Y-1850172D01*
X271184849Y-1897792D01*
X271280087Y-1993030D01*
X271327706Y-2088268D01*
X271375325Y-2278744D01*
X271375325Y-2421601D01*
X271327706Y-2612077D01*
X271280087Y-2707315D01*
X271184849Y-2802553D01*
X271041992Y-2850172D01*
X270803896Y-2850172D01*
X271756277Y-1945411D02*
X271803896Y-1897792D01*
X271899134Y-1850172D01*
X272137230Y-1850172D01*
X272232468Y-1897792D01*
X272280087Y-1945411D01*
X272327706Y-2040649D01*
X272327706Y-2135887D01*
X272280087Y-2278744D01*
X271708658Y-2850172D01*
X272327706Y-2850172D01*
X263659896Y-2850172D02*
X263659896Y-1850172D01*
X263897992Y-1850172D01*
X264040849Y-1897792D01*
X264136087Y-1993030D01*
X264183706Y-2088268D01*
X264231325Y-2278744D01*
X264231325Y-2421601D01*
X264183706Y-2612077D01*
X264136087Y-2707315D01*
X264040849Y-2802553D01*
X263897992Y-2850172D01*
X263659896Y-2850172D01*
X265183706Y-2850172D02*
X264612277Y-2850172D01*
X264897992Y-2850172D02*
X264897992Y-1850172D01*
X264802753Y-1993030D01*
X264707515Y-2088268D01*
X264612277Y-2135887D01*
X308638095Y28097627D02*
X308638095Y29097627D01*
X308638095Y28621436D02*
X309209523Y28621436D01*
X309209523Y28097627D02*
X309209523Y29097627D01*
X309590476Y29097627D02*
X310209523Y29097627D01*
X309876190Y28716674D01*
X310019047Y28716674D01*
X310114285Y28669055D01*
X310161904Y28621436D01*
X310209523Y28526198D01*
X310209523Y28288103D01*
X310161904Y28192865D01*
X310114285Y28145246D01*
X310019047Y28097627D01*
X309733333Y28097627D01*
X309638095Y28145246D01*
X309590476Y28192865D01*
X240649087Y-12502372D02*
X240649087Y-11502372D01*
X240649087Y-11978563D02*
X241220515Y-11978563D01*
X241220515Y-12502372D02*
X241220515Y-11502372D01*
X241649087Y-11597611D02*
X241696706Y-11549992D01*
X241791944Y-11502372D01*
X242030039Y-11502372D01*
X242125277Y-11549992D01*
X242172896Y-11597611D01*
X242220515Y-11692849D01*
X242220515Y-11788087D01*
X242172896Y-11930944D01*
X241601468Y-12502372D01*
X242220515Y-12502372D01*
X48649087Y-12502372D02*
X48649087Y-11502372D01*
X48649087Y-11978563D02*
X49220515Y-11978563D01*
X49220515Y-12502372D02*
X49220515Y-11502372D01*
X50220515Y-12502372D02*
X49649087Y-12502372D01*
X49934801Y-12502372D02*
X49934801Y-11502372D01*
X49839563Y-11645230D01*
X49744325Y-11740468D01*
X49649087Y-11788087D01*
X257008056Y28976119D02*
X257008056Y28261833D01*
X256960437Y28118976D01*
X256865199Y28023738D01*
X256722342Y27976119D01*
X256627104Y27976119D01*
X257436628Y28880880D02*
X257484247Y28928500D01*
X257579485Y28976119D01*
X257817580Y28976119D01*
X257912818Y28928500D01*
X257960437Y28880880D01*
X258008056Y28785642D01*
X258008056Y28690404D01*
X257960437Y28547547D01*
X257389009Y27976119D01*
X258008056Y27976119D01*
X123944011Y-112839333D02*
X123991630Y-112696476D01*
X123991630Y-112458380D01*
X123944011Y-112363142D01*
X123896392Y-112315523D01*
X123801154Y-112267904D01*
X123705916Y-112267904D01*
X123610678Y-112315523D01*
X123563059Y-112363142D01*
X123515440Y-112458380D01*
X123467821Y-112648857D01*
X123420202Y-112744095D01*
X123372583Y-112791714D01*
X123277345Y-112839333D01*
X123182107Y-112839333D01*
X123086869Y-112791714D01*
X123039250Y-112744095D01*
X122991630Y-112648857D01*
X122991630Y-112410761D01*
X123039250Y-112267904D01*
X122991630Y-111934571D02*
X123991630Y-111696476D01*
X123277345Y-111506000D01*
X123991630Y-111315523D01*
X122991630Y-111077428D01*
X123086869Y-110744095D02*
X123039250Y-110696476D01*
X122991630Y-110601238D01*
X122991630Y-110363142D01*
X123039250Y-110267904D01*
X123086869Y-110220285D01*
X123182107Y-110172666D01*
X123277345Y-110172666D01*
X123420202Y-110220285D01*
X123991630Y-110791714D01*
X123991630Y-110172666D01*
X131310011Y-112839333D02*
X131357630Y-112696476D01*
X131357630Y-112458380D01*
X131310011Y-112363142D01*
X131262392Y-112315523D01*
X131167154Y-112267904D01*
X131071916Y-112267904D01*
X130976678Y-112315523D01*
X130929059Y-112363142D01*
X130881440Y-112458380D01*
X130833821Y-112648857D01*
X130786202Y-112744095D01*
X130738583Y-112791714D01*
X130643345Y-112839333D01*
X130548107Y-112839333D01*
X130452869Y-112791714D01*
X130405250Y-112744095D01*
X130357630Y-112648857D01*
X130357630Y-112410761D01*
X130405250Y-112267904D01*
X130357630Y-111934571D02*
X131357630Y-111696476D01*
X130643345Y-111506000D01*
X131357630Y-111315523D01*
X130357630Y-111077428D01*
X131357630Y-110172666D02*
X131357630Y-110744095D01*
X131357630Y-110458380D02*
X130357630Y-110458380D01*
X130500488Y-110553619D01*
X130595726Y-110648857D01*
X130643345Y-110744095D01*
%LPC*%
D13*
X304204992Y-123824992D03*
D14*
X279955992Y-5357792D03*
D15*
X277415992Y-5357792D03*
D14*
X272811992Y-5357792D03*
D15*
X270271992Y-5357792D03*
D14*
X265667992Y-5357792D03*
D15*
X263127992Y-5357792D03*
D16*
X309194898Y21550008D03*
X241410992Y-19049992D03*
X49410992Y-19049992D03*
D17*
X320525890Y23646000D03*
X311885890Y23646000D03*
D18*
X313315890Y24176000D03*
D19*
X311885890Y27826000D03*
D18*
X319095890Y24176000D03*
D19*
X320525890Y27826000D03*
D20*
X257341390Y18478500D03*
X257341390Y21018500D03*
X257341390Y23558500D03*
D21*
X257341390Y26098500D03*
D22*
X7461250Y-76200000D03*
X-2698750Y-76200000D03*
D23*
X2381250Y-76200000D03*
X171450000Y-122555000D03*
D24*
X171450000Y-107315000D03*
D22*
X119380000Y-114300000D03*
X109220000Y-114300000D03*
D23*
X114300000Y-114300000D03*
D22*
X100330100Y-114300120D03*
X90170100Y-114300120D03*
D23*
X95250100Y-114300120D03*
D22*
X228917500Y-114300000D03*
X218757500Y-114300000D03*
D23*
X223837500Y-114300000D03*
D22*
X200342500Y-114300000D03*
X190182500Y-114300000D03*
D23*
X195262500Y-114300000D03*
D22*
X38417500Y-114300000D03*
X28257500Y-114300000D03*
D23*
X33337500Y-114300000D03*
D22*
X9842500Y-114300000D03*
X-317500Y-114300000D03*
D23*
X4762500Y-114300000D03*
X256063750Y-54737000D03*
X256063750Y-78613000D03*
D24*
X271303750Y-54737000D03*
X271303750Y-78613000D03*
D22*
X264318750Y-71755000D03*
X264318750Y-61595000D03*
D23*
X264318750Y-66675000D03*
X361870890Y-92837000D03*
X361870890Y-116713000D03*
D24*
X346630890Y-92837000D03*
X346630890Y-116713000D03*
D22*
X358695890Y-104775000D03*
X348535890Y-104775000D03*
D23*
X353615890Y-104775000D03*
D22*
X9842500Y-57150000D03*
X-317500Y-57150000D03*
D23*
X4762500Y-57150000D03*
D22*
X12223750Y-76200000D03*
X2063750Y-76200000D03*
D23*
X7143750Y-76200000D03*
D22*
X245586250Y-95250000D03*
X235426250Y-95250000D03*
D23*
X240506250Y-95250000D03*
D25*
X125753250Y-108406000D03*
X129453250Y-114606000D03*
X129453250Y-108406000D03*
X125753250Y-114606000D03*
X133119250Y-108406000D03*
X136819250Y-114606000D03*
X136819250Y-108406000D03*
X133119250Y-114606000D03*
D22*
X339645890Y-114300000D03*
X329485890Y-114300000D03*
D23*
X334565890Y-114300000D03*
D22*
X320595890Y-114300000D03*
X310435890Y-114300000D03*
D23*
X315515890Y-114300000D03*
D22*
X296188025Y-119657913D03*
X286028025Y-119657913D03*
D23*
X291108025Y-119657913D03*
D22*
X277138025Y-119657913D03*
X266978025Y-119657913D03*
D23*
X272058025Y-119657913D03*
D22*
X258088025Y-119657913D03*
X247928025Y-119657913D03*
D23*
X253008025Y-119657913D03*
D22*
X233680000Y-114300000D03*
X223520000Y-114300000D03*
D23*
X228600000Y-114300000D03*
D22*
X214630000Y-114300000D03*
X204470000Y-114300000D03*
D23*
X209550000Y-114300000D03*
D22*
X195580000Y-114300000D03*
X185420000Y-114300000D03*
D23*
X190500000Y-114300000D03*
D22*
X176530000Y-114300000D03*
X166370000Y-114300000D03*
D23*
X171450000Y-114300000D03*
X152400000Y-122555000D03*
X57150000Y-122555000D03*
D24*
X152400000Y-107315000D03*
X57150000Y-107315000D03*
D22*
X119380000Y-114300000D03*
X109220000Y-114300000D03*
D23*
X114300000Y-114300000D03*
D22*
X43180000Y-114300000D03*
X33020000Y-114300000D03*
D23*
X38100000Y-114300000D03*
D22*
X24130000Y-114300000D03*
X13970000Y-114300000D03*
D23*
X19050000Y-114300000D03*
D22*
X5080000Y-114300000D03*
X-5080000Y-114300000D03*
D23*
X0Y-114300000D03*
D22*
X339645890Y-95250000D03*
X329485890Y-95250000D03*
D23*
X334565890Y-95250000D03*
D22*
X320595890Y-95250000D03*
X310435890Y-95250000D03*
D23*
X315515890Y-95250000D03*
D22*
X301545890Y-95250000D03*
X291385890Y-95250000D03*
D23*
X296465890Y-95250000D03*
D22*
X277138025Y-100607913D03*
X266978025Y-100607913D03*
D23*
X272058025Y-100607913D03*
D22*
X219392500Y-95250000D03*
X209232500Y-95250000D03*
D23*
X214312500Y-95250000D03*
D22*
X200342500Y-95250000D03*
X190182500Y-95250000D03*
D23*
X195262500Y-95250000D03*
D22*
X181292500Y-95250000D03*
X171132500Y-95250000D03*
D23*
X176212500Y-95250000D03*
D22*
X162242500Y-95250000D03*
X152082500Y-95250000D03*
D23*
X157162500Y-95250000D03*
D22*
X143192500Y-95250000D03*
X133032500Y-95250000D03*
D23*
X138112500Y-95250000D03*
D22*
X124142500Y-95250000D03*
X113982500Y-95250000D03*
D23*
X119062500Y-95250000D03*
D22*
X105092500Y-95250000D03*
X94932500Y-95250000D03*
D23*
X100012500Y-95250000D03*
D22*
X86042500Y-95250000D03*
X75882500Y-95250000D03*
D23*
X80962500Y-95250000D03*
D22*
X66992500Y-95250000D03*
X56832500Y-95250000D03*
D23*
X61912500Y-95250000D03*
D22*
X47942500Y-95250000D03*
X37782500Y-95250000D03*
D23*
X42862500Y-95250000D03*
D22*
X28892500Y-95250000D03*
X18732500Y-95250000D03*
D23*
X23812500Y-95250000D03*
X23844250Y-103505000D03*
X-31750Y-103505000D03*
D24*
X23844250Y-88265000D03*
X-31750Y-88265000D03*
D22*
X16986250Y-95250000D03*
X6826250Y-95250000D03*
D23*
X11906250Y-95250000D03*
D22*
X7461250Y-95250000D03*
X-2698750Y-95250000D03*
D23*
X2381250Y-95250000D03*
D22*
X358695890Y-76200000D03*
X348535890Y-76200000D03*
D23*
X353615890Y-76200000D03*
D22*
X339645890Y-76200000D03*
X329485890Y-76200000D03*
D23*
X334565890Y-76200000D03*
D22*
X320595890Y-76200000D03*
X310435890Y-76200000D03*
D23*
X315515890Y-76200000D03*
D22*
X301545890Y-76200000D03*
X291385890Y-76200000D03*
D23*
X296465890Y-76200000D03*
X266731750Y-84455000D03*
X242855750Y-84455000D03*
D24*
X266731750Y-69215000D03*
X242855750Y-69215000D03*
D22*
X259873750Y-76200000D03*
X249713750Y-76200000D03*
D23*
X254793750Y-76200000D03*
D22*
X247967500Y-76200000D03*
X237807500Y-76200000D03*
D23*
X242887500Y-76200000D03*
D22*
X228917500Y-76200000D03*
X218757500Y-76200000D03*
D23*
X223837500Y-76200000D03*
D22*
X209867500Y-76200000D03*
X199707500Y-76200000D03*
D23*
X204787500Y-76200000D03*
D22*
X190817500Y-76200000D03*
X180657500Y-76200000D03*
D23*
X185737500Y-76200000D03*
D22*
X171767500Y-76200000D03*
X161607500Y-76200000D03*
D23*
X166687500Y-76200000D03*
D22*
X152717500Y-76200000D03*
X142557500Y-76200000D03*
D23*
X147637500Y-76200000D03*
D22*
X133667500Y-76200000D03*
X123507500Y-76200000D03*
D23*
X128587500Y-76200000D03*
D22*
X114617500Y-76200000D03*
X104457500Y-76200000D03*
D23*
X109537500Y-76200000D03*
D22*
X95567500Y-76200000D03*
X85407500Y-76200000D03*
D23*
X90487500Y-76200000D03*
D22*
X76517500Y-76200000D03*
X66357500Y-76200000D03*
D23*
X71437500Y-76200000D03*
D22*
X57467500Y-76200000D03*
X47307500Y-76200000D03*
D23*
X52387500Y-76200000D03*
D22*
X38417500Y-76200000D03*
X28257500Y-76200000D03*
D23*
X33337500Y-76200000D03*
D22*
X358695890Y-57150000D03*
X348535890Y-57150000D03*
D23*
X353615890Y-57150000D03*
D22*
X339645890Y-57150000D03*
X329485890Y-57150000D03*
D23*
X334565890Y-57150000D03*
D22*
X320595890Y-57150000D03*
X310435890Y-57150000D03*
D23*
X315515890Y-57150000D03*
D22*
X301545890Y-57150000D03*
X291385890Y-57150000D03*
D23*
X296465890Y-57150000D03*
D22*
X267017500Y-57150000D03*
X256857500Y-57150000D03*
D23*
X261937500Y-57150000D03*
D22*
X243205000Y-57150000D03*
X233045000Y-57150000D03*
D23*
X238125000Y-57150000D03*
D22*
X224155000Y-57150000D03*
X213995000Y-57150000D03*
D23*
X219075000Y-57150000D03*
D22*
X205105000Y-57150000D03*
X194945000Y-57150000D03*
D23*
X200025000Y-57150000D03*
D22*
X186055000Y-57150000D03*
X175895000Y-57150000D03*
D23*
X180975000Y-57150000D03*
D22*
X167005000Y-57150000D03*
X156845000Y-57150000D03*
D23*
X161925000Y-57150000D03*
D22*
X147955000Y-57150000D03*
X137795000Y-57150000D03*
D23*
X142875000Y-57150000D03*
D22*
X128905000Y-57150000D03*
X118745000Y-57150000D03*
D23*
X123825000Y-57150000D03*
D22*
X109855000Y-57150000D03*
X99695000Y-57150000D03*
D23*
X104775000Y-57150000D03*
D22*
X90805000Y-57150000D03*
X80645000Y-57150000D03*
D23*
X85725000Y-57150000D03*
D22*
X71755000Y-57150000D03*
X61595000Y-57150000D03*
D23*
X66675000Y-57150000D03*
D22*
X52705000Y-57150000D03*
X42545000Y-57150000D03*
D23*
X47625000Y-57150000D03*
D22*
X33655000Y-57150000D03*
X23495000Y-57150000D03*
D23*
X28575000Y-57150000D03*
D22*
X358695890Y-38100000D03*
X348535890Y-38100000D03*
D23*
X353615890Y-38100000D03*
D22*
X339645890Y-38100000D03*
X329485890Y-38100000D03*
D23*
X334565890Y-38100000D03*
D22*
X320595890Y-38100000D03*
X310435890Y-38100000D03*
D23*
X315515890Y-38100000D03*
D22*
X301545890Y-38100000D03*
X291385890Y-38100000D03*
D23*
X296465890Y-38100000D03*
X269113000Y-46355000D03*
X245237000Y-46355000D03*
D24*
X269113000Y-31115000D03*
X245237000Y-31115000D03*
D22*
X262255000Y-38100000D03*
X252095000Y-38100000D03*
D23*
X257175000Y-38100000D03*
D22*
X233680000Y-38100000D03*
X223520000Y-38100000D03*
D23*
X228600000Y-38100000D03*
D22*
X214630000Y-38100000D03*
X204470000Y-38100000D03*
D23*
X209550000Y-38100000D03*
D22*
X195580000Y-38100000D03*
X185420000Y-38100000D03*
D23*
X190500000Y-38100000D03*
D22*
X176530000Y-38100000D03*
X166370000Y-38100000D03*
D23*
X171450000Y-38100000D03*
D22*
X157480000Y-38100000D03*
X147320000Y-38100000D03*
D23*
X152400000Y-38100000D03*
D22*
X138430000Y-38100000D03*
X128270000Y-38100000D03*
D23*
X133350000Y-38100000D03*
D22*
X119380000Y-38100000D03*
X109220000Y-38100000D03*
D23*
X114300000Y-38100000D03*
D22*
X100330000Y-38100000D03*
X90170000Y-38100000D03*
D23*
X95250000Y-38100000D03*
D22*
X81280000Y-38100000D03*
X71120000Y-38100000D03*
D23*
X76200000Y-38100000D03*
D22*
X62230000Y-38100000D03*
X52070000Y-38100000D03*
D23*
X57150000Y-38100000D03*
D22*
X43180000Y-38100000D03*
X33020000Y-38100000D03*
D23*
X38100000Y-38100000D03*
D22*
X24130000Y-38100000D03*
X13970000Y-38100000D03*
D23*
X19050000Y-38100000D03*
D22*
X5080000Y-38100000D03*
X-5080000Y-38100000D03*
D23*
X0Y-38100000D03*
D22*
X358695890Y-19050000D03*
X348535890Y-19050000D03*
D23*
X353615890Y-19050000D03*
D22*
X339645890Y-19050000D03*
X329485890Y-19050000D03*
D23*
X334565890Y-19050000D03*
D22*
X320595890Y-19050000D03*
X310435890Y-19050000D03*
D23*
X315515890Y-19050000D03*
D22*
X301545890Y-19050000D03*
X291385890Y-19050000D03*
D23*
X296465890Y-19050000D03*
D22*
X358695890Y0D03*
X348535890Y0D03*
D23*
X353615890Y0D03*
D22*
X339645890Y0D03*
X329485890Y0D03*
D23*
X334565890Y0D03*
D22*
X320595890Y0D03*
X310435890Y0D03*
D23*
X315515890Y0D03*
D22*
X301545890Y0D03*
X291385890Y0D03*
D23*
X296465890Y0D03*
D22*
X249753595Y0D03*
X239593595Y0D03*
D23*
X244673595Y0D03*
D22*
X230703595Y0D03*
X220543595Y0D03*
D23*
X225623595Y0D03*
D22*
X211653595Y0D03*
X201493595Y0D03*
D23*
X206573595Y0D03*
D22*
X192603595Y0D03*
X182443595Y0D03*
D23*
X187523595Y0D03*
D22*
X168195714Y0D03*
X158035714Y0D03*
D23*
X163115714Y0D03*
D22*
X149145714Y0D03*
X138985714Y0D03*
D23*
X144065714Y0D03*
D22*
X130095714Y0D03*
X119935714Y0D03*
D23*
X125015714Y0D03*
D22*
X111045714Y0D03*
X100885714Y0D03*
D23*
X105965714Y0D03*
D22*
X86637833Y0D03*
X76477833Y0D03*
D23*
X81557833Y0D03*
D22*
X67587833Y0D03*
X57427833Y0D03*
D23*
X62507833Y0D03*
D22*
X48537833Y0D03*
X38377833Y0D03*
D23*
X43457833Y0D03*
D22*
X29487833Y0D03*
X19327833Y0D03*
D23*
X24407833Y0D03*
D22*
X5080000Y0D03*
X-5080000Y0D03*
D23*
X0Y0D03*
M02*
