G04 #@! TF.GenerationSoftware,KiCad,Pcbnew,(6.0.0)*
G04 #@! TF.CreationDate,2022-01-12T23:24:30+01:00*
G04 #@! TF.ProjectId,E80-1800-pcb-universal,4538302d-3138-4303-902d-7063622d756e,rev?*
G04 #@! TF.SameCoordinates,Original*
G04 #@! TF.FileFunction,Soldermask,Top*
G04 #@! TF.FilePolarity,Negative*
%FSLAX46Y46*%
G04 Gerber Fmt 4.6, Leading zero omitted, Abs format (unit mm)*
G04 Created by KiCad (PCBNEW (6.0.0)) date 2022-01-12 23:24:30*
%MOMM*%
%LPD*%
G01*
G04 APERTURE LIST*
G04 Aperture macros list*
%AMRoundRect*
0 Rectangle with rounded corners*
0 $1 Rounding radius*
0 $2 $3 $4 $5 $6 $7 $8 $9 X,Y pos of 4 corners*
0 Add a 4 corners polygon primitive as box body*
4,1,4,$2,$3,$4,$5,$6,$7,$8,$9,$2,$3,0*
0 Add four circle primitives for the rounded corners*
1,1,$1+$1,$2,$3*
1,1,$1+$1,$4,$5*
1,1,$1+$1,$6,$7*
1,1,$1+$1,$8,$9*
0 Add four rect primitives between the rounded corners*
20,1,$1+$1,$2,$3,$4,$5,0*
20,1,$1+$1,$4,$5,$6,$7,0*
20,1,$1+$1,$6,$7,$8,$9,0*
20,1,$1+$1,$8,$9,$2,$3,0*%
G04 Aperture macros list end*
%ADD10RoundRect,0.050000X-0.850000X0.850000X-0.850000X-0.850000X0.850000X-0.850000X0.850000X0.850000X0*%
%ADD11O,1.800000X1.800000*%
%ADD12C,4.087800*%
%ADD13C,1.850000*%
%ADD14C,3.148000*%
%ADD15C,6.100000*%
%ADD16RoundRect,0.050000X-0.900000X-0.900000X0.900000X-0.900000X0.900000X0.900000X-0.900000X0.900000X0*%
%ADD17C,1.900000*%
%ADD18C,4.100000*%
%ADD19RoundRect,0.050000X0.900000X0.550000X-0.900000X0.550000X-0.900000X-0.550000X0.900000X-0.550000X0*%
%ADD20RoundRect,0.050000X0.850000X0.850000X-0.850000X0.850000X-0.850000X-0.850000X0.850000X-0.850000X0*%
%ADD21O,1.100000X1.700000*%
%ADD22C,0.750000*%
%ADD23O,1.100000X2.200000*%
G04 APERTURE END LIST*
D10*
X80100000Y-111900000D03*
D11*
X77560000Y-111900000D03*
X77560000Y-116550000D03*
D10*
X80100000Y-116550000D03*
D12*
X228600000Y-114300000D03*
D13*
X223520000Y-114300000D03*
X233680000Y-114300000D03*
X190182500Y-114300000D03*
X200342500Y-114300000D03*
D12*
X195262500Y-114300000D03*
X38100000Y-114300000D03*
D13*
X33020000Y-114300000D03*
X43180000Y-114300000D03*
X-317500Y-114300000D03*
X9842500Y-114300000D03*
D12*
X4762500Y-114300000D03*
D14*
X242855750Y-69215000D03*
D12*
X254793750Y-76200000D03*
X266731750Y-84455000D03*
D14*
X266731750Y-69215000D03*
D13*
X249713750Y-76200000D03*
D12*
X242855750Y-84455000D03*
D13*
X259873750Y-76200000D03*
D14*
X-31750Y-88265000D03*
D12*
X11906250Y-95250000D03*
X23844250Y-103505000D03*
D14*
X23844250Y-88265000D03*
D13*
X6826250Y-95250000D03*
D12*
X-31750Y-103505000D03*
D13*
X16986250Y-95250000D03*
X2063750Y-76200000D03*
X12223750Y-76200000D03*
D12*
X7143750Y-76200000D03*
D13*
X-5080000Y0D03*
X5080000Y0D03*
D12*
X0Y0D03*
D13*
X90170100Y-114300120D03*
X100330100Y-114300120D03*
D12*
X95250100Y-114300120D03*
D13*
X57427833Y0D03*
X67587833Y0D03*
D12*
X62507833Y0D03*
D13*
X76477833Y0D03*
X86637833Y0D03*
D12*
X81557833Y0D03*
D13*
X119935714Y0D03*
X130095714Y0D03*
D12*
X125015714Y0D03*
D13*
X138985714Y0D03*
X149145714Y0D03*
D12*
X144065714Y0D03*
D13*
X158035714Y0D03*
X168195714Y0D03*
D12*
X163115714Y0D03*
D13*
X182443595Y0D03*
X192603595Y0D03*
D12*
X187523595Y0D03*
D13*
X220543595Y0D03*
X230703595Y0D03*
D12*
X225623595Y0D03*
D13*
X13970000Y-38100000D03*
X24130000Y-38100000D03*
D12*
X19050000Y-38100000D03*
D13*
X33020000Y-38100000D03*
X43180000Y-38100000D03*
D12*
X38100000Y-38100000D03*
D13*
X52070000Y-38100000D03*
X62230000Y-38100000D03*
D12*
X57150000Y-38100000D03*
D13*
X71120000Y-38100000D03*
X81280000Y-38100000D03*
D12*
X76200000Y-38100000D03*
D13*
X90170000Y-38100000D03*
X100330000Y-38100000D03*
D12*
X95250000Y-38100000D03*
D13*
X109220000Y-38100000D03*
X119380000Y-38100000D03*
D12*
X114300000Y-38100000D03*
D13*
X128270000Y-38100000D03*
X138430000Y-38100000D03*
D12*
X133350000Y-38100000D03*
D13*
X147320000Y-38100000D03*
X157480000Y-38100000D03*
D12*
X152400000Y-38100000D03*
D13*
X166370000Y-38100000D03*
X176530000Y-38100000D03*
D12*
X171450000Y-38100000D03*
D13*
X204470000Y-38100000D03*
X214630000Y-38100000D03*
D12*
X209550000Y-38100000D03*
D13*
X223520000Y-38100000D03*
X233680000Y-38100000D03*
D12*
X228600000Y-38100000D03*
X269113000Y-46355000D03*
D13*
X252095000Y-38100000D03*
D12*
X245237000Y-46355000D03*
D14*
X245237000Y-31115000D03*
D12*
X257175000Y-38100000D03*
D14*
X269113000Y-31115000D03*
D13*
X262255000Y-38100000D03*
X9842500Y-57150000D03*
D12*
X4762500Y-57150000D03*
D13*
X-317500Y-57150000D03*
X23495000Y-57150000D03*
X33655000Y-57150000D03*
D12*
X28575000Y-57150000D03*
D13*
X42545000Y-57150000D03*
X52705000Y-57150000D03*
D12*
X47625000Y-57150000D03*
D13*
X61595000Y-57150000D03*
X71755000Y-57150000D03*
D12*
X66675000Y-57150000D03*
D13*
X80645000Y-57150000D03*
X90805000Y-57150000D03*
D12*
X85725000Y-57150000D03*
D13*
X99695000Y-57150000D03*
X109855000Y-57150000D03*
D12*
X104775000Y-57150000D03*
D13*
X118745000Y-57150000D03*
X128905000Y-57150000D03*
D12*
X123825000Y-57150000D03*
D13*
X137795000Y-57150000D03*
X147955000Y-57150000D03*
D12*
X142875000Y-57150000D03*
D13*
X156845000Y-57150000D03*
X167005000Y-57150000D03*
D12*
X161925000Y-57150000D03*
D13*
X175895000Y-57150000D03*
X186055000Y-57150000D03*
D12*
X180975000Y-57150000D03*
D13*
X194945000Y-57150000D03*
X205105000Y-57150000D03*
D12*
X200025000Y-57150000D03*
D13*
X213995000Y-57150000D03*
X224155000Y-57150000D03*
D12*
X219075000Y-57150000D03*
D13*
X233045000Y-57150000D03*
X243205000Y-57150000D03*
D12*
X238125000Y-57150000D03*
D13*
X267017500Y-57150000D03*
D12*
X261937500Y-57150000D03*
D13*
X256857500Y-57150000D03*
X28257500Y-76200000D03*
X38417500Y-76200000D03*
D12*
X33337500Y-76200000D03*
D13*
X47307500Y-76200000D03*
X57467500Y-76200000D03*
D12*
X52387500Y-76200000D03*
D13*
X66357500Y-76200000D03*
X76517500Y-76200000D03*
D12*
X71437500Y-76200000D03*
D13*
X85407500Y-76200000D03*
X95567500Y-76200000D03*
D12*
X90487500Y-76200000D03*
D13*
X104457500Y-76200000D03*
X114617500Y-76200000D03*
D12*
X109537500Y-76200000D03*
D13*
X123507500Y-76200000D03*
X133667500Y-76200000D03*
D12*
X128587500Y-76200000D03*
D13*
X142557500Y-76200000D03*
X152717500Y-76200000D03*
D12*
X147637500Y-76200000D03*
D13*
X161607500Y-76200000D03*
X171767500Y-76200000D03*
D12*
X166687500Y-76200000D03*
D13*
X180657500Y-76200000D03*
X190817500Y-76200000D03*
D12*
X185737500Y-76200000D03*
D13*
X199707500Y-76200000D03*
X209867500Y-76200000D03*
D12*
X204787500Y-76200000D03*
D13*
X218757500Y-76200000D03*
X228917500Y-76200000D03*
D12*
X223837500Y-76200000D03*
D13*
X237807500Y-76200000D03*
X247967500Y-76200000D03*
D12*
X242887500Y-76200000D03*
X256063750Y-54737000D03*
D14*
X271303750Y-54737000D03*
D13*
X264318750Y-71755000D03*
D12*
X264318750Y-66675000D03*
D14*
X271303750Y-78613000D03*
D13*
X264318750Y-61595000D03*
D12*
X256063750Y-78613000D03*
D13*
X7461250Y-95250000D03*
X-2698750Y-95250000D03*
D12*
X2381250Y-95250000D03*
D13*
X18732500Y-95250000D03*
X28892500Y-95250000D03*
D12*
X23812500Y-95250000D03*
D13*
X56832500Y-95250000D03*
X66992500Y-95250000D03*
D12*
X61912500Y-95250000D03*
D13*
X75882500Y-95250000D03*
X86042500Y-95250000D03*
D12*
X80962500Y-95250000D03*
D13*
X94932500Y-95250000D03*
X105092500Y-95250000D03*
D12*
X100012500Y-95250000D03*
D13*
X113982500Y-95250000D03*
X124142500Y-95250000D03*
D12*
X119062500Y-95250000D03*
D13*
X133032500Y-95250000D03*
X143192500Y-95250000D03*
D12*
X138112500Y-95250000D03*
D13*
X152082500Y-95250000D03*
X162242500Y-95250000D03*
D12*
X157162500Y-95250000D03*
D13*
X171132500Y-95250000D03*
X181292500Y-95250000D03*
D12*
X176212500Y-95250000D03*
D13*
X190182500Y-95250000D03*
X200342500Y-95250000D03*
D12*
X195262500Y-95250000D03*
D13*
X209232500Y-95250000D03*
X219392500Y-95250000D03*
D12*
X214312500Y-95250000D03*
X240506250Y-95250000D03*
D13*
X235426250Y-95250000D03*
X245586250Y-95250000D03*
X291385890Y-95250000D03*
X301545890Y-95250000D03*
D12*
X296465890Y-95250000D03*
D13*
X310435890Y-95250000D03*
X320595890Y-95250000D03*
D12*
X315515890Y-95250000D03*
D13*
X329485890Y-95250000D03*
X339645890Y-95250000D03*
D12*
X334565890Y-95250000D03*
D13*
X-5080000Y-114300000D03*
X5080000Y-114300000D03*
D12*
X0Y-114300000D03*
X152400000Y-122555000D03*
X57150000Y-122555000D03*
D13*
X119380000Y-114300000D03*
X109220000Y-114300000D03*
D12*
X114300000Y-114300000D03*
D14*
X152400000Y-107315000D03*
X57150000Y-107315000D03*
D13*
X166370000Y-114300000D03*
X176530000Y-114300000D03*
D12*
X171450000Y-114300000D03*
D13*
X185420000Y-114300000D03*
X195580000Y-114300000D03*
D12*
X190500000Y-114300000D03*
D13*
X204470000Y-114300000D03*
X214630000Y-114300000D03*
D12*
X209550000Y-114300000D03*
D13*
X266978025Y-119657913D03*
X277138025Y-119657913D03*
D12*
X272058025Y-119657913D03*
D13*
X286028025Y-119657913D03*
X296188025Y-119657913D03*
D12*
X291108025Y-119657913D03*
D13*
X329485890Y-114300000D03*
X339645890Y-114300000D03*
D12*
X334565890Y-114300000D03*
D13*
X13970000Y-114300000D03*
X24130000Y-114300000D03*
D12*
X19050000Y-114300000D03*
D13*
X37782500Y-95250000D03*
X47942500Y-95250000D03*
D12*
X42862500Y-95250000D03*
D13*
X185420000Y-38100000D03*
X195580000Y-38100000D03*
D12*
X190500000Y-38100000D03*
D13*
X358695890Y-104775000D03*
D12*
X361870890Y-116713000D03*
X353615890Y-104775000D03*
D14*
X346630890Y-116713000D03*
X346630890Y-92837000D03*
D13*
X348535890Y-104775000D03*
D12*
X361870890Y-92837000D03*
D13*
X19327833Y0D03*
X29487833Y0D03*
D12*
X24407833Y0D03*
D13*
X100885714Y0D03*
X111045714Y0D03*
D12*
X105965714Y0D03*
D13*
X201493595Y0D03*
X211653595Y0D03*
D12*
X206573595Y0D03*
D13*
X310435890Y-114300000D03*
X320595890Y-114300000D03*
D12*
X315515890Y-114300000D03*
D13*
X310435890Y0D03*
X320595890Y0D03*
D12*
X315515890Y0D03*
D13*
X310435890Y-19050000D03*
X320595890Y-19050000D03*
D12*
X315515890Y-19050000D03*
D13*
X329485890Y0D03*
X339645890Y0D03*
D12*
X334565890Y0D03*
D13*
X291385890Y-19050000D03*
X301545890Y-19050000D03*
D12*
X296465890Y-19050000D03*
D13*
X348535890Y0D03*
X358695890Y0D03*
D12*
X353615890Y0D03*
D13*
X329485890Y-19050000D03*
X339645890Y-19050000D03*
D12*
X334565890Y-19050000D03*
D13*
X348535890Y-19050000D03*
X358695890Y-19050000D03*
D12*
X353615890Y-19050000D03*
D13*
X291385890Y-38100000D03*
X301545890Y-38100000D03*
D12*
X296465890Y-38100000D03*
D13*
X310435890Y-38100000D03*
X320595890Y-38100000D03*
D12*
X315515890Y-38100000D03*
D13*
X329485890Y-38100000D03*
X339645890Y-38100000D03*
D12*
X334565890Y-38100000D03*
D13*
X329485890Y-76200000D03*
X339645890Y-76200000D03*
D12*
X334565890Y-76200000D03*
D13*
X348535890Y-76200000D03*
X358695890Y-76200000D03*
D12*
X353615890Y-76200000D03*
D13*
X291385890Y-57150000D03*
X301545890Y-57150000D03*
D12*
X296465890Y-57150000D03*
D13*
X348535890Y-57150000D03*
X358695890Y-57150000D03*
D12*
X353615890Y-57150000D03*
D13*
X310435890Y-57150000D03*
X320595890Y-57150000D03*
D12*
X315515890Y-57150000D03*
D13*
X329485890Y-57150000D03*
X339645890Y-57150000D03*
D12*
X334565890Y-57150000D03*
D13*
X310435890Y-76200000D03*
X320595890Y-76200000D03*
D12*
X315515890Y-76200000D03*
D13*
X291385890Y-76200000D03*
X301545890Y-76200000D03*
D12*
X296465890Y-76200000D03*
D13*
X228917500Y-114300000D03*
D12*
X223837500Y-114300000D03*
D13*
X218757500Y-114300000D03*
X38417500Y-114300000D03*
D12*
X33337500Y-114300000D03*
D13*
X28257500Y-114300000D03*
X239593595Y0D03*
X249753595Y0D03*
D12*
X244673595Y0D03*
D13*
X38377833Y0D03*
X48537833Y0D03*
D12*
X43457833Y0D03*
D13*
X291385890Y0D03*
X301545890Y0D03*
D12*
X296465890Y0D03*
D13*
X247928025Y-119657913D03*
X258088025Y-119657913D03*
D12*
X253008025Y-119657913D03*
D13*
X-5080000Y-38100000D03*
X5080000Y-38100000D03*
D12*
X0Y-38100000D03*
D13*
X266978025Y-100607913D03*
X277138025Y-100607913D03*
D12*
X272058025Y-100607913D03*
D13*
X348535890Y-38100000D03*
X358695890Y-38100000D03*
D12*
X353615890Y-38100000D03*
D13*
X7461250Y-76200000D03*
X-2698750Y-76200000D03*
D12*
X2381250Y-76200000D03*
D15*
X49410992Y-19049992D03*
X241410992Y-19049992D03*
X309400000Y21550008D03*
D16*
X263127992Y-5357792D03*
D17*
X265667992Y-5357792D03*
D16*
X270271992Y-5357792D03*
D17*
X272811992Y-5357792D03*
D16*
X277415992Y-5357792D03*
D17*
X279955992Y-5357792D03*
D18*
X304204992Y-123824992D03*
D12*
X114300000Y-114300000D03*
D13*
X109220000Y-114300000D03*
X119380000Y-114300000D03*
D14*
X57150000Y-107315000D03*
X171450000Y-107315000D03*
D12*
X57150000Y-122555000D03*
X171450000Y-122555000D03*
D19*
X74530242Y-112459996D03*
X68330242Y-112459996D03*
X74530242Y-108759996D03*
X68330242Y-108759996D03*
X74530242Y-119842422D03*
X68330242Y-119842422D03*
X74530242Y-116142422D03*
X68330242Y-116142422D03*
D18*
X49410992Y-123824992D03*
D20*
X257341390Y18478500D03*
D11*
X257341390Y21018500D03*
X257341390Y23558500D03*
X257341390Y26098500D03*
D21*
X320525890Y27950000D03*
D22*
X319095890Y24300000D03*
D21*
X311885890Y27950000D03*
D22*
X313315890Y24300000D03*
D23*
X311885890Y23770000D03*
X320525890Y23770000D03*
M02*
