M48
; DRILL file {KiCad (6.0.0)} date Wed Jan 12 23:24:38 2022
; FORMAT={-:-/ absolute / metric / decimal}
; #@! TF.CreationDate,2022-01-12T23:24:38+01:00
; #@! TF.GenerationSoftware,Kicad,Pcbnew,(6.0.0)
; #@! TF.FileFunction,Plated,1,2,PTH
FMAT,2
METRIC
; #@! TA.AperFunction,Plated,PTH,ViaDrill
T1C0.400
; #@! TA.AperFunction,Plated,PTH,ComponentDrill
T2C0.600
; #@! TA.AperFunction,Plated,PTH,ComponentDrill
T3C0.900
; #@! TA.AperFunction,Plated,PTH,ComponentDrill
T4C1.000
; #@! TA.AperFunction,Plated,PTH,ComponentDrill
T5C1.040
; #@! TA.AperFunction,Plated,PTH,ComponentDrill
T6C1.470
%
G90
G05
T1
X-13.014Y0.0
X-13.014Y-16.0
X-13.014Y-32.0
X-13.014Y-48.0
X-13.014Y-64.0
X-13.014Y-80.0
X-13.014Y-96.0
X-13.014Y-112.0
X-13.0Y16.0
X-13.0Y-128.0
X-11.0Y18.0
X-11.0Y-130.0
X7.786Y18.0
X9.996Y-130.0
X20.637Y9.843
X26.571Y18.0
X27.086Y-102.0
X30.993Y-130.0
X39.648Y9.843
X45.357Y18.0
X51.989Y-130.0
X58.698Y9.843
X64.143Y18.0
X72.398Y11.861
X72.398Y10.852
X72.398Y9.843
X72.986Y-130.0
X74.986Y-128.0
X77.724Y9.843
X80.986Y-128.0
X82.929Y18.0
X82.986Y-130.0
X91.44Y9.843
X101.714Y18.0
X102.171Y9.843
X105.144Y-130.0
X120.5Y18.0
X121.285Y9.843
X127.301Y-130.0
X139.286Y18.0
X140.272Y9.843
X149.459Y-130.0
X158.071Y18.0
X159.258Y9.843
X167.108Y-119.634
X171.616Y-130.0
X175.109Y-121.158
X176.857Y18.0
X183.769Y9.843
X193.774Y-130.0
X195.643Y18.0
X202.819Y9.843
X214.429Y18.0
X215.932Y-130.0
X221.869Y9.843
X233.214Y18.0
X238.089Y-130.0
X239.498Y-82.804
X240.792Y9.843
X246.483Y-82.931
X252.0Y18.0
X254.341Y11.717
X255.0Y26.0
X255.0Y21.0
X255.066Y11.024
X255.791Y10.249
X256.516Y9.473
X256.906Y14.518
X257.0Y28.0
X257.24Y8.697
X257.786Y-76.073
X258.016Y14.79
X258.496Y12.95
X259.183Y-78.232
X260.186Y11.838
X260.247Y-130.0
X261.2Y4.374
X262.44Y8.432
X265.374Y14.034
X266.516Y-3.61
X268.255Y20.885
X269.026Y-3.96
X269.438Y13.216
X270.116Y-0.71
X270.287Y4.712
X270.314Y14.845
X271.287Y4.7
X271.709Y25.861
X271.716Y24.512
X271.716Y21.845
X271.741Y28.0
X271.765Y15.392
X272.296Y0.572
X273.276Y15.14
X273.304Y17.717
X274.341Y24.498
X274.341Y21.845
X275.856Y4.39
X276.286Y-3.614
X276.991Y24.448
X277.041Y21.848
X277.114Y0.191
X277.366Y13.02
X277.876Y-1.142
X277.999Y18.51
X278.067Y12.319
X278.124Y22.287
X278.304Y-112.538
X278.575Y-2.095
X278.767Y11.619
X278.948Y19.304
X279.4Y-1.142
X279.431Y16.125
X279.468Y10.918
X280.168Y10.218
X280.202Y-2.095
X280.489Y16.112
X280.892Y-1.079
X281.621Y-2.095
X282.337Y-1.079
X282.404Y-130.0
X283.04Y-2.095
X283.675Y15.777
X283.781Y-1.079
X283.84Y-124.36
X284.226Y-11.874
X284.842Y3.244
X285.177Y-31.004
X285.567Y-50.054
X285.623Y-69.024
X285.966Y-3.02
X286.051Y-88.154
X286.639Y8.065
X286.868Y-5.082
X287.0Y28.0
X289.282Y-7.747
X289.282Y-24.13
X289.282Y-43.18
X289.282Y-62.23
X289.282Y-81.28
X289.409Y-104.992
X289.868Y5.589
X290.186Y-2.9
X290.298Y11.303
X291.568Y8.636
X291.586Y-2.9
X291.586Y-4.2
X295.283Y11.303
X296.584Y8.636
X296.586Y6.0
X300.267Y11.303
X301.601Y8.636
X302.0Y28.0
X302.0Y21.77
X304.0Y28.0
X304.0Y21.77
X304.0Y19.5
X304.562Y-130.0
X305.252Y11.303
X306.562Y-128.0
X306.617Y8.636
X308.229Y12.32
X309.22Y12.32
X310.21Y12.32
X311.634Y8.636
X312.562Y-128.0
X312.65Y13.589
X312.956Y20.155
X314.047Y11.049
X314.072Y21.184
X314.262Y3.112
X314.562Y-130.0
X314.756Y24.155
X314.809Y16.002
X315.014Y3.93
X316.587Y13.589
X317.603Y16.002
X317.956Y24.155
X318.289Y21.184
X322.302Y23.114
X322.302Y18.288
X322.556Y26.645
X322.556Y25.655
X324.391Y23.098
X324.391Y18.288
X327.0Y28.0
X329.0Y26.0
X329.0Y21.59
X329.0Y19.6
X331.375Y-130.0
X332.0Y18.0
X348.187Y-130.0
X348.5Y18.0
X365.0Y18.0
X365.0Y-130.0
X366.986Y-2.0
X366.986Y-20.0
X366.986Y-38.0
X366.986Y-56.0
X366.986Y-74.0
X366.986Y-92.0
X366.986Y-110.0
X367.0Y16.0
X367.0Y-128.0
T3
X263.128Y-5.358
X265.668Y-5.358
X270.272Y-5.358
X272.812Y-5.358
X277.416Y-5.358
X279.956Y-5.358
T4
X77.56Y-111.9
X77.56Y-116.55
X80.1Y-111.9
X80.1Y-116.55
X257.341Y26.098
X257.341Y23.558
X257.341Y21.018
X257.341Y18.479
T5
X-1.27Y-5.08
X-1.27Y-43.18
X-1.27Y-119.38
X1.111Y-81.28
X1.111Y-100.33
X1.27Y-5.08
X1.27Y-43.18
X1.27Y-119.38
X3.492Y-62.23
X3.492Y-119.38
X3.651Y-81.28
X3.651Y-100.33
X5.874Y-81.28
X6.032Y-62.23
X6.032Y-119.38
X8.414Y-81.28
X10.636Y-100.33
X13.176Y-100.33
X17.78Y-43.18
X17.78Y-119.38
X20.32Y-43.18
X20.32Y-119.38
X22.543Y-100.33
X23.138Y-5.08
X25.082Y-100.33
X25.678Y-5.08
X27.305Y-62.23
X29.845Y-62.23
X32.067Y-81.28
X32.067Y-119.38
X34.608Y-81.28
X34.608Y-119.38
X36.83Y-43.18
X36.83Y-119.38
X39.37Y-43.18
X39.37Y-119.38
X41.593Y-100.33
X42.188Y-5.08
X44.133Y-100.33
X44.728Y-5.08
X46.355Y-62.23
X48.895Y-62.23
X51.117Y-81.28
X53.657Y-81.28
X55.88Y-43.18
X58.42Y-43.18
X60.642Y-100.33
X61.238Y-5.08
X63.182Y-100.33
X63.778Y-5.08
X65.405Y-62.23
X67.945Y-62.23
X70.167Y-81.28
X72.707Y-81.28
X74.93Y-43.18
X77.47Y-43.18
X79.692Y-100.33
X80.288Y-5.08
X82.233Y-100.33
X82.828Y-5.08
X84.455Y-62.23
X86.995Y-62.23
X89.218Y-81.28
X91.757Y-81.28
X93.98Y-43.18
X93.98Y-119.38
X96.52Y-43.18
X96.52Y-119.38
X98.742Y-100.33
X101.282Y-100.33
X103.505Y-62.23
X104.696Y-5.08
X106.045Y-62.23
X107.236Y-5.08
X108.267Y-81.28
X110.807Y-81.28
X113.03Y-43.18
X113.03Y-119.38
X113.03Y-119.38
X115.57Y-43.18
X115.57Y-119.38
X115.57Y-119.38
X117.792Y-100.33
X120.332Y-100.33
X122.555Y-62.23
X123.746Y-5.08
X125.095Y-62.23
X126.286Y-5.08
X127.317Y-81.28
X129.857Y-81.28
X132.08Y-43.18
X134.62Y-43.18
X136.843Y-100.33
X139.382Y-100.33
X141.605Y-62.23
X142.796Y-5.08
X144.145Y-62.23
X145.336Y-5.08
X146.368Y-81.28
X148.907Y-81.28
X151.13Y-43.18
X153.67Y-43.18
X155.892Y-100.33
X158.433Y-100.33
X160.655Y-62.23
X161.846Y-5.08
X163.195Y-62.23
X164.386Y-5.08
X165.417Y-81.28
X167.957Y-81.28
X170.18Y-43.18
X170.18Y-119.38
X172.72Y-43.18
X172.72Y-119.38
X174.942Y-100.33
X177.482Y-100.33
X179.705Y-62.23
X182.245Y-62.23
X184.468Y-81.28
X186.254Y-5.08
X187.007Y-81.28
X188.794Y-5.08
X189.23Y-43.18
X189.23Y-119.38
X191.77Y-43.18
X191.77Y-119.38
X193.992Y-100.33
X193.992Y-119.38
X196.532Y-100.33
X196.532Y-119.38
X198.755Y-62.23
X201.295Y-62.23
X203.517Y-81.28
X205.304Y-5.08
X206.058Y-81.28
X207.844Y-5.08
X208.28Y-43.18
X208.28Y-119.38
X210.82Y-43.18
X210.82Y-119.38
X213.042Y-100.33
X215.582Y-100.33
X217.805Y-62.23
X220.345Y-62.23
X222.567Y-81.28
X222.567Y-119.38
X224.354Y-5.08
X225.107Y-81.28
X225.107Y-119.38
X226.894Y-5.08
X227.33Y-43.18
X227.33Y-119.38
X229.87Y-43.18
X229.87Y-119.38
X236.855Y-62.23
X239.236Y-100.33
X239.395Y-62.23
X241.617Y-81.28
X241.776Y-100.33
X243.404Y-5.08
X244.157Y-81.28
X245.944Y-5.08
X251.738Y-124.738
X253.524Y-81.28
X254.278Y-124.738
X255.905Y-43.18
X256.064Y-81.28
X258.445Y-43.18
X259.239Y-65.405
X259.239Y-67.945
X260.667Y-62.23
X263.207Y-62.23
X270.788Y-105.688
X270.788Y-124.738
X273.328Y-105.688
X273.328Y-124.738
X289.838Y-124.738
X292.378Y-124.738
X295.196Y-5.08
X295.196Y-24.13
X295.196Y-43.18
X295.196Y-62.23
X295.196Y-81.28
X295.196Y-100.33
X297.736Y-5.08
X297.736Y-24.13
X297.736Y-43.18
X297.736Y-62.23
X297.736Y-81.28
X297.736Y-100.33
X314.246Y-5.08
X314.246Y-24.13
X314.246Y-43.18
X314.246Y-62.23
X314.246Y-81.28
X314.246Y-100.33
X314.246Y-119.38
X316.786Y-5.08
X316.786Y-24.13
X316.786Y-43.18
X316.786Y-62.23
X316.786Y-81.28
X316.786Y-100.33
X316.786Y-119.38
X333.296Y-5.08
X333.296Y-24.13
X333.296Y-43.18
X333.296Y-62.23
X333.296Y-81.28
X333.296Y-100.33
X333.296Y-119.38
X335.836Y-5.08
X335.836Y-24.13
X335.836Y-43.18
X335.836Y-62.23
X335.836Y-81.28
X335.836Y-100.33
X335.836Y-119.38
X352.346Y-5.08
X352.346Y-24.13
X352.346Y-43.18
X352.346Y-62.23
X352.346Y-81.28
X352.346Y-109.855
X354.886Y-5.08
X354.886Y-24.13
X354.886Y-43.18
X354.886Y-62.23
X354.886Y-81.28
X354.886Y-109.855
T6
X-3.81Y2.54
X-3.81Y-35.56
X-3.81Y-111.76
X-1.429Y-73.66
X-1.429Y-92.71
X0.952Y-54.61
X0.952Y-111.76
X2.54Y5.08
X2.54Y-33.02
X2.54Y-109.22
X3.334Y-73.66
X4.921Y-71.12
X4.921Y-90.17
X7.302Y-52.07
X7.302Y-109.22
X8.096Y-92.71
X9.684Y-71.12
X14.446Y-90.17
X15.24Y-35.56
X15.24Y-111.76
X20.002Y-92.71
X20.598Y2.54
X21.59Y-33.02
X21.59Y-109.22
X24.765Y-54.61
X26.352Y-90.17
X26.948Y5.08
X29.527Y-73.66
X29.527Y-111.76
X31.115Y-52.07
X34.29Y-35.56
X34.29Y-111.76
X35.877Y-71.12
X35.877Y-109.22
X39.052Y-92.71
X39.648Y2.54
X40.64Y-33.02
X40.64Y-109.22
X43.815Y-54.61
X45.402Y-90.17
X45.998Y5.08
X48.578Y-73.66
X50.165Y-52.07
X53.34Y-35.56
X54.927Y-71.12
X58.102Y-92.71
X58.698Y2.54
X59.69Y-33.02
X62.865Y-54.61
X64.453Y-90.17
X65.048Y5.08
X67.627Y-73.66
X69.215Y-52.07
X72.39Y-35.56
X73.977Y-71.12
X77.153Y-92.71
X77.748Y2.54
X78.74Y-33.02
X81.915Y-54.61
X83.502Y-90.17
X84.098Y5.08
X86.677Y-73.66
X88.265Y-52.07
X91.44Y-35.56
X91.44Y-111.76
X93.027Y-71.12
X96.203Y-92.71
X97.79Y-33.02
X97.79Y-109.22
X100.965Y-54.61
X102.156Y2.54
X102.552Y-90.17
X105.727Y-73.66
X107.315Y-52.07
X108.506Y5.08
X110.49Y-35.56
X110.49Y-111.76
X110.49Y-111.76
X112.078Y-71.12
X115.252Y-92.71
X116.84Y-33.02
X116.84Y-109.22
X116.84Y-109.22
X120.015Y-54.61
X121.206Y2.54
X121.602Y-90.17
X124.777Y-73.66
X126.365Y-52.07
X127.556Y5.08
X129.54Y-35.56
X131.127Y-71.12
X134.302Y-92.71
X135.89Y-33.02
X139.065Y-54.61
X140.256Y2.54
X140.653Y-90.17
X143.827Y-73.66
X145.415Y-52.07
X146.606Y5.08
X148.59Y-35.56
X150.177Y-71.12
X153.352Y-92.71
X154.94Y-33.02
X158.115Y-54.61
X159.306Y2.54
X159.702Y-90.17
X162.877Y-73.66
X164.465Y-52.07
X165.656Y5.08
X167.64Y-35.56
X167.64Y-111.76
X169.227Y-71.12
X172.403Y-92.71
X173.99Y-33.02
X173.99Y-109.22
X177.165Y-54.61
X178.752Y-90.17
X181.927Y-73.66
X183.515Y-52.07
X183.714Y2.54
X186.69Y-35.56
X186.69Y-111.76
X188.278Y-71.12
X190.064Y5.08
X191.452Y-92.71
X191.452Y-111.76
X193.04Y-33.02
X193.04Y-109.22
X196.215Y-54.61
X197.802Y-90.17
X197.802Y-109.22
X200.977Y-73.66
X202.565Y-52.07
X202.764Y2.54
X205.74Y-35.56
X205.74Y-111.76
X207.327Y-71.12
X209.114Y5.08
X210.502Y-92.71
X212.09Y-33.02
X212.09Y-109.22
X215.265Y-54.61
X216.852Y-90.17
X220.028Y-73.66
X220.028Y-111.76
X221.615Y-52.07
X221.814Y2.54
X224.79Y-35.56
X224.79Y-111.76
X226.377Y-71.12
X226.377Y-109.22
X228.164Y5.08
X231.14Y-33.02
X231.14Y-109.22
X234.315Y-54.61
X236.696Y-92.71
X239.077Y-73.66
X240.665Y-52.07
X240.864Y2.54
X243.046Y-90.17
X245.427Y-71.12
X247.214Y5.08
X249.198Y-117.118
X250.984Y-73.66
X253.365Y-35.56
X255.548Y-114.578
X257.334Y-71.12
X258.127Y-54.61
X259.715Y-33.02
X264.477Y-52.07
X266.859Y-62.865
X268.248Y-98.068
X268.248Y-117.118
X269.399Y-69.215
X274.598Y-95.528
X274.598Y-114.578
X287.298Y-117.118
X292.656Y2.54
X292.656Y-16.51
X292.656Y-35.56
X292.656Y-54.61
X292.656Y-73.66
X292.656Y-92.71
X293.648Y-114.578
X299.006Y5.08
X299.006Y-13.97
X299.006Y-33.02
X299.006Y-52.07
X299.006Y-71.12
X299.006Y-90.17
X311.706Y2.54
X311.706Y-16.51
X311.706Y-35.56
X311.706Y-54.61
X311.706Y-73.66
X311.706Y-92.71
X311.706Y-111.76
X318.056Y5.08
X318.056Y-13.97
X318.056Y-33.02
X318.056Y-52.07
X318.056Y-71.12
X318.056Y-90.17
X318.056Y-109.22
X330.756Y2.54
X330.756Y-16.51
X330.756Y-35.56
X330.756Y-54.61
X330.756Y-73.66
X330.756Y-92.71
X330.756Y-111.76
X337.106Y5.08
X337.106Y-13.97
X337.106Y-33.02
X337.106Y-52.07
X337.106Y-71.12
X337.106Y-90.17
X337.106Y-109.22
X349.806Y2.54
X349.806Y-16.51
X349.806Y-35.56
X349.806Y-54.61
X349.806Y-73.66
X349.806Y-102.235
X356.156Y5.08
X356.156Y-13.97
X356.156Y-33.02
X356.156Y-52.07
X356.156Y-71.12
X356.156Y-99.695
T2
X311.886Y28.25G85X311.886Y27.65
G05
X311.886Y24.32G85X311.886Y23.22
G05
X320.526Y28.25G85X320.526Y27.65
G05
X320.526Y24.32G85X320.526Y23.22
G05
T0
M30
