%TF.GenerationSoftware,KiCad,Pcbnew,8.0.5*%
%TF.CreationDate,2024-09-24T18:12:57+02:00*%
%TF.ProjectId,E80-1800-pcb-universal,4538302d-3138-4303-902d-7063622d756e,rev?*%
%TF.SameCoordinates,Original*%
%TF.FileFunction,Soldermask,Bot*%
%TF.FilePolarity,Negative*%
%FSLAX46Y46*%
G04 Gerber Fmt 4.6, Leading zero omitted, Abs format (unit mm)*
G04 Created by KiCad (PCBNEW 8.0.5) date 2024-09-24 18:12:57*
%MOMM*%
%LPD*%
G01*
G04 APERTURE LIST*
G04 Aperture macros list*
%AMRoundRect*
0 Rectangle with rounded corners*
0 $1 Rounding radius*
0 $2 $3 $4 $5 $6 $7 $8 $9 X,Y pos of 4 corners*
0 Add a 4 corners polygon primitive as box body*
4,1,4,$2,$3,$4,$5,$6,$7,$8,$9,$2,$3,0*
0 Add four circle primitives for the rounded corners*
1,1,$1+$1,$2,$3*
1,1,$1+$1,$4,$5*
1,1,$1+$1,$6,$7*
1,1,$1+$1,$8,$9*
0 Add four rect primitives between the rounded corners*
20,1,$1+$1,$2,$3,$4,$5,0*
20,1,$1+$1,$4,$5,$6,$7,0*
20,1,$1+$1,$6,$7,$8,$9,0*
20,1,$1+$1,$8,$9,$2,$3,0*%
G04 Aperture macros list end*
%ADD10C,0.700000*%
%ADD11C,0.300000*%
%ADD12C,0.100000*%
%ADD13C,1.850000*%
%ADD14C,4.087800*%
%ADD15C,2.400000*%
%ADD16C,6.100000*%
%ADD17RoundRect,0.050000X-0.900000X-0.900000X0.900000X-0.900000X0.900000X0.900000X-0.900000X0.900000X0*%
%ADD18C,1.900000*%
%ADD19C,4.100000*%
%ADD20RoundRect,0.050000X0.850000X0.850000X-0.850000X0.850000X-0.850000X-0.850000X0.850000X-0.850000X0*%
%ADD21O,1.800000X1.800000*%
%ADD22RoundRect,0.300750X-0.701750X-0.701750X0.701750X-0.701750X0.701750X0.701750X-0.701750X0.701750X0*%
%ADD23C,2.005000*%
%ADD24C,3.148000*%
%ADD25RoundRect,0.300750X-0.701750X0.701750X-0.701750X-0.701750X0.701750X-0.701750X0.701750X0.701750X0*%
%ADD26RoundRect,0.050000X-0.850000X0.850000X-0.850000X-0.850000X0.850000X-0.850000X0.850000X0.850000X0*%
%ADD27RoundRect,0.250000X0.250000X0.275000X-0.250000X0.275000X-0.250000X-0.275000X0.250000X-0.275000X0*%
%ADD28RoundRect,0.225000X-0.225000X-0.300000X0.225000X-0.300000X0.225000X0.300000X-0.225000X0.300000X0*%
%ADD29RoundRect,0.225000X0.300000X-0.225000X0.300000X0.225000X-0.300000X0.225000X-0.300000X-0.225000X0*%
%ADD30RoundRect,0.100000X-0.725000X-0.100000X0.725000X-0.100000X0.725000X0.100000X-0.725000X0.100000X0*%
%ADD31RoundRect,0.100000X-0.100000X-0.725000X0.100000X-0.725000X0.100000X0.725000X-0.100000X0.725000X0*%
%ADD32RoundRect,0.175000X0.175000X-0.612500X0.175000X0.612500X-0.175000X0.612500X-0.175000X-0.612500X0*%
%ADD33RoundRect,0.225000X0.225000X0.300000X-0.225000X0.300000X-0.225000X-0.300000X0.225000X-0.300000X0*%
%ADD34RoundRect,0.175000X0.500000X0.175000X-0.500000X0.175000X-0.500000X-0.175000X0.500000X-0.175000X0*%
%ADD35RoundRect,0.250000X-0.250000X-0.275000X0.250000X-0.275000X0.250000X0.275000X-0.250000X0.275000X0*%
%ADD36C,0.750000*%
%ADD37RoundRect,0.050000X-0.300000X-0.725000X0.300000X-0.725000X0.300000X0.725000X-0.300000X0.725000X0*%
%ADD38RoundRect,0.050000X-0.150000X-0.725000X0.150000X-0.725000X0.150000X0.725000X-0.150000X0.725000X0*%
%ADD39O,1.100000X1.700000*%
%ADD40O,1.100000X2.200000*%
%ADD41RoundRect,0.262500X0.262500X-0.312500X0.262500X0.312500X-0.262500X0.312500X-0.262500X-0.312500X0*%
%ADD42RoundRect,0.250000X0.275000X-0.250000X0.275000X0.250000X-0.275000X0.250000X-0.275000X-0.250000X0*%
%ADD43RoundRect,0.175000X0.612500X0.175000X-0.612500X0.175000X-0.612500X-0.175000X0.612500X-0.175000X0*%
%ADD44RoundRect,0.225000X-0.300000X0.225000X-0.300000X-0.225000X0.300000X-0.225000X0.300000X0.225000X0*%
%ADD45RoundRect,0.175000X-0.175000X0.612500X-0.175000X-0.612500X0.175000X-0.612500X0.175000X0.612500X0*%
%ADD46RoundRect,0.250000X-0.275000X0.250000X-0.275000X-0.250000X0.275000X-0.250000X0.275000X0.250000X0*%
%ADD47RoundRect,0.270000X0.655000X-0.405000X0.655000X0.405000X-0.655000X0.405000X-0.655000X-0.405000X0*%
%ADD48RoundRect,0.050000X0.500000X0.750000X-0.500000X0.750000X-0.500000X-0.750000X0.500000X-0.750000X0*%
%ADD49RoundRect,0.175000X-0.175000X-0.650000X0.175000X-0.650000X0.175000X0.650000X-0.175000X0.650000X0*%
%ADD50RoundRect,0.270833X-0.379167X-0.679167X0.379167X-0.679167X0.379167X0.679167X-0.379167X0.679167X0*%
%ADD51RoundRect,0.137500X-0.137500X0.212500X-0.137500X-0.212500X0.137500X-0.212500X0.137500X0.212500X0*%
G04 APERTURE END LIST*
D10*
X215910992Y-14065917D02*
X215910992Y-24065917D01*
D11*
X214487433Y-15573048D02*
X213820766Y-15573048D01*
X213535052Y-16620667D02*
X214487433Y-16620667D01*
X214487433Y-16620667D02*
X214487433Y-14620667D01*
X214487433Y-14620667D02*
X213535052Y-14620667D01*
X212392195Y-15477809D02*
X212582671Y-15382571D01*
X212582671Y-15382571D02*
X212677909Y-15287333D01*
X212677909Y-15287333D02*
X212773147Y-15096857D01*
X212773147Y-15096857D02*
X212773147Y-15001619D01*
X212773147Y-15001619D02*
X212677909Y-14811143D01*
X212677909Y-14811143D02*
X212582671Y-14715905D01*
X212582671Y-14715905D02*
X212392195Y-14620667D01*
X212392195Y-14620667D02*
X212011242Y-14620667D01*
X212011242Y-14620667D02*
X211820766Y-14715905D01*
X211820766Y-14715905D02*
X211725528Y-14811143D01*
X211725528Y-14811143D02*
X211630290Y-15001619D01*
X211630290Y-15001619D02*
X211630290Y-15096857D01*
X211630290Y-15096857D02*
X211725528Y-15287333D01*
X211725528Y-15287333D02*
X211820766Y-15382571D01*
X211820766Y-15382571D02*
X212011242Y-15477809D01*
X212011242Y-15477809D02*
X212392195Y-15477809D01*
X212392195Y-15477809D02*
X212582671Y-15573048D01*
X212582671Y-15573048D02*
X212677909Y-15668286D01*
X212677909Y-15668286D02*
X212773147Y-15858762D01*
X212773147Y-15858762D02*
X212773147Y-16239714D01*
X212773147Y-16239714D02*
X212677909Y-16430190D01*
X212677909Y-16430190D02*
X212582671Y-16525429D01*
X212582671Y-16525429D02*
X212392195Y-16620667D01*
X212392195Y-16620667D02*
X212011242Y-16620667D01*
X212011242Y-16620667D02*
X211820766Y-16525429D01*
X211820766Y-16525429D02*
X211725528Y-16430190D01*
X211725528Y-16430190D02*
X211630290Y-16239714D01*
X211630290Y-16239714D02*
X211630290Y-15858762D01*
X211630290Y-15858762D02*
X211725528Y-15668286D01*
X211725528Y-15668286D02*
X211820766Y-15573048D01*
X211820766Y-15573048D02*
X212011242Y-15477809D01*
X210392195Y-14620667D02*
X210201718Y-14620667D01*
X210201718Y-14620667D02*
X210011242Y-14715905D01*
X210011242Y-14715905D02*
X209916004Y-14811143D01*
X209916004Y-14811143D02*
X209820766Y-15001619D01*
X209820766Y-15001619D02*
X209725528Y-15382571D01*
X209725528Y-15382571D02*
X209725528Y-15858762D01*
X209725528Y-15858762D02*
X209820766Y-16239714D01*
X209820766Y-16239714D02*
X209916004Y-16430190D01*
X209916004Y-16430190D02*
X210011242Y-16525429D01*
X210011242Y-16525429D02*
X210201718Y-16620667D01*
X210201718Y-16620667D02*
X210392195Y-16620667D01*
X210392195Y-16620667D02*
X210582671Y-16525429D01*
X210582671Y-16525429D02*
X210677909Y-16430190D01*
X210677909Y-16430190D02*
X210773147Y-16239714D01*
X210773147Y-16239714D02*
X210868385Y-15858762D01*
X210868385Y-15858762D02*
X210868385Y-15382571D01*
X210868385Y-15382571D02*
X210773147Y-15001619D01*
X210773147Y-15001619D02*
X210677909Y-14811143D01*
X210677909Y-14811143D02*
X210582671Y-14715905D01*
X210582671Y-14715905D02*
X210392195Y-14620667D01*
X208868385Y-15858762D02*
X207344576Y-15858762D01*
X205344576Y-16620667D02*
X206487433Y-16620667D01*
X205916005Y-16620667D02*
X205916005Y-14620667D01*
X205916005Y-14620667D02*
X206106481Y-14906381D01*
X206106481Y-14906381D02*
X206296957Y-15096857D01*
X206296957Y-15096857D02*
X206487433Y-15192095D01*
X204201719Y-15477809D02*
X204392195Y-15382571D01*
X204392195Y-15382571D02*
X204487433Y-15287333D01*
X204487433Y-15287333D02*
X204582671Y-15096857D01*
X204582671Y-15096857D02*
X204582671Y-15001619D01*
X204582671Y-15001619D02*
X204487433Y-14811143D01*
X204487433Y-14811143D02*
X204392195Y-14715905D01*
X204392195Y-14715905D02*
X204201719Y-14620667D01*
X204201719Y-14620667D02*
X203820766Y-14620667D01*
X203820766Y-14620667D02*
X203630290Y-14715905D01*
X203630290Y-14715905D02*
X203535052Y-14811143D01*
X203535052Y-14811143D02*
X203439814Y-15001619D01*
X203439814Y-15001619D02*
X203439814Y-15096857D01*
X203439814Y-15096857D02*
X203535052Y-15287333D01*
X203535052Y-15287333D02*
X203630290Y-15382571D01*
X203630290Y-15382571D02*
X203820766Y-15477809D01*
X203820766Y-15477809D02*
X204201719Y-15477809D01*
X204201719Y-15477809D02*
X204392195Y-15573048D01*
X204392195Y-15573048D02*
X204487433Y-15668286D01*
X204487433Y-15668286D02*
X204582671Y-15858762D01*
X204582671Y-15858762D02*
X204582671Y-16239714D01*
X204582671Y-16239714D02*
X204487433Y-16430190D01*
X204487433Y-16430190D02*
X204392195Y-16525429D01*
X204392195Y-16525429D02*
X204201719Y-16620667D01*
X204201719Y-16620667D02*
X203820766Y-16620667D01*
X203820766Y-16620667D02*
X203630290Y-16525429D01*
X203630290Y-16525429D02*
X203535052Y-16430190D01*
X203535052Y-16430190D02*
X203439814Y-16239714D01*
X203439814Y-16239714D02*
X203439814Y-15858762D01*
X203439814Y-15858762D02*
X203535052Y-15668286D01*
X203535052Y-15668286D02*
X203630290Y-15573048D01*
X203630290Y-15573048D02*
X203820766Y-15477809D01*
X202201719Y-14620667D02*
X202011242Y-14620667D01*
X202011242Y-14620667D02*
X201820766Y-14715905D01*
X201820766Y-14715905D02*
X201725528Y-14811143D01*
X201725528Y-14811143D02*
X201630290Y-15001619D01*
X201630290Y-15001619D02*
X201535052Y-15382571D01*
X201535052Y-15382571D02*
X201535052Y-15858762D01*
X201535052Y-15858762D02*
X201630290Y-16239714D01*
X201630290Y-16239714D02*
X201725528Y-16430190D01*
X201725528Y-16430190D02*
X201820766Y-16525429D01*
X201820766Y-16525429D02*
X202011242Y-16620667D01*
X202011242Y-16620667D02*
X202201719Y-16620667D01*
X202201719Y-16620667D02*
X202392195Y-16525429D01*
X202392195Y-16525429D02*
X202487433Y-16430190D01*
X202487433Y-16430190D02*
X202582671Y-16239714D01*
X202582671Y-16239714D02*
X202677909Y-15858762D01*
X202677909Y-15858762D02*
X202677909Y-15382571D01*
X202677909Y-15382571D02*
X202582671Y-15001619D01*
X202582671Y-15001619D02*
X202487433Y-14811143D01*
X202487433Y-14811143D02*
X202392195Y-14715905D01*
X202392195Y-14715905D02*
X202201719Y-14620667D01*
X200296957Y-14620667D02*
X200106480Y-14620667D01*
X200106480Y-14620667D02*
X199916004Y-14715905D01*
X199916004Y-14715905D02*
X199820766Y-14811143D01*
X199820766Y-14811143D02*
X199725528Y-15001619D01*
X199725528Y-15001619D02*
X199630290Y-15382571D01*
X199630290Y-15382571D02*
X199630290Y-15858762D01*
X199630290Y-15858762D02*
X199725528Y-16239714D01*
X199725528Y-16239714D02*
X199820766Y-16430190D01*
X199820766Y-16430190D02*
X199916004Y-16525429D01*
X199916004Y-16525429D02*
X200106480Y-16620667D01*
X200106480Y-16620667D02*
X200296957Y-16620667D01*
X200296957Y-16620667D02*
X200487433Y-16525429D01*
X200487433Y-16525429D02*
X200582671Y-16430190D01*
X200582671Y-16430190D02*
X200677909Y-16239714D01*
X200677909Y-16239714D02*
X200773147Y-15858762D01*
X200773147Y-15858762D02*
X200773147Y-15382571D01*
X200773147Y-15382571D02*
X200677909Y-15001619D01*
X200677909Y-15001619D02*
X200582671Y-14811143D01*
X200582671Y-14811143D02*
X200487433Y-14715905D01*
X200487433Y-14715905D02*
X200296957Y-14620667D01*
X197249337Y-16620667D02*
X197249337Y-15287333D01*
X197249337Y-15668286D02*
X197154099Y-15477809D01*
X197154099Y-15477809D02*
X197058861Y-15382571D01*
X197058861Y-15382571D02*
X196868385Y-15287333D01*
X196868385Y-15287333D02*
X196677908Y-15287333D01*
X194963623Y-16620667D02*
X196106480Y-16620667D01*
X195535052Y-16620667D02*
X195535052Y-14620667D01*
X195535052Y-14620667D02*
X195725528Y-14906381D01*
X195725528Y-14906381D02*
X195916004Y-15096857D01*
X195916004Y-15096857D02*
X196106480Y-15192095D01*
X194106480Y-16430190D02*
X194011242Y-16525429D01*
X194011242Y-16525429D02*
X194106480Y-16620667D01*
X194106480Y-16620667D02*
X194201718Y-16525429D01*
X194201718Y-16525429D02*
X194106480Y-16430190D01*
X194106480Y-16430190D02*
X194106480Y-16620667D01*
X193344575Y-14620667D02*
X192106480Y-14620667D01*
X192106480Y-14620667D02*
X192773147Y-15382571D01*
X192773147Y-15382571D02*
X192487432Y-15382571D01*
X192487432Y-15382571D02*
X192296956Y-15477809D01*
X192296956Y-15477809D02*
X192201718Y-15573048D01*
X192201718Y-15573048D02*
X192106480Y-15763524D01*
X192106480Y-15763524D02*
X192106480Y-16239714D01*
X192106480Y-16239714D02*
X192201718Y-16430190D01*
X192201718Y-16430190D02*
X192296956Y-16525429D01*
X192296956Y-16525429D02*
X192487432Y-16620667D01*
X192487432Y-16620667D02*
X193058861Y-16620667D01*
X193058861Y-16620667D02*
X193249337Y-16525429D01*
X193249337Y-16525429D02*
X193344575Y-16430190D01*
X213630290Y-18507221D02*
X213630290Y-20126269D01*
X213630290Y-20126269D02*
X213725528Y-20316745D01*
X213725528Y-20316745D02*
X213820766Y-20411983D01*
X213820766Y-20411983D02*
X214011243Y-20507221D01*
X214011243Y-20507221D02*
X214296957Y-20507221D01*
X214296957Y-20507221D02*
X214487433Y-20411983D01*
X213630290Y-19745317D02*
X213820766Y-19840555D01*
X213820766Y-19840555D02*
X214201719Y-19840555D01*
X214201719Y-19840555D02*
X214392195Y-19745317D01*
X214392195Y-19745317D02*
X214487433Y-19650078D01*
X214487433Y-19650078D02*
X214582671Y-19459602D01*
X214582671Y-19459602D02*
X214582671Y-18888174D01*
X214582671Y-18888174D02*
X214487433Y-18697697D01*
X214487433Y-18697697D02*
X214392195Y-18602459D01*
X214392195Y-18602459D02*
X214201719Y-18507221D01*
X214201719Y-18507221D02*
X213820766Y-18507221D01*
X213820766Y-18507221D02*
X213630290Y-18602459D01*
X212677909Y-19840555D02*
X212677909Y-18507221D01*
X212677909Y-17840555D02*
X212773147Y-17935793D01*
X212773147Y-17935793D02*
X212677909Y-18031031D01*
X212677909Y-18031031D02*
X212582671Y-17935793D01*
X212582671Y-17935793D02*
X212677909Y-17840555D01*
X212677909Y-17840555D02*
X212677909Y-18031031D01*
X212011242Y-18507221D02*
X211249338Y-18507221D01*
X211725528Y-17840555D02*
X211725528Y-19554840D01*
X211725528Y-19554840D02*
X211630290Y-19745317D01*
X211630290Y-19745317D02*
X211439814Y-19840555D01*
X211439814Y-19840555D02*
X211249338Y-19840555D01*
X210582671Y-19840555D02*
X210582671Y-17840555D01*
X209725528Y-19840555D02*
X209725528Y-18792936D01*
X209725528Y-18792936D02*
X209820766Y-18602459D01*
X209820766Y-18602459D02*
X210011242Y-18507221D01*
X210011242Y-18507221D02*
X210296957Y-18507221D01*
X210296957Y-18507221D02*
X210487433Y-18602459D01*
X210487433Y-18602459D02*
X210582671Y-18697697D01*
X207916004Y-18507221D02*
X207916004Y-19840555D01*
X208773147Y-18507221D02*
X208773147Y-19554840D01*
X208773147Y-19554840D02*
X208677909Y-19745317D01*
X208677909Y-19745317D02*
X208487433Y-19840555D01*
X208487433Y-19840555D02*
X208201718Y-19840555D01*
X208201718Y-19840555D02*
X208011242Y-19745317D01*
X208011242Y-19745317D02*
X207916004Y-19650078D01*
X206963623Y-19840555D02*
X206963623Y-17840555D01*
X206963623Y-18602459D02*
X206773147Y-18507221D01*
X206773147Y-18507221D02*
X206392194Y-18507221D01*
X206392194Y-18507221D02*
X206201718Y-18602459D01*
X206201718Y-18602459D02*
X206106480Y-18697697D01*
X206106480Y-18697697D02*
X206011242Y-18888174D01*
X206011242Y-18888174D02*
X206011242Y-19459602D01*
X206011242Y-19459602D02*
X206106480Y-19650078D01*
X206106480Y-19650078D02*
X206201718Y-19745317D01*
X206201718Y-19745317D02*
X206392194Y-19840555D01*
X206392194Y-19840555D02*
X206773147Y-19840555D01*
X206773147Y-19840555D02*
X206963623Y-19745317D01*
X205154099Y-19650078D02*
X205058861Y-19745317D01*
X205058861Y-19745317D02*
X205154099Y-19840555D01*
X205154099Y-19840555D02*
X205249337Y-19745317D01*
X205249337Y-19745317D02*
X205154099Y-19650078D01*
X205154099Y-19650078D02*
X205154099Y-19840555D01*
X203344575Y-19745317D02*
X203535051Y-19840555D01*
X203535051Y-19840555D02*
X203916004Y-19840555D01*
X203916004Y-19840555D02*
X204106480Y-19745317D01*
X204106480Y-19745317D02*
X204201718Y-19650078D01*
X204201718Y-19650078D02*
X204296956Y-19459602D01*
X204296956Y-19459602D02*
X204296956Y-18888174D01*
X204296956Y-18888174D02*
X204201718Y-18697697D01*
X204201718Y-18697697D02*
X204106480Y-18602459D01*
X204106480Y-18602459D02*
X203916004Y-18507221D01*
X203916004Y-18507221D02*
X203535051Y-18507221D01*
X203535051Y-18507221D02*
X203344575Y-18602459D01*
X202201718Y-19840555D02*
X202392194Y-19745317D01*
X202392194Y-19745317D02*
X202487432Y-19650078D01*
X202487432Y-19650078D02*
X202582670Y-19459602D01*
X202582670Y-19459602D02*
X202582670Y-18888174D01*
X202582670Y-18888174D02*
X202487432Y-18697697D01*
X202487432Y-18697697D02*
X202392194Y-18602459D01*
X202392194Y-18602459D02*
X202201718Y-18507221D01*
X202201718Y-18507221D02*
X201916003Y-18507221D01*
X201916003Y-18507221D02*
X201725527Y-18602459D01*
X201725527Y-18602459D02*
X201630289Y-18697697D01*
X201630289Y-18697697D02*
X201535051Y-18888174D01*
X201535051Y-18888174D02*
X201535051Y-19459602D01*
X201535051Y-19459602D02*
X201630289Y-19650078D01*
X201630289Y-19650078D02*
X201725527Y-19745317D01*
X201725527Y-19745317D02*
X201916003Y-19840555D01*
X201916003Y-19840555D02*
X202201718Y-19840555D01*
X200677908Y-19840555D02*
X200677908Y-18507221D01*
X200677908Y-18697697D02*
X200582670Y-18602459D01*
X200582670Y-18602459D02*
X200392194Y-18507221D01*
X200392194Y-18507221D02*
X200106479Y-18507221D01*
X200106479Y-18507221D02*
X199916003Y-18602459D01*
X199916003Y-18602459D02*
X199820765Y-18792936D01*
X199820765Y-18792936D02*
X199820765Y-19840555D01*
X199820765Y-18792936D02*
X199725527Y-18602459D01*
X199725527Y-18602459D02*
X199535051Y-18507221D01*
X199535051Y-18507221D02*
X199249337Y-18507221D01*
X199249337Y-18507221D02*
X199058860Y-18602459D01*
X199058860Y-18602459D02*
X198963622Y-18792936D01*
X198963622Y-18792936D02*
X198963622Y-19840555D01*
X196582670Y-17745317D02*
X198296955Y-20316745D01*
X195154098Y-19745317D02*
X195344574Y-19840555D01*
X195344574Y-19840555D02*
X195725527Y-19840555D01*
X195725527Y-19840555D02*
X195916003Y-19745317D01*
X195916003Y-19745317D02*
X196011241Y-19554840D01*
X196011241Y-19554840D02*
X196011241Y-18792936D01*
X196011241Y-18792936D02*
X195916003Y-18602459D01*
X195916003Y-18602459D02*
X195725527Y-18507221D01*
X195725527Y-18507221D02*
X195344574Y-18507221D01*
X195344574Y-18507221D02*
X195154098Y-18602459D01*
X195154098Y-18602459D02*
X195058860Y-18792936D01*
X195058860Y-18792936D02*
X195058860Y-18983412D01*
X195058860Y-18983412D02*
X196011241Y-19173888D01*
X194201717Y-19840555D02*
X194201717Y-17840555D01*
X194201717Y-18602459D02*
X194011241Y-18507221D01*
X194011241Y-18507221D02*
X193630288Y-18507221D01*
X193630288Y-18507221D02*
X193439812Y-18602459D01*
X193439812Y-18602459D02*
X193344574Y-18697697D01*
X193344574Y-18697697D02*
X193249336Y-18888174D01*
X193249336Y-18888174D02*
X193249336Y-19459602D01*
X193249336Y-19459602D02*
X193344574Y-19650078D01*
X193344574Y-19650078D02*
X193439812Y-19745317D01*
X193439812Y-19745317D02*
X193630288Y-19840555D01*
X193630288Y-19840555D02*
X194011241Y-19840555D01*
X194011241Y-19840555D02*
X194201717Y-19745317D01*
X191535050Y-19840555D02*
X191535050Y-18792936D01*
X191535050Y-18792936D02*
X191630288Y-18602459D01*
X191630288Y-18602459D02*
X191820764Y-18507221D01*
X191820764Y-18507221D02*
X192201717Y-18507221D01*
X192201717Y-18507221D02*
X192392193Y-18602459D01*
X191535050Y-19745317D02*
X191725526Y-19840555D01*
X191725526Y-19840555D02*
X192201717Y-19840555D01*
X192201717Y-19840555D02*
X192392193Y-19745317D01*
X192392193Y-19745317D02*
X192487431Y-19554840D01*
X192487431Y-19554840D02*
X192487431Y-19364364D01*
X192487431Y-19364364D02*
X192392193Y-19173888D01*
X192392193Y-19173888D02*
X192201717Y-19078650D01*
X192201717Y-19078650D02*
X191725526Y-19078650D01*
X191725526Y-19078650D02*
X191535050Y-18983412D01*
X190677907Y-19745317D02*
X190487431Y-19840555D01*
X190487431Y-19840555D02*
X190106479Y-19840555D01*
X190106479Y-19840555D02*
X189916002Y-19745317D01*
X189916002Y-19745317D02*
X189820764Y-19554840D01*
X189820764Y-19554840D02*
X189820764Y-19459602D01*
X189820764Y-19459602D02*
X189916002Y-19269126D01*
X189916002Y-19269126D02*
X190106479Y-19173888D01*
X190106479Y-19173888D02*
X190392193Y-19173888D01*
X190392193Y-19173888D02*
X190582669Y-19078650D01*
X190582669Y-19078650D02*
X190677907Y-18888174D01*
X190677907Y-18888174D02*
X190677907Y-18792936D01*
X190677907Y-18792936D02*
X190582669Y-18602459D01*
X190582669Y-18602459D02*
X190392193Y-18507221D01*
X190392193Y-18507221D02*
X190106479Y-18507221D01*
X190106479Y-18507221D02*
X189916002Y-18602459D01*
X189249335Y-18507221D02*
X188487431Y-18507221D01*
X188963621Y-17840555D02*
X188963621Y-19554840D01*
X188963621Y-19554840D02*
X188868383Y-19745317D01*
X188868383Y-19745317D02*
X188677907Y-19840555D01*
X188677907Y-19840555D02*
X188487431Y-19840555D01*
X187535050Y-19840555D02*
X187725526Y-19745317D01*
X187725526Y-19745317D02*
X187820764Y-19554840D01*
X187820764Y-19554840D02*
X187820764Y-17840555D01*
X186011240Y-19745317D02*
X186201716Y-19840555D01*
X186201716Y-19840555D02*
X186582669Y-19840555D01*
X186582669Y-19840555D02*
X186773145Y-19745317D01*
X186773145Y-19745317D02*
X186868383Y-19554840D01*
X186868383Y-19554840D02*
X186868383Y-18792936D01*
X186868383Y-18792936D02*
X186773145Y-18602459D01*
X186773145Y-18602459D02*
X186582669Y-18507221D01*
X186582669Y-18507221D02*
X186201716Y-18507221D01*
X186201716Y-18507221D02*
X186011240Y-18602459D01*
X186011240Y-18602459D02*
X185916002Y-18792936D01*
X185916002Y-18792936D02*
X185916002Y-18983412D01*
X185916002Y-18983412D02*
X186868383Y-19173888D01*
X185058859Y-19840555D02*
X185058859Y-18507221D01*
X185058859Y-18888174D02*
X184963621Y-18697697D01*
X184963621Y-18697697D02*
X184868383Y-18602459D01*
X184868383Y-18602459D02*
X184677907Y-18507221D01*
X184677907Y-18507221D02*
X184487430Y-18507221D01*
X182392193Y-17745317D02*
X184106478Y-20316745D01*
X181725526Y-18792936D02*
X181058859Y-18792936D01*
X180773145Y-19840555D02*
X181725526Y-19840555D01*
X181725526Y-19840555D02*
X181725526Y-17840555D01*
X181725526Y-17840555D02*
X180773145Y-17840555D01*
X179630288Y-18697697D02*
X179820764Y-18602459D01*
X179820764Y-18602459D02*
X179916002Y-18507221D01*
X179916002Y-18507221D02*
X180011240Y-18316745D01*
X180011240Y-18316745D02*
X180011240Y-18221507D01*
X180011240Y-18221507D02*
X179916002Y-18031031D01*
X179916002Y-18031031D02*
X179820764Y-17935793D01*
X179820764Y-17935793D02*
X179630288Y-17840555D01*
X179630288Y-17840555D02*
X179249335Y-17840555D01*
X179249335Y-17840555D02*
X179058859Y-17935793D01*
X179058859Y-17935793D02*
X178963621Y-18031031D01*
X178963621Y-18031031D02*
X178868383Y-18221507D01*
X178868383Y-18221507D02*
X178868383Y-18316745D01*
X178868383Y-18316745D02*
X178963621Y-18507221D01*
X178963621Y-18507221D02*
X179058859Y-18602459D01*
X179058859Y-18602459D02*
X179249335Y-18697697D01*
X179249335Y-18697697D02*
X179630288Y-18697697D01*
X179630288Y-18697697D02*
X179820764Y-18792936D01*
X179820764Y-18792936D02*
X179916002Y-18888174D01*
X179916002Y-18888174D02*
X180011240Y-19078650D01*
X180011240Y-19078650D02*
X180011240Y-19459602D01*
X180011240Y-19459602D02*
X179916002Y-19650078D01*
X179916002Y-19650078D02*
X179820764Y-19745317D01*
X179820764Y-19745317D02*
X179630288Y-19840555D01*
X179630288Y-19840555D02*
X179249335Y-19840555D01*
X179249335Y-19840555D02*
X179058859Y-19745317D01*
X179058859Y-19745317D02*
X178963621Y-19650078D01*
X178963621Y-19650078D02*
X178868383Y-19459602D01*
X178868383Y-19459602D02*
X178868383Y-19078650D01*
X178868383Y-19078650D02*
X178963621Y-18888174D01*
X178963621Y-18888174D02*
X179058859Y-18792936D01*
X179058859Y-18792936D02*
X179249335Y-18697697D01*
X177630288Y-17840555D02*
X177439811Y-17840555D01*
X177439811Y-17840555D02*
X177249335Y-17935793D01*
X177249335Y-17935793D02*
X177154097Y-18031031D01*
X177154097Y-18031031D02*
X177058859Y-18221507D01*
X177058859Y-18221507D02*
X176963621Y-18602459D01*
X176963621Y-18602459D02*
X176963621Y-19078650D01*
X176963621Y-19078650D02*
X177058859Y-19459602D01*
X177058859Y-19459602D02*
X177154097Y-19650078D01*
X177154097Y-19650078D02*
X177249335Y-19745317D01*
X177249335Y-19745317D02*
X177439811Y-19840555D01*
X177439811Y-19840555D02*
X177630288Y-19840555D01*
X177630288Y-19840555D02*
X177820764Y-19745317D01*
X177820764Y-19745317D02*
X177916002Y-19650078D01*
X177916002Y-19650078D02*
X178011240Y-19459602D01*
X178011240Y-19459602D02*
X178106478Y-19078650D01*
X178106478Y-19078650D02*
X178106478Y-18602459D01*
X178106478Y-18602459D02*
X178011240Y-18221507D01*
X178011240Y-18221507D02*
X177916002Y-18031031D01*
X177916002Y-18031031D02*
X177820764Y-17935793D01*
X177820764Y-17935793D02*
X177630288Y-17840555D01*
X176106478Y-19078650D02*
X174582669Y-19078650D01*
X172582669Y-19840555D02*
X173725526Y-19840555D01*
X173154098Y-19840555D02*
X173154098Y-17840555D01*
X173154098Y-17840555D02*
X173344574Y-18126269D01*
X173344574Y-18126269D02*
X173535050Y-18316745D01*
X173535050Y-18316745D02*
X173725526Y-18411983D01*
X171439812Y-18697697D02*
X171630288Y-18602459D01*
X171630288Y-18602459D02*
X171725526Y-18507221D01*
X171725526Y-18507221D02*
X171820764Y-18316745D01*
X171820764Y-18316745D02*
X171820764Y-18221507D01*
X171820764Y-18221507D02*
X171725526Y-18031031D01*
X171725526Y-18031031D02*
X171630288Y-17935793D01*
X171630288Y-17935793D02*
X171439812Y-17840555D01*
X171439812Y-17840555D02*
X171058859Y-17840555D01*
X171058859Y-17840555D02*
X170868383Y-17935793D01*
X170868383Y-17935793D02*
X170773145Y-18031031D01*
X170773145Y-18031031D02*
X170677907Y-18221507D01*
X170677907Y-18221507D02*
X170677907Y-18316745D01*
X170677907Y-18316745D02*
X170773145Y-18507221D01*
X170773145Y-18507221D02*
X170868383Y-18602459D01*
X170868383Y-18602459D02*
X171058859Y-18697697D01*
X171058859Y-18697697D02*
X171439812Y-18697697D01*
X171439812Y-18697697D02*
X171630288Y-18792936D01*
X171630288Y-18792936D02*
X171725526Y-18888174D01*
X171725526Y-18888174D02*
X171820764Y-19078650D01*
X171820764Y-19078650D02*
X171820764Y-19459602D01*
X171820764Y-19459602D02*
X171725526Y-19650078D01*
X171725526Y-19650078D02*
X171630288Y-19745317D01*
X171630288Y-19745317D02*
X171439812Y-19840555D01*
X171439812Y-19840555D02*
X171058859Y-19840555D01*
X171058859Y-19840555D02*
X170868383Y-19745317D01*
X170868383Y-19745317D02*
X170773145Y-19650078D01*
X170773145Y-19650078D02*
X170677907Y-19459602D01*
X170677907Y-19459602D02*
X170677907Y-19078650D01*
X170677907Y-19078650D02*
X170773145Y-18888174D01*
X170773145Y-18888174D02*
X170868383Y-18792936D01*
X170868383Y-18792936D02*
X171058859Y-18697697D01*
X169439812Y-17840555D02*
X169249335Y-17840555D01*
X169249335Y-17840555D02*
X169058859Y-17935793D01*
X169058859Y-17935793D02*
X168963621Y-18031031D01*
X168963621Y-18031031D02*
X168868383Y-18221507D01*
X168868383Y-18221507D02*
X168773145Y-18602459D01*
X168773145Y-18602459D02*
X168773145Y-19078650D01*
X168773145Y-19078650D02*
X168868383Y-19459602D01*
X168868383Y-19459602D02*
X168963621Y-19650078D01*
X168963621Y-19650078D02*
X169058859Y-19745317D01*
X169058859Y-19745317D02*
X169249335Y-19840555D01*
X169249335Y-19840555D02*
X169439812Y-19840555D01*
X169439812Y-19840555D02*
X169630288Y-19745317D01*
X169630288Y-19745317D02*
X169725526Y-19650078D01*
X169725526Y-19650078D02*
X169820764Y-19459602D01*
X169820764Y-19459602D02*
X169916002Y-19078650D01*
X169916002Y-19078650D02*
X169916002Y-18602459D01*
X169916002Y-18602459D02*
X169820764Y-18221507D01*
X169820764Y-18221507D02*
X169725526Y-18031031D01*
X169725526Y-18031031D02*
X169630288Y-17935793D01*
X169630288Y-17935793D02*
X169439812Y-17840555D01*
X167535050Y-17840555D02*
X167344573Y-17840555D01*
X167344573Y-17840555D02*
X167154097Y-17935793D01*
X167154097Y-17935793D02*
X167058859Y-18031031D01*
X167058859Y-18031031D02*
X166963621Y-18221507D01*
X166963621Y-18221507D02*
X166868383Y-18602459D01*
X166868383Y-18602459D02*
X166868383Y-19078650D01*
X166868383Y-19078650D02*
X166963621Y-19459602D01*
X166963621Y-19459602D02*
X167058859Y-19650078D01*
X167058859Y-19650078D02*
X167154097Y-19745317D01*
X167154097Y-19745317D02*
X167344573Y-19840555D01*
X167344573Y-19840555D02*
X167535050Y-19840555D01*
X167535050Y-19840555D02*
X167725526Y-19745317D01*
X167725526Y-19745317D02*
X167820764Y-19650078D01*
X167820764Y-19650078D02*
X167916002Y-19459602D01*
X167916002Y-19459602D02*
X168011240Y-19078650D01*
X168011240Y-19078650D02*
X168011240Y-18602459D01*
X168011240Y-18602459D02*
X167916002Y-18221507D01*
X167916002Y-18221507D02*
X167820764Y-18031031D01*
X167820764Y-18031031D02*
X167725526Y-17935793D01*
X167725526Y-17935793D02*
X167535050Y-17840555D01*
X214487433Y-23060443D02*
X214487433Y-21727109D01*
X214487433Y-21917585D02*
X214392195Y-21822347D01*
X214392195Y-21822347D02*
X214201719Y-21727109D01*
X214201719Y-21727109D02*
X213916004Y-21727109D01*
X213916004Y-21727109D02*
X213725528Y-21822347D01*
X213725528Y-21822347D02*
X213630290Y-22012824D01*
X213630290Y-22012824D02*
X213630290Y-23060443D01*
X213630290Y-22012824D02*
X213535052Y-21822347D01*
X213535052Y-21822347D02*
X213344576Y-21727109D01*
X213344576Y-21727109D02*
X213058862Y-21727109D01*
X213058862Y-21727109D02*
X212868385Y-21822347D01*
X212868385Y-21822347D02*
X212773147Y-22012824D01*
X212773147Y-22012824D02*
X212773147Y-23060443D01*
X211820766Y-21727109D02*
X211820766Y-23727109D01*
X211820766Y-21822347D02*
X211630290Y-21727109D01*
X211630290Y-21727109D02*
X211249337Y-21727109D01*
X211249337Y-21727109D02*
X211058861Y-21822347D01*
X211058861Y-21822347D02*
X210963623Y-21917585D01*
X210963623Y-21917585D02*
X210868385Y-22108062D01*
X210868385Y-22108062D02*
X210868385Y-22679490D01*
X210868385Y-22679490D02*
X210963623Y-22869966D01*
X210963623Y-22869966D02*
X211058861Y-22965205D01*
X211058861Y-22965205D02*
X211249337Y-23060443D01*
X211249337Y-23060443D02*
X211630290Y-23060443D01*
X211630290Y-23060443D02*
X211820766Y-22965205D01*
X210201718Y-21727109D02*
X209820766Y-23060443D01*
X209820766Y-23060443D02*
X209439813Y-22108062D01*
X209439813Y-22108062D02*
X209058861Y-23060443D01*
X209058861Y-23060443D02*
X208677909Y-21727109D01*
X207916004Y-23060443D02*
X207916004Y-21727109D01*
X207916004Y-22108062D02*
X207820766Y-21917585D01*
X207820766Y-21917585D02*
X207725528Y-21822347D01*
X207725528Y-21822347D02*
X207535052Y-21727109D01*
X207535052Y-21727109D02*
X207344575Y-21727109D01*
X206677909Y-22869966D02*
X206582671Y-22965205D01*
X206582671Y-22965205D02*
X206677909Y-23060443D01*
X206677909Y-23060443D02*
X206773147Y-22965205D01*
X206773147Y-22965205D02*
X206677909Y-22869966D01*
X206677909Y-22869966D02*
X206677909Y-23060443D01*
X205916004Y-23060443D02*
X204868385Y-21727109D01*
X205916004Y-21727109D02*
X204868385Y-23060443D01*
X204296956Y-21727109D02*
X203820766Y-23060443D01*
X203344575Y-21727109D02*
X203820766Y-23060443D01*
X203820766Y-23060443D02*
X204011242Y-23536633D01*
X204011242Y-23536633D02*
X204106480Y-23631871D01*
X204106480Y-23631871D02*
X204296956Y-23727109D01*
X202773146Y-21727109D02*
X201725527Y-21727109D01*
X201725527Y-21727109D02*
X202773146Y-23060443D01*
X202773146Y-23060443D02*
X201725527Y-23060443D01*
D12*
%TO.C,G\u002A\u002A\u002A*%
X228622059Y-13445219D02*
X228569173Y-13583559D01*
X228472077Y-13697346D01*
X228337919Y-13774486D01*
X228173845Y-13802887D01*
X228155293Y-13804499D01*
X228105993Y-13822507D01*
X228041325Y-13865378D01*
X227953810Y-13939189D01*
X227835973Y-14050018D01*
X227680334Y-14203940D01*
X227280326Y-14604992D01*
X224372132Y-14604992D01*
X222683886Y-16292264D01*
X222683886Y-17927205D01*
X222785355Y-18031894D01*
X222863486Y-18142661D01*
X222905052Y-18290269D01*
X222901794Y-18328404D01*
X222892277Y-18439843D01*
X222826976Y-18575537D01*
X222710963Y-18681504D01*
X222587509Y-18736127D01*
X222443065Y-18750067D01*
X222312782Y-18714531D01*
X222203574Y-18639075D01*
X222122361Y-18533254D01*
X222076057Y-18406624D01*
X222072997Y-18312350D01*
X222352346Y-18312350D01*
X222360966Y-18388945D01*
X222414321Y-18447237D01*
X222424020Y-18452404D01*
X222483332Y-18477328D01*
X222527104Y-18466110D01*
X222586073Y-18412542D01*
X222620726Y-18374635D01*
X222636090Y-18328404D01*
X222607146Y-18270503D01*
X222563424Y-18221541D01*
X222502827Y-18186640D01*
X222439598Y-18191730D01*
X222381033Y-18239321D01*
X222352346Y-18312350D01*
X222072997Y-18312350D01*
X222071581Y-18268740D01*
X222115850Y-18129157D01*
X222215780Y-17997432D01*
X222316255Y-17901171D01*
X222316255Y-16125210D01*
X223260616Y-15181286D01*
X224204977Y-14237361D01*
X227111035Y-14237361D01*
X227797307Y-13553423D01*
X227797307Y-13374024D01*
X227797575Y-13350331D01*
X228068819Y-13350331D01*
X228084928Y-13426900D01*
X228112872Y-13458953D01*
X228190213Y-13494033D01*
X228272009Y-13487185D01*
X228330972Y-13437258D01*
X228345206Y-13401909D01*
X228342489Y-13317434D01*
X228292699Y-13257451D01*
X228207838Y-13241081D01*
X228190370Y-13243892D01*
X228107760Y-13283592D01*
X228068819Y-13350331D01*
X227797575Y-13350331D01*
X227797835Y-13327266D01*
X227808411Y-13230345D01*
X227841409Y-13159138D01*
X227908303Y-13083628D01*
X228028653Y-12995243D01*
X228176645Y-12949774D01*
X228324856Y-12959703D01*
X228459086Y-13023794D01*
X228565135Y-13140810D01*
X228566614Y-13143252D01*
X228623588Y-13294419D01*
X228622498Y-13401909D01*
X228622059Y-13445219D01*
G36*
X228622059Y-13445219D02*
G01*
X228569173Y-13583559D01*
X228472077Y-13697346D01*
X228337919Y-13774486D01*
X228173845Y-13802887D01*
X228155293Y-13804499D01*
X228105993Y-13822507D01*
X228041325Y-13865378D01*
X227953810Y-13939189D01*
X227835973Y-14050018D01*
X227680334Y-14203940D01*
X227280326Y-14604992D01*
X224372132Y-14604992D01*
X222683886Y-16292264D01*
X222683886Y-17927205D01*
X222785355Y-18031894D01*
X222863486Y-18142661D01*
X222905052Y-18290269D01*
X222901794Y-18328404D01*
X222892277Y-18439843D01*
X222826976Y-18575537D01*
X222710963Y-18681504D01*
X222587509Y-18736127D01*
X222443065Y-18750067D01*
X222312782Y-18714531D01*
X222203574Y-18639075D01*
X222122361Y-18533254D01*
X222076057Y-18406624D01*
X222072997Y-18312350D01*
X222352346Y-18312350D01*
X222360966Y-18388945D01*
X222414321Y-18447237D01*
X222424020Y-18452404D01*
X222483332Y-18477328D01*
X222527104Y-18466110D01*
X222586073Y-18412542D01*
X222620726Y-18374635D01*
X222636090Y-18328404D01*
X222607146Y-18270503D01*
X222563424Y-18221541D01*
X222502827Y-18186640D01*
X222439598Y-18191730D01*
X222381033Y-18239321D01*
X222352346Y-18312350D01*
X222072997Y-18312350D01*
X222071581Y-18268740D01*
X222115850Y-18129157D01*
X222215780Y-17997432D01*
X222316255Y-17901171D01*
X222316255Y-16125210D01*
X223260616Y-15181286D01*
X224204977Y-14237361D01*
X227111035Y-14237361D01*
X227797307Y-13553423D01*
X227797307Y-13374024D01*
X227797575Y-13350331D01*
X228068819Y-13350331D01*
X228084928Y-13426900D01*
X228112872Y-13458953D01*
X228190213Y-13494033D01*
X228272009Y-13487185D01*
X228330972Y-13437258D01*
X228345206Y-13401909D01*
X228342489Y-13317434D01*
X228292699Y-13257451D01*
X228207838Y-13241081D01*
X228190370Y-13243892D01*
X228107760Y-13283592D01*
X228068819Y-13350331D01*
X227797575Y-13350331D01*
X227797835Y-13327266D01*
X227808411Y-13230345D01*
X227841409Y-13159138D01*
X227908303Y-13083628D01*
X228028653Y-12995243D01*
X228176645Y-12949774D01*
X228324856Y-12959703D01*
X228459086Y-13023794D01*
X228565135Y-13140810D01*
X228566614Y-13143252D01*
X228623588Y-13294419D01*
X228622498Y-13401909D01*
X228622059Y-13445219D01*
G37*
X226626660Y-13031620D02*
X226588600Y-13194719D01*
X226500863Y-13322354D01*
X226372061Y-13405531D01*
X226210809Y-13435255D01*
X226147959Y-13431971D01*
X226005602Y-13390703D01*
X225870267Y-13294411D01*
X225863203Y-13288157D01*
X225836968Y-13269517D01*
X225801947Y-13255458D01*
X225749848Y-13245494D01*
X225672379Y-13239140D01*
X225561246Y-13235908D01*
X225408159Y-13235315D01*
X225204825Y-13236874D01*
X224942951Y-13240100D01*
X224087809Y-13251440D01*
X221447307Y-15891386D01*
X221447307Y-16332478D01*
X221447454Y-16415059D01*
X221449502Y-16573596D01*
X221455098Y-16681565D01*
X221465673Y-16750483D01*
X221482655Y-16791870D01*
X221507474Y-16817242D01*
X221581470Y-16887263D01*
X221653615Y-17017126D01*
X221679828Y-17161703D01*
X221679970Y-17162491D01*
X221660973Y-17306913D01*
X221597059Y-17433947D01*
X221488664Y-17527149D01*
X221368634Y-17572587D01*
X221213356Y-17579163D01*
X221071064Y-17532736D01*
X220954120Y-17440591D01*
X220874887Y-17310013D01*
X220848148Y-17161703D01*
X221113097Y-17161703D01*
X221123002Y-17198040D01*
X221165616Y-17259579D01*
X221204775Y-17290184D01*
X221263492Y-17312098D01*
X221326779Y-17287310D01*
X221387291Y-17227556D01*
X221413886Y-17161703D01*
X221389099Y-17098416D01*
X221329345Y-17037904D01*
X221263492Y-17011308D01*
X221200204Y-17036096D01*
X221139693Y-17095850D01*
X221113097Y-17161703D01*
X220848148Y-17161703D01*
X220845729Y-17148287D01*
X220852321Y-17066964D01*
X220886841Y-16979150D01*
X220962702Y-16882025D01*
X221079676Y-16752549D01*
X221079676Y-15724886D01*
X223786521Y-13017492D01*
X226059413Y-13017492D01*
X226069318Y-13053829D01*
X226111932Y-13115368D01*
X226151091Y-13145973D01*
X226209807Y-13167887D01*
X226273781Y-13142434D01*
X226333769Y-13083757D01*
X226360202Y-13020285D01*
X226358190Y-13007076D01*
X226321569Y-12947127D01*
X226259995Y-12891559D01*
X226201208Y-12867098D01*
X226198737Y-12867169D01*
X226139610Y-12895533D01*
X226084031Y-12955333D01*
X226059413Y-13017492D01*
X223786521Y-13017492D01*
X223936884Y-12867098D01*
X225814170Y-12867098D01*
X225855858Y-12789204D01*
X225938759Y-12693215D01*
X226069824Y-12624651D01*
X226227251Y-12599729D01*
X226246275Y-12599924D01*
X226335052Y-12611509D01*
X226409848Y-12650354D01*
X226497818Y-12729481D01*
X226515168Y-12747043D01*
X226586295Y-12830743D01*
X226619422Y-12906026D01*
X226627571Y-13000049D01*
X226626987Y-13020285D01*
X226626660Y-13031620D01*
G36*
X226626660Y-13031620D02*
G01*
X226588600Y-13194719D01*
X226500863Y-13322354D01*
X226372061Y-13405531D01*
X226210809Y-13435255D01*
X226147959Y-13431971D01*
X226005602Y-13390703D01*
X225870267Y-13294411D01*
X225863203Y-13288157D01*
X225836968Y-13269517D01*
X225801947Y-13255458D01*
X225749848Y-13245494D01*
X225672379Y-13239140D01*
X225561246Y-13235908D01*
X225408159Y-13235315D01*
X225204825Y-13236874D01*
X224942951Y-13240100D01*
X224087809Y-13251440D01*
X221447307Y-15891386D01*
X221447307Y-16332478D01*
X221447454Y-16415059D01*
X221449502Y-16573596D01*
X221455098Y-16681565D01*
X221465673Y-16750483D01*
X221482655Y-16791870D01*
X221507474Y-16817242D01*
X221581470Y-16887263D01*
X221653615Y-17017126D01*
X221679828Y-17161703D01*
X221679970Y-17162491D01*
X221660973Y-17306913D01*
X221597059Y-17433947D01*
X221488664Y-17527149D01*
X221368634Y-17572587D01*
X221213356Y-17579163D01*
X221071064Y-17532736D01*
X220954120Y-17440591D01*
X220874887Y-17310013D01*
X220848148Y-17161703D01*
X221113097Y-17161703D01*
X221123002Y-17198040D01*
X221165616Y-17259579D01*
X221204775Y-17290184D01*
X221263492Y-17312098D01*
X221326779Y-17287310D01*
X221387291Y-17227556D01*
X221413886Y-17161703D01*
X221389099Y-17098416D01*
X221329345Y-17037904D01*
X221263492Y-17011308D01*
X221200204Y-17036096D01*
X221139693Y-17095850D01*
X221113097Y-17161703D01*
X220848148Y-17161703D01*
X220845729Y-17148287D01*
X220852321Y-17066964D01*
X220886841Y-16979150D01*
X220962702Y-16882025D01*
X221079676Y-16752549D01*
X221079676Y-15724886D01*
X223786521Y-13017492D01*
X226059413Y-13017492D01*
X226069318Y-13053829D01*
X226111932Y-13115368D01*
X226151091Y-13145973D01*
X226209807Y-13167887D01*
X226273781Y-13142434D01*
X226333769Y-13083757D01*
X226360202Y-13020285D01*
X226358190Y-13007076D01*
X226321569Y-12947127D01*
X226259995Y-12891559D01*
X226201208Y-12867098D01*
X226198737Y-12867169D01*
X226139610Y-12895533D01*
X226084031Y-12955333D01*
X226059413Y-13017492D01*
X223786521Y-13017492D01*
X223936884Y-12867098D01*
X225814170Y-12867098D01*
X225855858Y-12789204D01*
X225938759Y-12693215D01*
X226069824Y-12624651D01*
X226227251Y-12599729D01*
X226246275Y-12599924D01*
X226335052Y-12611509D01*
X226409848Y-12650354D01*
X226497818Y-12729481D01*
X226515168Y-12747043D01*
X226586295Y-12830743D01*
X226619422Y-12906026D01*
X226627571Y-13000049D01*
X226626987Y-13020285D01*
X226626660Y-13031620D01*
G37*
X224382888Y-21720997D02*
X224382540Y-21724661D01*
X224379174Y-21777799D01*
X224384326Y-21824554D01*
X224404003Y-21874292D01*
X224444213Y-21936380D01*
X224510964Y-22020184D01*
X224610265Y-22135073D01*
X224748124Y-22290412D01*
X225127084Y-22715918D01*
X225701867Y-22737721D01*
X225807653Y-22741533D01*
X226036744Y-22748657D01*
X226263380Y-22754386D01*
X226466118Y-22758213D01*
X226623520Y-22759627D01*
X226970390Y-22759729D01*
X227099866Y-22642755D01*
X227175881Y-22580724D01*
X227263773Y-22537359D01*
X227364590Y-22525782D01*
X227395324Y-22526481D01*
X227564165Y-22561330D01*
X227690566Y-22645472D01*
X227769841Y-22774384D01*
X227797307Y-22943545D01*
X227795789Y-22957030D01*
X227782883Y-23071684D01*
X227717428Y-23212257D01*
X227600348Y-23311280D01*
X227583967Y-23319137D01*
X227484253Y-23347726D01*
X227371285Y-23359970D01*
X227278265Y-23352959D01*
X227194137Y-23318779D01*
X227099866Y-23244334D01*
X226970390Y-23127361D01*
X225971809Y-23126016D01*
X224973229Y-23124671D01*
X224837543Y-22967950D01*
X227236495Y-22967950D01*
X227290268Y-23038628D01*
X227331217Y-23071579D01*
X227394134Y-23089704D01*
X227471452Y-23057842D01*
X227503222Y-23030875D01*
X227530315Y-22957030D01*
X227510516Y-22878360D01*
X227446522Y-22820552D01*
X227426338Y-22811917D01*
X227359396Y-22802663D01*
X227296127Y-22843159D01*
X227245682Y-22900952D01*
X227236495Y-22967950D01*
X224837543Y-22967950D01*
X224793548Y-22917134D01*
X224709460Y-22820275D01*
X224516089Y-22600404D01*
X224358446Y-22426463D01*
X224232012Y-22294042D01*
X224132270Y-22198728D01*
X224054704Y-22136109D01*
X223994796Y-22101773D01*
X223948028Y-22091308D01*
X223915839Y-22089951D01*
X223772191Y-22047437D01*
X223657067Y-21953535D01*
X223580577Y-21819378D01*
X223555798Y-21673545D01*
X223820202Y-21673545D01*
X223830108Y-21709882D01*
X223872721Y-21771421D01*
X223911881Y-21802026D01*
X223970597Y-21823940D01*
X224006934Y-21814034D01*
X224068473Y-21771421D01*
X224099078Y-21732261D01*
X224120992Y-21673545D01*
X224111086Y-21637208D01*
X224068473Y-21575669D01*
X224029313Y-21545064D01*
X223970597Y-21523150D01*
X223934260Y-21533056D01*
X223872721Y-21575669D01*
X223842116Y-21614829D01*
X223820202Y-21673545D01*
X223555798Y-21673545D01*
X223552834Y-21656101D01*
X223553029Y-21637077D01*
X223564614Y-21548301D01*
X223603459Y-21473505D01*
X223682586Y-21385534D01*
X223700148Y-21368185D01*
X223783847Y-21297057D01*
X223859131Y-21263930D01*
X223953153Y-21255782D01*
X224031368Y-21261371D01*
X224186455Y-21313309D01*
X224301945Y-21412863D01*
X224370026Y-21551578D01*
X224379286Y-21673545D01*
X224382888Y-21720997D01*
G36*
X224382888Y-21720997D02*
G01*
X224382540Y-21724661D01*
X224379174Y-21777799D01*
X224384326Y-21824554D01*
X224404003Y-21874292D01*
X224444213Y-21936380D01*
X224510964Y-22020184D01*
X224610265Y-22135073D01*
X224748124Y-22290412D01*
X225127084Y-22715918D01*
X225701867Y-22737721D01*
X225807653Y-22741533D01*
X226036744Y-22748657D01*
X226263380Y-22754386D01*
X226466118Y-22758213D01*
X226623520Y-22759627D01*
X226970390Y-22759729D01*
X227099866Y-22642755D01*
X227175881Y-22580724D01*
X227263773Y-22537359D01*
X227364590Y-22525782D01*
X227395324Y-22526481D01*
X227564165Y-22561330D01*
X227690566Y-22645472D01*
X227769841Y-22774384D01*
X227797307Y-22943545D01*
X227795789Y-22957030D01*
X227782883Y-23071684D01*
X227717428Y-23212257D01*
X227600348Y-23311280D01*
X227583967Y-23319137D01*
X227484253Y-23347726D01*
X227371285Y-23359970D01*
X227278265Y-23352959D01*
X227194137Y-23318779D01*
X227099866Y-23244334D01*
X226970390Y-23127361D01*
X225971809Y-23126016D01*
X224973229Y-23124671D01*
X224837543Y-22967950D01*
X227236495Y-22967950D01*
X227290268Y-23038628D01*
X227331217Y-23071579D01*
X227394134Y-23089704D01*
X227471452Y-23057842D01*
X227503222Y-23030875D01*
X227530315Y-22957030D01*
X227510516Y-22878360D01*
X227446522Y-22820552D01*
X227426338Y-22811917D01*
X227359396Y-22802663D01*
X227296127Y-22843159D01*
X227245682Y-22900952D01*
X227236495Y-22967950D01*
X224837543Y-22967950D01*
X224793548Y-22917134D01*
X224709460Y-22820275D01*
X224516089Y-22600404D01*
X224358446Y-22426463D01*
X224232012Y-22294042D01*
X224132270Y-22198728D01*
X224054704Y-22136109D01*
X223994796Y-22101773D01*
X223948028Y-22091308D01*
X223915839Y-22089951D01*
X223772191Y-22047437D01*
X223657067Y-21953535D01*
X223580577Y-21819378D01*
X223555798Y-21673545D01*
X223820202Y-21673545D01*
X223830108Y-21709882D01*
X223872721Y-21771421D01*
X223911881Y-21802026D01*
X223970597Y-21823940D01*
X224006934Y-21814034D01*
X224068473Y-21771421D01*
X224099078Y-21732261D01*
X224120992Y-21673545D01*
X224111086Y-21637208D01*
X224068473Y-21575669D01*
X224029313Y-21545064D01*
X223970597Y-21523150D01*
X223934260Y-21533056D01*
X223872721Y-21575669D01*
X223842116Y-21614829D01*
X223820202Y-21673545D01*
X223555798Y-21673545D01*
X223552834Y-21656101D01*
X223553029Y-21637077D01*
X223564614Y-21548301D01*
X223603459Y-21473505D01*
X223682586Y-21385534D01*
X223700148Y-21368185D01*
X223783847Y-21297057D01*
X223859131Y-21263930D01*
X223953153Y-21255782D01*
X224031368Y-21261371D01*
X224186455Y-21313309D01*
X224301945Y-21412863D01*
X224370026Y-21551578D01*
X224379286Y-21673545D01*
X224382888Y-21720997D01*
G37*
X227328623Y-19046191D02*
X227292686Y-19214346D01*
X227207399Y-19341860D01*
X227078481Y-19422752D01*
X226911650Y-19451045D01*
X226891490Y-19450559D01*
X226754800Y-19423828D01*
X226636541Y-19364385D01*
X226560543Y-19283594D01*
X226552775Y-19270536D01*
X226531395Y-19249305D01*
X226494232Y-19234572D01*
X226431075Y-19225162D01*
X226331711Y-19219897D01*
X226185931Y-19217601D01*
X225983522Y-19217098D01*
X225442089Y-19217098D01*
X225257831Y-19033282D01*
X226761255Y-19033282D01*
X226771160Y-19069619D01*
X226813774Y-19131158D01*
X226852933Y-19161763D01*
X226911650Y-19183677D01*
X226947986Y-19173771D01*
X227009526Y-19131158D01*
X227040130Y-19091998D01*
X227062044Y-19033282D01*
X227052139Y-18996945D01*
X227009526Y-18935406D01*
X226970366Y-18904801D01*
X226911650Y-18882887D01*
X226875313Y-18892792D01*
X226813774Y-18935406D01*
X226783169Y-18974565D01*
X226761255Y-19033282D01*
X225257831Y-19033282D01*
X225032198Y-18808191D01*
X224622307Y-18399285D01*
X224622307Y-17162668D01*
X225031214Y-16752778D01*
X225440120Y-16342887D01*
X228013579Y-16342887D01*
X228423470Y-16751793D01*
X228833360Y-17160700D01*
X228833360Y-20937317D01*
X228424454Y-21347207D01*
X228015547Y-21757098D01*
X225475800Y-21757098D01*
X225170206Y-21452774D01*
X225114245Y-21397305D01*
X224998063Y-21285744D01*
X224910857Y-21210770D01*
X224840485Y-21163730D01*
X224774807Y-21135970D01*
X224701683Y-21118838D01*
X224648457Y-21106429D01*
X224500792Y-21036104D01*
X224395406Y-20929554D01*
X224336172Y-20799193D01*
X224330153Y-20706533D01*
X224599937Y-20706533D01*
X224635384Y-20770320D01*
X224689744Y-20831954D01*
X224760570Y-20850027D01*
X224837157Y-20802210D01*
X224868066Y-20761383D01*
X224887169Y-20673033D01*
X224849571Y-20594045D01*
X224807381Y-20564990D01*
X224723564Y-20562197D01*
X224639793Y-20619925D01*
X224605559Y-20662672D01*
X224599937Y-20706533D01*
X224330153Y-20706533D01*
X224326963Y-20657436D01*
X224371652Y-20516696D01*
X224474111Y-20389387D01*
X224556595Y-20326781D01*
X224642907Y-20294559D01*
X224760497Y-20286571D01*
X224785540Y-20286735D01*
X224888223Y-20296193D01*
X224963318Y-20329653D01*
X225043413Y-20400203D01*
X225090508Y-20449840D01*
X225134214Y-20515112D01*
X225153022Y-20592189D01*
X225155818Y-20673033D01*
X225157044Y-20708509D01*
X225157044Y-20903183D01*
X225606436Y-21356045D01*
X227846183Y-21356045D01*
X228155956Y-21047560D01*
X228465729Y-20739076D01*
X228465729Y-17330064D01*
X228157244Y-17020291D01*
X227848759Y-16710519D01*
X225609484Y-16710519D01*
X225299712Y-17019003D01*
X224989939Y-17327488D01*
X224989939Y-18229921D01*
X225298424Y-18539693D01*
X225606908Y-18849466D01*
X226502496Y-18849466D01*
X226631972Y-18732492D01*
X226633210Y-18731374D01*
X226725670Y-18658179D01*
X226809117Y-18623976D01*
X226915678Y-18615519D01*
X226953139Y-18616089D01*
X227041107Y-18628560D01*
X227113790Y-18667284D01*
X227199660Y-18745271D01*
X227215131Y-18760910D01*
X227287296Y-18845362D01*
X227321053Y-18920831D01*
X227329413Y-19014299D01*
X227328942Y-19033282D01*
X227328623Y-19046191D01*
G36*
X227328623Y-19046191D02*
G01*
X227292686Y-19214346D01*
X227207399Y-19341860D01*
X227078481Y-19422752D01*
X226911650Y-19451045D01*
X226891490Y-19450559D01*
X226754800Y-19423828D01*
X226636541Y-19364385D01*
X226560543Y-19283594D01*
X226552775Y-19270536D01*
X226531395Y-19249305D01*
X226494232Y-19234572D01*
X226431075Y-19225162D01*
X226331711Y-19219897D01*
X226185931Y-19217601D01*
X225983522Y-19217098D01*
X225442089Y-19217098D01*
X225257831Y-19033282D01*
X226761255Y-19033282D01*
X226771160Y-19069619D01*
X226813774Y-19131158D01*
X226852933Y-19161763D01*
X226911650Y-19183677D01*
X226947986Y-19173771D01*
X227009526Y-19131158D01*
X227040130Y-19091998D01*
X227062044Y-19033282D01*
X227052139Y-18996945D01*
X227009526Y-18935406D01*
X226970366Y-18904801D01*
X226911650Y-18882887D01*
X226875313Y-18892792D01*
X226813774Y-18935406D01*
X226783169Y-18974565D01*
X226761255Y-19033282D01*
X225257831Y-19033282D01*
X225032198Y-18808191D01*
X224622307Y-18399285D01*
X224622307Y-17162668D01*
X225031214Y-16752778D01*
X225440120Y-16342887D01*
X228013579Y-16342887D01*
X228423470Y-16751793D01*
X228833360Y-17160700D01*
X228833360Y-20937317D01*
X228424454Y-21347207D01*
X228015547Y-21757098D01*
X225475800Y-21757098D01*
X225170206Y-21452774D01*
X225114245Y-21397305D01*
X224998063Y-21285744D01*
X224910857Y-21210770D01*
X224840485Y-21163730D01*
X224774807Y-21135970D01*
X224701683Y-21118838D01*
X224648457Y-21106429D01*
X224500792Y-21036104D01*
X224395406Y-20929554D01*
X224336172Y-20799193D01*
X224330153Y-20706533D01*
X224599937Y-20706533D01*
X224635384Y-20770320D01*
X224689744Y-20831954D01*
X224760570Y-20850027D01*
X224837157Y-20802210D01*
X224868066Y-20761383D01*
X224887169Y-20673033D01*
X224849571Y-20594045D01*
X224807381Y-20564990D01*
X224723564Y-20562197D01*
X224639793Y-20619925D01*
X224605559Y-20662672D01*
X224599937Y-20706533D01*
X224330153Y-20706533D01*
X224326963Y-20657436D01*
X224371652Y-20516696D01*
X224474111Y-20389387D01*
X224556595Y-20326781D01*
X224642907Y-20294559D01*
X224760497Y-20286571D01*
X224785540Y-20286735D01*
X224888223Y-20296193D01*
X224963318Y-20329653D01*
X225043413Y-20400203D01*
X225090508Y-20449840D01*
X225134214Y-20515112D01*
X225153022Y-20592189D01*
X225155818Y-20673033D01*
X225157044Y-20708509D01*
X225157044Y-20903183D01*
X225606436Y-21356045D01*
X227846183Y-21356045D01*
X228155956Y-21047560D01*
X228465729Y-20739076D01*
X228465729Y-17330064D01*
X228157244Y-17020291D01*
X227848759Y-16710519D01*
X225609484Y-16710519D01*
X225299712Y-17019003D01*
X224989939Y-17327488D01*
X224989939Y-18229921D01*
X225298424Y-18539693D01*
X225606908Y-18849466D01*
X226502496Y-18849466D01*
X226631972Y-18732492D01*
X226633210Y-18731374D01*
X226725670Y-18658179D01*
X226809117Y-18623976D01*
X226915678Y-18615519D01*
X226953139Y-18616089D01*
X227041107Y-18628560D01*
X227113790Y-18667284D01*
X227199660Y-18745271D01*
X227215131Y-18760910D01*
X227287296Y-18845362D01*
X227321053Y-18920831D01*
X227329413Y-19014299D01*
X227328942Y-19033282D01*
X227328623Y-19046191D01*
G37*
X234109990Y-19352541D02*
X234050124Y-20052572D01*
X233924294Y-20748144D01*
X233732499Y-21436091D01*
X233620380Y-21751862D01*
X233346424Y-22379160D01*
X233017166Y-22974079D01*
X232636228Y-23533686D01*
X232207232Y-24055050D01*
X231733800Y-24535238D01*
X231219554Y-24971320D01*
X230668116Y-25360363D01*
X230083107Y-25699435D01*
X229468150Y-25985605D01*
X228826867Y-26215941D01*
X228162878Y-26387512D01*
X227479807Y-26497384D01*
X227380503Y-26506864D01*
X227148715Y-26520751D01*
X226881464Y-26528758D01*
X226599154Y-26530840D01*
X226322190Y-26526949D01*
X226070979Y-26517040D01*
X225865924Y-26501065D01*
X225699519Y-26481207D01*
X224998752Y-26357123D01*
X224320919Y-26170825D01*
X223668516Y-25923506D01*
X223044037Y-25616359D01*
X222449978Y-25250578D01*
X221888834Y-24827355D01*
X221363100Y-24347884D01*
X220915313Y-23861521D01*
X220490263Y-23308319D01*
X220123701Y-22723284D01*
X219814777Y-22105046D01*
X219562638Y-21452238D01*
X219392076Y-20864323D01*
X219255373Y-20173598D01*
X219184276Y-19476637D01*
X219179098Y-18816045D01*
X219642571Y-18816045D01*
X219642571Y-19079872D01*
X219648546Y-19325801D01*
X219688154Y-19792973D01*
X219761705Y-20275825D01*
X219865500Y-20758214D01*
X219995838Y-21223998D01*
X220149020Y-21657033D01*
X220321344Y-22041177D01*
X220474714Y-22341966D01*
X220476405Y-21919382D01*
X220478097Y-21496798D01*
X220378899Y-21390606D01*
X220285651Y-21254729D01*
X220249431Y-21104126D01*
X220250552Y-21098178D01*
X220551262Y-21098178D01*
X220559567Y-21151860D01*
X220590835Y-21198560D01*
X220663114Y-21215589D01*
X220751086Y-21215003D01*
X220799347Y-21181621D01*
X220812307Y-21103909D01*
X220791533Y-21024130D01*
X220725001Y-20970970D01*
X220626894Y-20969118D01*
X220585708Y-20982782D01*
X220552366Y-21020547D01*
X220551262Y-21098178D01*
X220250552Y-21098178D01*
X220277638Y-20954460D01*
X220370391Y-20813725D01*
X220495540Y-20716468D01*
X220642127Y-20670370D01*
X220790682Y-20686002D01*
X220890304Y-20732201D01*
X221006301Y-20835770D01*
X221076504Y-20967202D01*
X221096003Y-21103909D01*
X221097222Y-21112461D01*
X221064760Y-21257508D01*
X220975428Y-21388309D01*
X220879150Y-21484587D01*
X220879150Y-23037858D01*
X221068032Y-23291491D01*
X221176851Y-23426680D01*
X221329799Y-23599606D01*
X221510682Y-23792550D01*
X221707652Y-23993668D01*
X221908864Y-24191112D01*
X222102472Y-24373039D01*
X222276630Y-24527600D01*
X222419493Y-24642952D01*
X222483034Y-24689757D01*
X222585457Y-24762787D01*
X222660492Y-24813097D01*
X222695217Y-24831834D01*
X222699751Y-24825590D01*
X222708745Y-24770093D01*
X222714977Y-24669520D01*
X222717307Y-24538982D01*
X222717307Y-24246130D01*
X222215992Y-23745650D01*
X221714676Y-23245170D01*
X221714676Y-20934726D01*
X221318881Y-20543806D01*
X221180690Y-20407808D01*
X221070393Y-20302092D01*
X220989337Y-20230572D01*
X220928145Y-20186568D01*
X220877442Y-20163405D01*
X220827852Y-20154404D01*
X220769998Y-20152887D01*
X220731015Y-20151965D01*
X220614004Y-20129157D01*
X220514686Y-20066871D01*
X220415153Y-19952201D01*
X220364709Y-19819424D01*
X220364426Y-19768923D01*
X220644575Y-19768923D01*
X220685307Y-19845413D01*
X220708711Y-19863221D01*
X220778886Y-19885519D01*
X220816646Y-19879672D01*
X220880217Y-19832531D01*
X220910181Y-19757526D01*
X220900648Y-19678214D01*
X220845729Y-19618150D01*
X220772471Y-19601220D01*
X220700611Y-19629183D01*
X220653828Y-19690965D01*
X220644575Y-19768923D01*
X220364426Y-19768923D01*
X220363955Y-19684700D01*
X220405813Y-19557842D01*
X220483203Y-19448665D01*
X220589044Y-19366984D01*
X220716259Y-19322613D01*
X220857767Y-19325367D01*
X221006490Y-19385060D01*
X221057919Y-19424139D01*
X221144421Y-19533668D01*
X221196430Y-19662504D01*
X221200455Y-19757526D01*
X221201635Y-19785395D01*
X221199319Y-19808955D01*
X221207446Y-19847278D01*
X221234588Y-19895998D01*
X221286573Y-19962309D01*
X221369226Y-20053403D01*
X221488376Y-20176474D01*
X221649849Y-20338714D01*
X222115729Y-20803702D01*
X222115729Y-23071131D01*
X222600334Y-23565209D01*
X223084939Y-24059288D01*
X223084939Y-25098593D01*
X223418542Y-25266003D01*
X223536516Y-25324652D01*
X223652493Y-25381015D01*
X223734397Y-25419299D01*
X223769463Y-25433413D01*
X223770031Y-25432918D01*
X223774489Y-25393335D01*
X223778491Y-25296439D01*
X223781880Y-25150722D01*
X223784497Y-24964675D01*
X223786184Y-24746791D01*
X223786781Y-24505561D01*
X223786781Y-23577709D01*
X223285465Y-23077229D01*
X222784150Y-22576749D01*
X222784150Y-20604527D01*
X220996588Y-18816045D01*
X219642571Y-18816045D01*
X219179098Y-18816045D01*
X219178792Y-18776985D01*
X219208505Y-18431703D01*
X219692702Y-18431703D01*
X220427965Y-18440575D01*
X221163229Y-18449448D01*
X222174215Y-19459712D01*
X223185202Y-20469976D01*
X223185202Y-22443094D01*
X224153530Y-23409694D01*
X224154872Y-23577709D01*
X224162327Y-24511422D01*
X224171123Y-25613150D01*
X224430906Y-25697429D01*
X224690690Y-25781708D01*
X225066429Y-25407035D01*
X225276975Y-25197086D01*
X228334714Y-25197086D01*
X228343335Y-25273682D01*
X228396689Y-25331974D01*
X228406388Y-25337141D01*
X228465700Y-25362065D01*
X228509473Y-25350847D01*
X228568442Y-25297279D01*
X228603094Y-25259372D01*
X228618459Y-25213141D01*
X228589514Y-25155240D01*
X228545793Y-25106278D01*
X228485196Y-25071377D01*
X228421966Y-25076467D01*
X228363401Y-25124058D01*
X228334714Y-25197086D01*
X225276975Y-25197086D01*
X225442169Y-25032361D01*
X228039864Y-25032361D01*
X228169340Y-24915387D01*
X228184839Y-24901536D01*
X228271819Y-24835447D01*
X228354475Y-24805472D01*
X228466316Y-24798413D01*
X228468725Y-24798415D01*
X228582405Y-24806229D01*
X228665159Y-24838057D01*
X228751457Y-24907032D01*
X228772051Y-24926992D01*
X228865111Y-25062669D01*
X228893003Y-25212820D01*
X228892928Y-25213141D01*
X228855357Y-25375785D01*
X228836335Y-25414100D01*
X228743331Y-25525228D01*
X228620125Y-25603877D01*
X228489721Y-25633815D01*
X228430223Y-25629026D01*
X228307129Y-25594877D01*
X228199504Y-25537816D01*
X228133032Y-25469664D01*
X228128605Y-25461694D01*
X228115954Y-25445190D01*
X228095099Y-25431927D01*
X228059526Y-25421551D01*
X228002718Y-25413706D01*
X227918161Y-25408041D01*
X227799339Y-25404199D01*
X227639736Y-25401827D01*
X227432837Y-25400572D01*
X227172127Y-25400078D01*
X226851091Y-25399992D01*
X225606436Y-25399992D01*
X225373385Y-25635030D01*
X225269682Y-25742947D01*
X225202398Y-25823023D01*
X225176151Y-25872563D01*
X225186046Y-25898448D01*
X225193808Y-25902544D01*
X225269757Y-25925596D01*
X225400674Y-25951909D01*
X225576834Y-25979908D01*
X225788515Y-26008014D01*
X226025992Y-26034652D01*
X226254245Y-26053585D01*
X226880910Y-26061356D01*
X227513840Y-26007271D01*
X228145823Y-25893527D01*
X228769647Y-25722322D01*
X229378104Y-25495853D01*
X229963980Y-25216318D01*
X230520066Y-24885915D01*
X231039150Y-24506841D01*
X231040699Y-24505587D01*
X231186835Y-24379688D01*
X231360098Y-24218509D01*
X231547548Y-24035226D01*
X231736245Y-23843017D01*
X231913252Y-23655058D01*
X232065628Y-23484526D01*
X232180434Y-23344598D01*
X232263231Y-23233554D01*
X232602402Y-22720726D01*
X232900936Y-22171936D01*
X233154246Y-21598513D01*
X233357749Y-21011786D01*
X233506861Y-20423086D01*
X233596996Y-19843742D01*
X233620358Y-19618150D01*
X232858804Y-19618150D01*
X232634109Y-19844581D01*
X232409413Y-20071012D01*
X232409413Y-20795905D01*
X232409519Y-20958252D01*
X232410438Y-21157710D01*
X232412946Y-21304680D01*
X232417802Y-21407853D01*
X232425767Y-21475919D01*
X232437599Y-21517570D01*
X232454060Y-21541495D01*
X232475909Y-21556386D01*
X232488652Y-21563965D01*
X232567024Y-21647650D01*
X232622382Y-21770103D01*
X232643360Y-21907492D01*
X232642654Y-21935586D01*
X232605650Y-22096918D01*
X232516998Y-22219706D01*
X232383025Y-22297851D01*
X232210055Y-22325255D01*
X232134596Y-22319646D01*
X232045596Y-22286207D01*
X231949382Y-22210850D01*
X231897703Y-22161389D01*
X231849101Y-22097294D01*
X231828694Y-22023664D01*
X231824699Y-21916092D01*
X232075202Y-21916092D01*
X232085364Y-21947921D01*
X232127721Y-22005368D01*
X232166881Y-22035973D01*
X232225597Y-22057887D01*
X232288884Y-22033099D01*
X232349396Y-21973345D01*
X232375992Y-21907492D01*
X232350539Y-21843518D01*
X232291862Y-21783531D01*
X232228390Y-21757098D01*
X232215181Y-21759110D01*
X232155232Y-21795731D01*
X232099664Y-21857304D01*
X232075202Y-21916092D01*
X231824699Y-21916092D01*
X231824544Y-21911917D01*
X231825188Y-21859387D01*
X231835938Y-21762418D01*
X231868345Y-21690849D01*
X231933163Y-21615323D01*
X232041781Y-21503257D01*
X232041781Y-19900975D01*
X232368234Y-19575747D01*
X232694688Y-19250519D01*
X233656286Y-19250519D01*
X233634031Y-18784323D01*
X233631485Y-18733157D01*
X233621587Y-18564574D01*
X233610939Y-18421366D01*
X233600665Y-18317338D01*
X233591887Y-18266296D01*
X233588025Y-18258888D01*
X233566274Y-18242487D01*
X233521071Y-18230620D01*
X233443740Y-18222611D01*
X233325605Y-18217786D01*
X233157990Y-18215470D01*
X232932219Y-18214989D01*
X232292439Y-18215511D01*
X231817779Y-18657818D01*
X231343118Y-19100124D01*
X231341529Y-21055528D01*
X231339939Y-23010932D01*
X230579343Y-23770988D01*
X229975339Y-24374564D01*
X229818748Y-24531045D01*
X226099903Y-24531045D01*
X225993711Y-24630243D01*
X225857833Y-24723491D01*
X225707231Y-24759711D01*
X225557565Y-24731504D01*
X225416830Y-24638751D01*
X225319573Y-24513602D01*
X225273475Y-24367015D01*
X225279179Y-24312807D01*
X225561134Y-24312807D01*
X225578349Y-24389005D01*
X225620637Y-24429087D01*
X225695108Y-24456227D01*
X225767812Y-24453932D01*
X225811588Y-24418740D01*
X225820726Y-24374564D01*
X225819753Y-24291173D01*
X225816707Y-24274305D01*
X225785945Y-24226261D01*
X225712134Y-24213545D01*
X225679943Y-24215846D01*
X225598931Y-24249930D01*
X225561134Y-24312807D01*
X225279179Y-24312807D01*
X225289107Y-24218459D01*
X225335306Y-24118838D01*
X225438875Y-24002841D01*
X225570307Y-23932638D01*
X225715565Y-23911920D01*
X225860613Y-23944382D01*
X225991414Y-24033714D01*
X226087692Y-24129992D01*
X229686257Y-24129992D01*
X230312572Y-23503026D01*
X230938886Y-22876060D01*
X230938886Y-18962006D01*
X232125334Y-17847886D01*
X232818821Y-17847360D01*
X233512307Y-17846834D01*
X233512073Y-17771637D01*
X233511360Y-17748234D01*
X233491656Y-17604894D01*
X233447847Y-17415157D01*
X233383806Y-17190501D01*
X233303408Y-16942406D01*
X233210525Y-16682350D01*
X233109032Y-16421814D01*
X233002804Y-16172276D01*
X232895713Y-15945216D01*
X232842662Y-15842727D01*
X232752866Y-15679153D01*
X232652904Y-15505796D01*
X232548880Y-15332395D01*
X232446896Y-15168685D01*
X232353055Y-15024406D01*
X232273459Y-14909293D01*
X232214212Y-14833085D01*
X232181416Y-14805519D01*
X232159728Y-14820844D01*
X232097103Y-14876715D01*
X232002342Y-14966222D01*
X231883553Y-15081682D01*
X231748845Y-15215409D01*
X231739173Y-15225105D01*
X231593771Y-15371524D01*
X231488790Y-15480317D01*
X231417647Y-15560495D01*
X231373761Y-15621064D01*
X231350548Y-15671034D01*
X231341427Y-15719414D01*
X231339814Y-15775212D01*
X231330481Y-15841646D01*
X231319063Y-15922936D01*
X231251500Y-16061708D01*
X231148343Y-16163186D01*
X231021255Y-16222255D01*
X230881899Y-16233803D01*
X230741937Y-16192715D01*
X230613031Y-16093878D01*
X230545131Y-16009234D01*
X230512339Y-15925559D01*
X230504413Y-15811205D01*
X230505204Y-15790068D01*
X230775924Y-15790068D01*
X230792034Y-15866637D01*
X230819978Y-15898690D01*
X230897319Y-15933770D01*
X230979114Y-15926922D01*
X231038078Y-15876995D01*
X231052312Y-15841646D01*
X231049594Y-15757171D01*
X230999804Y-15697187D01*
X230914944Y-15680818D01*
X230897475Y-15683628D01*
X230814866Y-15723329D01*
X230775924Y-15790068D01*
X230505204Y-15790068D01*
X230507070Y-15740229D01*
X230531212Y-15635277D01*
X230589059Y-15545577D01*
X230640758Y-15494993D01*
X230750750Y-15425409D01*
X230866704Y-15386225D01*
X230964071Y-15387773D01*
X230970939Y-15388894D01*
X231012416Y-15374746D01*
X231079506Y-15327567D01*
X231177043Y-15243249D01*
X231309862Y-15117682D01*
X231482798Y-14946753D01*
X231941870Y-14486801D01*
X231674086Y-14220587D01*
X231406301Y-13954373D01*
X230721410Y-14638653D01*
X230036518Y-15322933D01*
X230036518Y-18330702D01*
X230604676Y-17763282D01*
X230631775Y-17736213D01*
X230804302Y-17563290D01*
X230935665Y-17429511D01*
X231031464Y-17327964D01*
X231097297Y-17251737D01*
X231138765Y-17193919D01*
X231161465Y-17147599D01*
X231170996Y-17105866D01*
X231172959Y-17061808D01*
X231174312Y-17042342D01*
X231440202Y-17042342D01*
X231450536Y-17071106D01*
X231492721Y-17125895D01*
X231566446Y-17169863D01*
X231649520Y-17168876D01*
X231714650Y-17123341D01*
X231740992Y-17040432D01*
X231740775Y-17034894D01*
X231714562Y-16966582D01*
X231661312Y-16904628D01*
X231604920Y-16877624D01*
X231575616Y-16888858D01*
X231517236Y-16935346D01*
X231463673Y-16994932D01*
X231440202Y-17042342D01*
X231174312Y-17042342D01*
X231177174Y-17001179D01*
X231225849Y-16849781D01*
X231319353Y-16725437D01*
X231445535Y-16641232D01*
X231592242Y-16610255D01*
X231634187Y-16613153D01*
X231764565Y-16651724D01*
X231882045Y-16723517D01*
X231959701Y-16813629D01*
X231970855Y-16839346D01*
X231997645Y-16945399D01*
X232006295Y-17040432D01*
X232008360Y-17063122D01*
X232000860Y-17167768D01*
X231967818Y-17247802D01*
X231894729Y-17332150D01*
X231890231Y-17336631D01*
X231808386Y-17406726D01*
X231729363Y-17438382D01*
X231618713Y-17445782D01*
X231456330Y-17445782D01*
X230749243Y-18155979D01*
X230042157Y-18866177D01*
X229996175Y-22007755D01*
X229663949Y-22346976D01*
X229580641Y-22432568D01*
X229473130Y-22546633D01*
X229403214Y-22628538D01*
X229364299Y-22687286D01*
X229349788Y-22731878D01*
X229353088Y-22771320D01*
X229358703Y-22803273D01*
X229348744Y-22905878D01*
X229346027Y-22933876D01*
X229288586Y-23066699D01*
X229196197Y-23176399D01*
X229145223Y-23214034D01*
X229052907Y-23250964D01*
X228927717Y-23261045D01*
X228909419Y-23260957D01*
X228804280Y-23252071D01*
X228728302Y-23219433D01*
X228648838Y-23150049D01*
X228632431Y-23132737D01*
X228557156Y-23026556D01*
X228515790Y-22921505D01*
X228514559Y-22879668D01*
X228799341Y-22879668D01*
X228840044Y-22953571D01*
X228863448Y-22971379D01*
X228933623Y-22993677D01*
X229014296Y-22968819D01*
X229057249Y-22905878D01*
X229055431Y-22824800D01*
X229003246Y-22745535D01*
X228979080Y-22727592D01*
X228907292Y-22712813D01*
X228845229Y-22743655D01*
X228805157Y-22804485D01*
X228799341Y-22879668D01*
X228514559Y-22879668D01*
X228512255Y-22801338D01*
X228558525Y-22657224D01*
X228651591Y-22537627D01*
X228780165Y-22455962D01*
X228932962Y-22425644D01*
X228942755Y-22425508D01*
X228997168Y-22417789D01*
X229053358Y-22392583D01*
X229122304Y-22342064D01*
X229214982Y-22258405D01*
X229342370Y-22133781D01*
X229635465Y-21842044D01*
X229635492Y-20788584D01*
X229635497Y-20766861D01*
X229635906Y-20537331D01*
X229636931Y-20251280D01*
X229638516Y-19917986D01*
X229640600Y-19546728D01*
X229643127Y-19146787D01*
X229646038Y-18727442D01*
X229649274Y-18297973D01*
X229652778Y-17867660D01*
X229656490Y-17445782D01*
X229677461Y-15156440D01*
X230391727Y-14436910D01*
X230462352Y-14365645D01*
X230635036Y-14190341D01*
X230789231Y-14032321D01*
X230919180Y-13897581D01*
X231019127Y-13792114D01*
X231083316Y-13721917D01*
X231105992Y-13692985D01*
X231088918Y-13672151D01*
X231027584Y-13618364D01*
X230932116Y-13541989D01*
X230813558Y-13452123D01*
X230521123Y-13235658D01*
X229317965Y-14437355D01*
X228114807Y-15639051D01*
X226594150Y-15660516D01*
X225073492Y-15681980D01*
X224480268Y-16271099D01*
X223887044Y-16860217D01*
X223887044Y-17984950D01*
X223887126Y-18150046D01*
X223887867Y-18427072D01*
X223889613Y-18646998D01*
X223892647Y-18816278D01*
X223897249Y-18941365D01*
X223903703Y-19028711D01*
X223912289Y-19084772D01*
X223923289Y-19115999D01*
X223936985Y-19128847D01*
X223944893Y-19132761D01*
X223997593Y-19181005D01*
X224053833Y-19257752D01*
X224098753Y-19351542D01*
X224122974Y-19498482D01*
X224119068Y-19517962D01*
X224095940Y-19633337D01*
X224027278Y-19748618D01*
X223926615Y-19836834D01*
X223803575Y-19890495D01*
X223667786Y-19902112D01*
X223528872Y-19864194D01*
X223396461Y-19769251D01*
X223375322Y-19747674D01*
X223317287Y-19674276D01*
X223291392Y-19596949D01*
X223285465Y-19484466D01*
X223285648Y-19466383D01*
X223556977Y-19466383D01*
X223573086Y-19542953D01*
X223601030Y-19575005D01*
X223678371Y-19610086D01*
X223760167Y-19603237D01*
X223819130Y-19553311D01*
X223833364Y-19517962D01*
X223830647Y-19433486D01*
X223780857Y-19373503D01*
X223695996Y-19357134D01*
X223678528Y-19359944D01*
X223595918Y-19399644D01*
X223556977Y-19466383D01*
X223285648Y-19466383D01*
X223285868Y-19444640D01*
X223296439Y-19346737D01*
X223331028Y-19273702D01*
X223402439Y-19193703D01*
X223519413Y-19076729D01*
X223519413Y-16693225D01*
X224940377Y-15273413D01*
X227948076Y-15273413D01*
X229061368Y-14159750D01*
X229289470Y-13931072D01*
X229521599Y-13696823D01*
X229711366Y-13503161D01*
X229861811Y-13346818D01*
X229975976Y-13224527D01*
X230056902Y-13133017D01*
X230107630Y-13069022D01*
X230131200Y-13029273D01*
X230130654Y-13010500D01*
X230128436Y-13008813D01*
X230077316Y-12978177D01*
X229980594Y-12925673D01*
X229851261Y-12858210D01*
X229702307Y-12782697D01*
X229503772Y-12688361D01*
X228980860Y-12479983D01*
X228422508Y-12309126D01*
X227845691Y-12180556D01*
X227267385Y-12099038D01*
X226654778Y-12068943D01*
X226007899Y-12100055D01*
X225361967Y-12193455D01*
X224723263Y-12347308D01*
X224098071Y-12559779D01*
X223492673Y-12829033D01*
X222913351Y-13153235D01*
X222366386Y-13530550D01*
X222364928Y-13531664D01*
X222224550Y-13647002D01*
X222053729Y-13799754D01*
X221865639Y-13976979D01*
X221673459Y-14165739D01*
X221490365Y-14353094D01*
X221329534Y-14526106D01*
X221204143Y-14671834D01*
X221142559Y-14749383D01*
X220808216Y-15220361D01*
X220503957Y-15734300D01*
X220239717Y-16273102D01*
X220025433Y-16818668D01*
X219971307Y-16985335D01*
X219892836Y-17258371D01*
X219822867Y-17538498D01*
X219765311Y-17808362D01*
X219724084Y-18050610D01*
X219703099Y-18247887D01*
X219692702Y-18431703D01*
X219208505Y-18431703D01*
X219238926Y-18078185D01*
X219364681Y-17383780D01*
X219556063Y-16697315D01*
X219584651Y-16612262D01*
X219837693Y-15976147D01*
X220148836Y-15368312D01*
X220514292Y-14792548D01*
X220930269Y-14252644D01*
X221392980Y-13752388D01*
X221898634Y-13295572D01*
X222443442Y-12885984D01*
X223023614Y-12527414D01*
X223635361Y-12223651D01*
X224274893Y-11978485D01*
X224834951Y-11817186D01*
X225529352Y-11679158D01*
X226228797Y-11607093D01*
X226930119Y-11600994D01*
X227630150Y-11660860D01*
X228325723Y-11786690D01*
X229013669Y-11978485D01*
X229098722Y-12007073D01*
X229734837Y-12260115D01*
X230342672Y-12571258D01*
X230918436Y-12936713D01*
X231458340Y-13352691D01*
X231958596Y-13815402D01*
X232415412Y-14321056D01*
X232825000Y-14865864D01*
X233183570Y-15446036D01*
X233487333Y-16057783D01*
X233732499Y-16697315D01*
X233893798Y-17257372D01*
X234031826Y-17951773D01*
X234103891Y-18651219D01*
X234109103Y-19250519D01*
X234109990Y-19352541D01*
G36*
X234109990Y-19352541D02*
G01*
X234050124Y-20052572D01*
X233924294Y-20748144D01*
X233732499Y-21436091D01*
X233620380Y-21751862D01*
X233346424Y-22379160D01*
X233017166Y-22974079D01*
X232636228Y-23533686D01*
X232207232Y-24055050D01*
X231733800Y-24535238D01*
X231219554Y-24971320D01*
X230668116Y-25360363D01*
X230083107Y-25699435D01*
X229468150Y-25985605D01*
X228826867Y-26215941D01*
X228162878Y-26387512D01*
X227479807Y-26497384D01*
X227380503Y-26506864D01*
X227148715Y-26520751D01*
X226881464Y-26528758D01*
X226599154Y-26530840D01*
X226322190Y-26526949D01*
X226070979Y-26517040D01*
X225865924Y-26501065D01*
X225699519Y-26481207D01*
X224998752Y-26357123D01*
X224320919Y-26170825D01*
X223668516Y-25923506D01*
X223044037Y-25616359D01*
X222449978Y-25250578D01*
X221888834Y-24827355D01*
X221363100Y-24347884D01*
X220915313Y-23861521D01*
X220490263Y-23308319D01*
X220123701Y-22723284D01*
X219814777Y-22105046D01*
X219562638Y-21452238D01*
X219392076Y-20864323D01*
X219255373Y-20173598D01*
X219184276Y-19476637D01*
X219179098Y-18816045D01*
X219642571Y-18816045D01*
X219642571Y-19079872D01*
X219648546Y-19325801D01*
X219688154Y-19792973D01*
X219761705Y-20275825D01*
X219865500Y-20758214D01*
X219995838Y-21223998D01*
X220149020Y-21657033D01*
X220321344Y-22041177D01*
X220474714Y-22341966D01*
X220476405Y-21919382D01*
X220478097Y-21496798D01*
X220378899Y-21390606D01*
X220285651Y-21254729D01*
X220249431Y-21104126D01*
X220250552Y-21098178D01*
X220551262Y-21098178D01*
X220559567Y-21151860D01*
X220590835Y-21198560D01*
X220663114Y-21215589D01*
X220751086Y-21215003D01*
X220799347Y-21181621D01*
X220812307Y-21103909D01*
X220791533Y-21024130D01*
X220725001Y-20970970D01*
X220626894Y-20969118D01*
X220585708Y-20982782D01*
X220552366Y-21020547D01*
X220551262Y-21098178D01*
X220250552Y-21098178D01*
X220277638Y-20954460D01*
X220370391Y-20813725D01*
X220495540Y-20716468D01*
X220642127Y-20670370D01*
X220790682Y-20686002D01*
X220890304Y-20732201D01*
X221006301Y-20835770D01*
X221076504Y-20967202D01*
X221096003Y-21103909D01*
X221097222Y-21112461D01*
X221064760Y-21257508D01*
X220975428Y-21388309D01*
X220879150Y-21484587D01*
X220879150Y-23037858D01*
X221068032Y-23291491D01*
X221176851Y-23426680D01*
X221329799Y-23599606D01*
X221510682Y-23792550D01*
X221707652Y-23993668D01*
X221908864Y-24191112D01*
X222102472Y-24373039D01*
X222276630Y-24527600D01*
X222419493Y-24642952D01*
X222483034Y-24689757D01*
X222585457Y-24762787D01*
X222660492Y-24813097D01*
X222695217Y-24831834D01*
X222699751Y-24825590D01*
X222708745Y-24770093D01*
X222714977Y-24669520D01*
X222717307Y-24538982D01*
X222717307Y-24246130D01*
X222215992Y-23745650D01*
X221714676Y-23245170D01*
X221714676Y-20934726D01*
X221318881Y-20543806D01*
X221180690Y-20407808D01*
X221070393Y-20302092D01*
X220989337Y-20230572D01*
X220928145Y-20186568D01*
X220877442Y-20163405D01*
X220827852Y-20154404D01*
X220769998Y-20152887D01*
X220731015Y-20151965D01*
X220614004Y-20129157D01*
X220514686Y-20066871D01*
X220415153Y-19952201D01*
X220364709Y-19819424D01*
X220364426Y-19768923D01*
X220644575Y-19768923D01*
X220685307Y-19845413D01*
X220708711Y-19863221D01*
X220778886Y-19885519D01*
X220816646Y-19879672D01*
X220880217Y-19832531D01*
X220910181Y-19757526D01*
X220900648Y-19678214D01*
X220845729Y-19618150D01*
X220772471Y-19601220D01*
X220700611Y-19629183D01*
X220653828Y-19690965D01*
X220644575Y-19768923D01*
X220364426Y-19768923D01*
X220363955Y-19684700D01*
X220405813Y-19557842D01*
X220483203Y-19448665D01*
X220589044Y-19366984D01*
X220716259Y-19322613D01*
X220857767Y-19325367D01*
X221006490Y-19385060D01*
X221057919Y-19424139D01*
X221144421Y-19533668D01*
X221196430Y-19662504D01*
X221200455Y-19757526D01*
X221201635Y-19785395D01*
X221199319Y-19808955D01*
X221207446Y-19847278D01*
X221234588Y-19895998D01*
X221286573Y-19962309D01*
X221369226Y-20053403D01*
X221488376Y-20176474D01*
X221649849Y-20338714D01*
X222115729Y-20803702D01*
X222115729Y-23071131D01*
X222600334Y-23565209D01*
X223084939Y-24059288D01*
X223084939Y-25098593D01*
X223418542Y-25266003D01*
X223536516Y-25324652D01*
X223652493Y-25381015D01*
X223734397Y-25419299D01*
X223769463Y-25433413D01*
X223770031Y-25432918D01*
X223774489Y-25393335D01*
X223778491Y-25296439D01*
X223781880Y-25150722D01*
X223784497Y-24964675D01*
X223786184Y-24746791D01*
X223786781Y-24505561D01*
X223786781Y-23577709D01*
X223285465Y-23077229D01*
X222784150Y-22576749D01*
X222784150Y-20604527D01*
X220996588Y-18816045D01*
X219642571Y-18816045D01*
X219179098Y-18816045D01*
X219178792Y-18776985D01*
X219208505Y-18431703D01*
X219692702Y-18431703D01*
X220427965Y-18440575D01*
X221163229Y-18449448D01*
X222174215Y-19459712D01*
X223185202Y-20469976D01*
X223185202Y-22443094D01*
X224153530Y-23409694D01*
X224154872Y-23577709D01*
X224162327Y-24511422D01*
X224171123Y-25613150D01*
X224430906Y-25697429D01*
X224690690Y-25781708D01*
X225066429Y-25407035D01*
X225276975Y-25197086D01*
X228334714Y-25197086D01*
X228343335Y-25273682D01*
X228396689Y-25331974D01*
X228406388Y-25337141D01*
X228465700Y-25362065D01*
X228509473Y-25350847D01*
X228568442Y-25297279D01*
X228603094Y-25259372D01*
X228618459Y-25213141D01*
X228589514Y-25155240D01*
X228545793Y-25106278D01*
X228485196Y-25071377D01*
X228421966Y-25076467D01*
X228363401Y-25124058D01*
X228334714Y-25197086D01*
X225276975Y-25197086D01*
X225442169Y-25032361D01*
X228039864Y-25032361D01*
X228169340Y-24915387D01*
X228184839Y-24901536D01*
X228271819Y-24835447D01*
X228354475Y-24805472D01*
X228466316Y-24798413D01*
X228468725Y-24798415D01*
X228582405Y-24806229D01*
X228665159Y-24838057D01*
X228751457Y-24907032D01*
X228772051Y-24926992D01*
X228865111Y-25062669D01*
X228893003Y-25212820D01*
X228892928Y-25213141D01*
X228855357Y-25375785D01*
X228836335Y-25414100D01*
X228743331Y-25525228D01*
X228620125Y-25603877D01*
X228489721Y-25633815D01*
X228430223Y-25629026D01*
X228307129Y-25594877D01*
X228199504Y-25537816D01*
X228133032Y-25469664D01*
X228128605Y-25461694D01*
X228115954Y-25445190D01*
X228095099Y-25431927D01*
X228059526Y-25421551D01*
X228002718Y-25413706D01*
X227918161Y-25408041D01*
X227799339Y-25404199D01*
X227639736Y-25401827D01*
X227432837Y-25400572D01*
X227172127Y-25400078D01*
X226851091Y-25399992D01*
X225606436Y-25399992D01*
X225373385Y-25635030D01*
X225269682Y-25742947D01*
X225202398Y-25823023D01*
X225176151Y-25872563D01*
X225186046Y-25898448D01*
X225193808Y-25902544D01*
X225269757Y-25925596D01*
X225400674Y-25951909D01*
X225576834Y-25979908D01*
X225788515Y-26008014D01*
X226025992Y-26034652D01*
X226254245Y-26053585D01*
X226880910Y-26061356D01*
X227513840Y-26007271D01*
X228145823Y-25893527D01*
X228769647Y-25722322D01*
X229378104Y-25495853D01*
X229963980Y-25216318D01*
X230520066Y-24885915D01*
X231039150Y-24506841D01*
X231040699Y-24505587D01*
X231186835Y-24379688D01*
X231360098Y-24218509D01*
X231547548Y-24035226D01*
X231736245Y-23843017D01*
X231913252Y-23655058D01*
X232065628Y-23484526D01*
X232180434Y-23344598D01*
X232263231Y-23233554D01*
X232602402Y-22720726D01*
X232900936Y-22171936D01*
X233154246Y-21598513D01*
X233357749Y-21011786D01*
X233506861Y-20423086D01*
X233596996Y-19843742D01*
X233620358Y-19618150D01*
X232858804Y-19618150D01*
X232634109Y-19844581D01*
X232409413Y-20071012D01*
X232409413Y-20795905D01*
X232409519Y-20958252D01*
X232410438Y-21157710D01*
X232412946Y-21304680D01*
X232417802Y-21407853D01*
X232425767Y-21475919D01*
X232437599Y-21517570D01*
X232454060Y-21541495D01*
X232475909Y-21556386D01*
X232488652Y-21563965D01*
X232567024Y-21647650D01*
X232622382Y-21770103D01*
X232643360Y-21907492D01*
X232642654Y-21935586D01*
X232605650Y-22096918D01*
X232516998Y-22219706D01*
X232383025Y-22297851D01*
X232210055Y-22325255D01*
X232134596Y-22319646D01*
X232045596Y-22286207D01*
X231949382Y-22210850D01*
X231897703Y-22161389D01*
X231849101Y-22097294D01*
X231828694Y-22023664D01*
X231824699Y-21916092D01*
X232075202Y-21916092D01*
X232085364Y-21947921D01*
X232127721Y-22005368D01*
X232166881Y-22035973D01*
X232225597Y-22057887D01*
X232288884Y-22033099D01*
X232349396Y-21973345D01*
X232375992Y-21907492D01*
X232350539Y-21843518D01*
X232291862Y-21783531D01*
X232228390Y-21757098D01*
X232215181Y-21759110D01*
X232155232Y-21795731D01*
X232099664Y-21857304D01*
X232075202Y-21916092D01*
X231824699Y-21916092D01*
X231824544Y-21911917D01*
X231825188Y-21859387D01*
X231835938Y-21762418D01*
X231868345Y-21690849D01*
X231933163Y-21615323D01*
X232041781Y-21503257D01*
X232041781Y-19900975D01*
X232368234Y-19575747D01*
X232694688Y-19250519D01*
X233656286Y-19250519D01*
X233634031Y-18784323D01*
X233631485Y-18733157D01*
X233621587Y-18564574D01*
X233610939Y-18421366D01*
X233600665Y-18317338D01*
X233591887Y-18266296D01*
X233588025Y-18258888D01*
X233566274Y-18242487D01*
X233521071Y-18230620D01*
X233443740Y-18222611D01*
X233325605Y-18217786D01*
X233157990Y-18215470D01*
X232932219Y-18214989D01*
X232292439Y-18215511D01*
X231817779Y-18657818D01*
X231343118Y-19100124D01*
X231341529Y-21055528D01*
X231339939Y-23010932D01*
X230579343Y-23770988D01*
X229975339Y-24374564D01*
X229818748Y-24531045D01*
X226099903Y-24531045D01*
X225993711Y-24630243D01*
X225857833Y-24723491D01*
X225707231Y-24759711D01*
X225557565Y-24731504D01*
X225416830Y-24638751D01*
X225319573Y-24513602D01*
X225273475Y-24367015D01*
X225279179Y-24312807D01*
X225561134Y-24312807D01*
X225578349Y-24389005D01*
X225620637Y-24429087D01*
X225695108Y-24456227D01*
X225767812Y-24453932D01*
X225811588Y-24418740D01*
X225820726Y-24374564D01*
X225819753Y-24291173D01*
X225816707Y-24274305D01*
X225785945Y-24226261D01*
X225712134Y-24213545D01*
X225679943Y-24215846D01*
X225598931Y-24249930D01*
X225561134Y-24312807D01*
X225279179Y-24312807D01*
X225289107Y-24218459D01*
X225335306Y-24118838D01*
X225438875Y-24002841D01*
X225570307Y-23932638D01*
X225715565Y-23911920D01*
X225860613Y-23944382D01*
X225991414Y-24033714D01*
X226087692Y-24129992D01*
X229686257Y-24129992D01*
X230312572Y-23503026D01*
X230938886Y-22876060D01*
X230938886Y-18962006D01*
X232125334Y-17847886D01*
X232818821Y-17847360D01*
X233512307Y-17846834D01*
X233512073Y-17771637D01*
X233511360Y-17748234D01*
X233491656Y-17604894D01*
X233447847Y-17415157D01*
X233383806Y-17190501D01*
X233303408Y-16942406D01*
X233210525Y-16682350D01*
X233109032Y-16421814D01*
X233002804Y-16172276D01*
X232895713Y-15945216D01*
X232842662Y-15842727D01*
X232752866Y-15679153D01*
X232652904Y-15505796D01*
X232548880Y-15332395D01*
X232446896Y-15168685D01*
X232353055Y-15024406D01*
X232273459Y-14909293D01*
X232214212Y-14833085D01*
X232181416Y-14805519D01*
X232159728Y-14820844D01*
X232097103Y-14876715D01*
X232002342Y-14966222D01*
X231883553Y-15081682D01*
X231748845Y-15215409D01*
X231739173Y-15225105D01*
X231593771Y-15371524D01*
X231488790Y-15480317D01*
X231417647Y-15560495D01*
X231373761Y-15621064D01*
X231350548Y-15671034D01*
X231341427Y-15719414D01*
X231339814Y-15775212D01*
X231330481Y-15841646D01*
X231319063Y-15922936D01*
X231251500Y-16061708D01*
X231148343Y-16163186D01*
X231021255Y-16222255D01*
X230881899Y-16233803D01*
X230741937Y-16192715D01*
X230613031Y-16093878D01*
X230545131Y-16009234D01*
X230512339Y-15925559D01*
X230504413Y-15811205D01*
X230505204Y-15790068D01*
X230775924Y-15790068D01*
X230792034Y-15866637D01*
X230819978Y-15898690D01*
X230897319Y-15933770D01*
X230979114Y-15926922D01*
X231038078Y-15876995D01*
X231052312Y-15841646D01*
X231049594Y-15757171D01*
X230999804Y-15697187D01*
X230914944Y-15680818D01*
X230897475Y-15683628D01*
X230814866Y-15723329D01*
X230775924Y-15790068D01*
X230505204Y-15790068D01*
X230507070Y-15740229D01*
X230531212Y-15635277D01*
X230589059Y-15545577D01*
X230640758Y-15494993D01*
X230750750Y-15425409D01*
X230866704Y-15386225D01*
X230964071Y-15387773D01*
X230970939Y-15388894D01*
X231012416Y-15374746D01*
X231079506Y-15327567D01*
X231177043Y-15243249D01*
X231309862Y-15117682D01*
X231482798Y-14946753D01*
X231941870Y-14486801D01*
X231674086Y-14220587D01*
X231406301Y-13954373D01*
X230721410Y-14638653D01*
X230036518Y-15322933D01*
X230036518Y-18330702D01*
X230604676Y-17763282D01*
X230631775Y-17736213D01*
X230804302Y-17563290D01*
X230935665Y-17429511D01*
X231031464Y-17327964D01*
X231097297Y-17251737D01*
X231138765Y-17193919D01*
X231161465Y-17147599D01*
X231170996Y-17105866D01*
X231172959Y-17061808D01*
X231174312Y-17042342D01*
X231440202Y-17042342D01*
X231450536Y-17071106D01*
X231492721Y-17125895D01*
X231566446Y-17169863D01*
X231649520Y-17168876D01*
X231714650Y-17123341D01*
X231740992Y-17040432D01*
X231740775Y-17034894D01*
X231714562Y-16966582D01*
X231661312Y-16904628D01*
X231604920Y-16877624D01*
X231575616Y-16888858D01*
X231517236Y-16935346D01*
X231463673Y-16994932D01*
X231440202Y-17042342D01*
X231174312Y-17042342D01*
X231177174Y-17001179D01*
X231225849Y-16849781D01*
X231319353Y-16725437D01*
X231445535Y-16641232D01*
X231592242Y-16610255D01*
X231634187Y-16613153D01*
X231764565Y-16651724D01*
X231882045Y-16723517D01*
X231959701Y-16813629D01*
X231970855Y-16839346D01*
X231997645Y-16945399D01*
X232006295Y-17040432D01*
X232008360Y-17063122D01*
X232000860Y-17167768D01*
X231967818Y-17247802D01*
X231894729Y-17332150D01*
X231890231Y-17336631D01*
X231808386Y-17406726D01*
X231729363Y-17438382D01*
X231618713Y-17445782D01*
X231456330Y-17445782D01*
X230749243Y-18155979D01*
X230042157Y-18866177D01*
X229996175Y-22007755D01*
X229663949Y-22346976D01*
X229580641Y-22432568D01*
X229473130Y-22546633D01*
X229403214Y-22628538D01*
X229364299Y-22687286D01*
X229349788Y-22731878D01*
X229353088Y-22771320D01*
X229358703Y-22803273D01*
X229348744Y-22905878D01*
X229346027Y-22933876D01*
X229288586Y-23066699D01*
X229196197Y-23176399D01*
X229145223Y-23214034D01*
X229052907Y-23250964D01*
X228927717Y-23261045D01*
X228909419Y-23260957D01*
X228804280Y-23252071D01*
X228728302Y-23219433D01*
X228648838Y-23150049D01*
X228632431Y-23132737D01*
X228557156Y-23026556D01*
X228515790Y-22921505D01*
X228514559Y-22879668D01*
X228799341Y-22879668D01*
X228840044Y-22953571D01*
X228863448Y-22971379D01*
X228933623Y-22993677D01*
X229014296Y-22968819D01*
X229057249Y-22905878D01*
X229055431Y-22824800D01*
X229003246Y-22745535D01*
X228979080Y-22727592D01*
X228907292Y-22712813D01*
X228845229Y-22743655D01*
X228805157Y-22804485D01*
X228799341Y-22879668D01*
X228514559Y-22879668D01*
X228512255Y-22801338D01*
X228558525Y-22657224D01*
X228651591Y-22537627D01*
X228780165Y-22455962D01*
X228932962Y-22425644D01*
X228942755Y-22425508D01*
X228997168Y-22417789D01*
X229053358Y-22392583D01*
X229122304Y-22342064D01*
X229214982Y-22258405D01*
X229342370Y-22133781D01*
X229635465Y-21842044D01*
X229635492Y-20788584D01*
X229635497Y-20766861D01*
X229635906Y-20537331D01*
X229636931Y-20251280D01*
X229638516Y-19917986D01*
X229640600Y-19546728D01*
X229643127Y-19146787D01*
X229646038Y-18727442D01*
X229649274Y-18297973D01*
X229652778Y-17867660D01*
X229656490Y-17445782D01*
X229677461Y-15156440D01*
X230391727Y-14436910D01*
X230462352Y-14365645D01*
X230635036Y-14190341D01*
X230789231Y-14032321D01*
X230919180Y-13897581D01*
X231019127Y-13792114D01*
X231083316Y-13721917D01*
X231105992Y-13692985D01*
X231088918Y-13672151D01*
X231027584Y-13618364D01*
X230932116Y-13541989D01*
X230813558Y-13452123D01*
X230521123Y-13235658D01*
X229317965Y-14437355D01*
X228114807Y-15639051D01*
X226594150Y-15660516D01*
X225073492Y-15681980D01*
X224480268Y-16271099D01*
X223887044Y-16860217D01*
X223887044Y-17984950D01*
X223887126Y-18150046D01*
X223887867Y-18427072D01*
X223889613Y-18646998D01*
X223892647Y-18816278D01*
X223897249Y-18941365D01*
X223903703Y-19028711D01*
X223912289Y-19084772D01*
X223923289Y-19115999D01*
X223936985Y-19128847D01*
X223944893Y-19132761D01*
X223997593Y-19181005D01*
X224053833Y-19257752D01*
X224098753Y-19351542D01*
X224122974Y-19498482D01*
X224119068Y-19517962D01*
X224095940Y-19633337D01*
X224027278Y-19748618D01*
X223926615Y-19836834D01*
X223803575Y-19890495D01*
X223667786Y-19902112D01*
X223528872Y-19864194D01*
X223396461Y-19769251D01*
X223375322Y-19747674D01*
X223317287Y-19674276D01*
X223291392Y-19596949D01*
X223285465Y-19484466D01*
X223285648Y-19466383D01*
X223556977Y-19466383D01*
X223573086Y-19542953D01*
X223601030Y-19575005D01*
X223678371Y-19610086D01*
X223760167Y-19603237D01*
X223819130Y-19553311D01*
X223833364Y-19517962D01*
X223830647Y-19433486D01*
X223780857Y-19373503D01*
X223695996Y-19357134D01*
X223678528Y-19359944D01*
X223595918Y-19399644D01*
X223556977Y-19466383D01*
X223285648Y-19466383D01*
X223285868Y-19444640D01*
X223296439Y-19346737D01*
X223331028Y-19273702D01*
X223402439Y-19193703D01*
X223519413Y-19076729D01*
X223519413Y-16693225D01*
X224940377Y-15273413D01*
X227948076Y-15273413D01*
X229061368Y-14159750D01*
X229289470Y-13931072D01*
X229521599Y-13696823D01*
X229711366Y-13503161D01*
X229861811Y-13346818D01*
X229975976Y-13224527D01*
X230056902Y-13133017D01*
X230107630Y-13069022D01*
X230131200Y-13029273D01*
X230130654Y-13010500D01*
X230128436Y-13008813D01*
X230077316Y-12978177D01*
X229980594Y-12925673D01*
X229851261Y-12858210D01*
X229702307Y-12782697D01*
X229503772Y-12688361D01*
X228980860Y-12479983D01*
X228422508Y-12309126D01*
X227845691Y-12180556D01*
X227267385Y-12099038D01*
X226654778Y-12068943D01*
X226007899Y-12100055D01*
X225361967Y-12193455D01*
X224723263Y-12347308D01*
X224098071Y-12559779D01*
X223492673Y-12829033D01*
X222913351Y-13153235D01*
X222366386Y-13530550D01*
X222364928Y-13531664D01*
X222224550Y-13647002D01*
X222053729Y-13799754D01*
X221865639Y-13976979D01*
X221673459Y-14165739D01*
X221490365Y-14353094D01*
X221329534Y-14526106D01*
X221204143Y-14671834D01*
X221142559Y-14749383D01*
X220808216Y-15220361D01*
X220503957Y-15734300D01*
X220239717Y-16273102D01*
X220025433Y-16818668D01*
X219971307Y-16985335D01*
X219892836Y-17258371D01*
X219822867Y-17538498D01*
X219765311Y-17808362D01*
X219724084Y-18050610D01*
X219703099Y-18247887D01*
X219692702Y-18431703D01*
X219208505Y-18431703D01*
X219238926Y-18078185D01*
X219364681Y-17383780D01*
X219556063Y-16697315D01*
X219584651Y-16612262D01*
X219837693Y-15976147D01*
X220148836Y-15368312D01*
X220514292Y-14792548D01*
X220930269Y-14252644D01*
X221392980Y-13752388D01*
X221898634Y-13295572D01*
X222443442Y-12885984D01*
X223023614Y-12527414D01*
X223635361Y-12223651D01*
X224274893Y-11978485D01*
X224834951Y-11817186D01*
X225529352Y-11679158D01*
X226228797Y-11607093D01*
X226930119Y-11600994D01*
X227630150Y-11660860D01*
X228325723Y-11786690D01*
X229013669Y-11978485D01*
X229098722Y-12007073D01*
X229734837Y-12260115D01*
X230342672Y-12571258D01*
X230918436Y-12936713D01*
X231458340Y-13352691D01*
X231958596Y-13815402D01*
X232415412Y-14321056D01*
X232825000Y-14865864D01*
X233183570Y-15446036D01*
X233487333Y-16057783D01*
X233732499Y-16697315D01*
X233893798Y-17257372D01*
X234031826Y-17951773D01*
X234103891Y-18651219D01*
X234109103Y-19250519D01*
X234109990Y-19352541D01*
G37*
%TD*%
D13*
%TO.C,MX4*%
X57427833Y0D03*
D14*
X62507833Y0D03*
D13*
X67587833Y0D03*
D15*
X58697833Y2540000D03*
X65047833Y5080000D03*
%TD*%
D13*
%TO.C,MX5*%
X76477833Y0D03*
D14*
X81557833Y0D03*
D13*
X86637833Y0D03*
D15*
X77747833Y2540000D03*
X84097833Y5080000D03*
%TD*%
D13*
%TO.C,MX7*%
X119935714Y0D03*
D14*
X125015714Y0D03*
D13*
X130095714Y0D03*
D15*
X121205714Y2540000D03*
X127555714Y5080000D03*
%TD*%
D13*
%TO.C,MX8*%
X138985714Y0D03*
D14*
X144065714Y0D03*
D13*
X149145714Y0D03*
D15*
X140255714Y2540000D03*
X146605714Y5080000D03*
%TD*%
D13*
%TO.C,MX9*%
X158035714Y0D03*
D14*
X163115714Y0D03*
D13*
X168195714Y0D03*
D15*
X159305714Y2540000D03*
X165655714Y5080000D03*
%TD*%
D13*
%TO.C,MX10*%
X182443595Y0D03*
D14*
X187523595Y0D03*
D13*
X192603595Y0D03*
D15*
X183713595Y2540000D03*
X190063595Y5080000D03*
%TD*%
D13*
%TO.C,MX12*%
X220543595Y0D03*
D14*
X225623595Y0D03*
D13*
X230703595Y0D03*
D15*
X221813595Y2540000D03*
X228163595Y5080000D03*
%TD*%
D13*
%TO.C,MX23*%
X13970000Y-38100000D03*
D14*
X19050000Y-38100000D03*
D13*
X24130000Y-38100000D03*
D15*
X15240000Y-35560000D03*
X21590000Y-33020000D03*
%TD*%
D13*
%TO.C,MX24*%
X33020000Y-38100000D03*
D14*
X38100000Y-38100000D03*
D13*
X43180000Y-38100000D03*
D15*
X34290000Y-35560000D03*
X40640000Y-33020000D03*
%TD*%
D13*
%TO.C,MX25*%
X52070000Y-38100000D03*
D14*
X57150000Y-38100000D03*
D13*
X62230000Y-38100000D03*
D15*
X53340000Y-35560000D03*
X59690000Y-33020000D03*
%TD*%
D13*
%TO.C,MX26*%
X71120000Y-38100000D03*
D14*
X76200000Y-38100000D03*
D13*
X81280000Y-38100000D03*
D15*
X72390000Y-35560000D03*
X78740000Y-33020000D03*
%TD*%
D13*
%TO.C,MX27*%
X90170000Y-38100000D03*
D14*
X95250000Y-38100000D03*
D13*
X100330000Y-38100000D03*
D15*
X91440000Y-35560000D03*
X97790000Y-33020000D03*
%TD*%
D13*
%TO.C,MX28*%
X109220000Y-38100000D03*
D14*
X114300000Y-38100000D03*
D13*
X119380000Y-38100000D03*
D15*
X110490000Y-35560000D03*
X116840000Y-33020000D03*
%TD*%
D13*
%TO.C,MX29*%
X128270000Y-38100000D03*
D14*
X133350000Y-38100000D03*
D13*
X138430000Y-38100000D03*
D15*
X129540000Y-35560000D03*
X135890000Y-33020000D03*
%TD*%
D13*
%TO.C,MX30*%
X147320000Y-38100000D03*
D14*
X152400000Y-38100000D03*
D13*
X157480000Y-38100000D03*
D15*
X148590000Y-35560000D03*
X154940000Y-33020000D03*
%TD*%
D13*
%TO.C,MX31*%
X166370000Y-38100000D03*
D14*
X171450000Y-38100000D03*
D13*
X176530000Y-38100000D03*
D15*
X167640000Y-35560000D03*
X173990000Y-33020000D03*
%TD*%
D13*
%TO.C,MX33*%
X204470000Y-38100000D03*
D14*
X209550000Y-38100000D03*
D13*
X214630000Y-38100000D03*
D15*
X205740000Y-35560000D03*
X212090000Y-33020000D03*
%TD*%
D13*
%TO.C,MX34*%
X223520000Y-38100000D03*
D14*
X228600000Y-38100000D03*
D13*
X233680000Y-38100000D03*
D15*
X224790000Y-35560000D03*
X231140000Y-33020000D03*
%TD*%
D13*
%TO.C,MX35*%
X252095000Y-38100000D03*
D14*
X257175000Y-38100000D03*
D13*
X262255000Y-38100000D03*
D15*
X253365000Y-35560000D03*
X259715000Y-33020000D03*
%TD*%
D13*
%TO.C,MX40*%
X-317500Y-57150000D03*
D14*
X4762500Y-57150000D03*
D13*
X9842500Y-57150000D03*
D15*
X952500Y-54610000D03*
X7302500Y-52070000D03*
%TD*%
D13*
%TO.C,MX41*%
X23495000Y-57150000D03*
D14*
X28575000Y-57150000D03*
D13*
X33655000Y-57150000D03*
D15*
X24765000Y-54610000D03*
X31115000Y-52070000D03*
%TD*%
D13*
%TO.C,MX42*%
X42545000Y-57150000D03*
D14*
X47625000Y-57150000D03*
D13*
X52705000Y-57150000D03*
D15*
X43815000Y-54610000D03*
X50165000Y-52070000D03*
%TD*%
D13*
%TO.C,MX43*%
X61595000Y-57150000D03*
D14*
X66675000Y-57150000D03*
D13*
X71755000Y-57150000D03*
D15*
X62865000Y-54610000D03*
X69215000Y-52070000D03*
%TD*%
D13*
%TO.C,MX44*%
X80645000Y-57150000D03*
D14*
X85725000Y-57150000D03*
D13*
X90805000Y-57150000D03*
D15*
X81915000Y-54610000D03*
X88265000Y-52070000D03*
%TD*%
D13*
%TO.C,MX45*%
X99695000Y-57150000D03*
D14*
X104775000Y-57150000D03*
D13*
X109855000Y-57150000D03*
D15*
X100965000Y-54610000D03*
X107315000Y-52070000D03*
%TD*%
D13*
%TO.C,MX46*%
X118745000Y-57150000D03*
D14*
X123825000Y-57150000D03*
D13*
X128905000Y-57150000D03*
D15*
X120015000Y-54610000D03*
X126365000Y-52070000D03*
%TD*%
D13*
%TO.C,MX47*%
X137795000Y-57150000D03*
D14*
X142875000Y-57150000D03*
D13*
X147955000Y-57150000D03*
D15*
X139065000Y-54610000D03*
X145415000Y-52070000D03*
%TD*%
D13*
%TO.C,MX48*%
X156845000Y-57150000D03*
D14*
X161925000Y-57150000D03*
D13*
X167005000Y-57150000D03*
D15*
X158115000Y-54610000D03*
X164465000Y-52070000D03*
%TD*%
D13*
%TO.C,MX49*%
X175895000Y-57150000D03*
D14*
X180975000Y-57150000D03*
D13*
X186055000Y-57150000D03*
D15*
X177165000Y-54610000D03*
X183515000Y-52070000D03*
%TD*%
D13*
%TO.C,MX50*%
X194945000Y-57150000D03*
D14*
X200025000Y-57150000D03*
D13*
X205105000Y-57150000D03*
D15*
X196215000Y-54610000D03*
X202565000Y-52070000D03*
%TD*%
D13*
%TO.C,MX51*%
X213995000Y-57150000D03*
D14*
X219075000Y-57150000D03*
D13*
X224155000Y-57150000D03*
D15*
X215265000Y-54610000D03*
X221615000Y-52070000D03*
%TD*%
D13*
%TO.C,MX52*%
X233045000Y-57150000D03*
D14*
X238125000Y-57150000D03*
D13*
X243205000Y-57150000D03*
D15*
X234315000Y-54610000D03*
X240665000Y-52070000D03*
%TD*%
D13*
%TO.C,MX53*%
X256857500Y-57150000D03*
D14*
X261937500Y-57150000D03*
D13*
X267017500Y-57150000D03*
D15*
X258127500Y-54610000D03*
X264477500Y-52070000D03*
%TD*%
D13*
%TO.C,MX58*%
X2063750Y-76200000D03*
D14*
X7143750Y-76200000D03*
D13*
X12223750Y-76200000D03*
D15*
X3333750Y-73660000D03*
X9683750Y-71120000D03*
%TD*%
D13*
%TO.C,MX60*%
X28257500Y-76200000D03*
D14*
X33337500Y-76200000D03*
D13*
X38417500Y-76200000D03*
D15*
X29527500Y-73660000D03*
X35877500Y-71120000D03*
%TD*%
D13*
%TO.C,MX61*%
X47307500Y-76200000D03*
D14*
X52387500Y-76200000D03*
D13*
X57467500Y-76200000D03*
D15*
X48577500Y-73660000D03*
X54927500Y-71120000D03*
%TD*%
D13*
%TO.C,MX62*%
X66357500Y-76200000D03*
D14*
X71437500Y-76200000D03*
D13*
X76517500Y-76200000D03*
D15*
X67627500Y-73660000D03*
X73977500Y-71120000D03*
%TD*%
D13*
%TO.C,MX63*%
X85407500Y-76200000D03*
D14*
X90487500Y-76200000D03*
D13*
X95567500Y-76200000D03*
D15*
X86677500Y-73660000D03*
X93027500Y-71120000D03*
%TD*%
D13*
%TO.C,MX64*%
X104457500Y-76200000D03*
D14*
X109537500Y-76200000D03*
D13*
X114617500Y-76200000D03*
D15*
X105727500Y-73660000D03*
X112077500Y-71120000D03*
%TD*%
D13*
%TO.C,MX65*%
X123507500Y-76200000D03*
D14*
X128587500Y-76200000D03*
D13*
X133667500Y-76200000D03*
D15*
X124777500Y-73660000D03*
X131127500Y-71120000D03*
%TD*%
D13*
%TO.C,MX66*%
X142557500Y-76200000D03*
D14*
X147637500Y-76200000D03*
D13*
X152717500Y-76200000D03*
D15*
X143827500Y-73660000D03*
X150177500Y-71120000D03*
%TD*%
D13*
%TO.C,MX67*%
X161607500Y-76200000D03*
D14*
X166687500Y-76200000D03*
D13*
X171767500Y-76200000D03*
D15*
X162877500Y-73660000D03*
X169227500Y-71120000D03*
%TD*%
D13*
%TO.C,MX68*%
X180657500Y-76200000D03*
D14*
X185737500Y-76200000D03*
D13*
X190817500Y-76200000D03*
D15*
X181927500Y-73660000D03*
X188277500Y-71120000D03*
%TD*%
D13*
%TO.C,MX69*%
X199707500Y-76200000D03*
D14*
X204787500Y-76200000D03*
D13*
X209867500Y-76200000D03*
D15*
X200977500Y-73660000D03*
X207327500Y-71120000D03*
%TD*%
D13*
%TO.C,MX70*%
X218757500Y-76200000D03*
D14*
X223837500Y-76200000D03*
D13*
X228917500Y-76200000D03*
D15*
X220027500Y-73660000D03*
X226377500Y-71120000D03*
%TD*%
D13*
%TO.C,MX71*%
X237807500Y-76200000D03*
D14*
X242887500Y-76200000D03*
D13*
X247967500Y-76200000D03*
D15*
X239077500Y-73660000D03*
X245427500Y-71120000D03*
%TD*%
D13*
%TO.C,MX72*%
X264318750Y-61595000D03*
D14*
X264318750Y-66675000D03*
D13*
X264318750Y-71755000D03*
D15*
X266858750Y-62865000D03*
X269398750Y-69215000D03*
%TD*%
D13*
%TO.C,MX73*%
X249713750Y-76200000D03*
D14*
X254793750Y-76200000D03*
D13*
X259873750Y-76200000D03*
D15*
X250983750Y-73660000D03*
X257333750Y-71120000D03*
%TD*%
D13*
%TO.C,MX78*%
X-2698750Y-95250000D03*
D14*
X2381250Y-95250000D03*
D13*
X7461250Y-95250000D03*
D15*
X-1428750Y-92710000D03*
X4921250Y-90170000D03*
%TD*%
D13*
%TO.C,MX79*%
X6826250Y-95250000D03*
D14*
X11906250Y-95250000D03*
D13*
X16986250Y-95250000D03*
D15*
X8096250Y-92710000D03*
X14446250Y-90170000D03*
%TD*%
D13*
%TO.C,MX80*%
X18732500Y-95250000D03*
D14*
X23812500Y-95250000D03*
D13*
X28892500Y-95250000D03*
D15*
X20002500Y-92710000D03*
X26352500Y-90170000D03*
%TD*%
D13*
%TO.C,MX82*%
X56832500Y-95250000D03*
D14*
X61912500Y-95250000D03*
D13*
X66992500Y-95250000D03*
D15*
X58102500Y-92710000D03*
X64452500Y-90170000D03*
%TD*%
D13*
%TO.C,MX83*%
X75882500Y-95250000D03*
D14*
X80962500Y-95250000D03*
D13*
X86042500Y-95250000D03*
D15*
X77152500Y-92710000D03*
X83502500Y-90170000D03*
%TD*%
D13*
%TO.C,MX84*%
X94932500Y-95250000D03*
D14*
X100012500Y-95250000D03*
D13*
X105092500Y-95250000D03*
D15*
X96202500Y-92710000D03*
X102552500Y-90170000D03*
%TD*%
D13*
%TO.C,MX85*%
X113982500Y-95250000D03*
D14*
X119062500Y-95250000D03*
D13*
X124142500Y-95250000D03*
D15*
X115252500Y-92710000D03*
X121602500Y-90170000D03*
%TD*%
D13*
%TO.C,MX86*%
X133032500Y-95250000D03*
D14*
X138112500Y-95250000D03*
D13*
X143192500Y-95250000D03*
D15*
X134302500Y-92710000D03*
X140652500Y-90170000D03*
%TD*%
D13*
%TO.C,MX87*%
X152082500Y-95250000D03*
D14*
X157162500Y-95250000D03*
D13*
X162242500Y-95250000D03*
D15*
X153352500Y-92710000D03*
X159702500Y-90170000D03*
%TD*%
D13*
%TO.C,MX88*%
X171132500Y-95250000D03*
D14*
X176212500Y-95250000D03*
D13*
X181292500Y-95250000D03*
D15*
X172402500Y-92710000D03*
X178752500Y-90170000D03*
%TD*%
D13*
%TO.C,MX89*%
X190182500Y-95250000D03*
D14*
X195262500Y-95250000D03*
D13*
X200342500Y-95250000D03*
D15*
X191452500Y-92710000D03*
X197802500Y-90170000D03*
%TD*%
D13*
%TO.C,MX90*%
X209232500Y-95250000D03*
D14*
X214312500Y-95250000D03*
D13*
X219392500Y-95250000D03*
D15*
X210502500Y-92710000D03*
X216852500Y-90170000D03*
%TD*%
D13*
%TO.C,MX91*%
X235426250Y-95250000D03*
D14*
X240506250Y-95250000D03*
D13*
X245586250Y-95250000D03*
D15*
X236696250Y-92710000D03*
X243046250Y-90170000D03*
%TD*%
D13*
%TO.C,MX93*%
X291385890Y-95250000D03*
D14*
X296465890Y-95250000D03*
D13*
X301545890Y-95250000D03*
D15*
X292655890Y-92710000D03*
X299005890Y-90170000D03*
%TD*%
D13*
%TO.C,MX94*%
X310435890Y-95250000D03*
D14*
X315515890Y-95250000D03*
D13*
X320595890Y-95250000D03*
D15*
X311705890Y-92710000D03*
X318055890Y-90170000D03*
%TD*%
D13*
%TO.C,MX95*%
X329485890Y-95250000D03*
D14*
X334565890Y-95250000D03*
D13*
X339645890Y-95250000D03*
D15*
X330755890Y-92710000D03*
X337105890Y-90170000D03*
%TD*%
D13*
%TO.C,MX97*%
X-5080000Y-114300000D03*
D14*
X0Y-114300000D03*
D13*
X5080000Y-114300000D03*
D15*
X-3810000Y-111760000D03*
X2540000Y-109220000D03*
%TD*%
D13*
%TO.C,MX102*%
X99695000Y-114300000D03*
D14*
X104775000Y-114300000D03*
D13*
X109855000Y-114300000D03*
D15*
X100965000Y-111760000D03*
X107315000Y-109220000D03*
%TD*%
D13*
%TO.C,MX105*%
X166370000Y-114300000D03*
D14*
X171450000Y-114300000D03*
D13*
X176530000Y-114300000D03*
D15*
X167640000Y-111760000D03*
X173990000Y-109220000D03*
%TD*%
D13*
%TO.C,MX107*%
X185420000Y-114300000D03*
D14*
X190500000Y-114300000D03*
D13*
X195580000Y-114300000D03*
D15*
X186690000Y-111760000D03*
X193040000Y-109220000D03*
%TD*%
D13*
%TO.C,MX108*%
X204470000Y-114300000D03*
D14*
X209550000Y-114300000D03*
D13*
X214630000Y-114300000D03*
D15*
X205740000Y-111760000D03*
X212090000Y-109220000D03*
%TD*%
D13*
%TO.C,MX109*%
X223520000Y-114300000D03*
D14*
X228600000Y-114300000D03*
D13*
X233680000Y-114300000D03*
D15*
X224790000Y-111760000D03*
X231140000Y-109220000D03*
%TD*%
D13*
%TO.C,MX112*%
X266978025Y-119657913D03*
D14*
X272058025Y-119657913D03*
D13*
X277138025Y-119657913D03*
D15*
X268248025Y-117117913D03*
X274598025Y-114577913D03*
%TD*%
D13*
%TO.C,MX113*%
X286028025Y-119657913D03*
D14*
X291108025Y-119657913D03*
D13*
X296188025Y-119657913D03*
D15*
X287298025Y-117117913D03*
X293648025Y-114577913D03*
%TD*%
D13*
%TO.C,MX115*%
X329485890Y-114300000D03*
D14*
X334565890Y-114300000D03*
D13*
X339645890Y-114300000D03*
D15*
X330755890Y-111760000D03*
X337105890Y-109220000D03*
%TD*%
D13*
%TO.C,MX99*%
X13970000Y-114300000D03*
D14*
X19050000Y-114300000D03*
D13*
X24130000Y-114300000D03*
D15*
X15240000Y-111760000D03*
X21590000Y-109220000D03*
%TD*%
D13*
%TO.C,MX100*%
X33020000Y-114300000D03*
D14*
X38100000Y-114300000D03*
D13*
X43180000Y-114300000D03*
D15*
X34290000Y-111760000D03*
X40640000Y-109220000D03*
%TD*%
D13*
%TO.C,MX81*%
X37782500Y-95250000D03*
D14*
X42862500Y-95250000D03*
D13*
X47942500Y-95250000D03*
D15*
X39052500Y-92710000D03*
X45402500Y-90170000D03*
%TD*%
D13*
%TO.C,MX32*%
X185420000Y-38100000D03*
D14*
X190500000Y-38100000D03*
D13*
X195580000Y-38100000D03*
D15*
X186690000Y-35560000D03*
X193040000Y-33020000D03*
%TD*%
D13*
%TO.C,MX96*%
X348535890Y-104775000D03*
D14*
X353615890Y-104775000D03*
D13*
X358695890Y-104775000D03*
D15*
X349805890Y-102235000D03*
X356155890Y-99695000D03*
%TD*%
D13*
%TO.C,MX2*%
X19327833Y0D03*
D14*
X24407833Y0D03*
D13*
X29487833Y0D03*
D15*
X20597833Y2540000D03*
X26947833Y5080000D03*
%TD*%
D13*
%TO.C,MX6*%
X100885714Y0D03*
D14*
X105965714Y0D03*
D13*
X111045714Y0D03*
D15*
X102155714Y2540000D03*
X108505714Y5080000D03*
%TD*%
D13*
%TO.C,MX11*%
X201493595Y0D03*
D14*
X206573595Y0D03*
D13*
X211653595Y0D03*
D15*
X202763595Y2540000D03*
X209113595Y5080000D03*
%TD*%
D13*
%TO.C,MX114*%
X310435890Y-114300000D03*
D14*
X315515890Y-114300000D03*
D13*
X320595890Y-114300000D03*
D15*
X311705890Y-111760000D03*
X318055890Y-109220000D03*
%TD*%
D13*
%TO.C,MX15*%
X310435890Y0D03*
D14*
X315515890Y0D03*
D13*
X320595890Y0D03*
D15*
X311705890Y2540000D03*
X318055890Y5080000D03*
%TD*%
D13*
%TO.C,MX19*%
X310435890Y-19050000D03*
D14*
X315515890Y-19050000D03*
D13*
X320595890Y-19050000D03*
D15*
X311705890Y-16510000D03*
X318055890Y-13970000D03*
%TD*%
D13*
%TO.C,MX16*%
X329485890Y0D03*
D14*
X334565890Y0D03*
D13*
X339645890Y0D03*
D15*
X330755890Y2540000D03*
X337105890Y5080000D03*
%TD*%
D13*
%TO.C,MX18*%
X291385890Y-19050000D03*
D14*
X296465890Y-19050000D03*
D13*
X301545890Y-19050000D03*
D15*
X292655890Y-16510000D03*
X299005890Y-13970000D03*
%TD*%
D13*
%TO.C,MX17*%
X348535890Y0D03*
D14*
X353615890Y0D03*
D13*
X358695890Y0D03*
D15*
X349805890Y2540000D03*
X356155890Y5080000D03*
%TD*%
D13*
%TO.C,MX20*%
X329485890Y-19050000D03*
D14*
X334565890Y-19050000D03*
D13*
X339645890Y-19050000D03*
D15*
X330755890Y-16510000D03*
X337105890Y-13970000D03*
%TD*%
D13*
%TO.C,MX21*%
X348535890Y-19050000D03*
D14*
X353615890Y-19050000D03*
D13*
X358695890Y-19050000D03*
D15*
X349805890Y-16510000D03*
X356155890Y-13970000D03*
%TD*%
D13*
%TO.C,MX36*%
X291385890Y-38100000D03*
D14*
X296465890Y-38100000D03*
D13*
X301545890Y-38100000D03*
D15*
X292655890Y-35560000D03*
X299005890Y-33020000D03*
%TD*%
D13*
%TO.C,MX37*%
X310435890Y-38100000D03*
D14*
X315515890Y-38100000D03*
D13*
X320595890Y-38100000D03*
D15*
X311705890Y-35560000D03*
X318055890Y-33020000D03*
%TD*%
D13*
%TO.C,MX38*%
X329485890Y-38100000D03*
D14*
X334565890Y-38100000D03*
D13*
X339645890Y-38100000D03*
D15*
X330755890Y-35560000D03*
X337105890Y-33020000D03*
%TD*%
D13*
%TO.C,MX76*%
X329485890Y-76200000D03*
D14*
X334565890Y-76200000D03*
D13*
X339645890Y-76200000D03*
D15*
X330755890Y-73660000D03*
X337105890Y-71120000D03*
%TD*%
D13*
%TO.C,MX77*%
X348535890Y-76200000D03*
D14*
X353615890Y-76200000D03*
D13*
X358695890Y-76200000D03*
D15*
X349805890Y-73660000D03*
X356155890Y-71120000D03*
%TD*%
D13*
%TO.C,MX54*%
X291385890Y-57150000D03*
D14*
X296465890Y-57150000D03*
D13*
X301545890Y-57150000D03*
D15*
X292655890Y-54610000D03*
X299005890Y-52070000D03*
%TD*%
D13*
%TO.C,MX57*%
X348535890Y-57150000D03*
D14*
X353615890Y-57150000D03*
D13*
X358695890Y-57150000D03*
D15*
X349805890Y-54610000D03*
X356155890Y-52070000D03*
%TD*%
D13*
%TO.C,MX55*%
X310435890Y-57150000D03*
D14*
X315515890Y-57150000D03*
D13*
X320595890Y-57150000D03*
D15*
X311705890Y-54610000D03*
X318055890Y-52070000D03*
%TD*%
D13*
%TO.C,MX56*%
X329485890Y-57150000D03*
D14*
X334565890Y-57150000D03*
D13*
X339645890Y-57150000D03*
D15*
X330755890Y-54610000D03*
X337105890Y-52070000D03*
%TD*%
D13*
%TO.C,MX75*%
X310435890Y-76200000D03*
D14*
X315515890Y-76200000D03*
D13*
X320595890Y-76200000D03*
D15*
X311705890Y-73660000D03*
X318055890Y-71120000D03*
%TD*%
D13*
%TO.C,MX74*%
X291385890Y-76200000D03*
D14*
X296465890Y-76200000D03*
D13*
X301545890Y-76200000D03*
D15*
X292655890Y-73660000D03*
X299005890Y-71120000D03*
%TD*%
D13*
%TO.C,MX110*%
X218757500Y-114300000D03*
D14*
X223837500Y-114300000D03*
D13*
X228917500Y-114300000D03*
D15*
X220027500Y-111760000D03*
X226377500Y-109220000D03*
%TD*%
D13*
%TO.C,MX98*%
X-317500Y-114300000D03*
D14*
X4762500Y-114300000D03*
D13*
X9842500Y-114300000D03*
D15*
X952500Y-111760000D03*
X7302500Y-109220000D03*
%TD*%
D13*
%TO.C,MX101*%
X28257500Y-114300000D03*
D14*
X33337500Y-114300000D03*
D13*
X38417500Y-114300000D03*
D15*
X29527500Y-111760000D03*
X35877500Y-109220000D03*
%TD*%
D13*
%TO.C,MX104*%
X90170100Y-114300120D03*
D14*
X95250100Y-114300120D03*
D13*
X100330100Y-114300120D03*
D15*
X91440100Y-111760120D03*
X97790100Y-109220120D03*
%TD*%
D13*
%TO.C,MX13*%
X239593595Y0D03*
D14*
X244673595Y0D03*
D13*
X249753595Y0D03*
D15*
X240863595Y2540000D03*
X247213595Y5080000D03*
%TD*%
D13*
%TO.C,MX3*%
X38377833Y0D03*
D14*
X43457833Y0D03*
D13*
X48537833Y0D03*
D15*
X39647833Y2540000D03*
X45997833Y5080000D03*
%TD*%
D13*
%TO.C,MX14*%
X291385890Y0D03*
D14*
X296465890Y0D03*
D13*
X301545890Y0D03*
D15*
X292655890Y2540000D03*
X299005890Y5080000D03*
%TD*%
D13*
%TO.C,MX111*%
X247928025Y-119657913D03*
D14*
X253008025Y-119657913D03*
D13*
X258088025Y-119657913D03*
D15*
X249198025Y-117117913D03*
X255548025Y-114577913D03*
%TD*%
D13*
%TO.C,MX22*%
X-5080000Y-38100000D03*
D14*
X0Y-38100000D03*
D13*
X5080000Y-38100000D03*
D15*
X-3810000Y-35560000D03*
X2540000Y-33020000D03*
%TD*%
D13*
%TO.C,MX106*%
X190182500Y-114300000D03*
D14*
X195262500Y-114300000D03*
D13*
X200342500Y-114300000D03*
D15*
X191452500Y-111760000D03*
X197802500Y-109220000D03*
%TD*%
D13*
%TO.C,MX92*%
X266978025Y-100607913D03*
D14*
X272058025Y-100607913D03*
D13*
X277138025Y-100607913D03*
D15*
X268248025Y-98067913D03*
X274598025Y-95527913D03*
%TD*%
D13*
%TO.C,MX39*%
X348535890Y-38100000D03*
D14*
X353615890Y-38100000D03*
D13*
X358695890Y-38100000D03*
D15*
X349805890Y-35560000D03*
X356155890Y-33020000D03*
%TD*%
D13*
%TO.C,MX59*%
X-2698750Y-76200000D03*
D14*
X2381250Y-76200000D03*
D13*
X7461250Y-76200000D03*
D15*
X-1428750Y-73660000D03*
X4921250Y-71120000D03*
%TD*%
D16*
%TO.C,H1*%
X49410992Y-19049992D03*
%TD*%
%TO.C,H2*%
X241410992Y-19049992D03*
%TD*%
%TO.C,H3*%
X309400000Y21550008D03*
%TD*%
D17*
%TO.C,D2*%
X263127992Y-5357792D03*
D18*
X265667992Y-5357792D03*
%TD*%
D17*
%TO.C,D3*%
X270271992Y-5357792D03*
D18*
X272811992Y-5357792D03*
%TD*%
D17*
%TO.C,D4*%
X277415992Y-5357792D03*
D18*
X279955992Y-5357792D03*
%TD*%
D19*
%TO.C,H4*%
X304204992Y-123824992D03*
%TD*%
D13*
%TO.C,MX103*%
X109220000Y-114300000D03*
D14*
X114300000Y-114300000D03*
D13*
X119380000Y-114300000D03*
D15*
X110490000Y-111760000D03*
X116840000Y-109220000D03*
%TD*%
D19*
%TO.C,H5*%
X49410992Y-123824992D03*
%TD*%
D20*
%TO.C,J3*%
X257341390Y18478500D03*
D21*
X257341390Y21018500D03*
X257341390Y23558500D03*
X257341390Y26098500D03*
%TD*%
D13*
%TO.C,MX1*%
X-5080000Y0D03*
D14*
X0Y0D03*
D13*
X5080000Y0D03*
D15*
X-3810000Y2540000D03*
X2540000Y5080000D03*
%TD*%
D22*
%TO.C,D157*%
X20320000Y-119380000D03*
D23*
X17780000Y-119380000D03*
%TD*%
D22*
%TO.C,D139*%
X44132500Y-100330000D03*
D23*
X41592500Y-100330000D03*
%TD*%
D22*
%TO.C,D89*%
X172720000Y-43180000D03*
D23*
X170180000Y-43180000D03*
%TD*%
D22*
%TO.C,D79*%
X354885890Y-24130000D03*
D23*
X352345890Y-24130000D03*
%TD*%
D22*
%TO.C,D97*%
X354885890Y-43180000D03*
D23*
X352345890Y-43180000D03*
%TD*%
D22*
%TO.C,D117*%
X5873750Y-81280000D03*
D23*
X8413750Y-81280000D03*
%TD*%
D22*
%TO.C,D101*%
X67945000Y-62230000D03*
D23*
X65405000Y-62230000D03*
%TD*%
D22*
%TO.C,D141*%
X82232500Y-100330000D03*
D23*
X79692500Y-100330000D03*
%TD*%
D22*
%TO.C,D104*%
X125095000Y-62230000D03*
D23*
X122555000Y-62230000D03*
%TD*%
D22*
%TO.C,D142*%
X101282500Y-100330000D03*
D23*
X98742500Y-100330000D03*
%TD*%
D24*
%TO.C,S2*%
X57150000Y-107315000D03*
D14*
X57150000Y-122555000D03*
D24*
X152400000Y-107315000D03*
D14*
X152400000Y-122555000D03*
%TD*%
D22*
%TO.C,D98*%
X6032500Y-62230000D03*
D23*
X3492500Y-62230000D03*
%TD*%
D22*
%TO.C,D113*%
X316785890Y-62230000D03*
D23*
X314245890Y-62230000D03*
%TD*%
D22*
%TO.C,D133*%
X316785890Y-81280000D03*
D23*
X314245890Y-81280000D03*
%TD*%
D22*
%TO.C,D70*%
X226893595Y-5080000D03*
D23*
X224353595Y-5080000D03*
%TD*%
D22*
%TO.C,D64*%
X107235714Y-5080000D03*
D23*
X104695714Y-5080000D03*
%TD*%
D22*
%TO.C,D154*%
X354885890Y-109855000D03*
D23*
X352345890Y-109855000D03*
%TD*%
D22*
%TO.C,D110*%
X239395000Y-62230000D03*
D23*
X236855000Y-62230000D03*
%TD*%
D22*
%TO.C,D121*%
X91757500Y-81280000D03*
D23*
X89217500Y-81280000D03*
%TD*%
D22*
%TO.C,D66*%
X145335714Y-5080000D03*
D23*
X142795714Y-5080000D03*
%TD*%
D22*
%TO.C,D83*%
X58420000Y-43180000D03*
D23*
X55880000Y-43180000D03*
%TD*%
D22*
%TO.C,D106*%
X163195000Y-62230000D03*
D23*
X160655000Y-62230000D03*
%TD*%
D22*
%TO.C,D153*%
X335835890Y-100330000D03*
D23*
X333295890Y-100330000D03*
%TD*%
D22*
%TO.C,D145*%
X158432500Y-100330000D03*
D23*
X155892500Y-100330000D03*
%TD*%
D22*
%TO.C,D107*%
X182245000Y-62230000D03*
D23*
X179705000Y-62230000D03*
%TD*%
D22*
%TO.C,D135*%
X354885890Y-81280000D03*
D23*
X352345890Y-81280000D03*
%TD*%
D22*
%TO.C,D103*%
X106045000Y-62230000D03*
D23*
X103505000Y-62230000D03*
%TD*%
D22*
%TO.C,D86*%
X115570000Y-43180000D03*
D23*
X113030000Y-43180000D03*
%TD*%
D22*
%TO.C,D114*%
X335835890Y-62230000D03*
D23*
X333295890Y-62230000D03*
%TD*%
D22*
%TO.C,D148*%
X215582500Y-100330000D03*
D23*
X213042500Y-100330000D03*
%TD*%
D22*
%TO.C,D171*%
X316785890Y-119380000D03*
D23*
X314245890Y-119380000D03*
%TD*%
D22*
%TO.C,D155*%
X1270000Y-119380000D03*
D23*
X-1270000Y-119380000D03*
%TD*%
D25*
%TO.C,D131*%
X259238750Y-67945000D03*
D23*
X259238750Y-65405000D03*
%TD*%
D22*
%TO.C,D147*%
X196532500Y-100330000D03*
D23*
X193992500Y-100330000D03*
%TD*%
D24*
%TO.C,S3*%
X57150000Y-107315000D03*
D14*
X57150000Y-122555000D03*
D24*
X171450000Y-107315000D03*
D14*
X171450000Y-122555000D03*
%TD*%
D22*
%TO.C,D164*%
X193992500Y-119380000D03*
D23*
X196532500Y-119380000D03*
%TD*%
D22*
%TO.C,D143*%
X120332500Y-100330000D03*
D23*
X117792500Y-100330000D03*
%TD*%
D14*
%TO.C,S5*%
X256063750Y-54768750D03*
X256063750Y-78581250D03*
D24*
X271303750Y-54768750D03*
X271303750Y-78581250D03*
%TD*%
D22*
%TO.C,D161*%
X96520100Y-119380120D03*
D23*
X93980100Y-119380120D03*
%TD*%
D22*
%TO.C,D112*%
X297735890Y-62230000D03*
D23*
X295195890Y-62230000D03*
%TD*%
D22*
%TO.C,D65*%
X126285714Y-5080000D03*
D23*
X123745714Y-5080000D03*
%TD*%
D22*
%TO.C,D109*%
X220345000Y-62230000D03*
D23*
X217805000Y-62230000D03*
%TD*%
D22*
%TO.C,D69*%
X207843595Y-5080000D03*
D23*
X205303595Y-5080000D03*
%TD*%
D22*
%TO.C,D162*%
X172720000Y-119380000D03*
D23*
X170180000Y-119380000D03*
%TD*%
D22*
%TO.C,D99*%
X29845000Y-62230000D03*
D23*
X27305000Y-62230000D03*
%TD*%
D22*
%TO.C,D78*%
X335835890Y-24130000D03*
D23*
X333295890Y-24130000D03*
%TD*%
D22*
%TO.C,D156*%
X3492500Y-119380000D03*
D23*
X6032500Y-119380000D03*
%TD*%
D22*
%TO.C,D129*%
X244157500Y-81280000D03*
D23*
X241617500Y-81280000D03*
%TD*%
D22*
%TO.C,D128*%
X225107500Y-81280000D03*
D23*
X222567500Y-81280000D03*
%TD*%
D22*
%TO.C,D163*%
X191770000Y-119380000D03*
D23*
X189230000Y-119380000D03*
%TD*%
D22*
%TO.C,D160*%
X115570000Y-119380000D03*
D23*
X113030000Y-119380000D03*
%TD*%
D24*
%TO.C,S6*%
X245268750Y-31115000D03*
D14*
X245268750Y-46355000D03*
D24*
X269081250Y-31115000D03*
D14*
X269081250Y-46355000D03*
%TD*%
D22*
%TO.C,D125*%
X167957500Y-81280000D03*
D23*
X165417500Y-81280000D03*
%TD*%
D22*
%TO.C,D150*%
X273328025Y-105687913D03*
D23*
X270788025Y-105687913D03*
%TD*%
D22*
%TO.C,D172*%
X335835890Y-119380000D03*
D23*
X333295890Y-119380000D03*
%TD*%
D22*
%TO.C,D91*%
X210820000Y-43180000D03*
D23*
X208280000Y-43180000D03*
%TD*%
D22*
%TO.C,D115*%
X354885890Y-62230000D03*
D23*
X352345890Y-62230000D03*
%TD*%
D24*
%TO.C,S4*%
X242887500Y-69215000D03*
D14*
X242887500Y-84455000D03*
D24*
X266700000Y-69215000D03*
D14*
X266700000Y-84455000D03*
%TD*%
D22*
%TO.C,D76*%
X297735890Y-24130000D03*
D23*
X295195890Y-24130000D03*
%TD*%
D22*
%TO.C,D63*%
X82827833Y-5080000D03*
D23*
X80287833Y-5080000D03*
%TD*%
D22*
%TO.C,D116*%
X3651250Y-81280000D03*
D23*
X1111250Y-81280000D03*
%TD*%
D22*
%TO.C,D59*%
X1270000Y-5080000D03*
D23*
X-1270000Y-5080000D03*
%TD*%
D22*
%TO.C,D168*%
X254278025Y-124737913D03*
D23*
X251738025Y-124737913D03*
%TD*%
D22*
%TO.C,D170*%
X292378025Y-124737913D03*
D23*
X289838025Y-124737913D03*
%TD*%
D22*
%TO.C,D158*%
X34607500Y-119380000D03*
D23*
X32067500Y-119380000D03*
%TD*%
D26*
%TO.C,JP2*%
X80100000Y-111900000D03*
D21*
X77560000Y-111900000D03*
%TD*%
D22*
%TO.C,D77*%
X316785890Y-24130000D03*
D23*
X314245890Y-24130000D03*
%TD*%
D22*
%TO.C,D149*%
X241776250Y-100330000D03*
D23*
X239236250Y-100330000D03*
%TD*%
D22*
%TO.C,D93*%
X258445000Y-43180000D03*
D23*
X255905000Y-43180000D03*
%TD*%
D22*
%TO.C,D80*%
X1270000Y-43180000D03*
D23*
X-1270000Y-43180000D03*
%TD*%
D22*
%TO.C,D123*%
X129857500Y-81280000D03*
D23*
X127317500Y-81280000D03*
%TD*%
D22*
%TO.C,D87*%
X134620000Y-43180000D03*
D23*
X132080000Y-43180000D03*
%TD*%
D22*
%TO.C,D108*%
X201295000Y-62230000D03*
D23*
X198755000Y-62230000D03*
%TD*%
D22*
%TO.C,D96*%
X335835890Y-43180000D03*
D23*
X333295890Y-43180000D03*
%TD*%
D22*
%TO.C,D127*%
X206057500Y-81280000D03*
D23*
X203517500Y-81280000D03*
%TD*%
D22*
%TO.C,D105*%
X144145000Y-62230000D03*
D23*
X141605000Y-62230000D03*
%TD*%
D22*
%TO.C,D152*%
X316785890Y-100330000D03*
D23*
X314245890Y-100330000D03*
%TD*%
D22*
%TO.C,D94*%
X297735890Y-43180000D03*
D23*
X295195890Y-43180000D03*
%TD*%
D22*
%TO.C,D159*%
X36830000Y-119380000D03*
D23*
X39370000Y-119380000D03*
%TD*%
D22*
%TO.C,D126*%
X187007500Y-81280000D03*
D23*
X184467500Y-81280000D03*
%TD*%
D22*
%TO.C,D136*%
X3651250Y-100330000D03*
D23*
X1111250Y-100330000D03*
%TD*%
D22*
%TO.C,D138*%
X25082500Y-100330000D03*
D23*
X22542500Y-100330000D03*
%TD*%
D22*
%TO.C,D84*%
X77470000Y-43180000D03*
D23*
X74930000Y-43180000D03*
%TD*%
D22*
%TO.C,D85*%
X96520000Y-43180000D03*
D23*
X93980000Y-43180000D03*
%TD*%
D22*
%TO.C,D124*%
X148907500Y-81280000D03*
D23*
X146367500Y-81280000D03*
%TD*%
D22*
%TO.C,D60*%
X25677833Y-5080000D03*
D23*
X23137833Y-5080000D03*
%TD*%
D22*
%TO.C,D75*%
X354885890Y-5080000D03*
D23*
X352345890Y-5080000D03*
%TD*%
D22*
%TO.C,D144*%
X139382500Y-100330000D03*
D23*
X136842500Y-100330000D03*
%TD*%
D22*
%TO.C,D122*%
X110807500Y-81280000D03*
D23*
X108267500Y-81280000D03*
%TD*%
D22*
%TO.C,D102*%
X86995000Y-62230000D03*
D23*
X84455000Y-62230000D03*
%TD*%
D22*
%TO.C,D137*%
X13176250Y-100330000D03*
D23*
X10636250Y-100330000D03*
%TD*%
D22*
%TO.C,D120*%
X72707500Y-81280000D03*
D23*
X70167500Y-81280000D03*
%TD*%
D22*
%TO.C,D166*%
X225107500Y-119380000D03*
D23*
X222567500Y-119380000D03*
%TD*%
D22*
%TO.C,D67*%
X164385714Y-5080000D03*
D23*
X161845714Y-5080000D03*
%TD*%
D24*
%TO.C,S7*%
X346630890Y-116681250D03*
D14*
X361870890Y-116681250D03*
D24*
X346630890Y-92868750D03*
D14*
X361870890Y-92868750D03*
%TD*%
D22*
%TO.C,D95*%
X316785890Y-43180000D03*
D23*
X314245890Y-43180000D03*
%TD*%
D22*
%TO.C,D61*%
X44727833Y-5080000D03*
D23*
X42187833Y-5080000D03*
%TD*%
D22*
%TO.C,D90*%
X191770000Y-43180000D03*
D23*
X189230000Y-43180000D03*
%TD*%
D22*
%TO.C,D118*%
X34607500Y-81280000D03*
D23*
X32067500Y-81280000D03*
%TD*%
D22*
%TO.C,D81*%
X20320000Y-43180000D03*
D23*
X17780000Y-43180000D03*
%TD*%
D22*
%TO.C,D68*%
X188793595Y-5080000D03*
D23*
X186253595Y-5080000D03*
%TD*%
D22*
%TO.C,D74*%
X335835890Y-5080000D03*
D23*
X333295890Y-5080000D03*
%TD*%
D22*
%TO.C,D140*%
X63182500Y-100330000D03*
D23*
X60642500Y-100330000D03*
%TD*%
D22*
%TO.C,D165*%
X210820000Y-119380000D03*
D23*
X208280000Y-119380000D03*
%TD*%
D22*
%TO.C,D111*%
X263207500Y-62230000D03*
D23*
X260667500Y-62230000D03*
%TD*%
D22*
%TO.C,D167*%
X227330000Y-119380000D03*
D23*
X229870000Y-119380000D03*
%TD*%
D22*
%TO.C,D100*%
X48895000Y-62230000D03*
D23*
X46355000Y-62230000D03*
%TD*%
D22*
%TO.C,D169*%
X273328025Y-124737913D03*
D23*
X270788025Y-124737913D03*
%TD*%
D26*
%TO.C,JP3*%
X80100000Y-116550000D03*
D21*
X77560000Y-116550000D03*
%TD*%
D22*
%TO.C,D132*%
X297735890Y-81280000D03*
D23*
X295195890Y-81280000D03*
%TD*%
D22*
%TO.C,D119*%
X53657500Y-81280000D03*
D23*
X51117500Y-81280000D03*
%TD*%
D22*
%TO.C,D73*%
X316785890Y-5080000D03*
D23*
X314245890Y-5080000D03*
%TD*%
D22*
%TO.C,D72*%
X297735890Y-5080000D03*
D23*
X295195890Y-5080000D03*
%TD*%
D24*
%TO.C,S1*%
X0Y-88265000D03*
D14*
X0Y-103505000D03*
D24*
X23812500Y-88265000D03*
D14*
X23812500Y-103505000D03*
%TD*%
D22*
%TO.C,D82*%
X39370000Y-43180000D03*
D23*
X36830000Y-43180000D03*
%TD*%
D22*
%TO.C,D88*%
X153670000Y-43180000D03*
D23*
X151130000Y-43180000D03*
%TD*%
D22*
%TO.C,D130*%
X256063750Y-81280000D03*
D23*
X253523750Y-81280000D03*
%TD*%
D22*
%TO.C,D71*%
X245943595Y-5080000D03*
D23*
X243403595Y-5080000D03*
%TD*%
D22*
%TO.C,D151*%
X297735890Y-100330000D03*
D23*
X295195890Y-100330000D03*
%TD*%
D22*
%TO.C,D134*%
X335835890Y-81280000D03*
D23*
X333295890Y-81280000D03*
%TD*%
D22*
%TO.C,D92*%
X229870000Y-43180000D03*
D23*
X227330000Y-43180000D03*
%TD*%
D22*
%TO.C,D146*%
X177482500Y-100330000D03*
D23*
X174942500Y-100330000D03*
%TD*%
D22*
%TO.C,D62*%
X63777833Y-5080000D03*
D23*
X61237833Y-5080000D03*
%TD*%
D27*
%TO.C,C11*%
X276125750Y16971500D03*
X274575750Y16971500D03*
%TD*%
%TO.C,C10*%
X283262390Y16971500D03*
X281712390Y16971500D03*
%TD*%
D28*
%TO.C,R3*%
X283884890Y-4265000D03*
X285534890Y-4265000D03*
%TD*%
%TO.C,R10*%
X270990750Y-1536500D03*
X272640750Y-1536500D03*
%TD*%
D29*
%TO.C,R12*%
X265247492Y7620500D03*
X265247492Y9270500D03*
%TD*%
D30*
%TO.C,U3*%
X272677250Y4949500D03*
X272677250Y5449500D03*
X272677250Y5949500D03*
X272677250Y6449500D03*
X272677250Y6949500D03*
X272677250Y7449500D03*
X272677250Y7949500D03*
X272677250Y8449500D03*
X272677250Y8949500D03*
X272677250Y9449500D03*
X272677250Y9949500D03*
X272677250Y10449500D03*
X272677250Y10949500D03*
X272677250Y11449500D03*
X272677250Y11949500D03*
X272677250Y12449500D03*
D31*
X274602250Y14374500D03*
X275102250Y14374500D03*
X275602250Y14374500D03*
X276102250Y14374500D03*
X276602250Y14374500D03*
X277102250Y14374500D03*
X277602250Y14374500D03*
X278102250Y14374500D03*
X278602250Y14374500D03*
X279102250Y14374500D03*
X279602250Y14374500D03*
X280102250Y14374500D03*
X280602250Y14374500D03*
X281102250Y14374500D03*
X281602250Y14374500D03*
X282102250Y14374500D03*
D30*
X284027250Y12449500D03*
X284027250Y11949500D03*
X284027250Y11449500D03*
X284027250Y10949500D03*
X284027250Y10449500D03*
X284027250Y9949500D03*
X284027250Y9449500D03*
X284027250Y8949500D03*
X284027250Y8449500D03*
X284027250Y7949500D03*
X284027250Y7449500D03*
X284027250Y6949500D03*
X284027250Y6449500D03*
X284027250Y5949500D03*
X284027250Y5449500D03*
X284027250Y4949500D03*
D31*
X282102250Y3024500D03*
X281602250Y3024500D03*
X281102250Y3024500D03*
X280602250Y3024500D03*
X280102250Y3024500D03*
X279602250Y3024500D03*
X279102250Y3024500D03*
X278602250Y3024500D03*
X278102250Y3024500D03*
X277602250Y3024500D03*
X277102250Y3024500D03*
X276602250Y3024500D03*
X276102250Y3024500D03*
X275602250Y3024500D03*
X275102250Y3024500D03*
X274602250Y3024500D03*
%TD*%
D32*
%TO.C,D5*%
X13142000Y5158500D03*
X11242000Y5158500D03*
X12192000Y7033500D03*
%TD*%
%TO.C,D6*%
X54036000Y5158500D03*
X52136000Y5158500D03*
X53086000Y7033500D03*
%TD*%
%TO.C,D8*%
X135570000Y5158500D03*
X133670000Y5158500D03*
X134620000Y7033500D03*
%TD*%
%TO.C,D9*%
X176210000Y5158500D03*
X174310000Y5158500D03*
X175260000Y7033500D03*
%TD*%
%TO.C,D10*%
X217104000Y5158500D03*
X215204000Y5158500D03*
X216154000Y7033500D03*
%TD*%
%TO.C,D11*%
X255204000Y5158500D03*
X253304000Y5158500D03*
X254254000Y7033500D03*
%TD*%
%TO.C,D13*%
X345120000Y5158500D03*
X343220000Y5158500D03*
X344170000Y7033500D03*
%TD*%
%TO.C,D7*%
X94676000Y5158500D03*
X92776000Y5158500D03*
X93726000Y7033500D03*
%TD*%
%TO.C,D12*%
X307020000Y5158500D03*
X305120000Y5158500D03*
X306070000Y7033500D03*
%TD*%
%TO.C,D14*%
X307020000Y-13891500D03*
X305120000Y-13891500D03*
X306070000Y-12016500D03*
%TD*%
%TO.C,D15*%
X345120000Y-13891500D03*
X343220000Y-13891500D03*
X344170000Y-12016500D03*
%TD*%
%TO.C,D16*%
X10602000Y-32941500D03*
X8702000Y-32941500D03*
X9652000Y-31066500D03*
%TD*%
%TO.C,D17*%
X48702000Y-32941500D03*
X46802000Y-32941500D03*
X47752000Y-31066500D03*
%TD*%
%TO.C,D18*%
X86802000Y-32941500D03*
X84902000Y-32941500D03*
X85852000Y-31066500D03*
%TD*%
%TO.C,D19*%
X124902000Y-32941500D03*
X123002000Y-32941500D03*
X123952000Y-31066500D03*
%TD*%
%TO.C,D20*%
X163002000Y-32941500D03*
X161102000Y-32941500D03*
X162052000Y-31066500D03*
%TD*%
%TO.C,D21*%
X201102000Y-32941500D03*
X199202000Y-32941500D03*
X200152000Y-31066500D03*
%TD*%
%TO.C,D22*%
X239202000Y-32941500D03*
X237302000Y-32941500D03*
X238252000Y-31066500D03*
%TD*%
%TO.C,D23*%
X307020000Y-32941500D03*
X305120000Y-32941500D03*
X306070000Y-31066500D03*
%TD*%
%TO.C,D24*%
X345120000Y-32941500D03*
X343220000Y-32941500D03*
X344170000Y-31066500D03*
%TD*%
%TO.C,D25*%
X20000000Y-51991500D03*
X18100000Y-51991500D03*
X19050000Y-50116500D03*
%TD*%
%TO.C,D26*%
X58100000Y-51991500D03*
X56200000Y-51991500D03*
X57150000Y-50116500D03*
%TD*%
%TO.C,D27*%
X96200000Y-51991500D03*
X94300000Y-51991500D03*
X95250000Y-50116500D03*
%TD*%
%TO.C,D28*%
X134300000Y-51991500D03*
X132400000Y-51991500D03*
X133350000Y-50116500D03*
%TD*%
%TO.C,D29*%
X172400000Y-51991500D03*
X170500000Y-51991500D03*
X171450000Y-50116500D03*
%TD*%
%TO.C,D30*%
X210500000Y-51991500D03*
X208600000Y-51991500D03*
X209550000Y-50116500D03*
%TD*%
%TO.C,D31*%
X251140000Y-51991500D03*
X249240000Y-51991500D03*
X250190000Y-50116500D03*
%TD*%
%TO.C,D32*%
X307020000Y-51991500D03*
X305120000Y-51991500D03*
X306070000Y-50116500D03*
%TD*%
%TO.C,D33*%
X345120000Y-51991500D03*
X343220000Y-51991500D03*
X344170000Y-50116500D03*
%TD*%
%TO.C,D34*%
X24826000Y-71041500D03*
X22926000Y-71041500D03*
X23876000Y-69166500D03*
%TD*%
%TO.C,D35*%
X62926000Y-71041500D03*
X61026000Y-71041500D03*
X61976000Y-69166500D03*
%TD*%
%TO.C,D36*%
X101026000Y-71041500D03*
X99126000Y-71041500D03*
X100076000Y-69166500D03*
%TD*%
%TO.C,D38*%
X177226000Y-71041500D03*
X175326000Y-71041500D03*
X176276000Y-69166500D03*
%TD*%
%TO.C,D39*%
X215326000Y-71041500D03*
X213426000Y-71041500D03*
X214376000Y-69166500D03*
%TD*%
%TO.C,D40*%
X253426000Y-71041500D03*
X251526000Y-71041500D03*
X252476000Y-69166500D03*
%TD*%
%TO.C,D41*%
X307020000Y-71041500D03*
X305120000Y-71041500D03*
X306070000Y-69166500D03*
%TD*%
%TO.C,D42*%
X345120000Y-71041500D03*
X343220000Y-71041500D03*
X344170000Y-69166500D03*
%TD*%
%TO.C,D37*%
X139126000Y-71041500D03*
X137226000Y-71041500D03*
X138176000Y-69166500D03*
%TD*%
D33*
%TO.C,R43*%
X140128125Y-43180000D03*
X138478125Y-43180000D03*
%TD*%
%TO.C,R51*%
X322609640Y-43180000D03*
X320959640Y-43180000D03*
%TD*%
%TO.C,R48*%
X235378125Y-43180000D03*
X233728125Y-43180000D03*
%TD*%
%TO.C,R44*%
X159178125Y-43180000D03*
X157528125Y-43180000D03*
%TD*%
%TO.C,R38*%
X45193750Y-43180000D03*
X43543750Y-43180000D03*
%TD*%
%TO.C,R50*%
X303559640Y-43180000D03*
X301909640Y-43180000D03*
%TD*%
%TO.C,R47*%
X216328125Y-43180000D03*
X214678125Y-43180000D03*
%TD*%
%TO.C,R46*%
X197278125Y-43180000D03*
X195628125Y-43180000D03*
%TD*%
%TO.C,R33*%
X322609640Y-24130000D03*
X320959640Y-24130000D03*
%TD*%
%TO.C,R42*%
X121393750Y-43180000D03*
X119743750Y-43180000D03*
%TD*%
%TO.C,R39*%
X64243750Y-43180000D03*
X62593750Y-43180000D03*
%TD*%
%TO.C,R37*%
X25828125Y-43180000D03*
X24178125Y-43180000D03*
%TD*%
%TO.C,R34*%
X341344015Y-24130000D03*
X339694015Y-24130000D03*
%TD*%
%TO.C,R32*%
X303244015Y-24130000D03*
X301594015Y-24130000D03*
%TD*%
D32*
%TO.C,D43*%
X18730000Y-90091500D03*
X16830000Y-90091500D03*
X17780000Y-88216500D03*
%TD*%
%TO.C,D44*%
X53274000Y-90091500D03*
X51374000Y-90091500D03*
X52324000Y-88216500D03*
%TD*%
%TO.C,D45*%
X91374000Y-90091500D03*
X89474000Y-90091500D03*
X90424000Y-88216500D03*
%TD*%
%TO.C,D46*%
X129474000Y-90091500D03*
X127574000Y-90091500D03*
X128524000Y-88216500D03*
%TD*%
%TO.C,D47*%
X167574000Y-90091500D03*
X165674000Y-90091500D03*
X166624000Y-88216500D03*
%TD*%
%TO.C,D48*%
X205674000Y-90091500D03*
X203774000Y-90091500D03*
X204724000Y-88216500D03*
%TD*%
%TO.C,D49*%
X258252000Y-90091500D03*
X256352000Y-90091500D03*
X257302000Y-88216500D03*
%TD*%
D33*
%TO.C,R40*%
X83293750Y-43180000D03*
X81643750Y-43180000D03*
%TD*%
%TO.C,R36*%
X6778125Y-43180000D03*
X5128125Y-43180000D03*
%TD*%
%TO.C,R41*%
X102343750Y-43180000D03*
X100693750Y-43180000D03*
%TD*%
%TO.C,R45*%
X178543750Y-43180000D03*
X176893750Y-43180000D03*
%TD*%
%TO.C,R49*%
X264268750Y-43180000D03*
X262618750Y-43180000D03*
%TD*%
%TO.C,R52*%
X341344015Y-43180000D03*
X339694015Y-43180000D03*
%TD*%
%TO.C,R25*%
X213351720Y-5080000D03*
X211701720Y-5080000D03*
%TD*%
%TO.C,R26*%
X232401720Y-5080000D03*
X230751720Y-5080000D03*
%TD*%
%TO.C,R27*%
X251451720Y-5080000D03*
X249801720Y-5080000D03*
%TD*%
%TO.C,R23*%
X169893839Y-5080000D03*
X168243839Y-5080000D03*
%TD*%
%TO.C,R22*%
X150843839Y-5080000D03*
X149193839Y-5080000D03*
%TD*%
%TO.C,R21*%
X131793839Y-5080000D03*
X130143839Y-5080000D03*
%TD*%
%TO.C,R20*%
X112743839Y-5080000D03*
X111093839Y-5080000D03*
%TD*%
%TO.C,R17*%
X50235958Y-5080000D03*
X48585958Y-5080000D03*
%TD*%
%TO.C,R15*%
X6778125Y-5080000D03*
X5128125Y-5080000D03*
%TD*%
D32*
%TO.C,D51*%
X342326000Y-90091500D03*
X340426000Y-90091500D03*
X341376000Y-88216500D03*
%TD*%
%TO.C,D50*%
X307020000Y-90091500D03*
X305120000Y-90091500D03*
X306070000Y-88216500D03*
%TD*%
%TO.C,D52*%
X12888000Y-109141500D03*
X10988000Y-109141500D03*
X11938000Y-107266500D03*
%TD*%
%TO.C,D53*%
X48702000Y-109141500D03*
X46802000Y-109141500D03*
X47752000Y-107266500D03*
%TD*%
%TO.C,D54*%
X202880000Y-109141500D03*
X200980000Y-109141500D03*
X201930000Y-107266500D03*
%TD*%
%TO.C,D55*%
X219898000Y-109141500D03*
X217998000Y-109141500D03*
X218948000Y-107266500D03*
%TD*%
%TO.C,D56*%
X263332000Y-114475500D03*
X261432000Y-114475500D03*
X262382000Y-112600500D03*
%TD*%
%TO.C,D57*%
X307020000Y-109141500D03*
X305120000Y-109141500D03*
X306070000Y-107266500D03*
%TD*%
%TO.C,D58*%
X342326000Y-109141500D03*
X340426000Y-109141500D03*
X341376000Y-107266500D03*
%TD*%
D33*
%TO.C,R16*%
X31185958Y-5080000D03*
X29535958Y-5080000D03*
%TD*%
%TO.C,R18*%
X69285958Y-5080000D03*
X67635958Y-5080000D03*
%TD*%
%TO.C,R19*%
X88335958Y-5080000D03*
X86685958Y-5080000D03*
%TD*%
%TO.C,R28*%
X303244015Y-5080000D03*
X301594015Y-5080000D03*
%TD*%
%TO.C,R29*%
X322609640Y-5080000D03*
X320959640Y-5080000D03*
%TD*%
%TO.C,R30*%
X341344015Y-5080000D03*
X339694015Y-5080000D03*
%TD*%
%TO.C,R24*%
X194301720Y-5080000D03*
X192651720Y-5080000D03*
%TD*%
%TO.C,R54*%
X11540670Y-62230080D03*
X9890670Y-62230080D03*
%TD*%
%TO.C,R55*%
X35668900Y-62230080D03*
X34018900Y-62230080D03*
%TD*%
%TO.C,R61*%
X149653750Y-62230080D03*
X148003750Y-62230080D03*
%TD*%
%TO.C,R62*%
X168703830Y-62230080D03*
X167053830Y-62230080D03*
%TD*%
%TO.C,R64*%
X206803990Y-62230080D03*
X205153990Y-62230080D03*
%TD*%
%TO.C,R65*%
X225854070Y-62230080D03*
X224204070Y-62230080D03*
%TD*%
%TO.C,R66*%
X244904150Y-62230080D03*
X243254150Y-62230080D03*
%TD*%
%TO.C,R86*%
X303244040Y-81280320D03*
X301594040Y-81280320D03*
%TD*%
%TO.C,R107*%
X360394280Y-109855440D03*
X358744280Y-109855440D03*
%TD*%
%TO.C,R119*%
X297886335Y-124737913D03*
X296236335Y-124737913D03*
%TD*%
%TO.C,R111*%
X121078630Y-119380320D03*
X119428630Y-119380320D03*
%TD*%
%TO.C,R70*%
X341344200Y-62230240D03*
X339694200Y-62230240D03*
%TD*%
%TO.C,R105*%
X322294120Y-100330400D03*
X320644120Y-100330400D03*
%TD*%
%TO.C,R104*%
X303244040Y-100330400D03*
X301594040Y-100330400D03*
%TD*%
%TO.C,R71*%
X360394280Y-62230240D03*
X358744280Y-62230240D03*
%TD*%
%TO.C,R89*%
X360394280Y-81280320D03*
X358744280Y-81280320D03*
%TD*%
%TO.C,R88*%
X341344200Y-81280320D03*
X339694200Y-81280320D03*
%TD*%
%TO.C,R121*%
X341344200Y-119380480D03*
X339694200Y-119380480D03*
%TD*%
%TO.C,R106*%
X341344200Y-100330400D03*
X339694200Y-100330400D03*
%TD*%
%TO.C,R120*%
X322294120Y-119380480D03*
X320644120Y-119380480D03*
%TD*%
%TO.C,R87*%
X322294120Y-81280320D03*
X320644120Y-81280320D03*
%TD*%
%TO.C,R69*%
X322294120Y-62230240D03*
X320644120Y-62230240D03*
%TD*%
%TO.C,R68*%
X303244040Y-62230240D03*
X301594040Y-62230240D03*
%TD*%
%TO.C,R58*%
X92503510Y-62230080D03*
X90853510Y-62230080D03*
%TD*%
%TO.C,R112*%
X102028550Y-119380320D03*
X100378550Y-119380320D03*
%TD*%
%TO.C,R59*%
X111553590Y-62230080D03*
X109903590Y-62230080D03*
%TD*%
%TO.C,R56*%
X54403350Y-62230080D03*
X52753350Y-62230080D03*
%TD*%
%TO.C,R57*%
X73453430Y-62230080D03*
X71803430Y-62230080D03*
%TD*%
%TO.C,R60*%
X130603670Y-62230080D03*
X128953670Y-62230080D03*
%TD*%
%TO.C,R63*%
X187753910Y-62230080D03*
X186103910Y-62230080D03*
%TD*%
%TO.C,R67*%
X271246025Y-62253913D03*
X269596025Y-62253913D03*
%TD*%
%TO.C,R109*%
X25828230Y-119380320D03*
X24178230Y-119380320D03*
%TD*%
%TO.C,R72*%
X13921930Y-81280160D03*
X12271930Y-81280160D03*
%TD*%
%TO.C,R74*%
X59165870Y-81280160D03*
X57515870Y-81280160D03*
%TD*%
%TO.C,R75*%
X78215950Y-81280160D03*
X76565950Y-81280160D03*
%TD*%
%TO.C,R77*%
X116316110Y-81280160D03*
X114666110Y-81280160D03*
%TD*%
%TO.C,R78*%
X135366190Y-81280160D03*
X133716190Y-81280160D03*
%TD*%
%TO.C,R79*%
X154416270Y-81280160D03*
X152766270Y-81280160D03*
%TD*%
%TO.C,R80*%
X173466350Y-81280160D03*
X171816350Y-81280160D03*
%TD*%
%TO.C,R83*%
X230616590Y-81280160D03*
X228966590Y-81280160D03*
%TD*%
%TO.C,R84*%
X249666670Y-81280160D03*
X248016670Y-81280160D03*
%TD*%
%TO.C,R85*%
X261572970Y-81280160D03*
X259922970Y-81280160D03*
%TD*%
%TO.C,R82*%
X211566510Y-81280160D03*
X209916510Y-81280160D03*
%TD*%
%TO.C,R81*%
X192516430Y-81280160D03*
X190866430Y-81280160D03*
%TD*%
%TO.C,R73*%
X40115790Y-81280160D03*
X38465790Y-81280160D03*
%TD*%
%TO.C,R76*%
X97266030Y-81280160D03*
X95616030Y-81280160D03*
%TD*%
%TO.C,R115*%
X216329030Y-119380320D03*
X214679030Y-119380320D03*
%TD*%
%TO.C,R108*%
X11540670Y-119380320D03*
X9890670Y-119380320D03*
%TD*%
%TO.C,R113*%
X178544500Y-119380320D03*
X176894500Y-119380320D03*
%TD*%
%TO.C,R116*%
X235379110Y-119380320D03*
X233729110Y-119380320D03*
%TD*%
%TO.C,R110*%
X44878310Y-119380320D03*
X43228310Y-119380320D03*
%TD*%
%TO.C,R114*%
X202357100Y-119380320D03*
X200707100Y-119380320D03*
%TD*%
%TO.C,R93*%
X68690910Y-100330240D03*
X67040910Y-100330240D03*
%TD*%
%TO.C,R94*%
X87740990Y-100330240D03*
X86090990Y-100330240D03*
%TD*%
%TO.C,R95*%
X106791070Y-100330240D03*
X105141070Y-100330240D03*
%TD*%
%TO.C,R96*%
X125841150Y-100330240D03*
X124191150Y-100330240D03*
%TD*%
%TO.C,R98*%
X163941310Y-100330240D03*
X162291310Y-100330240D03*
%TD*%
%TO.C,R99*%
X182991390Y-100330240D03*
X181341390Y-100330240D03*
%TD*%
%TO.C,R100*%
X202041470Y-100330240D03*
X200391470Y-100330240D03*
%TD*%
%TO.C,R101*%
X221091550Y-100330240D03*
X219441550Y-100330240D03*
%TD*%
%TO.C,R102*%
X247285410Y-100330240D03*
X245635410Y-100330240D03*
%TD*%
%TO.C,R117*%
X259786175Y-124737913D03*
X258136175Y-124737913D03*
%TD*%
%TO.C,R103*%
X278836255Y-105687833D03*
X277186255Y-105687833D03*
%TD*%
%TO.C,R118*%
X278836255Y-124737913D03*
X277186255Y-124737913D03*
%TD*%
%TO.C,R97*%
X144891230Y-100330240D03*
X143241230Y-100330240D03*
%TD*%
%TO.C,R92*%
X49640830Y-100330240D03*
X47990830Y-100330240D03*
%TD*%
%TO.C,R90*%
X18684450Y-100330240D03*
X17034450Y-100330240D03*
%TD*%
%TO.C,R91*%
X30590750Y-100330240D03*
X28940750Y-100330240D03*
%TD*%
%TO.C,R31*%
X360394280Y-5079840D03*
X358744280Y-5079840D03*
%TD*%
%TO.C,R35*%
X360394280Y-24129920D03*
X358744280Y-24129920D03*
%TD*%
%TO.C,R53*%
X360394280Y-43180000D03*
X358744280Y-43180000D03*
%TD*%
D34*
%TO.C,U1*%
X317380890Y19367000D03*
X317380890Y18417000D03*
X317380890Y17467000D03*
X315030890Y17467000D03*
X315030890Y18417000D03*
X315030890Y19367000D03*
%TD*%
D27*
%TO.C,C13*%
X276090750Y-1536500D03*
X274540750Y-1536500D03*
%TD*%
%TO.C,C7*%
X270015000Y12129008D03*
X268465000Y12129008D03*
%TD*%
D35*
%TO.C,C9*%
X273439250Y571500D03*
X274989250Y571500D03*
%TD*%
D36*
%TO.C,J4*%
X313315890Y24300000D03*
X319095890Y24300000D03*
D37*
X312955890Y22855000D03*
X313755890Y22855000D03*
D38*
X314955890Y22855000D03*
X315955890Y22855000D03*
X316455890Y22855000D03*
X317455890Y22855000D03*
D37*
X318655890Y22855000D03*
X319455890Y22855000D03*
X319455890Y22855000D03*
X318655890Y22855000D03*
D38*
X317955890Y22855000D03*
X316955890Y22855000D03*
X315455890Y22855000D03*
X314455890Y22855000D03*
D37*
X313755890Y22855000D03*
X312955890Y22855000D03*
D39*
X311885890Y27950000D03*
D40*
X311885890Y23770000D03*
D39*
X320525890Y27950000D03*
D40*
X320525890Y23770000D03*
%TD*%
D29*
%TO.C,R6*%
X325555890Y24530000D03*
X325555890Y26180000D03*
%TD*%
%TO.C,R5*%
X323955890Y24530000D03*
X323955890Y26180000D03*
%TD*%
D41*
%TO.C,L1*%
X322301890Y19873500D03*
X322301890Y21623500D03*
%TD*%
D28*
%TO.C,R4*%
X283884890Y-6159500D03*
X285534890Y-6159500D03*
%TD*%
D29*
%TO.C,R7*%
X260732290Y-5295400D03*
X260732290Y-3645400D03*
%TD*%
%TO.C,R8*%
X267945890Y-5319500D03*
X267945890Y-3669500D03*
%TD*%
%TO.C,R9*%
X275159490Y-5295400D03*
X275159490Y-3645400D03*
%TD*%
D42*
%TO.C,C8*%
X276407890Y18871140D03*
X276407890Y20421140D03*
%TD*%
D35*
%TO.C,C1*%
X268353890Y24198500D03*
X269903890Y24198500D03*
%TD*%
%TO.C,C3*%
X268355390Y22298500D03*
X269905390Y22298500D03*
%TD*%
D43*
%TO.C,U2*%
X270280390Y20563860D03*
X270280390Y18663860D03*
X268405390Y19613860D03*
%TD*%
D42*
%TO.C,C6*%
X286448500Y3243008D03*
X286448500Y4793008D03*
%TD*%
D44*
%TO.C,R14*%
X263596492Y12763000D03*
X263596492Y11113000D03*
%TD*%
D45*
%TO.C,Q1*%
X288282750Y-4327500D03*
X290182750Y-4327500D03*
X289232750Y-6202500D03*
%TD*%
D42*
%TO.C,C12*%
X268549492Y7670500D03*
X268549492Y9220500D03*
%TD*%
D46*
%TO.C,C15*%
X265247492Y12713000D03*
X265247492Y11163000D03*
%TD*%
D33*
%TO.C,R1*%
X261710992Y23558500D03*
X260060992Y23558500D03*
%TD*%
D29*
%TO.C,R13*%
X261945492Y11113000D03*
X261945492Y12763000D03*
%TD*%
D46*
%TO.C,C14*%
X266898492Y9220500D03*
X266898492Y7670500D03*
%TD*%
D47*
%TO.C,F1*%
X311951390Y14983000D03*
X311951390Y17783000D03*
%TD*%
D48*
%TO.C,JP1*%
X296335992Y16000000D03*
X295035992Y16000000D03*
%TD*%
D49*
%TO.C,J2*%
X292185992Y20000000D03*
X293185992Y20000000D03*
X294185992Y20000000D03*
X295185992Y20000000D03*
X296185992Y20000000D03*
D50*
X290885992Y23875000D03*
X297485992Y23875000D03*
%TD*%
D49*
%TO.C,J1*%
X279837000Y20000000D03*
X280837000Y20000000D03*
X281837000Y20000000D03*
X282837000Y20000000D03*
X283837000Y20000000D03*
X284837000Y20000000D03*
X285837000Y20000000D03*
X286837000Y20000000D03*
D50*
X278537000Y23875000D03*
X288137000Y23875000D03*
%TD*%
D44*
%TO.C,R11*%
X263596492Y9270500D03*
X263596492Y7620500D03*
%TD*%
D42*
%TO.C,C4*%
X272200390Y18846500D03*
X272200390Y20396500D03*
%TD*%
%TO.C,C5*%
X288168000Y3243008D03*
X288168000Y4793008D03*
%TD*%
D33*
%TO.C,R2*%
X261710992Y26098500D03*
X260060992Y26098500D03*
%TD*%
D51*
%TO.C,D1*%
X324391390Y21798500D03*
X324391390Y19698500D03*
%TD*%
D46*
%TO.C,C2*%
X273152890Y25848500D03*
X273152890Y24298500D03*
%TD*%
M02*
