M48
; DRILL file {KiCad (6.0.0)} date Wed Jan 12 23:24:38 2022
; FORMAT={-:-/ absolute / metric / decimal}
; #@! TF.CreationDate,2022-01-12T23:24:38+01:00
; #@! TF.GenerationSoftware,Kicad,Pcbnew,(6.0.0)
; #@! TF.FileFunction,NonPlated,1,2,NPTH
FMAT,2
METRIC
; #@! TA.AperFunction,NonPlated,NPTH,ComponentDrill
T1C0.650
; #@! TA.AperFunction,NonPlated,NPTH,ComponentDrill
T2C1.750
; #@! TA.AperFunction,NonPlated,NPTH,ComponentDrill
T3C3.048
; #@! TA.AperFunction,NonPlated,NPTH,ComponentDrill
T4C3.988
; #@! TA.AperFunction,NonPlated,NPTH,ComponentDrill
T5C4.000
; #@! TA.AperFunction,NonPlated,NPTH,ComponentDrill
T6C6.000
%
G90
G05
T1
X313.316Y24.3
X319.096Y24.3
T2
X-5.08Y0.0
X-5.08Y-38.1
X-5.08Y-114.3
X-2.699Y-76.2
X-2.699Y-95.25
X-0.318Y-57.15
X-0.318Y-114.3
X2.064Y-76.2
X5.08Y0.0
X5.08Y-38.1
X5.08Y-114.3
X6.826Y-95.25
X7.461Y-76.2
X7.461Y-95.25
X9.842Y-57.15
X9.842Y-114.3
X12.224Y-76.2
X13.97Y-38.1
X13.97Y-114.3
X16.986Y-95.25
X18.732Y-95.25
X19.328Y0.0
X23.495Y-57.15
X24.13Y-38.1
X24.13Y-114.3
X28.258Y-76.2
X28.258Y-114.3
X28.892Y-95.25
X29.488Y0.0
X33.02Y-38.1
X33.02Y-114.3
X33.655Y-57.15
X37.782Y-95.25
X38.378Y0.0
X38.417Y-76.2
X38.417Y-114.3
X42.545Y-57.15
X43.18Y-38.1
X43.18Y-114.3
X47.307Y-76.2
X47.942Y-95.25
X48.538Y0.0
X52.07Y-38.1
X52.705Y-57.15
X56.832Y-95.25
X57.428Y0.0
X57.467Y-76.2
X61.595Y-57.15
X62.23Y-38.1
X66.358Y-76.2
X66.992Y-95.25
X67.588Y0.0
X71.12Y-38.1
X71.755Y-57.15
X75.882Y-95.25
X76.478Y0.0
X76.517Y-76.2
X80.645Y-57.15
X81.28Y-38.1
X85.407Y-76.2
X86.042Y-95.25
X86.638Y0.0
X90.17Y-38.1
X90.17Y-114.3
X90.805Y-57.15
X94.932Y-95.25
X95.567Y-76.2
X99.695Y-57.15
X100.33Y-38.1
X100.33Y-114.3
X100.886Y0.0
X104.457Y-76.2
X105.093Y-95.25
X109.22Y-38.1
X109.22Y-114.3
X109.22Y-114.3
X109.855Y-57.15
X111.046Y0.0
X113.983Y-95.25
X114.617Y-76.2
X118.745Y-57.15
X119.38Y-38.1
X119.38Y-114.3
X119.38Y-114.3
X119.936Y0.0
X123.507Y-76.2
X124.142Y-95.25
X128.27Y-38.1
X128.905Y-57.15
X130.096Y0.0
X133.032Y-95.25
X133.667Y-76.2
X137.795Y-57.15
X138.43Y-38.1
X138.986Y0.0
X142.558Y-76.2
X143.192Y-95.25
X147.32Y-38.1
X147.955Y-57.15
X149.146Y0.0
X152.082Y-95.25
X152.718Y-76.2
X156.845Y-57.15
X157.48Y-38.1
X158.036Y0.0
X161.607Y-76.2
X162.243Y-95.25
X166.37Y-38.1
X166.37Y-114.3
X167.005Y-57.15
X168.196Y0.0
X171.132Y-95.25
X171.767Y-76.2
X175.895Y-57.15
X176.53Y-38.1
X176.53Y-114.3
X180.657Y-76.2
X181.292Y-95.25
X182.444Y0.0
X185.42Y-38.1
X185.42Y-114.3
X186.055Y-57.15
X190.183Y-95.25
X190.183Y-114.3
X190.817Y-76.2
X192.604Y0.0
X194.945Y-57.15
X195.58Y-38.1
X195.58Y-114.3
X199.707Y-76.2
X200.343Y-95.25
X200.343Y-114.3
X201.494Y0.0
X204.47Y-38.1
X204.47Y-114.3
X205.105Y-57.15
X209.232Y-95.25
X209.867Y-76.2
X211.654Y0.0
X213.995Y-57.15
X214.63Y-38.1
X214.63Y-114.3
X218.757Y-76.2
X218.757Y-114.3
X219.392Y-95.25
X220.544Y0.0
X223.52Y-38.1
X223.52Y-114.3
X224.155Y-57.15
X228.917Y-76.2
X228.917Y-114.3
X230.704Y0.0
X233.045Y-57.15
X233.68Y-38.1
X233.68Y-114.3
X235.426Y-95.25
X237.807Y-76.2
X239.594Y0.0
X243.205Y-57.15
X245.586Y-95.25
X247.928Y-119.658
X247.968Y-76.2
X249.714Y-76.2
X249.754Y0.0
X252.095Y-38.1
X256.858Y-57.15
X258.088Y-119.658
X259.874Y-76.2
X262.255Y-38.1
X264.319Y-61.595
X264.319Y-71.755
X266.978Y-100.608
X266.978Y-119.658
X267.017Y-57.15
X277.138Y-100.608
X277.138Y-119.658
X286.028Y-119.658
X291.386Y0.0
X291.386Y-19.05
X291.386Y-38.1
X291.386Y-57.15
X291.386Y-76.2
X291.386Y-95.25
X296.188Y-119.658
X301.546Y0.0
X301.546Y-19.05
X301.546Y-38.1
X301.546Y-57.15
X301.546Y-76.2
X301.546Y-95.25
X310.436Y0.0
X310.436Y-19.05
X310.436Y-38.1
X310.436Y-57.15
X310.436Y-76.2
X310.436Y-95.25
X310.436Y-114.3
X320.596Y0.0
X320.596Y-19.05
X320.596Y-38.1
X320.596Y-57.15
X320.596Y-76.2
X320.596Y-95.25
X320.596Y-114.3
X329.486Y0.0
X329.486Y-19.05
X329.486Y-38.1
X329.486Y-57.15
X329.486Y-76.2
X329.486Y-95.25
X329.486Y-114.3
X339.646Y0.0
X339.646Y-19.05
X339.646Y-38.1
X339.646Y-57.15
X339.646Y-76.2
X339.646Y-95.25
X339.646Y-114.3
X348.536Y0.0
X348.536Y-19.05
X348.536Y-38.1
X348.536Y-57.15
X348.536Y-76.2
X348.536Y-104.775
X358.696Y0.0
X358.696Y-19.05
X358.696Y-38.1
X358.696Y-57.15
X358.696Y-76.2
X358.696Y-104.775
T3
X-0.032Y-88.265
X23.844Y-88.265
X57.15Y-107.315
X57.15Y-107.315
X152.4Y-107.315
X171.45Y-107.315
X242.856Y-69.215
X245.237Y-31.115
X266.732Y-69.215
X269.113Y-31.115
X271.304Y-54.737
X271.304Y-78.613
X346.631Y-92.837
X346.631Y-116.713
T4
X-0.032Y-103.505
X0.0Y0.0
X0.0Y-38.1
X0.0Y-114.3
X2.381Y-76.2
X2.381Y-95.25
X4.763Y-57.15
X4.763Y-114.3
X7.144Y-76.2
X11.906Y-95.25
X19.05Y-38.1
X19.05Y-114.3
X23.812Y-95.25
X23.844Y-103.505
X24.408Y0.0
X28.575Y-57.15
X33.337Y-76.2
X33.337Y-114.3
X38.1Y-38.1
X38.1Y-114.3
X42.862Y-95.25
X43.458Y0.0
X47.625Y-57.15
X52.387Y-76.2
X57.15Y-38.1
X57.15Y-122.555
X57.15Y-122.555
X61.912Y-95.25
X62.508Y0.0
X66.675Y-57.15
X71.438Y-76.2
X76.2Y-38.1
X80.962Y-95.25
X81.558Y0.0
X85.725Y-57.15
X90.487Y-76.2
X95.25Y-38.1
X95.25Y-114.3
X100.012Y-95.25
X104.775Y-57.15
X105.966Y0.0
X109.537Y-76.2
X114.3Y-38.1
X114.3Y-114.3
X114.3Y-114.3
X119.062Y-95.25
X123.825Y-57.15
X125.016Y0.0
X128.588Y-76.2
X133.35Y-38.1
X138.112Y-95.25
X142.875Y-57.15
X144.066Y0.0
X147.637Y-76.2
X152.4Y-38.1
X152.4Y-122.555
X157.162Y-95.25
X161.925Y-57.15
X163.116Y0.0
X166.688Y-76.2
X171.45Y-38.1
X171.45Y-114.3
X171.45Y-122.555
X176.213Y-95.25
X180.975Y-57.15
X185.737Y-76.2
X187.524Y0.0
X190.5Y-38.1
X190.5Y-114.3
X195.262Y-95.25
X195.262Y-114.3
X200.025Y-57.15
X204.787Y-76.2
X206.574Y0.0
X209.55Y-38.1
X209.55Y-114.3
X214.312Y-95.25
X219.075Y-57.15
X223.837Y-76.2
X223.837Y-114.3
X225.624Y0.0
X228.6Y-38.1
X228.6Y-114.3
X238.125Y-57.15
X240.506Y-95.25
X242.856Y-84.455
X242.887Y-76.2
X244.674Y0.0
X245.237Y-46.355
X253.008Y-119.658
X254.794Y-76.2
X256.064Y-54.737
X256.064Y-78.613
X257.175Y-38.1
X261.938Y-57.15
X264.319Y-66.675
X266.732Y-84.455
X269.113Y-46.355
X272.058Y-100.608
X272.058Y-119.658
X291.108Y-119.658
X296.466Y0.0
X296.466Y-19.05
X296.466Y-38.1
X296.466Y-57.15
X296.466Y-76.2
X296.466Y-95.25
X315.516Y0.0
X315.516Y-19.05
X315.516Y-38.1
X315.516Y-57.15
X315.516Y-76.2
X315.516Y-95.25
X315.516Y-114.3
X334.566Y0.0
X334.566Y-19.05
X334.566Y-38.1
X334.566Y-57.15
X334.566Y-76.2
X334.566Y-95.25
X334.566Y-114.3
X353.616Y0.0
X353.616Y-19.05
X353.616Y-38.1
X353.616Y-57.15
X353.616Y-76.2
X353.616Y-104.775
X361.871Y-92.837
X361.871Y-116.713
T5
X49.411Y-123.825
X304.205Y-123.825
T6
X49.411Y-19.05
X241.411Y-19.05
X309.4Y21.55
T0
M30
