%TF.GenerationSoftware,KiCad,Pcbnew,8.0.5*%
%TF.CreationDate,2024-09-24T18:12:56+02:00*%
%TF.ProjectId,E80-1800-pcb-universal,4538302d-3138-4303-902d-7063622d756e,rev?*%
%TF.SameCoordinates,Original*%
%TF.FileFunction,Soldermask,Top*%
%TF.FilePolarity,Negative*%
%FSLAX46Y46*%
G04 Gerber Fmt 4.6, Leading zero omitted, Abs format (unit mm)*
G04 Created by KiCad (PCBNEW 8.0.5) date 2024-09-24 18:12:56*
%MOMM*%
%LPD*%
G01*
G04 APERTURE LIST*
G04 Aperture macros list*
%AMRoundRect*
0 Rectangle with rounded corners*
0 $1 Rounding radius*
0 $2 $3 $4 $5 $6 $7 $8 $9 X,Y pos of 4 corners*
0 Add a 4 corners polygon primitive as box body*
4,1,4,$2,$3,$4,$5,$6,$7,$8,$9,$2,$3,0*
0 Add four circle primitives for the rounded corners*
1,1,$1+$1,$2,$3*
1,1,$1+$1,$4,$5*
1,1,$1+$1,$6,$7*
1,1,$1+$1,$8,$9*
0 Add four rect primitives between the rounded corners*
20,1,$1+$1,$2,$3,$4,$5,0*
20,1,$1+$1,$4,$5,$6,$7,0*
20,1,$1+$1,$6,$7,$8,$9,0*
20,1,$1+$1,$8,$9,$2,$3,0*%
G04 Aperture macros list end*
%ADD10C,1.850000*%
%ADD11C,4.087800*%
%ADD12C,6.100000*%
%ADD13RoundRect,0.050000X-0.900000X-0.900000X0.900000X-0.900000X0.900000X0.900000X-0.900000X0.900000X0*%
%ADD14C,1.900000*%
%ADD15C,4.100000*%
%ADD16RoundRect,0.300000X0.650000X0.300000X-0.650000X0.300000X-0.650000X-0.300000X0.650000X-0.300000X0*%
%ADD17RoundRect,0.050000X0.850000X0.850000X-0.850000X0.850000X-0.850000X-0.850000X0.850000X-0.850000X0*%
%ADD18O,1.800000X1.800000*%
%ADD19C,3.148000*%
%ADD20RoundRect,0.050000X-0.850000X0.850000X-0.850000X-0.850000X0.850000X-0.850000X0.850000X0.850000X0*%
%ADD21C,0.750000*%
%ADD22O,1.100000X1.700000*%
%ADD23O,1.100000X2.200000*%
G04 APERTURE END LIST*
D10*
%TO.C,MX4*%
X57427833Y0D03*
D11*
X62507833Y0D03*
D10*
X67587833Y0D03*
%TD*%
%TO.C,MX5*%
X76477833Y0D03*
D11*
X81557833Y0D03*
D10*
X86637833Y0D03*
%TD*%
%TO.C,MX7*%
X119935714Y0D03*
D11*
X125015714Y0D03*
D10*
X130095714Y0D03*
%TD*%
%TO.C,MX8*%
X138985714Y0D03*
D11*
X144065714Y0D03*
D10*
X149145714Y0D03*
%TD*%
%TO.C,MX9*%
X158035714Y0D03*
D11*
X163115714Y0D03*
D10*
X168195714Y0D03*
%TD*%
%TO.C,MX10*%
X182443595Y0D03*
D11*
X187523595Y0D03*
D10*
X192603595Y0D03*
%TD*%
%TO.C,MX12*%
X220543595Y0D03*
D11*
X225623595Y0D03*
D10*
X230703595Y0D03*
%TD*%
%TO.C,MX23*%
X13970000Y-38100000D03*
D11*
X19050000Y-38100000D03*
D10*
X24130000Y-38100000D03*
%TD*%
%TO.C,MX24*%
X33020000Y-38100000D03*
D11*
X38100000Y-38100000D03*
D10*
X43180000Y-38100000D03*
%TD*%
%TO.C,MX25*%
X52070000Y-38100000D03*
D11*
X57150000Y-38100000D03*
D10*
X62230000Y-38100000D03*
%TD*%
%TO.C,MX26*%
X71120000Y-38100000D03*
D11*
X76200000Y-38100000D03*
D10*
X81280000Y-38100000D03*
%TD*%
%TO.C,MX27*%
X90170000Y-38100000D03*
D11*
X95250000Y-38100000D03*
D10*
X100330000Y-38100000D03*
%TD*%
%TO.C,MX28*%
X109220000Y-38100000D03*
D11*
X114300000Y-38100000D03*
D10*
X119380000Y-38100000D03*
%TD*%
%TO.C,MX29*%
X128270000Y-38100000D03*
D11*
X133350000Y-38100000D03*
D10*
X138430000Y-38100000D03*
%TD*%
%TO.C,MX30*%
X147320000Y-38100000D03*
D11*
X152400000Y-38100000D03*
D10*
X157480000Y-38100000D03*
%TD*%
%TO.C,MX31*%
X166370000Y-38100000D03*
D11*
X171450000Y-38100000D03*
D10*
X176530000Y-38100000D03*
%TD*%
%TO.C,MX33*%
X204470000Y-38100000D03*
D11*
X209550000Y-38100000D03*
D10*
X214630000Y-38100000D03*
%TD*%
%TO.C,MX34*%
X223520000Y-38100000D03*
D11*
X228600000Y-38100000D03*
D10*
X233680000Y-38100000D03*
%TD*%
%TO.C,MX35*%
X252095000Y-38100000D03*
D11*
X257175000Y-38100000D03*
D10*
X262255000Y-38100000D03*
%TD*%
%TO.C,MX40*%
X-317500Y-57150000D03*
D11*
X4762500Y-57150000D03*
D10*
X9842500Y-57150000D03*
%TD*%
%TO.C,MX41*%
X23495000Y-57150000D03*
D11*
X28575000Y-57150000D03*
D10*
X33655000Y-57150000D03*
%TD*%
%TO.C,MX42*%
X42545000Y-57150000D03*
D11*
X47625000Y-57150000D03*
D10*
X52705000Y-57150000D03*
%TD*%
%TO.C,MX43*%
X61595000Y-57150000D03*
D11*
X66675000Y-57150000D03*
D10*
X71755000Y-57150000D03*
%TD*%
%TO.C,MX44*%
X80645000Y-57150000D03*
D11*
X85725000Y-57150000D03*
D10*
X90805000Y-57150000D03*
%TD*%
%TO.C,MX45*%
X99695000Y-57150000D03*
D11*
X104775000Y-57150000D03*
D10*
X109855000Y-57150000D03*
%TD*%
%TO.C,MX46*%
X118745000Y-57150000D03*
D11*
X123825000Y-57150000D03*
D10*
X128905000Y-57150000D03*
%TD*%
%TO.C,MX47*%
X137795000Y-57150000D03*
D11*
X142875000Y-57150000D03*
D10*
X147955000Y-57150000D03*
%TD*%
%TO.C,MX48*%
X156845000Y-57150000D03*
D11*
X161925000Y-57150000D03*
D10*
X167005000Y-57150000D03*
%TD*%
%TO.C,MX49*%
X175895000Y-57150000D03*
D11*
X180975000Y-57150000D03*
D10*
X186055000Y-57150000D03*
%TD*%
%TO.C,MX50*%
X194945000Y-57150000D03*
D11*
X200025000Y-57150000D03*
D10*
X205105000Y-57150000D03*
%TD*%
%TO.C,MX51*%
X213995000Y-57150000D03*
D11*
X219075000Y-57150000D03*
D10*
X224155000Y-57150000D03*
%TD*%
%TO.C,MX52*%
X233045000Y-57150000D03*
D11*
X238125000Y-57150000D03*
D10*
X243205000Y-57150000D03*
%TD*%
%TO.C,MX53*%
X256857500Y-57150000D03*
D11*
X261937500Y-57150000D03*
D10*
X267017500Y-57150000D03*
%TD*%
%TO.C,MX58*%
X2063750Y-76200000D03*
D11*
X7143750Y-76200000D03*
D10*
X12223750Y-76200000D03*
%TD*%
%TO.C,MX60*%
X28257500Y-76200000D03*
D11*
X33337500Y-76200000D03*
D10*
X38417500Y-76200000D03*
%TD*%
%TO.C,MX61*%
X47307500Y-76200000D03*
D11*
X52387500Y-76200000D03*
D10*
X57467500Y-76200000D03*
%TD*%
%TO.C,MX62*%
X66357500Y-76200000D03*
D11*
X71437500Y-76200000D03*
D10*
X76517500Y-76200000D03*
%TD*%
%TO.C,MX63*%
X85407500Y-76200000D03*
D11*
X90487500Y-76200000D03*
D10*
X95567500Y-76200000D03*
%TD*%
%TO.C,MX64*%
X104457500Y-76200000D03*
D11*
X109537500Y-76200000D03*
D10*
X114617500Y-76200000D03*
%TD*%
%TO.C,MX65*%
X123507500Y-76200000D03*
D11*
X128587500Y-76200000D03*
D10*
X133667500Y-76200000D03*
%TD*%
%TO.C,MX66*%
X142557500Y-76200000D03*
D11*
X147637500Y-76200000D03*
D10*
X152717500Y-76200000D03*
%TD*%
%TO.C,MX67*%
X161607500Y-76200000D03*
D11*
X166687500Y-76200000D03*
D10*
X171767500Y-76200000D03*
%TD*%
%TO.C,MX68*%
X180657500Y-76200000D03*
D11*
X185737500Y-76200000D03*
D10*
X190817500Y-76200000D03*
%TD*%
%TO.C,MX69*%
X199707500Y-76200000D03*
D11*
X204787500Y-76200000D03*
D10*
X209867500Y-76200000D03*
%TD*%
%TO.C,MX70*%
X218757500Y-76200000D03*
D11*
X223837500Y-76200000D03*
D10*
X228917500Y-76200000D03*
%TD*%
%TO.C,MX71*%
X237807500Y-76200000D03*
D11*
X242887500Y-76200000D03*
D10*
X247967500Y-76200000D03*
%TD*%
%TO.C,MX72*%
X264318750Y-61595000D03*
D11*
X264318750Y-66675000D03*
D10*
X264318750Y-71755000D03*
%TD*%
%TO.C,MX73*%
X249713750Y-76200000D03*
D11*
X254793750Y-76200000D03*
D10*
X259873750Y-76200000D03*
%TD*%
%TO.C,MX78*%
X-2698750Y-95250000D03*
D11*
X2381250Y-95250000D03*
D10*
X7461250Y-95250000D03*
%TD*%
%TO.C,MX79*%
X6826250Y-95250000D03*
D11*
X11906250Y-95250000D03*
D10*
X16986250Y-95250000D03*
%TD*%
%TO.C,MX80*%
X18732500Y-95250000D03*
D11*
X23812500Y-95250000D03*
D10*
X28892500Y-95250000D03*
%TD*%
%TO.C,MX82*%
X56832500Y-95250000D03*
D11*
X61912500Y-95250000D03*
D10*
X66992500Y-95250000D03*
%TD*%
%TO.C,MX83*%
X75882500Y-95250000D03*
D11*
X80962500Y-95250000D03*
D10*
X86042500Y-95250000D03*
%TD*%
%TO.C,MX84*%
X94932500Y-95250000D03*
D11*
X100012500Y-95250000D03*
D10*
X105092500Y-95250000D03*
%TD*%
%TO.C,MX85*%
X113982500Y-95250000D03*
D11*
X119062500Y-95250000D03*
D10*
X124142500Y-95250000D03*
%TD*%
%TO.C,MX86*%
X133032500Y-95250000D03*
D11*
X138112500Y-95250000D03*
D10*
X143192500Y-95250000D03*
%TD*%
%TO.C,MX87*%
X152082500Y-95250000D03*
D11*
X157162500Y-95250000D03*
D10*
X162242500Y-95250000D03*
%TD*%
%TO.C,MX88*%
X171132500Y-95250000D03*
D11*
X176212500Y-95250000D03*
D10*
X181292500Y-95250000D03*
%TD*%
%TO.C,MX89*%
X190182500Y-95250000D03*
D11*
X195262500Y-95250000D03*
D10*
X200342500Y-95250000D03*
%TD*%
%TO.C,MX90*%
X209232500Y-95250000D03*
D11*
X214312500Y-95250000D03*
D10*
X219392500Y-95250000D03*
%TD*%
%TO.C,MX91*%
X235426250Y-95250000D03*
D11*
X240506250Y-95250000D03*
D10*
X245586250Y-95250000D03*
%TD*%
%TO.C,MX93*%
X291385890Y-95250000D03*
D11*
X296465890Y-95250000D03*
D10*
X301545890Y-95250000D03*
%TD*%
%TO.C,MX94*%
X310435890Y-95250000D03*
D11*
X315515890Y-95250000D03*
D10*
X320595890Y-95250000D03*
%TD*%
%TO.C,MX95*%
X329485890Y-95250000D03*
D11*
X334565890Y-95250000D03*
D10*
X339645890Y-95250000D03*
%TD*%
%TO.C,MX97*%
X-5080000Y-114300000D03*
D11*
X0Y-114300000D03*
D10*
X5080000Y-114300000D03*
%TD*%
%TO.C,MX102*%
X99695000Y-114300000D03*
D11*
X104775000Y-114300000D03*
D10*
X109855000Y-114300000D03*
%TD*%
%TO.C,MX105*%
X166370000Y-114300000D03*
D11*
X171450000Y-114300000D03*
D10*
X176530000Y-114300000D03*
%TD*%
%TO.C,MX107*%
X185420000Y-114300000D03*
D11*
X190500000Y-114300000D03*
D10*
X195580000Y-114300000D03*
%TD*%
%TO.C,MX108*%
X204470000Y-114300000D03*
D11*
X209550000Y-114300000D03*
D10*
X214630000Y-114300000D03*
%TD*%
%TO.C,MX109*%
X223520000Y-114300000D03*
D11*
X228600000Y-114300000D03*
D10*
X233680000Y-114300000D03*
%TD*%
%TO.C,MX112*%
X266978025Y-119657913D03*
D11*
X272058025Y-119657913D03*
D10*
X277138025Y-119657913D03*
%TD*%
%TO.C,MX113*%
X286028025Y-119657913D03*
D11*
X291108025Y-119657913D03*
D10*
X296188025Y-119657913D03*
%TD*%
%TO.C,MX115*%
X329485890Y-114300000D03*
D11*
X334565890Y-114300000D03*
D10*
X339645890Y-114300000D03*
%TD*%
%TO.C,MX99*%
X13970000Y-114300000D03*
D11*
X19050000Y-114300000D03*
D10*
X24130000Y-114300000D03*
%TD*%
%TO.C,MX100*%
X33020000Y-114300000D03*
D11*
X38100000Y-114300000D03*
D10*
X43180000Y-114300000D03*
%TD*%
%TO.C,MX81*%
X37782500Y-95250000D03*
D11*
X42862500Y-95250000D03*
D10*
X47942500Y-95250000D03*
%TD*%
%TO.C,MX32*%
X185420000Y-38100000D03*
D11*
X190500000Y-38100000D03*
D10*
X195580000Y-38100000D03*
%TD*%
%TO.C,MX96*%
X348535890Y-104775000D03*
D11*
X353615890Y-104775000D03*
D10*
X358695890Y-104775000D03*
%TD*%
%TO.C,MX2*%
X19327833Y0D03*
D11*
X24407833Y0D03*
D10*
X29487833Y0D03*
%TD*%
%TO.C,MX6*%
X100885714Y0D03*
D11*
X105965714Y0D03*
D10*
X111045714Y0D03*
%TD*%
%TO.C,MX11*%
X201493595Y0D03*
D11*
X206573595Y0D03*
D10*
X211653595Y0D03*
%TD*%
%TO.C,MX114*%
X310435890Y-114300000D03*
D11*
X315515890Y-114300000D03*
D10*
X320595890Y-114300000D03*
%TD*%
%TO.C,MX15*%
X310435890Y0D03*
D11*
X315515890Y0D03*
D10*
X320595890Y0D03*
%TD*%
%TO.C,MX19*%
X310435890Y-19050000D03*
D11*
X315515890Y-19050000D03*
D10*
X320595890Y-19050000D03*
%TD*%
%TO.C,MX16*%
X329485890Y0D03*
D11*
X334565890Y0D03*
D10*
X339645890Y0D03*
%TD*%
%TO.C,MX18*%
X291385890Y-19050000D03*
D11*
X296465890Y-19050000D03*
D10*
X301545890Y-19050000D03*
%TD*%
%TO.C,MX17*%
X348535890Y0D03*
D11*
X353615890Y0D03*
D10*
X358695890Y0D03*
%TD*%
%TO.C,MX20*%
X329485890Y-19050000D03*
D11*
X334565890Y-19050000D03*
D10*
X339645890Y-19050000D03*
%TD*%
%TO.C,MX21*%
X348535890Y-19050000D03*
D11*
X353615890Y-19050000D03*
D10*
X358695890Y-19050000D03*
%TD*%
%TO.C,MX36*%
X291385890Y-38100000D03*
D11*
X296465890Y-38100000D03*
D10*
X301545890Y-38100000D03*
%TD*%
%TO.C,MX37*%
X310435890Y-38100000D03*
D11*
X315515890Y-38100000D03*
D10*
X320595890Y-38100000D03*
%TD*%
%TO.C,MX38*%
X329485890Y-38100000D03*
D11*
X334565890Y-38100000D03*
D10*
X339645890Y-38100000D03*
%TD*%
%TO.C,MX76*%
X329485890Y-76200000D03*
D11*
X334565890Y-76200000D03*
D10*
X339645890Y-76200000D03*
%TD*%
%TO.C,MX77*%
X348535890Y-76200000D03*
D11*
X353615890Y-76200000D03*
D10*
X358695890Y-76200000D03*
%TD*%
%TO.C,MX54*%
X291385890Y-57150000D03*
D11*
X296465890Y-57150000D03*
D10*
X301545890Y-57150000D03*
%TD*%
%TO.C,MX57*%
X348535890Y-57150000D03*
D11*
X353615890Y-57150000D03*
D10*
X358695890Y-57150000D03*
%TD*%
%TO.C,MX55*%
X310435890Y-57150000D03*
D11*
X315515890Y-57150000D03*
D10*
X320595890Y-57150000D03*
%TD*%
%TO.C,MX56*%
X329485890Y-57150000D03*
D11*
X334565890Y-57150000D03*
D10*
X339645890Y-57150000D03*
%TD*%
%TO.C,MX75*%
X310435890Y-76200000D03*
D11*
X315515890Y-76200000D03*
D10*
X320595890Y-76200000D03*
%TD*%
%TO.C,MX74*%
X291385890Y-76200000D03*
D11*
X296465890Y-76200000D03*
D10*
X301545890Y-76200000D03*
%TD*%
%TO.C,MX110*%
X218757500Y-114300000D03*
D11*
X223837500Y-114300000D03*
D10*
X228917500Y-114300000D03*
%TD*%
%TO.C,MX98*%
X-317500Y-114300000D03*
D11*
X4762500Y-114300000D03*
D10*
X9842500Y-114300000D03*
%TD*%
%TO.C,MX101*%
X28257500Y-114300000D03*
D11*
X33337500Y-114300000D03*
D10*
X38417500Y-114300000D03*
%TD*%
%TO.C,MX104*%
X90170100Y-114300120D03*
D11*
X95250100Y-114300120D03*
D10*
X100330100Y-114300120D03*
%TD*%
%TO.C,MX13*%
X239593595Y0D03*
D11*
X244673595Y0D03*
D10*
X249753595Y0D03*
%TD*%
%TO.C,MX3*%
X38377833Y0D03*
D11*
X43457833Y0D03*
D10*
X48537833Y0D03*
%TD*%
%TO.C,MX14*%
X291385890Y0D03*
D11*
X296465890Y0D03*
D10*
X301545890Y0D03*
%TD*%
%TO.C,MX111*%
X247928025Y-119657913D03*
D11*
X253008025Y-119657913D03*
D10*
X258088025Y-119657913D03*
%TD*%
%TO.C,MX22*%
X-5080000Y-38100000D03*
D11*
X0Y-38100000D03*
D10*
X5080000Y-38100000D03*
%TD*%
%TO.C,MX106*%
X190182500Y-114300000D03*
D11*
X195262500Y-114300000D03*
D10*
X200342500Y-114300000D03*
%TD*%
%TO.C,MX92*%
X266978025Y-100607913D03*
D11*
X272058025Y-100607913D03*
D10*
X277138025Y-100607913D03*
%TD*%
%TO.C,MX39*%
X348535890Y-38100000D03*
D11*
X353615890Y-38100000D03*
D10*
X358695890Y-38100000D03*
%TD*%
%TO.C,MX59*%
X-2698750Y-76200000D03*
D11*
X2381250Y-76200000D03*
D10*
X7461250Y-76200000D03*
%TD*%
D12*
%TO.C,H1*%
X49410992Y-19049992D03*
%TD*%
%TO.C,H2*%
X241410992Y-19049992D03*
%TD*%
%TO.C,H3*%
X309400000Y21550008D03*
%TD*%
D13*
%TO.C,D2*%
X263127992Y-5357792D03*
D14*
X265667992Y-5357792D03*
%TD*%
D13*
%TO.C,D3*%
X270271992Y-5357792D03*
D14*
X272811992Y-5357792D03*
%TD*%
D13*
%TO.C,D4*%
X277415992Y-5357792D03*
D14*
X279955992Y-5357792D03*
%TD*%
D15*
%TO.C,H4*%
X304204992Y-123824992D03*
%TD*%
D10*
%TO.C,MX103*%
X109220000Y-114300000D03*
D11*
X114300000Y-114300000D03*
D10*
X119380000Y-114300000D03*
%TD*%
D16*
%TO.C,SW1*%
X74530242Y-112459996D03*
X68330242Y-112459996D03*
X74530242Y-108759996D03*
X68330242Y-108759996D03*
%TD*%
%TO.C,SW2*%
X74530242Y-119842422D03*
X68330242Y-119842422D03*
X74530242Y-116142422D03*
X68330242Y-116142422D03*
%TD*%
D15*
%TO.C,H5*%
X49410992Y-123824992D03*
%TD*%
D17*
%TO.C,J3*%
X257341390Y18478500D03*
D18*
X257341390Y21018500D03*
X257341390Y23558500D03*
X257341390Y26098500D03*
%TD*%
D10*
%TO.C,MX1*%
X-5080000Y0D03*
D11*
X0Y0D03*
D10*
X5080000Y0D03*
%TD*%
D19*
%TO.C,S2*%
X57150000Y-107315000D03*
D11*
X57150000Y-122555000D03*
D19*
X152400000Y-107315000D03*
D11*
X152400000Y-122555000D03*
%TD*%
D19*
%TO.C,S3*%
X57150000Y-107315000D03*
D11*
X57150000Y-122555000D03*
D19*
X171450000Y-107315000D03*
D11*
X171450000Y-122555000D03*
%TD*%
%TO.C,S5*%
X256063750Y-54768750D03*
X256063750Y-78581250D03*
D19*
X271303750Y-54768750D03*
X271303750Y-78581250D03*
%TD*%
%TO.C,S6*%
X245268750Y-31115000D03*
D11*
X245268750Y-46355000D03*
D19*
X269081250Y-31115000D03*
D11*
X269081250Y-46355000D03*
%TD*%
D19*
%TO.C,S4*%
X242887500Y-69215000D03*
D11*
X242887500Y-84455000D03*
D19*
X266700000Y-69215000D03*
D11*
X266700000Y-84455000D03*
%TD*%
D20*
%TO.C,JP2*%
X80100000Y-111900000D03*
D18*
X77560000Y-111900000D03*
%TD*%
D19*
%TO.C,S7*%
X346630890Y-116681250D03*
D11*
X361870890Y-116681250D03*
D19*
X346630890Y-92868750D03*
D11*
X361870890Y-92868750D03*
%TD*%
D20*
%TO.C,JP3*%
X80100000Y-116550000D03*
D18*
X77560000Y-116550000D03*
%TD*%
D19*
%TO.C,S1*%
X0Y-88265000D03*
D11*
X0Y-103505000D03*
D19*
X23812500Y-88265000D03*
D11*
X23812500Y-103505000D03*
%TD*%
D21*
%TO.C,J4*%
X313315890Y24300000D03*
X319095890Y24300000D03*
D22*
X311885890Y27950000D03*
D23*
X311885890Y23770000D03*
D22*
X320525890Y27950000D03*
D23*
X320525890Y23770000D03*
%TD*%
M02*
