%TF.GenerationSoftware,KiCad,Pcbnew,8.0.5*%
%TF.CreationDate,2024-09-24T18:12:57+02:00*%
%TF.ProjectId,E80-1800-pcb-universal,4538302d-3138-4303-902d-7063622d756e,rev?*%
%TF.SameCoordinates,Original*%
%TF.FileFunction,Profile,NP*%
%FSLAX46Y46*%
G04 Gerber Fmt 4.6, Leading zero omitted, Abs format (unit mm)*
G04 Created by KiCad (PCBNEW 8.0.5) date 2024-09-24 18:12:57*
%MOMM*%
%LPD*%
G01*
G04 APERTURE LIST*
%TA.AperFunction,Profile*%
%ADD10C,0.050000*%
%TD*%
G04 APERTURE END LIST*
D10*
X-12000000Y19000000D02*
X252000000Y19000000D01*
X-14000000Y17000000D02*
X-14000000Y-129000000D01*
X79985992Y-129000000D02*
X79985992Y-128586992D01*
X75985992Y-129000000D02*
X75985992Y-128586992D01*
X366000000Y19000000D02*
X332000000Y19000000D01*
X330000000Y21000000D02*
X330000000Y27000000D01*
X328000000Y29000000D02*
X256000000Y29000000D01*
X254000000Y27000000D02*
X254000000Y21000000D01*
X313561992Y-131000000D02*
X366000000Y-131000000D01*
X368000000Y-129000000D02*
X368000000Y17000000D01*
X73985992Y-131000000D02*
X-12000000Y-131000000D01*
X81985992Y-131000000D02*
X305561992Y-131000000D01*
X311561992Y-126600000D02*
X311561992Y-129000000D01*
X307561992Y-126600000D02*
X307561992Y-129000000D01*
X76000000Y-126600000D02*
G75*
G02*
X80000000Y-126600000I2000000J0D01*
G01*
X80000000Y-126600000D02*
X79985992Y-128586992D01*
X75985992Y-128586992D02*
X76000000Y-126600000D01*
X332000000Y19000000D02*
G75*
G02*
X330000000Y21000000I0J2000000D01*
G01*
X-14000000Y17000000D02*
G75*
G02*
X-12000000Y19000000I1999999J1D01*
G01*
X254000000Y21000000D02*
G75*
G02*
X252000000Y19000000I-2000000J0D01*
G01*
X313561992Y-131000000D02*
G75*
G02*
X311562000Y-129000000I8J2000000D01*
G01*
X-12000000Y-131000000D02*
G75*
G02*
X-14000000Y-129000000I-1J1999999D01*
G01*
X81985992Y-131000000D02*
G75*
G02*
X79986000Y-129000000I8J2000000D01*
G01*
X328000000Y29000000D02*
G75*
G02*
X330000000Y27000000I0J-2000000D01*
G01*
X368000000Y-129000000D02*
G75*
G02*
X366000000Y-131000000I-2000000J0D01*
G01*
X75985992Y-129000000D02*
G75*
G02*
X73985992Y-130999992I-1999992J0D01*
G01*
X254000000Y27000000D02*
G75*
G02*
X256000000Y29000000I2000000J0D01*
G01*
X307561992Y-129000000D02*
G75*
G02*
X305561992Y-130999992I-1999992J0D01*
G01*
X307561992Y-126600000D02*
G75*
G02*
X311561992Y-126600000I2000000J0D01*
G01*
X366000000Y19000000D02*
G75*
G02*
X368000000Y17000000I0J-2000000D01*
G01*
M02*
