M48
; DRILL file {KiCad 8.0.5} date 2024-09-24T18:12:57+0200
; FORMAT={-:-/ absolute / inch / decimal}
; #@! TF.CreationDate,2024-09-24T18:12:57+02:00
; #@! TF.GenerationSoftware,Kicad,Pcbnew,8.0.5
; #@! TF.FileFunction,NonPlated,1,2,NPTH
FMAT,2
INCH
; #@! TA.AperFunction,NonPlated,NPTH,ComponentDrill
T1C0.0256
; #@! TA.AperFunction,NonPlated,NPTH,ComponentDrill
T2C0.0689
; #@! TA.AperFunction,NonPlated,NPTH,ComponentDrill
T3C0.1200
; #@! TA.AperFunction,NonPlated,NPTH,ComponentDrill
T4C0.1570
; #@! TA.AperFunction,NonPlated,NPTH,ComponentDrill
T5C0.1575
; #@! TA.AperFunction,NonPlated,NPTH,ComponentDrill
T6C0.2362
%
G90
G05
T1
X12.3353Y0.9567
X12.5628Y0.9567
T2
X-0.2Y0.0
X-0.2Y-1.5
X-0.2Y-4.5
X-0.1062Y-3.0
X-0.1062Y-3.75
X-0.0125Y-2.25
X-0.0125Y-4.5
X0.0813Y-3.0
X0.2Y0.0
X0.2Y-1.5
X0.2Y-4.5
X0.2687Y-3.75
X0.2938Y-3.0
X0.2938Y-3.75
X0.3875Y-2.25
X0.3875Y-4.5
X0.4813Y-3.0
X0.55Y-1.5
X0.55Y-4.5
X0.6687Y-3.75
X0.7375Y-3.75
X0.7609Y0.0
X0.925Y-2.25
X0.95Y-1.5
X0.95Y-4.5
X1.1125Y-3.0
X1.1125Y-4.5
X1.1375Y-3.75
X1.1609Y0.0
X1.3Y-1.5
X1.3Y-4.5
X1.325Y-2.25
X1.4875Y-3.75
X1.5109Y0.0
X1.5125Y-3.0
X1.5125Y-4.5
X1.675Y-2.25
X1.7Y-1.5
X1.7Y-4.5
X1.8625Y-3.0
X1.8875Y-3.75
X1.9109Y0.0
X2.05Y-1.5
X2.075Y-2.25
X2.2375Y-3.75
X2.2609Y0.0
X2.2625Y-3.0
X2.425Y-2.25
X2.45Y-1.5
X2.6125Y-3.0
X2.6375Y-3.75
X2.6609Y0.0
X2.8Y-1.5
X2.825Y-2.25
X2.9875Y-3.75
X3.0109Y0.0
X3.0125Y-3.0
X3.175Y-2.25
X3.2Y-1.5
X3.3625Y-3.0
X3.3875Y-3.75
X3.4109Y0.0
X3.55Y-1.5
X3.55Y-4.5
X3.575Y-2.25
X3.7375Y-3.75
X3.7625Y-3.0
X3.925Y-2.25
X3.925Y-4.5
X3.95Y-1.5
X3.95Y-4.5
X3.9719Y0.0
X4.1125Y-3.0
X4.1375Y-3.75
X4.3Y-1.5
X4.3Y-4.5
X4.325Y-2.25
X4.325Y-4.5
X4.3719Y0.0
X4.4875Y-3.75
X4.5125Y-3.0
X4.675Y-2.25
X4.7Y-1.5
X4.7Y-4.5
X4.7219Y0.0
X4.8625Y-3.0
X4.8875Y-3.75
X5.05Y-1.5
X5.075Y-2.25
X5.1219Y0.0
X5.2375Y-3.75
X5.2625Y-3.0
X5.425Y-2.25
X5.45Y-1.5
X5.4719Y0.0
X5.6125Y-3.0
X5.6375Y-3.75
X5.8Y-1.5
X5.825Y-2.25
X5.8719Y0.0
X5.9875Y-3.75
X6.0125Y-3.0
X6.175Y-2.25
X6.2Y-1.5
X6.2219Y0.0
X6.3625Y-3.0
X6.3875Y-3.75
X6.55Y-1.5
X6.55Y-4.5
X6.575Y-2.25
X6.6219Y0.0
X6.7375Y-3.75
X6.7625Y-3.0
X6.925Y-2.25
X6.95Y-1.5
X6.95Y-4.5
X7.1125Y-3.0
X7.1375Y-3.75
X7.1828Y0.0
X7.3Y-1.5
X7.3Y-4.5
X7.325Y-2.25
X7.4875Y-3.75
X7.4875Y-4.5
X7.5125Y-3.0
X7.5828Y0.0
X7.675Y-2.25
X7.7Y-1.5
X7.7Y-4.5
X7.8625Y-3.0
X7.8875Y-3.75
X7.8875Y-4.5
X7.9328Y0.0
X8.05Y-1.5
X8.05Y-4.5
X8.075Y-2.25
X8.2375Y-3.75
X8.2625Y-3.0
X8.3328Y0.0
X8.425Y-2.25
X8.45Y-1.5
X8.45Y-4.5
X8.6125Y-3.0
X8.6125Y-4.5
X8.6375Y-3.75
X8.6828Y0.0
X8.8Y-1.5
X8.8Y-4.5
X8.825Y-2.25
X9.0125Y-3.0
X9.0125Y-4.5
X9.0828Y0.0
X9.175Y-2.25
X9.2Y-1.5
X9.2Y-4.5
X9.2687Y-3.75
X9.3625Y-3.0
X9.4328Y0.0
X9.575Y-2.25
X9.6687Y-3.75
X9.7609Y-4.7109
X9.7625Y-3.0
X9.8312Y-3.0
X9.8328Y0.0
X9.925Y-1.5
X10.1125Y-2.25
X10.1609Y-4.7109
X10.2312Y-3.0
X10.325Y-1.5
X10.4062Y-2.425
X10.4062Y-2.825
X10.5109Y-3.9609
X10.5109Y-4.7109
X10.5125Y-2.25
X10.9109Y-3.9609
X10.9109Y-4.7109
X11.2609Y-4.7109
X11.4719Y0.0
X11.4719Y-0.75
X11.4719Y-1.5
X11.4719Y-2.25
X11.4719Y-3.0
X11.4719Y-3.75
X11.6609Y-4.7109
X11.8719Y0.0
X11.8719Y-0.75
X11.8719Y-1.5
X11.8719Y-2.25
X11.8719Y-3.0
X11.8719Y-3.75
X12.2219Y0.0
X12.2219Y-0.75
X12.2219Y-1.5
X12.2219Y-2.25
X12.2219Y-3.0
X12.2219Y-3.75
X12.2219Y-4.5
X12.6219Y0.0
X12.6219Y-0.75
X12.6219Y-1.5
X12.6219Y-2.25
X12.6219Y-3.0
X12.6219Y-3.75
X12.6219Y-4.5
X12.9719Y0.0
X12.9719Y-0.75
X12.9719Y-1.5
X12.9719Y-2.25
X12.9719Y-3.0
X12.9719Y-3.75
X12.9719Y-4.5
X13.3719Y0.0
X13.3719Y-0.75
X13.3719Y-1.5
X13.3719Y-2.25
X13.3719Y-3.0
X13.3719Y-3.75
X13.3719Y-4.5
X13.7219Y0.0
X13.7219Y-0.75
X13.7219Y-1.5
X13.7219Y-2.25
X13.7219Y-3.0
X13.7219Y-4.125
X14.1219Y0.0
X14.1219Y-0.75
X14.1219Y-1.5
X14.1219Y-2.25
X14.1219Y-3.0
X14.1219Y-4.125
T3
X0.0Y-3.475
X0.9375Y-3.475
X2.25Y-4.225
X2.25Y-4.225
X6.0Y-4.225
X6.75Y-4.225
X9.5625Y-2.725
X9.6562Y-1.225
X10.5Y-2.725
X10.5938Y-1.225
X10.6813Y-2.1562
X10.6813Y-3.0938
X13.6469Y-3.6562
X13.6469Y-4.5938
T4
X0.0Y0.0
X0.0Y-1.5
X0.0Y-4.075
X0.0Y-4.5
X0.0938Y-3.0
X0.0938Y-3.75
X0.1875Y-2.25
X0.1875Y-4.5
X0.2812Y-3.0
X0.4688Y-3.75
X0.75Y-1.5
X0.75Y-4.5
X0.9375Y-3.75
X0.9375Y-4.075
X0.9609Y0.0
X1.125Y-2.25
X1.3125Y-3.0
X1.3125Y-4.5
X1.5Y-1.5
X1.5Y-4.5
X1.6875Y-3.75
X1.7109Y0.0
X1.875Y-2.25
X2.0625Y-3.0
X2.25Y-1.5
X2.25Y-4.825
X2.25Y-4.825
X2.4375Y-3.75
X2.4609Y0.0
X2.625Y-2.25
X2.8125Y-3.0
X3.0Y-1.5
X3.1875Y-3.75
X3.2109Y0.0
X3.375Y-2.25
X3.5625Y-3.0
X3.75Y-1.5
X3.75Y-4.5
X3.9375Y-3.75
X4.125Y-2.25
X4.125Y-4.5
X4.1719Y0.0
X4.3125Y-3.0
X4.5Y-1.5
X4.5Y-4.5
X4.6875Y-3.75
X4.875Y-2.25
X4.9219Y0.0
X5.0625Y-3.0
X5.25Y-1.5
X5.4375Y-3.75
X5.625Y-2.25
X5.6719Y0.0
X5.8125Y-3.0
X6.0Y-1.5
X6.0Y-4.825
X6.1875Y-3.75
X6.375Y-2.25
X6.4219Y0.0
X6.5625Y-3.0
X6.75Y-1.5
X6.75Y-4.5
X6.75Y-4.825
X6.9375Y-3.75
X7.125Y-2.25
X7.3125Y-3.0
X7.3828Y0.0
X7.5Y-1.5
X7.5Y-4.5
X7.6875Y-3.75
X7.6875Y-4.5
X7.875Y-2.25
X8.0625Y-3.0
X8.1328Y0.0
X8.25Y-1.5
X8.25Y-4.5
X8.4375Y-3.75
X8.625Y-2.25
X8.8125Y-3.0
X8.8125Y-4.5
X8.8828Y0.0
X9.0Y-1.5
X9.0Y-4.5
X9.375Y-2.25
X9.4688Y-3.75
X9.5625Y-3.0
X9.5625Y-3.325
X9.6328Y0.0
X9.6562Y-1.825
X9.9609Y-4.7109
X10.0312Y-3.0
X10.0812Y-2.1562
X10.0812Y-3.0938
X10.125Y-1.5
X10.3125Y-2.25
X10.4062Y-2.625
X10.5Y-3.325
X10.5938Y-1.825
X10.7109Y-3.9609
X10.7109Y-4.7109
X11.4609Y-4.7109
X11.6719Y0.0
X11.6719Y-0.75
X11.6719Y-1.5
X11.6719Y-2.25
X11.6719Y-3.0
X11.6719Y-3.75
X12.4219Y0.0
X12.4219Y-0.75
X12.4219Y-1.5
X12.4219Y-2.25
X12.4219Y-3.0
X12.4219Y-3.75
X12.4219Y-4.5
X13.1719Y0.0
X13.1719Y-0.75
X13.1719Y-1.5
X13.1719Y-2.25
X13.1719Y-3.0
X13.1719Y-3.75
X13.1719Y-4.5
X13.9219Y0.0
X13.9219Y-0.75
X13.9219Y-1.5
X13.9219Y-2.25
X13.9219Y-3.0
X13.9219Y-4.125
X14.2469Y-3.6562
X14.2469Y-4.5938
T5
X1.9453Y-4.875
X11.9766Y-4.875
T6
X1.9453Y-0.75
X9.5044Y-0.75
X12.1811Y0.8484
M30
