M48
; DRILL file {KiCad 8.0.5} date 2024-09-24T18:12:57+0200
; FORMAT={-:-/ absolute / inch / decimal}
; #@! TF.CreationDate,2024-09-24T18:12:57+02:00
; #@! TF.GenerationSoftware,Kicad,Pcbnew,8.0.5
; #@! TF.FileFunction,Plated,1,2,PTH
FMAT,2
INCH
; #@! TA.AperFunction,Plated,PTH,ViaDrill
T1C0.0157
; #@! TA.AperFunction,Plated,PTH,ComponentDrill
T2C0.0236
; #@! TA.AperFunction,Plated,PTH,ComponentDrill
T3C0.0354
; #@! TA.AperFunction,Plated,PTH,ComponentDrill
T4C0.0394
; #@! TA.AperFunction,Plated,PTH,ComponentDrill
T5C0.0409
; #@! TA.AperFunction,Plated,PTH,ComponentDrill
T6C0.0600
%
G90
G05
T1
X-0.5124Y0.0
X-0.5124Y-0.6299
X-0.5124Y-1.2598
X-0.5124Y-1.8898
X-0.5124Y-2.5197
X-0.5124Y-3.1496
X-0.5124Y-3.7795
X-0.5124Y-4.4094
X-0.5118Y0.6299
X-0.5118Y-5.0394
X-0.4331Y0.7087
X-0.4331Y-5.1181
X0.3065Y0.7087
X0.3936Y-5.1181
X0.8125Y0.3875
X1.0461Y0.7087
X1.0664Y-4.0157
X1.2202Y-5.1181
X1.5609Y0.3875
X1.7857Y0.7087
X2.0468Y-5.1181
X2.3109Y0.3875
X2.5253Y0.7087
X2.8503Y0.467
X2.8503Y0.4272
X2.8503Y0.3875
X2.8735Y-5.1181
X2.9522Y-5.0394
X3.06Y0.3875
X3.1884Y-5.0394
X3.2649Y0.7087
X3.2672Y-5.1181
X3.6Y0.3875
X4.0045Y0.7087
X4.0225Y0.3875
X4.1395Y-5.1181
X4.7441Y0.7087
X4.775Y0.3875
X5.0119Y-5.1181
X5.4837Y0.7087
X5.5225Y0.3875
X5.8842Y-5.1181
X6.2233Y0.7087
X6.27Y0.3875
X6.5791Y-4.71
X6.7566Y-5.1181
X6.8941Y-4.77
X6.9629Y0.7087
X7.235Y0.3875
X7.6289Y-5.1181
X7.7025Y0.7087
X7.985Y0.3875
X8.4421Y0.7087
X8.5012Y-5.1181
X8.735Y0.3875
X9.1817Y0.7087
X9.3736Y-5.1181
X9.4291Y-3.26
X9.48Y0.3875
X9.7041Y-3.265
X9.9213Y0.7087
X10.0134Y0.4613
X10.0394Y1.0236
X10.0394Y0.8268
X10.042Y0.434
X10.0705Y0.4035
X10.099Y0.3729
X10.1144Y0.5716
X10.1181Y1.1024
X10.1276Y0.3424
X10.1491Y-2.995
X10.1581Y0.5823
X10.177Y0.5098
X10.2041Y-3.08
X10.2435Y0.4661
X10.2459Y-5.1181
X10.2835Y0.1722
X10.3323Y0.332
X10.4478Y0.5525
X10.4928Y-0.1421
X10.5612Y0.8223
X10.5916Y-0.1559
X10.6078Y0.5203
X10.6345Y-0.028
X10.6412Y0.1855
X10.6423Y0.5845
X10.6806Y0.185
X10.6972Y1.0181
X10.6975Y0.965
X10.6975Y0.86
X10.6985Y1.1024
X10.6994Y0.606
X10.7203Y0.0225
X10.7589Y0.5961
X10.76Y0.6975
X10.8008Y0.9645
X10.8008Y0.86
X10.8605Y0.1728
X10.8774Y-0.1423
X10.9052Y0.9625
X10.9071Y0.8602
X10.91Y0.0075
X10.9199Y0.5126
X10.94Y-0.045
X10.9448Y0.7288
X10.9475Y0.485
X10.9498Y0.8774
X10.9569Y-4.4306
X10.9675Y-0.0825
X10.9751Y0.4574
X10.9822Y0.76
X11.0Y-0.045
X11.0012Y0.6348
X11.0027Y0.4299
X11.0302Y0.4023
X11.0316Y-0.0825
X11.0429Y0.6343
X11.0588Y-0.0425
X11.0874Y-0.0825
X11.1156Y-0.0425
X11.1183Y-5.1181
X11.1433Y-0.0825
X11.1683Y0.6211
X11.1725Y-0.0425
X11.1748Y-4.8961
X11.2132Y-0.4675
X11.2143Y0.1277
X11.2286Y-1.2206
X11.244Y-1.9706
X11.2585Y-0.1189
X11.2593Y-2.7205
X11.2747Y-3.4706
X11.285Y0.3175
X11.294Y-0.2001
X11.2992Y1.1024
X11.3891Y-0.305
X11.3891Y-0.95
X11.3891Y-1.7
X11.3891Y-2.45
X11.3891Y-3.2
X11.3941Y-4.1336
X11.4121Y0.22
X11.4246Y-0.1142
X11.4291Y0.445
X11.4791Y0.34
X11.4798Y-0.1142
X11.4798Y-0.1654
X11.6253Y0.445
X11.6766Y0.34
X11.6766Y0.2362
X11.8216Y0.445
X11.8741Y0.34
X11.8898Y1.1024
X11.8898Y0.8571
X11.9685Y1.1024
X11.9685Y0.8571
X11.9685Y0.7677
X11.9906Y-5.1181
X12.0178Y0.445
X12.0694Y-5.0394
X12.0716Y0.34
X12.135Y0.485
X12.174Y0.485
X12.213Y0.485
X12.2691Y0.34
X12.3056Y-5.0394
X12.3091Y0.535
X12.3211Y0.7935
X12.3641Y0.435
X12.3651Y0.834
X12.3725Y0.1225
X12.3843Y-5.1181
X12.392Y0.951
X12.3941Y0.63
X12.4021Y0.1547
X12.4641Y0.535
X12.5041Y0.63
X12.5179Y0.951
X12.5311Y0.834
X12.6891Y0.91
X12.6891Y0.72
X12.6991Y1.049
X12.6991Y1.01
X12.7713Y0.9094
X12.7713Y0.72
X12.874Y1.1024
X12.9528Y1.0236
X12.9528Y0.85
X12.9528Y0.7717
X13.0462Y-5.1181
X13.0709Y0.7087
X13.7082Y-5.1181
X13.7205Y0.7087
X14.3701Y0.7087
X14.3701Y-5.1181
X14.4483Y-0.0787
X14.4483Y-0.7874
X14.4483Y-1.4961
X14.4483Y-2.2047
X14.4483Y-2.9134
X14.4483Y-3.622
X14.4483Y-4.3307
X14.4488Y0.6299
X14.4488Y-5.0394
T3
X10.3594Y-0.2109
X10.4594Y-0.2109
X10.6406Y-0.2109
X10.7406Y-0.2109
X10.9219Y-0.2109
X11.0219Y-0.2109
T4
X3.0535Y-4.4055
X3.0535Y-4.5886
X3.1535Y-4.4055
X3.1535Y-4.5886
X10.1316Y1.0275
X10.1316Y0.9275
X10.1316Y0.8275
X10.1316Y0.7275
T5
X-0.05Y-0.2
X-0.05Y-1.7
X-0.05Y-4.7
X0.0437Y-3.2
X0.0437Y-3.95
X0.05Y-0.2
X0.05Y-1.7
X0.05Y-4.7
X0.1375Y-2.45
X0.1375Y-4.7
X0.1437Y-3.2
X0.1437Y-3.95
X0.2312Y-3.2
X0.2375Y-2.45
X0.2375Y-4.7
X0.3312Y-3.2
X0.4188Y-3.95
X0.5187Y-3.95
X0.7Y-1.7
X0.7Y-4.7
X0.8Y-1.7
X0.8Y-4.7
X0.8875Y-3.95
X0.9109Y-0.2
X0.9875Y-3.95
X1.0109Y-0.2
X1.075Y-2.45
X1.175Y-2.45
X1.2625Y-3.2
X1.2625Y-4.7
X1.3625Y-3.2
X1.3625Y-4.7
X1.45Y-1.7
X1.45Y-4.7
X1.55Y-1.7
X1.55Y-4.7
X1.6375Y-3.95
X1.6609Y-0.2
X1.7375Y-3.95
X1.7609Y-0.2
X1.825Y-2.45
X1.925Y-2.45
X2.0125Y-3.2
X2.1125Y-3.2
X2.2Y-1.7
X2.3Y-1.7
X2.3875Y-3.95
X2.4109Y-0.2
X2.4875Y-3.95
X2.5109Y-0.2
X2.575Y-2.45
X2.675Y-2.45
X2.7625Y-3.2
X2.8625Y-3.2
X2.95Y-1.7
X3.05Y-1.7
X3.1375Y-3.95
X3.1609Y-0.2
X3.2375Y-3.95
X3.2609Y-0.2
X3.325Y-2.45
X3.425Y-2.45
X3.5125Y-3.2
X3.6125Y-3.2
X3.7Y-1.7
X3.7Y-4.7
X3.8Y-1.7
X3.8Y-4.7
X3.8875Y-3.95
X3.9875Y-3.95
X4.075Y-2.45
X4.1219Y-0.2
X4.175Y-2.45
X4.2219Y-0.2
X4.2625Y-3.2
X4.3625Y-3.2
X4.45Y-1.7
X4.45Y-4.7
X4.55Y-1.7
X4.55Y-4.7
X4.6375Y-3.95
X4.7375Y-3.95
X4.825Y-2.45
X4.8719Y-0.2
X4.925Y-2.45
X4.9719Y-0.2
X5.0125Y-3.2
X5.1125Y-3.2
X5.2Y-1.7
X5.3Y-1.7
X5.3875Y-3.95
X5.4875Y-3.95
X5.575Y-2.45
X5.6219Y-0.2
X5.675Y-2.45
X5.7219Y-0.2
X5.7625Y-3.2
X5.8625Y-3.2
X5.95Y-1.7
X6.05Y-1.7
X6.1375Y-3.95
X6.2375Y-3.95
X6.325Y-2.45
X6.3719Y-0.2
X6.425Y-2.45
X6.4719Y-0.2
X6.5125Y-3.2
X6.6125Y-3.2
X6.7Y-1.7
X6.7Y-4.7
X6.8Y-1.7
X6.8Y-4.7
X6.8875Y-3.95
X6.9875Y-3.95
X7.075Y-2.45
X7.175Y-2.45
X7.2625Y-3.2
X7.3328Y-0.2
X7.3625Y-3.2
X7.4328Y-0.2
X7.45Y-1.7
X7.45Y-4.7
X7.55Y-1.7
X7.55Y-4.7
X7.6375Y-3.95
X7.6375Y-4.7
X7.7375Y-3.95
X7.7375Y-4.7
X7.825Y-2.45
X7.925Y-2.45
X8.0125Y-3.2
X8.0828Y-0.2
X8.1125Y-3.2
X8.1828Y-0.2
X8.2Y-1.7
X8.2Y-4.7
X8.3Y-1.7
X8.3Y-4.7
X8.3875Y-3.95
X8.4875Y-3.95
X8.575Y-2.45
X8.675Y-2.45
X8.7625Y-3.2
X8.7625Y-4.7
X8.8328Y-0.2
X8.8625Y-3.2
X8.8625Y-4.7
X8.9328Y-0.2
X8.95Y-1.7
X8.95Y-4.7
X9.05Y-1.7
X9.05Y-4.7
X9.325Y-2.45
X9.4187Y-3.95
X9.425Y-2.45
X9.5125Y-3.2
X9.5187Y-3.95
X9.5828Y-0.2
X9.6125Y-3.2
X9.6828Y-0.2
X9.9109Y-4.9109
X9.9812Y-3.2
X10.0109Y-4.9109
X10.075Y-1.7
X10.0812Y-3.2
X10.175Y-1.7
X10.2062Y-2.575
X10.2062Y-2.675
X10.2625Y-2.45
X10.3625Y-2.45
X10.6609Y-4.1609
X10.6609Y-4.9109
X10.7609Y-4.1609
X10.7609Y-4.9109
X11.4109Y-4.9109
X11.5109Y-4.9109
X11.6219Y-0.2
X11.6219Y-0.95
X11.6219Y-1.7
X11.6219Y-2.45
X11.6219Y-3.2
X11.6219Y-3.95
X11.7219Y-0.2
X11.7219Y-0.95
X11.7219Y-1.7
X11.7219Y-2.45
X11.7219Y-3.2
X11.7219Y-3.95
X12.3719Y-0.2
X12.3719Y-0.95
X12.3719Y-1.7
X12.3719Y-2.45
X12.3719Y-3.2
X12.3719Y-3.95
X12.3719Y-4.7
X12.4719Y-0.2
X12.4719Y-0.95
X12.4719Y-1.7
X12.4719Y-2.45
X12.4719Y-3.2
X12.4719Y-3.95
X12.4719Y-4.7
X13.1219Y-0.2
X13.1219Y-0.95
X13.1219Y-1.7
X13.1219Y-2.45
X13.1219Y-3.2
X13.1219Y-3.95
X13.1219Y-4.7
X13.2219Y-0.2
X13.2219Y-0.95
X13.2219Y-1.7
X13.2219Y-2.45
X13.2219Y-3.2
X13.2219Y-3.95
X13.2219Y-4.7
X13.8719Y-0.2
X13.8719Y-0.95
X13.8719Y-1.7
X13.8719Y-2.45
X13.8719Y-3.2
X13.8719Y-4.325
X13.9719Y-0.2
X13.9719Y-0.95
X13.9719Y-1.7
X13.9719Y-2.45
X13.9719Y-3.2
X13.9719Y-4.325
T6
X-0.15Y0.1
X-0.15Y-1.4
X-0.15Y-4.4
X-0.0563Y-2.9
X-0.0563Y-3.65
X0.0375Y-2.15
X0.0375Y-4.4
X0.1Y0.2
X0.1Y-1.3
X0.1Y-4.3
X0.1313Y-2.9
X0.1938Y-2.8
X0.1938Y-3.55
X0.2875Y-2.05
X0.2875Y-4.3
X0.3187Y-3.65
X0.3812Y-2.8
X0.5687Y-3.55
X0.6Y-1.4
X0.6Y-4.4
X0.7875Y-3.65
X0.8109Y0.1
X0.85Y-1.3
X0.85Y-4.3
X0.975Y-2.15
X1.0375Y-3.55
X1.0609Y0.2
X1.1625Y-2.9
X1.1625Y-4.4
X1.225Y-2.05
X1.35Y-1.4
X1.35Y-4.4
X1.4125Y-2.8
X1.4125Y-4.3
X1.5375Y-3.65
X1.5609Y0.1
X1.6Y-1.3
X1.6Y-4.3
X1.725Y-2.15
X1.7875Y-3.55
X1.8109Y0.2
X1.9125Y-2.9
X1.975Y-2.05
X2.1Y-1.4
X2.1625Y-2.8
X2.2875Y-3.65
X2.3109Y0.1
X2.35Y-1.3
X2.475Y-2.15
X2.5375Y-3.55
X2.5609Y0.2
X2.6625Y-2.9
X2.725Y-2.05
X2.85Y-1.4
X2.9125Y-2.8
X3.0375Y-3.65
X3.0609Y0.1
X3.1Y-1.3
X3.225Y-2.15
X3.2875Y-3.55
X3.3109Y0.2
X3.4125Y-2.9
X3.475Y-2.05
X3.6Y-1.4
X3.6Y-4.4
X3.6625Y-2.8
X3.7875Y-3.65
X3.85Y-1.3
X3.85Y-4.3
X3.975Y-2.15
X3.975Y-4.4
X4.0219Y0.1
X4.0375Y-3.55
X4.1625Y-2.9
X4.225Y-2.05
X4.225Y-4.3
X4.2719Y0.2
X4.35Y-1.4
X4.35Y-4.4
X4.4125Y-2.8
X4.5375Y-3.65
X4.6Y-1.3
X4.6Y-4.3
X4.725Y-2.15
X4.7719Y0.1
X4.7875Y-3.55
X4.9125Y-2.9
X4.975Y-2.05
X5.0219Y0.2
X5.1Y-1.4
X5.1625Y-2.8
X5.2875Y-3.65
X5.35Y-1.3
X5.475Y-2.15
X5.5219Y0.1
X5.5375Y-3.55
X5.6625Y-2.9
X5.725Y-2.05
X5.7719Y0.2
X5.85Y-1.4
X5.9125Y-2.8
X6.0375Y-3.65
X6.1Y-1.3
X6.225Y-2.15
X6.2719Y0.1
X6.2875Y-3.55
X6.4125Y-2.9
X6.475Y-2.05
X6.5219Y0.2
X6.6Y-1.4
X6.6Y-4.4
X6.6625Y-2.8
X6.7875Y-3.65
X6.85Y-1.3
X6.85Y-4.3
X6.975Y-2.15
X7.0375Y-3.55
X7.1625Y-2.9
X7.225Y-2.05
X7.2328Y0.1
X7.35Y-1.4
X7.35Y-4.4
X7.4125Y-2.8
X7.4828Y0.2
X7.5375Y-3.65
X7.5375Y-4.4
X7.6Y-1.3
X7.6Y-4.3
X7.725Y-2.15
X7.7875Y-3.55
X7.7875Y-4.3
X7.9125Y-2.9
X7.975Y-2.05
X7.9828Y0.1
X8.1Y-1.4
X8.1Y-4.4
X8.1625Y-2.8
X8.2328Y0.2
X8.2875Y-3.65
X8.35Y-1.3
X8.35Y-4.3
X8.475Y-2.15
X8.5375Y-3.55
X8.6625Y-2.9
X8.6625Y-4.4
X8.725Y-2.05
X8.7328Y0.1
X8.85Y-1.4
X8.85Y-4.4
X8.9125Y-2.8
X8.9125Y-4.3
X8.9828Y0.2
X9.1Y-1.3
X9.1Y-4.3
X9.225Y-2.15
X9.3187Y-3.65
X9.4125Y-2.9
X9.475Y-2.05
X9.4828Y0.1
X9.5687Y-3.55
X9.6625Y-2.8
X9.7328Y0.2
X9.8109Y-4.6109
X9.8812Y-2.9
X9.975Y-1.4
X10.0609Y-4.5109
X10.1312Y-2.8
X10.1625Y-2.15
X10.225Y-1.3
X10.4125Y-2.05
X10.5062Y-2.475
X10.5609Y-3.8609
X10.5609Y-4.6109
X10.6062Y-2.725
X10.8109Y-3.7609
X10.8109Y-4.5109
X11.3109Y-4.6109
X11.5219Y0.1
X11.5219Y-0.65
X11.5219Y-1.4
X11.5219Y-2.15
X11.5219Y-2.9
X11.5219Y-3.65
X11.5609Y-4.5109
X11.7719Y0.2
X11.7719Y-0.55
X11.7719Y-1.3
X11.7719Y-2.05
X11.7719Y-2.8
X11.7719Y-3.55
X12.2719Y0.1
X12.2719Y-0.65
X12.2719Y-1.4
X12.2719Y-2.15
X12.2719Y-2.9
X12.2719Y-3.65
X12.2719Y-4.4
X12.5219Y0.2
X12.5219Y-0.55
X12.5219Y-1.3
X12.5219Y-2.05
X12.5219Y-2.8
X12.5219Y-3.55
X12.5219Y-4.3
X13.0219Y0.1
X13.0219Y-0.65
X13.0219Y-1.4
X13.0219Y-2.15
X13.0219Y-2.9
X13.0219Y-3.65
X13.0219Y-4.4
X13.2719Y0.2
X13.2719Y-0.55
X13.2719Y-1.3
X13.2719Y-2.05
X13.2719Y-2.8
X13.2719Y-3.55
X13.2719Y-4.3
X13.7719Y0.1
X13.7719Y-0.65
X13.7719Y-1.4
X13.7719Y-2.15
X13.7719Y-2.9
X13.7719Y-4.025
X14.0219Y0.2
X14.0219Y-0.55
X14.0219Y-1.3
X14.0219Y-2.05
X14.0219Y-2.8
X14.0219Y-3.925
T2
G00X12.279Y1.1122
M15
G01X12.279Y1.0886
M16
G05
G00X12.279Y0.9575
M15
G01X12.279Y0.9142
M16
G05
G00X12.6191Y1.1122
M15
G01X12.6191Y1.0886
M16
G05
G00X12.6191Y0.9575
M15
G01X12.6191Y0.9142
M16
G05
M30
