%TF.GenerationSoftware,KiCad,Pcbnew,8.0.5*%
%TF.CreationDate,2024-09-24T18:12:57+02:00*%
%TF.ProjectId,E80-1800-pcb-universal,4538302d-3138-4303-902d-7063622d756e,rev?*%
%TF.SameCoordinates,Original*%
%TF.FileFunction,Paste,Bot*%
%TF.FilePolarity,Positive*%
%FSLAX46Y46*%
G04 Gerber Fmt 4.6, Leading zero omitted, Abs format (unit mm)*
G04 Created by KiCad (PCBNEW 8.0.5) date 2024-09-24 18:12:57*
%MOMM*%
%LPD*%
G01*
G04 APERTURE LIST*
G04 Aperture macros list*
%AMRoundRect*
0 Rectangle with rounded corners*
0 $1 Rounding radius*
0 $2 $3 $4 $5 $6 $7 $8 $9 X,Y pos of 4 corners*
0 Add a 4 corners polygon primitive as box body*
4,1,4,$2,$3,$4,$5,$6,$7,$8,$9,$2,$3,0*
0 Add four circle primitives for the rounded corners*
1,1,$1+$1,$2,$3*
1,1,$1+$1,$4,$5*
1,1,$1+$1,$6,$7*
1,1,$1+$1,$8,$9*
0 Add four rect primitives between the rounded corners*
20,1,$1+$1,$2,$3,$4,$5,0*
20,1,$1+$1,$4,$5,$6,$7,0*
20,1,$1+$1,$6,$7,$8,$9,0*
20,1,$1+$1,$8,$9,$2,$3,0*%
G04 Aperture macros list end*
%ADD10RoundRect,0.225000X0.225000X0.250000X-0.225000X0.250000X-0.225000X-0.250000X0.225000X-0.250000X0*%
%ADD11RoundRect,0.200000X-0.200000X-0.275000X0.200000X-0.275000X0.200000X0.275000X-0.200000X0.275000X0*%
%ADD12RoundRect,0.200000X0.275000X-0.200000X0.275000X0.200000X-0.275000X0.200000X-0.275000X-0.200000X0*%
%ADD13RoundRect,0.075000X-0.700000X-0.075000X0.700000X-0.075000X0.700000X0.075000X-0.700000X0.075000X0*%
%ADD14RoundRect,0.075000X-0.075000X-0.700000X0.075000X-0.700000X0.075000X0.700000X-0.075000X0.700000X0*%
%ADD15RoundRect,0.150000X0.150000X-0.587500X0.150000X0.587500X-0.150000X0.587500X-0.150000X-0.587500X0*%
%ADD16RoundRect,0.200000X0.200000X0.275000X-0.200000X0.275000X-0.200000X-0.275000X0.200000X-0.275000X0*%
%ADD17RoundRect,0.150000X0.475000X0.150000X-0.475000X0.150000X-0.475000X-0.150000X0.475000X-0.150000X0*%
%ADD18RoundRect,0.225000X-0.225000X-0.250000X0.225000X-0.250000X0.225000X0.250000X-0.225000X0.250000X0*%
%ADD19R,0.600000X1.450000*%
%ADD20R,0.300000X1.450000*%
%ADD21RoundRect,0.237500X0.237500X-0.287500X0.237500X0.287500X-0.237500X0.287500X-0.237500X-0.287500X0*%
%ADD22RoundRect,0.225000X0.250000X-0.225000X0.250000X0.225000X-0.250000X0.225000X-0.250000X-0.225000X0*%
%ADD23RoundRect,0.150000X0.587500X0.150000X-0.587500X0.150000X-0.587500X-0.150000X0.587500X-0.150000X0*%
%ADD24RoundRect,0.200000X-0.275000X0.200000X-0.275000X-0.200000X0.275000X-0.200000X0.275000X0.200000X0*%
%ADD25RoundRect,0.150000X-0.150000X0.587500X-0.150000X-0.587500X0.150000X-0.587500X0.150000X0.587500X0*%
%ADD26RoundRect,0.225000X-0.250000X0.225000X-0.250000X-0.225000X0.250000X-0.225000X0.250000X0.225000X0*%
%ADD27RoundRect,0.250000X0.625000X-0.375000X0.625000X0.375000X-0.625000X0.375000X-0.625000X-0.375000X0*%
%ADD28RoundRect,0.150000X-0.150000X-0.625000X0.150000X-0.625000X0.150000X0.625000X-0.150000X0.625000X0*%
%ADD29RoundRect,0.250000X-0.350000X-0.650000X0.350000X-0.650000X0.350000X0.650000X-0.350000X0.650000X0*%
%ADD30RoundRect,0.112500X-0.112500X0.187500X-0.112500X-0.187500X0.112500X-0.187500X0.112500X0.187500X0*%
G04 APERTURE END LIST*
D10*
%TO.C,C11*%
X276125750Y16971500D03*
X274575750Y16971500D03*
%TD*%
%TO.C,C10*%
X283262390Y16971500D03*
X281712390Y16971500D03*
%TD*%
D11*
%TO.C,R3*%
X283884890Y-4265000D03*
X285534890Y-4265000D03*
%TD*%
%TO.C,R10*%
X270990750Y-1536500D03*
X272640750Y-1536500D03*
%TD*%
D12*
%TO.C,R12*%
X265247492Y7620500D03*
X265247492Y9270500D03*
%TD*%
D13*
%TO.C,U3*%
X272677250Y4949500D03*
X272677250Y5449500D03*
X272677250Y5949500D03*
X272677250Y6449500D03*
X272677250Y6949500D03*
X272677250Y7449500D03*
X272677250Y7949500D03*
X272677250Y8449500D03*
X272677250Y8949500D03*
X272677250Y9449500D03*
X272677250Y9949500D03*
X272677250Y10449500D03*
X272677250Y10949500D03*
X272677250Y11449500D03*
X272677250Y11949500D03*
X272677250Y12449500D03*
D14*
X274602250Y14374500D03*
X275102250Y14374500D03*
X275602250Y14374500D03*
X276102250Y14374500D03*
X276602250Y14374500D03*
X277102250Y14374500D03*
X277602250Y14374500D03*
X278102250Y14374500D03*
X278602250Y14374500D03*
X279102250Y14374500D03*
X279602250Y14374500D03*
X280102250Y14374500D03*
X280602250Y14374500D03*
X281102250Y14374500D03*
X281602250Y14374500D03*
X282102250Y14374500D03*
D13*
X284027250Y12449500D03*
X284027250Y11949500D03*
X284027250Y11449500D03*
X284027250Y10949500D03*
X284027250Y10449500D03*
X284027250Y9949500D03*
X284027250Y9449500D03*
X284027250Y8949500D03*
X284027250Y8449500D03*
X284027250Y7949500D03*
X284027250Y7449500D03*
X284027250Y6949500D03*
X284027250Y6449500D03*
X284027250Y5949500D03*
X284027250Y5449500D03*
X284027250Y4949500D03*
D14*
X282102250Y3024500D03*
X281602250Y3024500D03*
X281102250Y3024500D03*
X280602250Y3024500D03*
X280102250Y3024500D03*
X279602250Y3024500D03*
X279102250Y3024500D03*
X278602250Y3024500D03*
X278102250Y3024500D03*
X277602250Y3024500D03*
X277102250Y3024500D03*
X276602250Y3024500D03*
X276102250Y3024500D03*
X275602250Y3024500D03*
X275102250Y3024500D03*
X274602250Y3024500D03*
%TD*%
D15*
%TO.C,D5*%
X13142000Y5158500D03*
X11242000Y5158500D03*
X12192000Y7033500D03*
%TD*%
%TO.C,D6*%
X54036000Y5158500D03*
X52136000Y5158500D03*
X53086000Y7033500D03*
%TD*%
%TO.C,D8*%
X135570000Y5158500D03*
X133670000Y5158500D03*
X134620000Y7033500D03*
%TD*%
%TO.C,D9*%
X176210000Y5158500D03*
X174310000Y5158500D03*
X175260000Y7033500D03*
%TD*%
%TO.C,D10*%
X217104000Y5158500D03*
X215204000Y5158500D03*
X216154000Y7033500D03*
%TD*%
%TO.C,D11*%
X255204000Y5158500D03*
X253304000Y5158500D03*
X254254000Y7033500D03*
%TD*%
%TO.C,D13*%
X345120000Y5158500D03*
X343220000Y5158500D03*
X344170000Y7033500D03*
%TD*%
%TO.C,D7*%
X94676000Y5158500D03*
X92776000Y5158500D03*
X93726000Y7033500D03*
%TD*%
%TO.C,D12*%
X307020000Y5158500D03*
X305120000Y5158500D03*
X306070000Y7033500D03*
%TD*%
%TO.C,D14*%
X307020000Y-13891500D03*
X305120000Y-13891500D03*
X306070000Y-12016500D03*
%TD*%
%TO.C,D15*%
X345120000Y-13891500D03*
X343220000Y-13891500D03*
X344170000Y-12016500D03*
%TD*%
%TO.C,D16*%
X10602000Y-32941500D03*
X8702000Y-32941500D03*
X9652000Y-31066500D03*
%TD*%
%TO.C,D17*%
X48702000Y-32941500D03*
X46802000Y-32941500D03*
X47752000Y-31066500D03*
%TD*%
%TO.C,D18*%
X86802000Y-32941500D03*
X84902000Y-32941500D03*
X85852000Y-31066500D03*
%TD*%
%TO.C,D19*%
X124902000Y-32941500D03*
X123002000Y-32941500D03*
X123952000Y-31066500D03*
%TD*%
%TO.C,D20*%
X163002000Y-32941500D03*
X161102000Y-32941500D03*
X162052000Y-31066500D03*
%TD*%
%TO.C,D21*%
X201102000Y-32941500D03*
X199202000Y-32941500D03*
X200152000Y-31066500D03*
%TD*%
%TO.C,D22*%
X239202000Y-32941500D03*
X237302000Y-32941500D03*
X238252000Y-31066500D03*
%TD*%
%TO.C,D23*%
X307020000Y-32941500D03*
X305120000Y-32941500D03*
X306070000Y-31066500D03*
%TD*%
%TO.C,D24*%
X345120000Y-32941500D03*
X343220000Y-32941500D03*
X344170000Y-31066500D03*
%TD*%
%TO.C,D25*%
X20000000Y-51991500D03*
X18100000Y-51991500D03*
X19050000Y-50116500D03*
%TD*%
%TO.C,D26*%
X58100000Y-51991500D03*
X56200000Y-51991500D03*
X57150000Y-50116500D03*
%TD*%
%TO.C,D27*%
X96200000Y-51991500D03*
X94300000Y-51991500D03*
X95250000Y-50116500D03*
%TD*%
%TO.C,D28*%
X134300000Y-51991500D03*
X132400000Y-51991500D03*
X133350000Y-50116500D03*
%TD*%
%TO.C,D29*%
X172400000Y-51991500D03*
X170500000Y-51991500D03*
X171450000Y-50116500D03*
%TD*%
%TO.C,D30*%
X210500000Y-51991500D03*
X208600000Y-51991500D03*
X209550000Y-50116500D03*
%TD*%
%TO.C,D31*%
X251140000Y-51991500D03*
X249240000Y-51991500D03*
X250190000Y-50116500D03*
%TD*%
%TO.C,D32*%
X307020000Y-51991500D03*
X305120000Y-51991500D03*
X306070000Y-50116500D03*
%TD*%
%TO.C,D33*%
X345120000Y-51991500D03*
X343220000Y-51991500D03*
X344170000Y-50116500D03*
%TD*%
%TO.C,D34*%
X24826000Y-71041500D03*
X22926000Y-71041500D03*
X23876000Y-69166500D03*
%TD*%
%TO.C,D35*%
X62926000Y-71041500D03*
X61026000Y-71041500D03*
X61976000Y-69166500D03*
%TD*%
%TO.C,D36*%
X101026000Y-71041500D03*
X99126000Y-71041500D03*
X100076000Y-69166500D03*
%TD*%
%TO.C,D38*%
X177226000Y-71041500D03*
X175326000Y-71041500D03*
X176276000Y-69166500D03*
%TD*%
%TO.C,D39*%
X215326000Y-71041500D03*
X213426000Y-71041500D03*
X214376000Y-69166500D03*
%TD*%
%TO.C,D40*%
X253426000Y-71041500D03*
X251526000Y-71041500D03*
X252476000Y-69166500D03*
%TD*%
%TO.C,D41*%
X307020000Y-71041500D03*
X305120000Y-71041500D03*
X306070000Y-69166500D03*
%TD*%
%TO.C,D42*%
X345120000Y-71041500D03*
X343220000Y-71041500D03*
X344170000Y-69166500D03*
%TD*%
%TO.C,D37*%
X139126000Y-71041500D03*
X137226000Y-71041500D03*
X138176000Y-69166500D03*
%TD*%
D16*
%TO.C,R43*%
X140128125Y-43180000D03*
X138478125Y-43180000D03*
%TD*%
%TO.C,R51*%
X322609640Y-43180000D03*
X320959640Y-43180000D03*
%TD*%
%TO.C,R48*%
X235378125Y-43180000D03*
X233728125Y-43180000D03*
%TD*%
%TO.C,R44*%
X159178125Y-43180000D03*
X157528125Y-43180000D03*
%TD*%
%TO.C,R38*%
X45193750Y-43180000D03*
X43543750Y-43180000D03*
%TD*%
%TO.C,R50*%
X303559640Y-43180000D03*
X301909640Y-43180000D03*
%TD*%
%TO.C,R47*%
X216328125Y-43180000D03*
X214678125Y-43180000D03*
%TD*%
%TO.C,R46*%
X197278125Y-43180000D03*
X195628125Y-43180000D03*
%TD*%
%TO.C,R33*%
X322609640Y-24130000D03*
X320959640Y-24130000D03*
%TD*%
%TO.C,R42*%
X121393750Y-43180000D03*
X119743750Y-43180000D03*
%TD*%
%TO.C,R39*%
X64243750Y-43180000D03*
X62593750Y-43180000D03*
%TD*%
%TO.C,R37*%
X25828125Y-43180000D03*
X24178125Y-43180000D03*
%TD*%
%TO.C,R34*%
X341344015Y-24130000D03*
X339694015Y-24130000D03*
%TD*%
%TO.C,R32*%
X303244015Y-24130000D03*
X301594015Y-24130000D03*
%TD*%
D15*
%TO.C,D43*%
X18730000Y-90091500D03*
X16830000Y-90091500D03*
X17780000Y-88216500D03*
%TD*%
%TO.C,D44*%
X53274000Y-90091500D03*
X51374000Y-90091500D03*
X52324000Y-88216500D03*
%TD*%
%TO.C,D45*%
X91374000Y-90091500D03*
X89474000Y-90091500D03*
X90424000Y-88216500D03*
%TD*%
%TO.C,D46*%
X129474000Y-90091500D03*
X127574000Y-90091500D03*
X128524000Y-88216500D03*
%TD*%
%TO.C,D47*%
X167574000Y-90091500D03*
X165674000Y-90091500D03*
X166624000Y-88216500D03*
%TD*%
%TO.C,D48*%
X205674000Y-90091500D03*
X203774000Y-90091500D03*
X204724000Y-88216500D03*
%TD*%
%TO.C,D49*%
X258252000Y-90091500D03*
X256352000Y-90091500D03*
X257302000Y-88216500D03*
%TD*%
D16*
%TO.C,R40*%
X83293750Y-43180000D03*
X81643750Y-43180000D03*
%TD*%
%TO.C,R36*%
X6778125Y-43180000D03*
X5128125Y-43180000D03*
%TD*%
%TO.C,R41*%
X102343750Y-43180000D03*
X100693750Y-43180000D03*
%TD*%
%TO.C,R45*%
X178543750Y-43180000D03*
X176893750Y-43180000D03*
%TD*%
%TO.C,R49*%
X264268750Y-43180000D03*
X262618750Y-43180000D03*
%TD*%
%TO.C,R52*%
X341344015Y-43180000D03*
X339694015Y-43180000D03*
%TD*%
%TO.C,R25*%
X213351720Y-5080000D03*
X211701720Y-5080000D03*
%TD*%
%TO.C,R26*%
X232401720Y-5080000D03*
X230751720Y-5080000D03*
%TD*%
%TO.C,R27*%
X251451720Y-5080000D03*
X249801720Y-5080000D03*
%TD*%
%TO.C,R23*%
X169893839Y-5080000D03*
X168243839Y-5080000D03*
%TD*%
%TO.C,R22*%
X150843839Y-5080000D03*
X149193839Y-5080000D03*
%TD*%
%TO.C,R21*%
X131793839Y-5080000D03*
X130143839Y-5080000D03*
%TD*%
%TO.C,R20*%
X112743839Y-5080000D03*
X111093839Y-5080000D03*
%TD*%
%TO.C,R17*%
X50235958Y-5080000D03*
X48585958Y-5080000D03*
%TD*%
%TO.C,R15*%
X6778125Y-5080000D03*
X5128125Y-5080000D03*
%TD*%
D15*
%TO.C,D51*%
X342326000Y-90091500D03*
X340426000Y-90091500D03*
X341376000Y-88216500D03*
%TD*%
%TO.C,D50*%
X307020000Y-90091500D03*
X305120000Y-90091500D03*
X306070000Y-88216500D03*
%TD*%
%TO.C,D52*%
X12888000Y-109141500D03*
X10988000Y-109141500D03*
X11938000Y-107266500D03*
%TD*%
%TO.C,D53*%
X48702000Y-109141500D03*
X46802000Y-109141500D03*
X47752000Y-107266500D03*
%TD*%
%TO.C,D54*%
X202880000Y-109141500D03*
X200980000Y-109141500D03*
X201930000Y-107266500D03*
%TD*%
%TO.C,D55*%
X219898000Y-109141500D03*
X217998000Y-109141500D03*
X218948000Y-107266500D03*
%TD*%
%TO.C,D56*%
X263332000Y-114475500D03*
X261432000Y-114475500D03*
X262382000Y-112600500D03*
%TD*%
%TO.C,D57*%
X307020000Y-109141500D03*
X305120000Y-109141500D03*
X306070000Y-107266500D03*
%TD*%
%TO.C,D58*%
X342326000Y-109141500D03*
X340426000Y-109141500D03*
X341376000Y-107266500D03*
%TD*%
D16*
%TO.C,R16*%
X31185958Y-5080000D03*
X29535958Y-5080000D03*
%TD*%
%TO.C,R18*%
X69285958Y-5080000D03*
X67635958Y-5080000D03*
%TD*%
%TO.C,R19*%
X88335958Y-5080000D03*
X86685958Y-5080000D03*
%TD*%
%TO.C,R28*%
X303244015Y-5080000D03*
X301594015Y-5080000D03*
%TD*%
%TO.C,R29*%
X322609640Y-5080000D03*
X320959640Y-5080000D03*
%TD*%
%TO.C,R30*%
X341344015Y-5080000D03*
X339694015Y-5080000D03*
%TD*%
%TO.C,R24*%
X194301720Y-5080000D03*
X192651720Y-5080000D03*
%TD*%
%TO.C,R54*%
X11540670Y-62230080D03*
X9890670Y-62230080D03*
%TD*%
%TO.C,R55*%
X35668900Y-62230080D03*
X34018900Y-62230080D03*
%TD*%
%TO.C,R61*%
X149653750Y-62230080D03*
X148003750Y-62230080D03*
%TD*%
%TO.C,R62*%
X168703830Y-62230080D03*
X167053830Y-62230080D03*
%TD*%
%TO.C,R64*%
X206803990Y-62230080D03*
X205153990Y-62230080D03*
%TD*%
%TO.C,R65*%
X225854070Y-62230080D03*
X224204070Y-62230080D03*
%TD*%
%TO.C,R66*%
X244904150Y-62230080D03*
X243254150Y-62230080D03*
%TD*%
%TO.C,R86*%
X303244040Y-81280320D03*
X301594040Y-81280320D03*
%TD*%
%TO.C,R107*%
X360394280Y-109855440D03*
X358744280Y-109855440D03*
%TD*%
%TO.C,R119*%
X297886335Y-124737913D03*
X296236335Y-124737913D03*
%TD*%
%TO.C,R111*%
X121078630Y-119380320D03*
X119428630Y-119380320D03*
%TD*%
%TO.C,R70*%
X341344200Y-62230240D03*
X339694200Y-62230240D03*
%TD*%
%TO.C,R105*%
X322294120Y-100330400D03*
X320644120Y-100330400D03*
%TD*%
%TO.C,R104*%
X303244040Y-100330400D03*
X301594040Y-100330400D03*
%TD*%
%TO.C,R71*%
X360394280Y-62230240D03*
X358744280Y-62230240D03*
%TD*%
%TO.C,R89*%
X360394280Y-81280320D03*
X358744280Y-81280320D03*
%TD*%
%TO.C,R88*%
X341344200Y-81280320D03*
X339694200Y-81280320D03*
%TD*%
%TO.C,R121*%
X341344200Y-119380480D03*
X339694200Y-119380480D03*
%TD*%
%TO.C,R106*%
X341344200Y-100330400D03*
X339694200Y-100330400D03*
%TD*%
%TO.C,R120*%
X322294120Y-119380480D03*
X320644120Y-119380480D03*
%TD*%
%TO.C,R87*%
X322294120Y-81280320D03*
X320644120Y-81280320D03*
%TD*%
%TO.C,R69*%
X322294120Y-62230240D03*
X320644120Y-62230240D03*
%TD*%
%TO.C,R68*%
X303244040Y-62230240D03*
X301594040Y-62230240D03*
%TD*%
%TO.C,R58*%
X92503510Y-62230080D03*
X90853510Y-62230080D03*
%TD*%
%TO.C,R112*%
X102028550Y-119380320D03*
X100378550Y-119380320D03*
%TD*%
%TO.C,R59*%
X111553590Y-62230080D03*
X109903590Y-62230080D03*
%TD*%
%TO.C,R56*%
X54403350Y-62230080D03*
X52753350Y-62230080D03*
%TD*%
%TO.C,R57*%
X73453430Y-62230080D03*
X71803430Y-62230080D03*
%TD*%
%TO.C,R60*%
X130603670Y-62230080D03*
X128953670Y-62230080D03*
%TD*%
%TO.C,R63*%
X187753910Y-62230080D03*
X186103910Y-62230080D03*
%TD*%
%TO.C,R67*%
X271246025Y-62253913D03*
X269596025Y-62253913D03*
%TD*%
%TO.C,R109*%
X25828230Y-119380320D03*
X24178230Y-119380320D03*
%TD*%
%TO.C,R72*%
X13921930Y-81280160D03*
X12271930Y-81280160D03*
%TD*%
%TO.C,R74*%
X59165870Y-81280160D03*
X57515870Y-81280160D03*
%TD*%
%TO.C,R75*%
X78215950Y-81280160D03*
X76565950Y-81280160D03*
%TD*%
%TO.C,R77*%
X116316110Y-81280160D03*
X114666110Y-81280160D03*
%TD*%
%TO.C,R78*%
X135366190Y-81280160D03*
X133716190Y-81280160D03*
%TD*%
%TO.C,R79*%
X154416270Y-81280160D03*
X152766270Y-81280160D03*
%TD*%
%TO.C,R80*%
X173466350Y-81280160D03*
X171816350Y-81280160D03*
%TD*%
%TO.C,R83*%
X230616590Y-81280160D03*
X228966590Y-81280160D03*
%TD*%
%TO.C,R84*%
X249666670Y-81280160D03*
X248016670Y-81280160D03*
%TD*%
%TO.C,R85*%
X261572970Y-81280160D03*
X259922970Y-81280160D03*
%TD*%
%TO.C,R82*%
X211566510Y-81280160D03*
X209916510Y-81280160D03*
%TD*%
%TO.C,R81*%
X192516430Y-81280160D03*
X190866430Y-81280160D03*
%TD*%
%TO.C,R73*%
X40115790Y-81280160D03*
X38465790Y-81280160D03*
%TD*%
%TO.C,R76*%
X97266030Y-81280160D03*
X95616030Y-81280160D03*
%TD*%
%TO.C,R115*%
X216329030Y-119380320D03*
X214679030Y-119380320D03*
%TD*%
%TO.C,R108*%
X11540670Y-119380320D03*
X9890670Y-119380320D03*
%TD*%
%TO.C,R113*%
X178544500Y-119380320D03*
X176894500Y-119380320D03*
%TD*%
%TO.C,R116*%
X235379110Y-119380320D03*
X233729110Y-119380320D03*
%TD*%
%TO.C,R110*%
X44878310Y-119380320D03*
X43228310Y-119380320D03*
%TD*%
%TO.C,R114*%
X202357100Y-119380320D03*
X200707100Y-119380320D03*
%TD*%
%TO.C,R93*%
X68690910Y-100330240D03*
X67040910Y-100330240D03*
%TD*%
%TO.C,R94*%
X87740990Y-100330240D03*
X86090990Y-100330240D03*
%TD*%
%TO.C,R95*%
X106791070Y-100330240D03*
X105141070Y-100330240D03*
%TD*%
%TO.C,R96*%
X125841150Y-100330240D03*
X124191150Y-100330240D03*
%TD*%
%TO.C,R98*%
X163941310Y-100330240D03*
X162291310Y-100330240D03*
%TD*%
%TO.C,R99*%
X182991390Y-100330240D03*
X181341390Y-100330240D03*
%TD*%
%TO.C,R100*%
X202041470Y-100330240D03*
X200391470Y-100330240D03*
%TD*%
%TO.C,R101*%
X221091550Y-100330240D03*
X219441550Y-100330240D03*
%TD*%
%TO.C,R102*%
X247285410Y-100330240D03*
X245635410Y-100330240D03*
%TD*%
%TO.C,R117*%
X259786175Y-124737913D03*
X258136175Y-124737913D03*
%TD*%
%TO.C,R103*%
X278836255Y-105687833D03*
X277186255Y-105687833D03*
%TD*%
%TO.C,R118*%
X278836255Y-124737913D03*
X277186255Y-124737913D03*
%TD*%
%TO.C,R97*%
X144891230Y-100330240D03*
X143241230Y-100330240D03*
%TD*%
%TO.C,R92*%
X49640830Y-100330240D03*
X47990830Y-100330240D03*
%TD*%
%TO.C,R90*%
X18684450Y-100330240D03*
X17034450Y-100330240D03*
%TD*%
%TO.C,R91*%
X30590750Y-100330240D03*
X28940750Y-100330240D03*
%TD*%
%TO.C,R31*%
X360394280Y-5079840D03*
X358744280Y-5079840D03*
%TD*%
%TO.C,R35*%
X360394280Y-24129920D03*
X358744280Y-24129920D03*
%TD*%
%TO.C,R53*%
X360394280Y-43180000D03*
X358744280Y-43180000D03*
%TD*%
D17*
%TO.C,U1*%
X317380890Y19367000D03*
X317380890Y18417000D03*
X317380890Y17467000D03*
X315030890Y17467000D03*
X315030890Y18417000D03*
X315030890Y19367000D03*
%TD*%
D10*
%TO.C,C13*%
X276090750Y-1536500D03*
X274540750Y-1536500D03*
%TD*%
%TO.C,C7*%
X270015000Y12129008D03*
X268465000Y12129008D03*
%TD*%
D18*
%TO.C,C9*%
X273439250Y571500D03*
X274989250Y571500D03*
%TD*%
D19*
%TO.C,J4*%
X312955890Y22855000D03*
X313755890Y22855000D03*
D20*
X314955890Y22855000D03*
X315955890Y22855000D03*
X316455890Y22855000D03*
X317455890Y22855000D03*
D19*
X318655890Y22855000D03*
X319455890Y22855000D03*
X319455890Y22855000D03*
X318655890Y22855000D03*
D20*
X317955890Y22855000D03*
X316955890Y22855000D03*
X315455890Y22855000D03*
X314455890Y22855000D03*
D19*
X313755890Y22855000D03*
X312955890Y22855000D03*
%TD*%
D12*
%TO.C,R6*%
X325555890Y24530000D03*
X325555890Y26180000D03*
%TD*%
%TO.C,R5*%
X323955890Y24530000D03*
X323955890Y26180000D03*
%TD*%
D21*
%TO.C,L1*%
X322301890Y19873500D03*
X322301890Y21623500D03*
%TD*%
D11*
%TO.C,R4*%
X283884890Y-6159500D03*
X285534890Y-6159500D03*
%TD*%
D12*
%TO.C,R7*%
X260732290Y-5295400D03*
X260732290Y-3645400D03*
%TD*%
%TO.C,R8*%
X267945890Y-5319500D03*
X267945890Y-3669500D03*
%TD*%
%TO.C,R9*%
X275159490Y-5295400D03*
X275159490Y-3645400D03*
%TD*%
D22*
%TO.C,C8*%
X276407890Y18871140D03*
X276407890Y20421140D03*
%TD*%
D18*
%TO.C,C1*%
X268353890Y24198500D03*
X269903890Y24198500D03*
%TD*%
%TO.C,C3*%
X268355390Y22298500D03*
X269905390Y22298500D03*
%TD*%
D23*
%TO.C,U2*%
X270280390Y20563860D03*
X270280390Y18663860D03*
X268405390Y19613860D03*
%TD*%
D22*
%TO.C,C6*%
X286448500Y3243008D03*
X286448500Y4793008D03*
%TD*%
D24*
%TO.C,R14*%
X263596492Y12763000D03*
X263596492Y11113000D03*
%TD*%
D25*
%TO.C,Q1*%
X288282750Y-4327500D03*
X290182750Y-4327500D03*
X289232750Y-6202500D03*
%TD*%
D22*
%TO.C,C12*%
X268549492Y7670500D03*
X268549492Y9220500D03*
%TD*%
D26*
%TO.C,C15*%
X265247492Y12713000D03*
X265247492Y11163000D03*
%TD*%
D16*
%TO.C,R1*%
X261710992Y23558500D03*
X260060992Y23558500D03*
%TD*%
D12*
%TO.C,R13*%
X261945492Y11113000D03*
X261945492Y12763000D03*
%TD*%
D26*
%TO.C,C14*%
X266898492Y9220500D03*
X266898492Y7670500D03*
%TD*%
D27*
%TO.C,F1*%
X311951390Y14983000D03*
X311951390Y17783000D03*
%TD*%
D28*
%TO.C,J2*%
X292185992Y20000000D03*
X293185992Y20000000D03*
X294185992Y20000000D03*
X295185992Y20000000D03*
X296185992Y20000000D03*
D29*
X290885992Y23875000D03*
X297485992Y23875000D03*
%TD*%
D28*
%TO.C,J1*%
X279837000Y20000000D03*
X280837000Y20000000D03*
X281837000Y20000000D03*
X282837000Y20000000D03*
X283837000Y20000000D03*
X284837000Y20000000D03*
X285837000Y20000000D03*
X286837000Y20000000D03*
D29*
X278537000Y23875000D03*
X288137000Y23875000D03*
%TD*%
D24*
%TO.C,R11*%
X263596492Y9270500D03*
X263596492Y7620500D03*
%TD*%
D22*
%TO.C,C4*%
X272200390Y18846500D03*
X272200390Y20396500D03*
%TD*%
%TO.C,C5*%
X288168000Y3243008D03*
X288168000Y4793008D03*
%TD*%
D16*
%TO.C,R2*%
X261710992Y26098500D03*
X260060992Y26098500D03*
%TD*%
D30*
%TO.C,D1*%
X324391390Y21798500D03*
X324391390Y19698500D03*
%TD*%
D26*
%TO.C,C2*%
X273152890Y25848500D03*
X273152890Y24298500D03*
%TD*%
M02*
