G04 #@! TF.GenerationSoftware,KiCad,Pcbnew,(5.1.6)-1*
G04 #@! TF.CreationDate,2020-07-04T01:33:36+02:00*
G04 #@! TF.ProjectId,E80-1800-pcb-universal,4538302d-3138-4303-902d-7063622d756e,rev?*
G04 #@! TF.SameCoordinates,Original*
G04 #@! TF.FileFunction,Legend,Top*
G04 #@! TF.FilePolarity,Positive*
%FSLAX46Y46*%
G04 Gerber Fmt 4.6, Leading zero omitted, Abs format (unit mm)*
G04 Created by KiCad (PCBNEW (5.1.6)-1) date 2020-07-04 01:33:36*
%MOMM*%
%LPD*%
G01*
G04 APERTURE LIST*
%ADD10C,3.000000*%
%ADD11C,0.150000*%
%ADD12C,0.120000*%
%ADD13R,1.900000X1.200000*%
%ADD14C,4.100000*%
%ADD15C,1.900000*%
%ADD16R,1.900000X1.900000*%
%ADD17C,6.100000*%
%ADD18O,1.100000X2.200000*%
%ADD19C,0.750000*%
%ADD20O,1.100000X1.700000*%
%ADD21O,1.800000X1.800000*%
%ADD22R,1.800000X1.800000*%
%ADD23C,1.850000*%
%ADD24C,4.087800*%
%ADD25C,3.148000*%
G04 APERTURE END LIST*
D10*
G36*
X281432000Y-85725000D02*
G01*
X257175000Y-85725000D01*
X257175000Y-104775000D01*
X238125000Y-104775000D01*
X238125000Y-123825000D01*
X-9525000Y-123825000D01*
X-9500000Y-23881996D01*
X281432000Y-23870004D01*
X281432000Y-85725000D01*
G37*
X281432000Y-85725000D02*
X257175000Y-85725000D01*
X257175000Y-104775000D01*
X238125000Y-104775000D01*
X238125000Y-123825000D01*
X-9525000Y-123825000D01*
X-9500000Y-23881996D01*
X281432000Y-23870004D01*
X281432000Y-85725000D01*
G36*
X281583025Y-110132913D02*
G01*
X300633025Y-110132913D01*
X300633025Y-129182913D01*
X243483025Y-129182913D01*
X243483025Y-110132913D01*
X262533025Y-110132913D01*
X262533025Y-91082913D01*
X281583025Y-91082913D01*
X281583025Y-110132913D01*
G37*
X281583025Y-110132913D02*
X300633025Y-110132913D01*
X300633025Y-129182913D01*
X243483025Y-129182913D01*
X243483025Y-110132913D01*
X262533025Y-110132913D01*
X262533025Y-91082913D01*
X281583025Y-91082913D01*
X281583025Y-110132913D01*
G36*
X363140890Y-123825000D02*
G01*
X305990890Y-123825000D01*
X305990890Y-104775000D01*
X286940890Y-104775000D01*
X286686980Y13000000D01*
X362886980Y13000000D01*
X363140890Y-123825000D01*
G37*
X363140890Y-123825000D02*
X305990890Y-123825000D01*
X305990890Y-104775000D01*
X286940890Y-104775000D01*
X286686980Y13000000D01*
X362886980Y13000000D01*
X363140890Y-123825000D01*
G36*
X254198595Y-9525000D02*
G01*
X177998595Y-9525000D01*
X177998595Y13000000D01*
X254198595Y13000000D01*
X254198595Y-9525000D01*
G37*
X254198595Y-9525000D02*
X177998595Y-9525000D01*
X177998595Y13000000D01*
X254198595Y13000000D01*
X254198595Y-9525000D01*
G36*
X172640714Y-9525000D02*
G01*
X96440714Y-9525000D01*
X96440714Y13000000D01*
X172640714Y13000000D01*
X172640714Y-9525000D01*
G37*
X172640714Y-9525000D02*
X96440714Y-9525000D01*
X96440714Y13000000D01*
X172640714Y13000000D01*
X172640714Y-9525000D01*
G36*
X91082833Y-9525000D02*
G01*
X14882833Y-9525000D01*
X14882833Y13000000D01*
X91082833Y13000000D01*
X91082833Y-9525000D01*
G37*
X91082833Y-9525000D02*
X14882833Y-9525000D01*
X14882833Y13000000D01*
X91082833Y13000000D01*
X91082833Y-9525000D01*
G36*
X9525000Y-9525000D02*
G01*
X-9525000Y-9525000D01*
X-9525000Y13000000D01*
X9525000Y13000000D01*
X9525000Y-9525000D01*
G37*
X9525000Y-9525000D02*
X-9525000Y-9525000D01*
X-9525000Y13000000D01*
X9525000Y13000000D01*
X9525000Y-9525000D01*
D11*
X68830242Y-108009996D02*
X74030242Y-108009996D01*
X74030242Y-108009996D02*
X74030242Y-113209996D01*
X74030242Y-113209996D02*
X68830242Y-113209996D01*
X68830242Y-113209996D02*
X68830242Y-108009996D01*
X72430242Y-110609996D02*
G75*
G03*
X72430242Y-110609996I-1000000J0D01*
G01*
D12*
X277125992Y-4121792D02*
X277125992Y-4277792D01*
X277125992Y-6437792D02*
X277125992Y-6593792D01*
X279727122Y-6437629D02*
G75*
G02*
X277645031Y-6437792I-1041130J1079837D01*
G01*
X279727122Y-4277955D02*
G75*
G03*
X277645031Y-4277792I-1041130J-1079837D01*
G01*
X280358327Y-6436400D02*
G75*
G02*
X277125992Y-6593308I-1672335J1078608D01*
G01*
X280358327Y-4279184D02*
G75*
G03*
X277125992Y-4122276I-1672335J-1078608D01*
G01*
X269981992Y-4121792D02*
X269981992Y-4277792D01*
X269981992Y-6437792D02*
X269981992Y-6593792D01*
X272583122Y-6437629D02*
G75*
G02*
X270501031Y-6437792I-1041130J1079837D01*
G01*
X272583122Y-4277955D02*
G75*
G03*
X270501031Y-4277792I-1041130J-1079837D01*
G01*
X273214327Y-6436400D02*
G75*
G02*
X269981992Y-6593308I-1672335J1078608D01*
G01*
X273214327Y-4279184D02*
G75*
G03*
X269981992Y-4122276I-1672335J-1078608D01*
G01*
X262837992Y-4121792D02*
X262837992Y-4277792D01*
X262837992Y-6437792D02*
X262837992Y-6593792D01*
X265439122Y-6437629D02*
G75*
G02*
X263357031Y-6437792I-1041130J1079837D01*
G01*
X265439122Y-4277955D02*
G75*
G03*
X263357031Y-4277792I-1041130J-1079837D01*
G01*
X266070327Y-6436400D02*
G75*
G02*
X262837992Y-6593308I-1672335J1078608D01*
G01*
X266070327Y-4279184D02*
G75*
G03*
X262837992Y-4122276I-1672335J-1078608D01*
G01*
X256011390Y17148500D02*
X258671390Y17148500D01*
X256011390Y24828500D02*
X256011390Y17148500D01*
X258671390Y24828500D02*
X258671390Y17148500D01*
X256011390Y24828500D02*
X258671390Y24828500D01*
X256011390Y26098500D02*
X256011390Y27428500D01*
X256011390Y27428500D02*
X257341390Y27428500D01*
D11*
X72430242Y-117992422D02*
G75*
G03*
X72430242Y-117992422I-1000000J0D01*
G01*
X68830242Y-120592422D02*
X68830242Y-115392422D01*
X74030242Y-120592422D02*
X68830242Y-120592422D01*
X74030242Y-115392422D02*
X74030242Y-120592422D01*
X68830242Y-115392422D02*
X74030242Y-115392422D01*
X70096908Y-115078757D02*
X70239765Y-115126376D01*
X70477861Y-115126376D01*
X70573099Y-115078757D01*
X70620718Y-115031138D01*
X70668337Y-114935900D01*
X70668337Y-114840662D01*
X70620718Y-114745424D01*
X70573099Y-114697805D01*
X70477861Y-114650186D01*
X70287384Y-114602567D01*
X70192146Y-114554948D01*
X70144527Y-114507329D01*
X70096908Y-114412091D01*
X70096908Y-114316853D01*
X70144527Y-114221615D01*
X70192146Y-114173996D01*
X70287384Y-114126376D01*
X70525480Y-114126376D01*
X70668337Y-114173996D01*
X71001670Y-114126376D02*
X71239765Y-115126376D01*
X71430242Y-114412091D01*
X71620718Y-115126376D01*
X71858813Y-114126376D01*
X72763575Y-115126376D02*
X72192146Y-115126376D01*
X72477861Y-115126376D02*
X72477861Y-114126376D01*
X72382622Y-114269234D01*
X72287384Y-114364472D01*
X72192146Y-114412091D01*
X277947896Y-2850172D02*
X277947896Y-1850172D01*
X278185992Y-1850172D01*
X278328849Y-1897792D01*
X278424087Y-1993030D01*
X278471706Y-2088268D01*
X278519325Y-2278744D01*
X278519325Y-2421601D01*
X278471706Y-2612077D01*
X278424087Y-2707315D01*
X278328849Y-2802553D01*
X278185992Y-2850172D01*
X277947896Y-2850172D01*
X278852658Y-1850172D02*
X279471706Y-1850172D01*
X279138372Y-2231125D01*
X279281230Y-2231125D01*
X279376468Y-2278744D01*
X279424087Y-2326363D01*
X279471706Y-2421601D01*
X279471706Y-2659696D01*
X279424087Y-2754934D01*
X279376468Y-2802553D01*
X279281230Y-2850172D01*
X278995515Y-2850172D01*
X278900277Y-2802553D01*
X278852658Y-2754934D01*
X270803896Y-2850172D02*
X270803896Y-1850172D01*
X271041992Y-1850172D01*
X271184849Y-1897792D01*
X271280087Y-1993030D01*
X271327706Y-2088268D01*
X271375325Y-2278744D01*
X271375325Y-2421601D01*
X271327706Y-2612077D01*
X271280087Y-2707315D01*
X271184849Y-2802553D01*
X271041992Y-2850172D01*
X270803896Y-2850172D01*
X271756277Y-1945411D02*
X271803896Y-1897792D01*
X271899134Y-1850172D01*
X272137230Y-1850172D01*
X272232468Y-1897792D01*
X272280087Y-1945411D01*
X272327706Y-2040649D01*
X272327706Y-2135887D01*
X272280087Y-2278744D01*
X271708658Y-2850172D01*
X272327706Y-2850172D01*
X263659896Y-2850172D02*
X263659896Y-1850172D01*
X263897992Y-1850172D01*
X264040849Y-1897792D01*
X264136087Y-1993030D01*
X264183706Y-2088268D01*
X264231325Y-2278744D01*
X264231325Y-2421601D01*
X264183706Y-2612077D01*
X264136087Y-2707315D01*
X264040849Y-2802553D01*
X263897992Y-2850172D01*
X263659896Y-2850172D01*
X265183706Y-2850172D02*
X264612277Y-2850172D01*
X264897992Y-2850172D02*
X264897992Y-1850172D01*
X264802753Y-1993030D01*
X264707515Y-2088268D01*
X264612277Y-2135887D01*
X257008056Y28976119D02*
X257008056Y28261833D01*
X256960437Y28118976D01*
X256865199Y28023738D01*
X256722342Y27976119D01*
X256627104Y27976119D01*
X257436628Y28880880D02*
X257484247Y28928500D01*
X257579485Y28976119D01*
X257817580Y28976119D01*
X257912818Y28928500D01*
X257960437Y28880880D01*
X258008056Y28785642D01*
X258008056Y28690404D01*
X257960437Y28547547D01*
X257389009Y27976119D01*
X258008056Y27976119D01*
X70096908Y-122461183D02*
X70239765Y-122508802D01*
X70477861Y-122508802D01*
X70573099Y-122461183D01*
X70620718Y-122413564D01*
X70668337Y-122318326D01*
X70668337Y-122223088D01*
X70620718Y-122127850D01*
X70573099Y-122080231D01*
X70477861Y-122032612D01*
X70287384Y-121984993D01*
X70192146Y-121937374D01*
X70144527Y-121889755D01*
X70096908Y-121794517D01*
X70096908Y-121699279D01*
X70144527Y-121604041D01*
X70192146Y-121556422D01*
X70287384Y-121508802D01*
X70525480Y-121508802D01*
X70668337Y-121556422D01*
X71001670Y-121508802D02*
X71239765Y-122508802D01*
X71430242Y-121794517D01*
X71620718Y-122508802D01*
X71858813Y-121508802D01*
X72192146Y-121604041D02*
X72239765Y-121556422D01*
X72335003Y-121508802D01*
X72573099Y-121508802D01*
X72668337Y-121556422D01*
X72715956Y-121604041D01*
X72763575Y-121699279D01*
X72763575Y-121794517D01*
X72715956Y-121937374D01*
X72144527Y-122508802D01*
X72763575Y-122508802D01*
%LPC*%
D13*
X68330242Y-112459996D03*
X74530242Y-108759996D03*
X68330242Y-108759996D03*
X74530242Y-112459996D03*
D14*
X304204992Y-123824992D03*
D15*
X279955992Y-5357792D03*
D16*
X277415992Y-5357792D03*
D15*
X272811992Y-5357792D03*
D16*
X270271992Y-5357792D03*
D15*
X265667992Y-5357792D03*
D16*
X263127992Y-5357792D03*
D17*
X309194898Y21550008D03*
X241410992Y-19049992D03*
X49410992Y-19049992D03*
D18*
X320525890Y23646000D03*
X311885890Y23646000D03*
D19*
X313315890Y24176000D03*
D20*
X311885890Y27826000D03*
D19*
X319095890Y24176000D03*
D20*
X320525890Y27826000D03*
D21*
X257341390Y18478500D03*
X257341390Y21018500D03*
X257341390Y23558500D03*
D22*
X257341390Y26098500D03*
D23*
X7461250Y-76200000D03*
X-2698750Y-76200000D03*
D24*
X2381250Y-76200000D03*
X171450000Y-122555000D03*
D25*
X171450000Y-107315000D03*
D23*
X119380000Y-114300000D03*
X109220000Y-114300000D03*
D24*
X114300000Y-114300000D03*
D23*
X100330100Y-114300120D03*
X90170100Y-114300120D03*
D24*
X95250100Y-114300120D03*
D23*
X228917500Y-114300000D03*
X218757500Y-114300000D03*
D24*
X223837500Y-114300000D03*
D23*
X200342500Y-114300000D03*
X190182500Y-114300000D03*
D24*
X195262500Y-114300000D03*
D23*
X38417500Y-114300000D03*
X28257500Y-114300000D03*
D24*
X33337500Y-114300000D03*
D23*
X9842500Y-114300000D03*
X-317500Y-114300000D03*
D24*
X4762500Y-114300000D03*
X256063750Y-54737000D03*
X256063750Y-78613000D03*
D25*
X271303750Y-54737000D03*
X271303750Y-78613000D03*
D23*
X264318750Y-71755000D03*
X264318750Y-61595000D03*
D24*
X264318750Y-66675000D03*
X361870890Y-92837000D03*
X361870890Y-116713000D03*
D25*
X346630890Y-92837000D03*
X346630890Y-116713000D03*
D23*
X358695890Y-104775000D03*
X348535890Y-104775000D03*
D24*
X353615890Y-104775000D03*
D23*
X9842500Y-57150000D03*
X-317500Y-57150000D03*
D24*
X4762500Y-57150000D03*
D23*
X12223750Y-76200000D03*
X2063750Y-76200000D03*
D24*
X7143750Y-76200000D03*
D23*
X245586250Y-95250000D03*
X235426250Y-95250000D03*
D24*
X240506250Y-95250000D03*
D13*
X68330242Y-119842422D03*
X74530242Y-116142422D03*
X68330242Y-116142422D03*
X74530242Y-119842422D03*
D23*
X339645890Y-114300000D03*
X329485890Y-114300000D03*
D24*
X334565890Y-114300000D03*
D23*
X320595890Y-114300000D03*
X310435890Y-114300000D03*
D24*
X315515890Y-114300000D03*
D23*
X296188025Y-119657913D03*
X286028025Y-119657913D03*
D24*
X291108025Y-119657913D03*
D23*
X277138025Y-119657913D03*
X266978025Y-119657913D03*
D24*
X272058025Y-119657913D03*
D23*
X258088025Y-119657913D03*
X247928025Y-119657913D03*
D24*
X253008025Y-119657913D03*
D23*
X233680000Y-114300000D03*
X223520000Y-114300000D03*
D24*
X228600000Y-114300000D03*
D23*
X214630000Y-114300000D03*
X204470000Y-114300000D03*
D24*
X209550000Y-114300000D03*
D23*
X195580000Y-114300000D03*
X185420000Y-114300000D03*
D24*
X190500000Y-114300000D03*
D23*
X176530000Y-114300000D03*
X166370000Y-114300000D03*
D24*
X171450000Y-114300000D03*
X152400000Y-122555000D03*
X57150000Y-122555000D03*
D25*
X152400000Y-107315000D03*
X57150000Y-107315000D03*
D23*
X119380000Y-114300000D03*
X109220000Y-114300000D03*
D24*
X114300000Y-114300000D03*
D23*
X43180000Y-114300000D03*
X33020000Y-114300000D03*
D24*
X38100000Y-114300000D03*
D23*
X24130000Y-114300000D03*
X13970000Y-114300000D03*
D24*
X19050000Y-114300000D03*
D23*
X5080000Y-114300000D03*
X-5080000Y-114300000D03*
D24*
X0Y-114300000D03*
D23*
X339645890Y-95250000D03*
X329485890Y-95250000D03*
D24*
X334565890Y-95250000D03*
D23*
X320595890Y-95250000D03*
X310435890Y-95250000D03*
D24*
X315515890Y-95250000D03*
D23*
X301545890Y-95250000D03*
X291385890Y-95250000D03*
D24*
X296465890Y-95250000D03*
D23*
X277138025Y-100607913D03*
X266978025Y-100607913D03*
D24*
X272058025Y-100607913D03*
D23*
X219392500Y-95250000D03*
X209232500Y-95250000D03*
D24*
X214312500Y-95250000D03*
D23*
X200342500Y-95250000D03*
X190182500Y-95250000D03*
D24*
X195262500Y-95250000D03*
D23*
X181292500Y-95250000D03*
X171132500Y-95250000D03*
D24*
X176212500Y-95250000D03*
D23*
X162242500Y-95250000D03*
X152082500Y-95250000D03*
D24*
X157162500Y-95250000D03*
D23*
X143192500Y-95250000D03*
X133032500Y-95250000D03*
D24*
X138112500Y-95250000D03*
D23*
X124142500Y-95250000D03*
X113982500Y-95250000D03*
D24*
X119062500Y-95250000D03*
D23*
X105092500Y-95250000D03*
X94932500Y-95250000D03*
D24*
X100012500Y-95250000D03*
D23*
X86042500Y-95250000D03*
X75882500Y-95250000D03*
D24*
X80962500Y-95250000D03*
D23*
X66992500Y-95250000D03*
X56832500Y-95250000D03*
D24*
X61912500Y-95250000D03*
D23*
X47942500Y-95250000D03*
X37782500Y-95250000D03*
D24*
X42862500Y-95250000D03*
D23*
X28892500Y-95250000D03*
X18732500Y-95250000D03*
D24*
X23812500Y-95250000D03*
X23844250Y-103505000D03*
X-31750Y-103505000D03*
D25*
X23844250Y-88265000D03*
X-31750Y-88265000D03*
D23*
X16986250Y-95250000D03*
X6826250Y-95250000D03*
D24*
X11906250Y-95250000D03*
D23*
X7461250Y-95250000D03*
X-2698750Y-95250000D03*
D24*
X2381250Y-95250000D03*
D23*
X358695890Y-76200000D03*
X348535890Y-76200000D03*
D24*
X353615890Y-76200000D03*
D23*
X339645890Y-76200000D03*
X329485890Y-76200000D03*
D24*
X334565890Y-76200000D03*
D23*
X320595890Y-76200000D03*
X310435890Y-76200000D03*
D24*
X315515890Y-76200000D03*
D23*
X301545890Y-76200000D03*
X291385890Y-76200000D03*
D24*
X296465890Y-76200000D03*
X266731750Y-84455000D03*
X242855750Y-84455000D03*
D25*
X266731750Y-69215000D03*
X242855750Y-69215000D03*
D23*
X259873750Y-76200000D03*
X249713750Y-76200000D03*
D24*
X254793750Y-76200000D03*
D23*
X247967500Y-76200000D03*
X237807500Y-76200000D03*
D24*
X242887500Y-76200000D03*
D23*
X228917500Y-76200000D03*
X218757500Y-76200000D03*
D24*
X223837500Y-76200000D03*
D23*
X209867500Y-76200000D03*
X199707500Y-76200000D03*
D24*
X204787500Y-76200000D03*
D23*
X190817500Y-76200000D03*
X180657500Y-76200000D03*
D24*
X185737500Y-76200000D03*
D23*
X171767500Y-76200000D03*
X161607500Y-76200000D03*
D24*
X166687500Y-76200000D03*
D23*
X152717500Y-76200000D03*
X142557500Y-76200000D03*
D24*
X147637500Y-76200000D03*
D23*
X133667500Y-76200000D03*
X123507500Y-76200000D03*
D24*
X128587500Y-76200000D03*
D23*
X114617500Y-76200000D03*
X104457500Y-76200000D03*
D24*
X109537500Y-76200000D03*
D23*
X95567500Y-76200000D03*
X85407500Y-76200000D03*
D24*
X90487500Y-76200000D03*
D23*
X76517500Y-76200000D03*
X66357500Y-76200000D03*
D24*
X71437500Y-76200000D03*
D23*
X57467500Y-76200000D03*
X47307500Y-76200000D03*
D24*
X52387500Y-76200000D03*
D23*
X38417500Y-76200000D03*
X28257500Y-76200000D03*
D24*
X33337500Y-76200000D03*
D23*
X358695890Y-57150000D03*
X348535890Y-57150000D03*
D24*
X353615890Y-57150000D03*
D23*
X339645890Y-57150000D03*
X329485890Y-57150000D03*
D24*
X334565890Y-57150000D03*
D23*
X320595890Y-57150000D03*
X310435890Y-57150000D03*
D24*
X315515890Y-57150000D03*
D23*
X301545890Y-57150000D03*
X291385890Y-57150000D03*
D24*
X296465890Y-57150000D03*
D23*
X267017500Y-57150000D03*
X256857500Y-57150000D03*
D24*
X261937500Y-57150000D03*
D23*
X243205000Y-57150000D03*
X233045000Y-57150000D03*
D24*
X238125000Y-57150000D03*
D23*
X224155000Y-57150000D03*
X213995000Y-57150000D03*
D24*
X219075000Y-57150000D03*
D23*
X205105000Y-57150000D03*
X194945000Y-57150000D03*
D24*
X200025000Y-57150000D03*
D23*
X186055000Y-57150000D03*
X175895000Y-57150000D03*
D24*
X180975000Y-57150000D03*
D23*
X167005000Y-57150000D03*
X156845000Y-57150000D03*
D24*
X161925000Y-57150000D03*
D23*
X147955000Y-57150000D03*
X137795000Y-57150000D03*
D24*
X142875000Y-57150000D03*
D23*
X128905000Y-57150000D03*
X118745000Y-57150000D03*
D24*
X123825000Y-57150000D03*
D23*
X109855000Y-57150000D03*
X99695000Y-57150000D03*
D24*
X104775000Y-57150000D03*
D23*
X90805000Y-57150000D03*
X80645000Y-57150000D03*
D24*
X85725000Y-57150000D03*
D23*
X71755000Y-57150000D03*
X61595000Y-57150000D03*
D24*
X66675000Y-57150000D03*
D23*
X52705000Y-57150000D03*
X42545000Y-57150000D03*
D24*
X47625000Y-57150000D03*
D23*
X33655000Y-57150000D03*
X23495000Y-57150000D03*
D24*
X28575000Y-57150000D03*
D23*
X358695890Y-38100000D03*
X348535890Y-38100000D03*
D24*
X353615890Y-38100000D03*
D23*
X339645890Y-38100000D03*
X329485890Y-38100000D03*
D24*
X334565890Y-38100000D03*
D23*
X320595890Y-38100000D03*
X310435890Y-38100000D03*
D24*
X315515890Y-38100000D03*
D23*
X301545890Y-38100000D03*
X291385890Y-38100000D03*
D24*
X296465890Y-38100000D03*
X269113000Y-46355000D03*
X245237000Y-46355000D03*
D25*
X269113000Y-31115000D03*
X245237000Y-31115000D03*
D23*
X262255000Y-38100000D03*
X252095000Y-38100000D03*
D24*
X257175000Y-38100000D03*
D23*
X233680000Y-38100000D03*
X223520000Y-38100000D03*
D24*
X228600000Y-38100000D03*
D23*
X214630000Y-38100000D03*
X204470000Y-38100000D03*
D24*
X209550000Y-38100000D03*
D23*
X195580000Y-38100000D03*
X185420000Y-38100000D03*
D24*
X190500000Y-38100000D03*
D23*
X176530000Y-38100000D03*
X166370000Y-38100000D03*
D24*
X171450000Y-38100000D03*
D23*
X157480000Y-38100000D03*
X147320000Y-38100000D03*
D24*
X152400000Y-38100000D03*
D23*
X138430000Y-38100000D03*
X128270000Y-38100000D03*
D24*
X133350000Y-38100000D03*
D23*
X119380000Y-38100000D03*
X109220000Y-38100000D03*
D24*
X114300000Y-38100000D03*
D23*
X100330000Y-38100000D03*
X90170000Y-38100000D03*
D24*
X95250000Y-38100000D03*
D23*
X81280000Y-38100000D03*
X71120000Y-38100000D03*
D24*
X76200000Y-38100000D03*
D23*
X62230000Y-38100000D03*
X52070000Y-38100000D03*
D24*
X57150000Y-38100000D03*
D23*
X43180000Y-38100000D03*
X33020000Y-38100000D03*
D24*
X38100000Y-38100000D03*
D23*
X24130000Y-38100000D03*
X13970000Y-38100000D03*
D24*
X19050000Y-38100000D03*
D23*
X5080000Y-38100000D03*
X-5080000Y-38100000D03*
D24*
X0Y-38100000D03*
D23*
X358695890Y-19050000D03*
X348535890Y-19050000D03*
D24*
X353615890Y-19050000D03*
D23*
X339645890Y-19050000D03*
X329485890Y-19050000D03*
D24*
X334565890Y-19050000D03*
D23*
X320595890Y-19050000D03*
X310435890Y-19050000D03*
D24*
X315515890Y-19050000D03*
D23*
X301545890Y-19050000D03*
X291385890Y-19050000D03*
D24*
X296465890Y-19050000D03*
D23*
X358695890Y0D03*
X348535890Y0D03*
D24*
X353615890Y0D03*
D23*
X339645890Y0D03*
X329485890Y0D03*
D24*
X334565890Y0D03*
D23*
X320595890Y0D03*
X310435890Y0D03*
D24*
X315515890Y0D03*
D23*
X301545890Y0D03*
X291385890Y0D03*
D24*
X296465890Y0D03*
D23*
X249753595Y0D03*
X239593595Y0D03*
D24*
X244673595Y0D03*
D23*
X230703595Y0D03*
X220543595Y0D03*
D24*
X225623595Y0D03*
D23*
X211653595Y0D03*
X201493595Y0D03*
D24*
X206573595Y0D03*
D23*
X192603595Y0D03*
X182443595Y0D03*
D24*
X187523595Y0D03*
D23*
X168195714Y0D03*
X158035714Y0D03*
D24*
X163115714Y0D03*
D23*
X149145714Y0D03*
X138985714Y0D03*
D24*
X144065714Y0D03*
D23*
X130095714Y0D03*
X119935714Y0D03*
D24*
X125015714Y0D03*
D23*
X111045714Y0D03*
X100885714Y0D03*
D24*
X105965714Y0D03*
D23*
X86637833Y0D03*
X76477833Y0D03*
D24*
X81557833Y0D03*
D23*
X67587833Y0D03*
X57427833Y0D03*
D24*
X62507833Y0D03*
D23*
X48537833Y0D03*
X38377833Y0D03*
D24*
X43457833Y0D03*
D23*
X29487833Y0D03*
X19327833Y0D03*
D24*
X24407833Y0D03*
D23*
X5080000Y0D03*
X-5080000Y0D03*
D24*
X0Y0D03*
M02*

%LPC*%
G01*
G04 APERTURE LIST*
%ADD10C,0.150000*%
%ADD11C,0.200000*%
G04 APERTURE END LIST*
D10*
X69600000Y-117000000D02*
X73200000Y-119000000D01*
X69600000Y-109600000D02*
X73200000Y-111600000D01*
X253317559Y-84105799D02*
X253793750Y-84105799D01*
X253222321Y-84391513D02*
X253555654Y-83391513D01*
X253888988Y-84391513D01*
X254222321Y-84391513D02*
X254222321Y-83391513D01*
X254793750Y-84391513D01*
X254793750Y-83391513D01*
X255222321Y-84343894D02*
X255365178Y-84391513D01*
X255603273Y-84391513D01*
X255698511Y-84343894D01*
X255746130Y-84296275D01*
X255793750Y-84201037D01*
X255793750Y-84105799D01*
X255746130Y-84010561D01*
X255698511Y-83962942D01*
X255603273Y-83915323D01*
X255412797Y-83867704D01*
X255317559Y-83820085D01*
X255269940Y-83772466D01*
X255222321Y-83677228D01*
X255222321Y-83581990D01*
X255269940Y-83486752D01*
X255317559Y-83439133D01*
X255412797Y-83391513D01*
X255650892Y-83391513D01*
X255793750Y-83439133D01*
X256222321Y-84391513D02*
X256222321Y-83391513D01*
X254984375Y-67127436D02*
X254984375Y-66127436D01*
X255412946Y-67079817D02*
X255555803Y-67127436D01*
X255793898Y-67127436D01*
X255889136Y-67079817D01*
X255936755Y-67032198D01*
X255984375Y-66936960D01*
X255984375Y-66841722D01*
X255936755Y-66746484D01*
X255889136Y-66698865D01*
X255793898Y-66651246D01*
X255603422Y-66603627D01*
X255508184Y-66556008D01*
X255460565Y-66508389D01*
X255412946Y-66413151D01*
X255412946Y-66317913D01*
X255460565Y-66222675D01*
X255508184Y-66175056D01*
X255603422Y-66127436D01*
X255841517Y-66127436D01*
X255984375Y-66175056D01*
X256603422Y-66127436D02*
X256793898Y-66127436D01*
X256889136Y-66175056D01*
X256984375Y-66270294D01*
X257031994Y-66460770D01*
X257031994Y-66794103D01*
X256984375Y-66984579D01*
X256889136Y-67079817D01*
X256793898Y-67127436D01*
X256603422Y-67127436D01*
X256508184Y-67079817D01*
X256412946Y-66984579D01*
X256365327Y-66794103D01*
X256365327Y-66460770D01*
X256412946Y-66270294D01*
X256508184Y-66175056D01*
X256603422Y-66127436D01*
X6500892Y-84391513D02*
X6167559Y-83915323D01*
X5929464Y-84391513D02*
X5929464Y-83391513D01*
X6310416Y-83391513D01*
X6405654Y-83439133D01*
X6453273Y-83486752D01*
X6500892Y-83581990D01*
X6500892Y-83724847D01*
X6453273Y-83820085D01*
X6405654Y-83867704D01*
X6310416Y-83915323D01*
X5929464Y-83915323D01*
X6929464Y-83867704D02*
X7262797Y-83867704D01*
X7405654Y-84391513D02*
X6929464Y-84391513D01*
X6929464Y-83391513D01*
X7405654Y-83391513D01*
X8358035Y-83439133D02*
X8262797Y-83391513D01*
X8119940Y-83391513D01*
X7977083Y-83439133D01*
X7881845Y-83534371D01*
X7834226Y-83629609D01*
X7786607Y-83820085D01*
X7786607Y-83962942D01*
X7834226Y-84153418D01*
X7881845Y-84248656D01*
X7977083Y-84343894D01*
X8119940Y-84391513D01*
X8215178Y-84391513D01*
X8358035Y-84343894D01*
X8405654Y-84296275D01*
X8405654Y-83962942D01*
X8215178Y-83962942D01*
X3405357Y-103441529D02*
X2833928Y-103441529D01*
X3119642Y-103441529D02*
X3119642Y-102441529D01*
X3024404Y-102584387D01*
X2929166Y-102679625D01*
X2833928Y-102727244D01*
X3833928Y-103346291D02*
X3881547Y-103393910D01*
X3833928Y-103441529D01*
X3786309Y-103393910D01*
X3833928Y-103346291D01*
X3833928Y-103441529D01*
X4262500Y-102536768D02*
X4310119Y-102489149D01*
X4405357Y-102441529D01*
X4643452Y-102441529D01*
X4738690Y-102489149D01*
X4786309Y-102536768D01*
X4833928Y-102632006D01*
X4833928Y-102727244D01*
X4786309Y-102870101D01*
X4214880Y-103441529D01*
X4833928Y-103441529D01*
X5738690Y-102441529D02*
X5262500Y-102441529D01*
X5214880Y-102917720D01*
X5262500Y-102870101D01*
X5357738Y-102822482D01*
X5595833Y-102822482D01*
X5691071Y-102870101D01*
X5738690Y-102917720D01*
X5786309Y-103012958D01*
X5786309Y-103251053D01*
X5738690Y-103346291D01*
X5691071Y-103393910D01*
X5595833Y-103441529D01*
X5357738Y-103441529D01*
X5262500Y-103393910D01*
X5214880Y-103346291D01*
X6643452Y-102774863D02*
X6643452Y-103441529D01*
X6214880Y-102774863D02*
X6214880Y-103298672D01*
X6262500Y-103393910D01*
X6357738Y-103441529D01*
X6500595Y-103441529D01*
X6595833Y-103393910D01*
X6643452Y-103346291D01*
X1214583Y-84343894D02*
X1357440Y-84391513D01*
X1595535Y-84391513D01*
X1690773Y-84343894D01*
X1738392Y-84296275D01*
X1786011Y-84201037D01*
X1786011Y-84105799D01*
X1738392Y-84010561D01*
X1690773Y-83962942D01*
X1595535Y-83915323D01*
X1405059Y-83867704D01*
X1309821Y-83820085D01*
X1262202Y-83772466D01*
X1214583Y-83677228D01*
X1214583Y-83581990D01*
X1262202Y-83486752D01*
X1309821Y-83439133D01*
X1405059Y-83391513D01*
X1643154Y-83391513D01*
X1786011Y-83439133D01*
X2071726Y-83391513D02*
X2643154Y-83391513D01*
X2357440Y-84391513D02*
X2357440Y-83391513D01*
X2976488Y-84391513D02*
X2976488Y-83391513D01*
X3357440Y-83391513D01*
X3452678Y-83439133D01*
X3500297Y-83486752D01*
X3547916Y-83581990D01*
X3547916Y-83724847D01*
X3500297Y-83820085D01*
X3452678Y-83867704D01*
X3357440Y-83915323D01*
X2976488Y-83915323D01*
X9977678Y-102536768D02*
X10025297Y-102489149D01*
X10120535Y-102441529D01*
X10358630Y-102441529D01*
X10453869Y-102489149D01*
X10501488Y-102536768D01*
X10549107Y-102632006D01*
X10549107Y-102727244D01*
X10501488Y-102870101D01*
X9930059Y-103441529D01*
X10549107Y-103441529D01*
X10977678Y-103346291D02*
X11025297Y-103393910D01*
X10977678Y-103441529D01*
X10930059Y-103393910D01*
X10977678Y-103346291D01*
X10977678Y-103441529D01*
X11406250Y-102536768D02*
X11453869Y-102489149D01*
X11549107Y-102441529D01*
X11787202Y-102441529D01*
X11882440Y-102489149D01*
X11930059Y-102536768D01*
X11977678Y-102632006D01*
X11977678Y-102727244D01*
X11930059Y-102870101D01*
X11358630Y-103441529D01*
X11977678Y-103441529D01*
X12882440Y-102441529D02*
X12406250Y-102441529D01*
X12358630Y-102917720D01*
X12406250Y-102870101D01*
X12501488Y-102822482D01*
X12739583Y-102822482D01*
X12834821Y-102870101D01*
X12882440Y-102917720D01*
X12930059Y-103012958D01*
X12930059Y-103251053D01*
X12882440Y-103346291D01*
X12834821Y-103393910D01*
X12739583Y-103441529D01*
X12501488Y-103441529D01*
X12406250Y-103393910D01*
X12358630Y-103346291D01*
X13787202Y-102774863D02*
X13787202Y-103441529D01*
X13358630Y-102774863D02*
X13358630Y-103298672D01*
X13406250Y-103393910D01*
X13501488Y-103441529D01*
X13644345Y-103441529D01*
X13739583Y-103393910D01*
X13787202Y-103346291D01*
D11*
X152138095Y-114507380D02*
X151947619Y-114507380D01*
X151852380Y-114555000D01*
X151804761Y-114602619D01*
X151709523Y-114745476D01*
X151661904Y-114935952D01*
X151661904Y-115316904D01*
X151709523Y-115412142D01*
X151757142Y-115459761D01*
X151852380Y-115507380D01*
X152042857Y-115507380D01*
X152138095Y-115459761D01*
X152185714Y-115412142D01*
X152233333Y-115316904D01*
X152233333Y-115078809D01*
X152185714Y-114983571D01*
X152138095Y-114935952D01*
X152042857Y-114888333D01*
X151852380Y-114888333D01*
X151757142Y-114935952D01*
X151709523Y-114983571D01*
X151661904Y-115078809D01*
X153090476Y-114840714D02*
X153090476Y-115507380D01*
X152661904Y-114840714D02*
X152661904Y-115364523D01*
X152709523Y-115459761D01*
X152804761Y-115507380D01*
X152947619Y-115507380D01*
X153042857Y-115459761D01*
X153090476Y-115412142D01*
X56738095Y-113657380D02*
X56547619Y-113657380D01*
X56452380Y-113705000D01*
X56404761Y-113752619D01*
X56309523Y-113895476D01*
X56261904Y-114085952D01*
X56261904Y-114466904D01*
X56309523Y-114562142D01*
X56357142Y-114609761D01*
X56452380Y-114657380D01*
X56642857Y-114657380D01*
X56738095Y-114609761D01*
X56785714Y-114562142D01*
X56833333Y-114466904D01*
X56833333Y-114228809D01*
X56785714Y-114133571D01*
X56738095Y-114085952D01*
X56642857Y-114038333D01*
X56452380Y-114038333D01*
X56357142Y-114085952D01*
X56309523Y-114133571D01*
X56261904Y-114228809D01*
X57690476Y-113990714D02*
X57690476Y-114657380D01*
X57261904Y-113990714D02*
X57261904Y-114514523D01*
X57309523Y-114609761D01*
X57404761Y-114657380D01*
X57547619Y-114657380D01*
X57642857Y-114609761D01*
X57690476Y-114562142D01*
X56214285Y-115357380D02*
X56880952Y-115357380D01*
X56452380Y-116357380D01*
X57690476Y-115690714D02*
X57690476Y-116357380D01*
X57261904Y-115690714D02*
X57261904Y-116214523D01*
X57309523Y-116309761D01*
X57404761Y-116357380D01*
X57547619Y-116357380D01*
X57642857Y-116309761D01*
X57690476Y-116262142D01*
X81986607Y-117920993D02*
X82129464Y-117968612D01*
X82177083Y-118016231D01*
X82224702Y-118111469D01*
X82224702Y-118254326D01*
X82177083Y-118349564D01*
X82129464Y-118397183D01*
X82034226Y-118444802D01*
X81653273Y-118444802D01*
X81653273Y-117444802D01*
X81986607Y-117444802D01*
X82081845Y-117492422D01*
X82129464Y-117540041D01*
X82177083Y-117635279D01*
X82177083Y-117730517D01*
X82129464Y-117825755D01*
X82081845Y-117873374D01*
X81986607Y-117920993D01*
X81653273Y-117920993D01*
X82843750Y-117444802D02*
X83034226Y-117444802D01*
X83129464Y-117492422D01*
X83224702Y-117587660D01*
X83272321Y-117778136D01*
X83272321Y-118111469D01*
X83224702Y-118301945D01*
X83129464Y-118397183D01*
X83034226Y-118444802D01*
X82843750Y-118444802D01*
X82748511Y-118397183D01*
X82653273Y-118301945D01*
X82605654Y-118111469D01*
X82605654Y-117778136D01*
X82653273Y-117587660D01*
X82748511Y-117492422D01*
X82843750Y-117444802D01*
X83891369Y-117444802D02*
X84081845Y-117444802D01*
X84177083Y-117492422D01*
X84272321Y-117587660D01*
X84319940Y-117778136D01*
X84319940Y-118111469D01*
X84272321Y-118301945D01*
X84177083Y-118397183D01*
X84081845Y-118444802D01*
X83891369Y-118444802D01*
X83796130Y-118397183D01*
X83700892Y-118301945D01*
X83653273Y-118111469D01*
X83653273Y-117778136D01*
X83700892Y-117587660D01*
X83796130Y-117492422D01*
X83891369Y-117444802D01*
X84605654Y-117444802D02*
X85177083Y-117444802D01*
X84891369Y-118444802D02*
X84891369Y-117444802D01*
X82252380Y-111062376D02*
X81919047Y-110586186D01*
X81680952Y-111062376D02*
X81680952Y-110062376D01*
X82061904Y-110062376D01*
X82157142Y-110109996D01*
X82204761Y-110157615D01*
X82252380Y-110252853D01*
X82252380Y-110395710D01*
X82204761Y-110490948D01*
X82157142Y-110538567D01*
X82061904Y-110586186D01*
X81680952Y-110586186D01*
X82633333Y-111014757D02*
X82776190Y-111062376D01*
X83014285Y-111062376D01*
X83109523Y-111014757D01*
X83157142Y-110967138D01*
X83204761Y-110871900D01*
X83204761Y-110776662D01*
X83157142Y-110681424D01*
X83109523Y-110633805D01*
X83014285Y-110586186D01*
X82823809Y-110538567D01*
X82728571Y-110490948D01*
X82680952Y-110443329D01*
X82633333Y-110348091D01*
X82633333Y-110252853D01*
X82680952Y-110157615D01*
X82728571Y-110109996D01*
X82823809Y-110062376D01*
X83061904Y-110062376D01*
X83204761Y-110109996D01*
X83490476Y-110062376D02*
X84061904Y-110062376D01*
X83776190Y-111062376D02*
X83776190Y-110062376D01*
X228433333Y-122491545D02*
X227861904Y-122491545D01*
X228147619Y-122491545D02*
X228147619Y-121491545D01*
X228052380Y-121634403D01*
X227957142Y-121729641D01*
X227861904Y-121777260D01*
X229290476Y-121824879D02*
X229290476Y-122491545D01*
X228861904Y-121824879D02*
X228861904Y-122348688D01*
X228909523Y-122443926D01*
X229004761Y-122491545D01*
X229147619Y-122491545D01*
X229242857Y-122443926D01*
X229290476Y-122396307D01*
X222956547Y-122491545D02*
X222385119Y-122491545D01*
X222670833Y-122491545D02*
X222670833Y-121491545D01*
X222575595Y-121634403D01*
X222480357Y-121729641D01*
X222385119Y-121777260D01*
X223385119Y-122396307D02*
X223432738Y-122443926D01*
X223385119Y-122491545D01*
X223337500Y-122443926D01*
X223385119Y-122396307D01*
X223385119Y-122491545D01*
X224337500Y-121491545D02*
X223861309Y-121491545D01*
X223813690Y-121967736D01*
X223861309Y-121920117D01*
X223956547Y-121872498D01*
X224194642Y-121872498D01*
X224289880Y-121920117D01*
X224337500Y-121967736D01*
X224385119Y-122062974D01*
X224385119Y-122301069D01*
X224337500Y-122396307D01*
X224289880Y-122443926D01*
X224194642Y-122491545D01*
X223956547Y-122491545D01*
X223861309Y-122443926D01*
X223813690Y-122396307D01*
X225242261Y-121824879D02*
X225242261Y-122491545D01*
X224813690Y-121824879D02*
X224813690Y-122348688D01*
X224861309Y-122443926D01*
X224956547Y-122491545D01*
X225099404Y-122491545D01*
X225194642Y-122443926D01*
X225242261Y-122396307D01*
X209383333Y-122491545D02*
X208811904Y-122491545D01*
X209097619Y-122491545D02*
X209097619Y-121491545D01*
X209002380Y-121634403D01*
X208907142Y-121729641D01*
X208811904Y-121777260D01*
X210240476Y-121824879D02*
X210240476Y-122491545D01*
X209811904Y-121824879D02*
X209811904Y-122348688D01*
X209859523Y-122443926D01*
X209954761Y-122491545D01*
X210097619Y-122491545D01*
X210192857Y-122443926D01*
X210240476Y-122396307D01*
X194381547Y-122491545D02*
X193810119Y-122491545D01*
X194095833Y-122491545D02*
X194095833Y-121491545D01*
X194000595Y-121634403D01*
X193905357Y-121729641D01*
X193810119Y-121777260D01*
X194810119Y-122396307D02*
X194857738Y-122443926D01*
X194810119Y-122491545D01*
X194762500Y-122443926D01*
X194810119Y-122396307D01*
X194810119Y-122491545D01*
X195762500Y-121491545D02*
X195286309Y-121491545D01*
X195238690Y-121967736D01*
X195286309Y-121920117D01*
X195381547Y-121872498D01*
X195619642Y-121872498D01*
X195714880Y-121920117D01*
X195762500Y-121967736D01*
X195810119Y-122062974D01*
X195810119Y-122301069D01*
X195762500Y-122396307D01*
X195714880Y-122443926D01*
X195619642Y-122491545D01*
X195381547Y-122491545D01*
X195286309Y-122443926D01*
X195238690Y-122396307D01*
X196667261Y-121824879D02*
X196667261Y-122491545D01*
X196238690Y-121824879D02*
X196238690Y-122348688D01*
X196286309Y-122443926D01*
X196381547Y-122491545D01*
X196524404Y-122491545D01*
X196619642Y-122443926D01*
X196667261Y-122396307D01*
X190333333Y-122491545D02*
X189761904Y-122491545D01*
X190047619Y-122491545D02*
X190047619Y-121491545D01*
X189952380Y-121634403D01*
X189857142Y-121729641D01*
X189761904Y-121777260D01*
X191190476Y-121824879D02*
X191190476Y-122491545D01*
X190761904Y-121824879D02*
X190761904Y-122348688D01*
X190809523Y-122443926D01*
X190904761Y-122491545D01*
X191047619Y-122491545D01*
X191142857Y-122443926D01*
X191190476Y-122396307D01*
X174791904Y-122602380D02*
X174220476Y-122602380D01*
X174506190Y-122602380D02*
X174506190Y-121602380D01*
X174410952Y-121745238D01*
X174315714Y-121840476D01*
X174220476Y-121888095D01*
X175649047Y-121935714D02*
X175649047Y-122602380D01*
X175220476Y-121935714D02*
X175220476Y-122459523D01*
X175268095Y-122554761D01*
X175363333Y-122602380D01*
X175506190Y-122602380D01*
X175601428Y-122554761D01*
X175649047Y-122507142D01*
X174172857Y-123302380D02*
X174839523Y-123302380D01*
X174410952Y-124302380D01*
X175649047Y-123635714D02*
X175649047Y-124302380D01*
X175220476Y-123635714D02*
X175220476Y-124159523D01*
X175268095Y-124254761D01*
X175363333Y-124302380D01*
X175506190Y-124302380D01*
X175601428Y-124254761D01*
X175649047Y-124207142D01*
X176839523Y-124254761D02*
X176934761Y-124302380D01*
X177125238Y-124302380D01*
X177220476Y-124254761D01*
X177268095Y-124159523D01*
X177268095Y-124111904D01*
X177220476Y-124016666D01*
X177125238Y-123969047D01*
X176982380Y-123969047D01*
X176887142Y-123921428D01*
X176839523Y-123826190D01*
X176839523Y-123778571D01*
X176887142Y-123683333D01*
X176982380Y-123635714D01*
X177125238Y-123635714D01*
X177220476Y-123683333D01*
X177553809Y-123635714D02*
X177934761Y-123635714D01*
X177696666Y-123302380D02*
X177696666Y-124159523D01*
X177744285Y-124254761D01*
X177839523Y-124302380D01*
X177934761Y-124302380D01*
X178696666Y-124302380D02*
X178696666Y-123778571D01*
X178649047Y-123683333D01*
X178553809Y-123635714D01*
X178363333Y-123635714D01*
X178268095Y-123683333D01*
X178696666Y-124254761D02*
X178601428Y-124302380D01*
X178363333Y-124302380D01*
X178268095Y-124254761D01*
X178220476Y-124159523D01*
X178220476Y-124064285D01*
X178268095Y-123969047D01*
X178363333Y-123921428D01*
X178601428Y-123921428D01*
X178696666Y-123873809D01*
X179172857Y-124302380D02*
X179172857Y-123302380D01*
X179172857Y-123683333D02*
X179268095Y-123635714D01*
X179458571Y-123635714D01*
X179553809Y-123683333D01*
X179601428Y-123730952D01*
X179649047Y-123826190D01*
X179649047Y-124111904D01*
X179601428Y-124207142D01*
X179553809Y-124254761D01*
X179458571Y-124302380D01*
X179268095Y-124302380D01*
X179172857Y-124254761D01*
X112585714Y-121491545D02*
X112395238Y-121491545D01*
X112300000Y-121539165D01*
X112252380Y-121586784D01*
X112157142Y-121729641D01*
X112109523Y-121920117D01*
X112109523Y-122301069D01*
X112157142Y-122396307D01*
X112204761Y-122443926D01*
X112300000Y-122491545D01*
X112490476Y-122491545D01*
X112585714Y-122443926D01*
X112633333Y-122396307D01*
X112680952Y-122301069D01*
X112680952Y-122062974D01*
X112633333Y-121967736D01*
X112585714Y-121920117D01*
X112490476Y-121872498D01*
X112300000Y-121872498D01*
X112204761Y-121920117D01*
X112157142Y-121967736D01*
X112109523Y-122062974D01*
X113538095Y-121824879D02*
X113538095Y-122491545D01*
X113109523Y-121824879D02*
X113109523Y-122348688D01*
X113157142Y-122443926D01*
X113252380Y-122491545D01*
X113395238Y-122491545D01*
X113490476Y-122443926D01*
X113538095Y-122396307D01*
X114728571Y-121443926D02*
X113871428Y-122729641D01*
X114966666Y-121491545D02*
X115633333Y-121491545D01*
X115204761Y-122491545D01*
X116442857Y-121824879D02*
X116442857Y-122491545D01*
X116014285Y-121824879D02*
X116014285Y-122348688D01*
X116061904Y-122443926D01*
X116157142Y-122491545D01*
X116300000Y-122491545D01*
X116395238Y-122443926D01*
X116442857Y-122396307D01*
X92035714Y-121491545D02*
X91845238Y-121491545D01*
X91750000Y-121539165D01*
X91702380Y-121586784D01*
X91607142Y-121729641D01*
X91559523Y-121920117D01*
X91559523Y-122301069D01*
X91607142Y-122396307D01*
X91654761Y-122443926D01*
X91750000Y-122491545D01*
X91940476Y-122491545D01*
X92035714Y-122443926D01*
X92083333Y-122396307D01*
X92130952Y-122301069D01*
X92130952Y-122062974D01*
X92083333Y-121967736D01*
X92035714Y-121920117D01*
X91940476Y-121872498D01*
X91750000Y-121872498D01*
X91654761Y-121920117D01*
X91607142Y-121967736D01*
X91559523Y-122062974D01*
X92988095Y-121824879D02*
X92988095Y-122491545D01*
X92559523Y-121824879D02*
X92559523Y-122348688D01*
X92607142Y-122443926D01*
X92702380Y-122491545D01*
X92845238Y-122491545D01*
X92940476Y-122443926D01*
X92988095Y-122396307D01*
X94083333Y-121824879D02*
X94464285Y-121824879D01*
X94226190Y-122491545D02*
X94226190Y-121634403D01*
X94273809Y-121539165D01*
X94369047Y-121491545D01*
X94464285Y-121491545D01*
X94940476Y-122491545D02*
X94845238Y-122443926D01*
X94797619Y-122348688D01*
X94797619Y-121491545D01*
X95321428Y-122491545D02*
X95321428Y-121824879D01*
X95321428Y-121491545D02*
X95273809Y-121539165D01*
X95321428Y-121586784D01*
X95369047Y-121539165D01*
X95321428Y-121491545D01*
X95321428Y-121586784D01*
X95797619Y-121824879D02*
X95797619Y-122824879D01*
X95797619Y-121872498D02*
X95892857Y-121824879D01*
X96083333Y-121824879D01*
X96178571Y-121872498D01*
X96226190Y-121920117D01*
X96273809Y-122015355D01*
X96273809Y-122301069D01*
X96226190Y-122396307D01*
X96178571Y-122443926D01*
X96083333Y-122491545D01*
X95892857Y-122491545D01*
X95797619Y-122443926D01*
X96702380Y-121824879D02*
X96702380Y-122824879D01*
X96702380Y-121872498D02*
X96797619Y-121824879D01*
X96988095Y-121824879D01*
X97083333Y-121872498D01*
X97130952Y-121920117D01*
X97178571Y-122015355D01*
X97178571Y-122301069D01*
X97130952Y-122396307D01*
X97083333Y-122443926D01*
X96988095Y-122491545D01*
X96797619Y-122491545D01*
X96702380Y-122443926D01*
X97988095Y-122443926D02*
X97892857Y-122491545D01*
X97702380Y-122491545D01*
X97607142Y-122443926D01*
X97559523Y-122348688D01*
X97559523Y-121967736D01*
X97607142Y-121872498D01*
X97702380Y-121824879D01*
X97892857Y-121824879D01*
X97988095Y-121872498D01*
X98035714Y-121967736D01*
X98035714Y-122062974D01*
X97559523Y-122158212D01*
X98892857Y-122491545D02*
X98892857Y-121491545D01*
X98892857Y-122443926D02*
X98797619Y-122491545D01*
X98607142Y-122491545D01*
X98511904Y-122443926D01*
X98464285Y-122396307D01*
X98416666Y-122301069D01*
X98416666Y-122015355D01*
X98464285Y-121920117D01*
X98511904Y-121872498D01*
X98607142Y-121824879D01*
X98797619Y-121824879D01*
X98892857Y-121872498D01*
X37933333Y-122491545D02*
X37361904Y-122491545D01*
X37647619Y-122491545D02*
X37647619Y-121491545D01*
X37552380Y-121634403D01*
X37457142Y-121729641D01*
X37361904Y-121777260D01*
X38790476Y-121824879D02*
X38790476Y-122491545D01*
X38361904Y-121824879D02*
X38361904Y-122348688D01*
X38409523Y-122443926D01*
X38504761Y-122491545D01*
X38647619Y-122491545D01*
X38742857Y-122443926D01*
X38790476Y-122396307D01*
X32456547Y-122491545D02*
X31885119Y-122491545D01*
X32170833Y-122491545D02*
X32170833Y-121491545D01*
X32075595Y-121634403D01*
X31980357Y-121729641D01*
X31885119Y-121777260D01*
X32885119Y-122396307D02*
X32932738Y-122443926D01*
X32885119Y-122491545D01*
X32837500Y-122443926D01*
X32885119Y-122396307D01*
X32885119Y-122491545D01*
X33837500Y-121491545D02*
X33361309Y-121491545D01*
X33313690Y-121967736D01*
X33361309Y-121920117D01*
X33456547Y-121872498D01*
X33694642Y-121872498D01*
X33789880Y-121920117D01*
X33837500Y-121967736D01*
X33885119Y-122062974D01*
X33885119Y-122301069D01*
X33837500Y-122396307D01*
X33789880Y-122443926D01*
X33694642Y-122491545D01*
X33456547Y-122491545D01*
X33361309Y-122443926D01*
X33313690Y-122396307D01*
X34742261Y-121824879D02*
X34742261Y-122491545D01*
X34313690Y-121824879D02*
X34313690Y-122348688D01*
X34361309Y-122443926D01*
X34456547Y-122491545D01*
X34599404Y-122491545D01*
X34694642Y-122443926D01*
X34742261Y-122396307D01*
X18883333Y-122491545D02*
X18311904Y-122491545D01*
X18597619Y-122491545D02*
X18597619Y-121491545D01*
X18502380Y-121634403D01*
X18407142Y-121729641D01*
X18311904Y-121777260D01*
X19740476Y-121824879D02*
X19740476Y-122491545D01*
X19311904Y-121824879D02*
X19311904Y-122348688D01*
X19359523Y-122443926D01*
X19454761Y-122491545D01*
X19597619Y-122491545D01*
X19692857Y-122443926D01*
X19740476Y-122396307D01*
X3881547Y-122491545D02*
X3310119Y-122491545D01*
X3595833Y-122491545D02*
X3595833Y-121491545D01*
X3500595Y-121634403D01*
X3405357Y-121729641D01*
X3310119Y-121777260D01*
X4310119Y-122396307D02*
X4357738Y-122443926D01*
X4310119Y-122491545D01*
X4262500Y-122443926D01*
X4310119Y-122396307D01*
X4310119Y-122491545D01*
X5262500Y-121491545D02*
X4786309Y-121491545D01*
X4738690Y-121967736D01*
X4786309Y-121920117D01*
X4881547Y-121872498D01*
X5119642Y-121872498D01*
X5214880Y-121920117D01*
X5262500Y-121967736D01*
X5310119Y-122062974D01*
X5310119Y-122301069D01*
X5262500Y-122396307D01*
X5214880Y-122443926D01*
X5119642Y-122491545D01*
X4881547Y-122491545D01*
X4786309Y-122443926D01*
X4738690Y-122396307D01*
X6167261Y-121824879D02*
X6167261Y-122491545D01*
X5738690Y-121824879D02*
X5738690Y-122348688D01*
X5786309Y-122443926D01*
X5881547Y-122491545D01*
X6024404Y-122491545D01*
X6119642Y-122443926D01*
X6167261Y-122396307D01*
X-166666Y-122491545D02*
X-738095Y-122491545D01*
X-452380Y-122491545D02*
X-452380Y-121491545D01*
X-547619Y-121634403D01*
X-642857Y-121729641D01*
X-738095Y-121777260D01*
X690476Y-121824879D02*
X690476Y-122491545D01*
X261904Y-121824879D02*
X261904Y-122348688D01*
X309523Y-122443926D01*
X404761Y-122491545D01*
X547619Y-122491545D01*
X642857Y-122443926D01*
X690476Y-122396307D01*
M02*
