G04 #@! TF.GenerationSoftware,KiCad,Pcbnew,5.1.7*
G04 #@! TF.CreationDate,2020-10-04T23:09:21+02:00*
G04 #@! TF.ProjectId,E80-1800-pcb-universal,4538302d-3138-4303-902d-7063622d756e,rev?*
G04 #@! TF.SameCoordinates,Original*
G04 #@! TF.FileFunction,Legend,Top*
G04 #@! TF.FilePolarity,Positive*
%FSLAX46Y46*%
G04 Gerber Fmt 4.6, Leading zero omitted, Abs format (unit mm)*
G04 Created by KiCad (PCBNEW 5.1.7) date 2020-10-04 23:09:21*
%MOMM*%
%LPD*%
G01*
G04 APERTURE LIST*
%ADD10C,0.150000*%
%ADD11C,0.120000*%
%ADD12C,0.200000*%
%ADD13C,1.850000*%
%ADD14C,4.087800*%
%ADD15O,1.800000X1.800000*%
%ADD16C,4.100000*%
%ADD17C,1.900000*%
%ADD18C,6.100000*%
%ADD19O,1.100000X2.200000*%
%ADD20C,0.750000*%
%ADD21O,1.100000X1.700000*%
%ADD22C,3.148000*%
G04 APERTURE END LIST*
D10*
X82984247Y-116430071D02*
X83127104Y-116477690D01*
X83174723Y-116525309D01*
X83222342Y-116620547D01*
X83222342Y-116763404D01*
X83174723Y-116858642D01*
X83127104Y-116906261D01*
X83031866Y-116953880D01*
X82650913Y-116953880D01*
X82650913Y-115953880D01*
X82984247Y-115953880D01*
X83079485Y-116001500D01*
X83127104Y-116049119D01*
X83174723Y-116144357D01*
X83174723Y-116239595D01*
X83127104Y-116334833D01*
X83079485Y-116382452D01*
X82984247Y-116430071D01*
X82650913Y-116430071D01*
X83841390Y-115953880D02*
X84031866Y-115953880D01*
X84127104Y-116001500D01*
X84222342Y-116096738D01*
X84269961Y-116287214D01*
X84269961Y-116620547D01*
X84222342Y-116811023D01*
X84127104Y-116906261D01*
X84031866Y-116953880D01*
X83841390Y-116953880D01*
X83746151Y-116906261D01*
X83650913Y-116811023D01*
X83603294Y-116620547D01*
X83603294Y-116287214D01*
X83650913Y-116096738D01*
X83746151Y-116001500D01*
X83841390Y-115953880D01*
X84889009Y-115953880D02*
X85079485Y-115953880D01*
X85174723Y-116001500D01*
X85269961Y-116096738D01*
X85317580Y-116287214D01*
X85317580Y-116620547D01*
X85269961Y-116811023D01*
X85174723Y-116906261D01*
X85079485Y-116953880D01*
X84889009Y-116953880D01*
X84793770Y-116906261D01*
X84698532Y-116811023D01*
X84650913Y-116620547D01*
X84650913Y-116287214D01*
X84698532Y-116096738D01*
X84793770Y-116001500D01*
X84889009Y-115953880D01*
X85603294Y-115953880D02*
X86174723Y-115953880D01*
X85889009Y-116953880D02*
X85889009Y-115953880D01*
X83220380Y-112534372D02*
X82887047Y-112058182D01*
X82648952Y-112534372D02*
X82648952Y-111534372D01*
X83029904Y-111534372D01*
X83125142Y-111581992D01*
X83172761Y-111629611D01*
X83220380Y-111724849D01*
X83220380Y-111867706D01*
X83172761Y-111962944D01*
X83125142Y-112010563D01*
X83029904Y-112058182D01*
X82648952Y-112058182D01*
X83601333Y-112486753D02*
X83744190Y-112534372D01*
X83982285Y-112534372D01*
X84077523Y-112486753D01*
X84125142Y-112439134D01*
X84172761Y-112343896D01*
X84172761Y-112248658D01*
X84125142Y-112153420D01*
X84077523Y-112105801D01*
X83982285Y-112058182D01*
X83791809Y-112010563D01*
X83696571Y-111962944D01*
X83648952Y-111915325D01*
X83601333Y-111820087D01*
X83601333Y-111724849D01*
X83648952Y-111629611D01*
X83696571Y-111581992D01*
X83791809Y-111534372D01*
X84029904Y-111534372D01*
X84172761Y-111581992D01*
X84458476Y-111534372D02*
X85029904Y-111534372D01*
X84744190Y-112534372D02*
X84744190Y-111534372D01*
X314943985Y26296119D02*
X314943985Y25486595D01*
X314991604Y25391357D01*
X315039223Y25343738D01*
X315134461Y25296119D01*
X315324937Y25296119D01*
X315420175Y25343738D01*
X315467794Y25391357D01*
X315515413Y25486595D01*
X315515413Y26296119D01*
X315943985Y25343738D02*
X316086842Y25296119D01*
X316324937Y25296119D01*
X316420175Y25343738D01*
X316467794Y25391357D01*
X316515413Y25486595D01*
X316515413Y25581833D01*
X316467794Y25677071D01*
X316420175Y25724690D01*
X316324937Y25772309D01*
X316134461Y25819928D01*
X316039223Y25867547D01*
X315991604Y25915166D01*
X315943985Y26010404D01*
X315943985Y26105642D01*
X315991604Y26200880D01*
X316039223Y26248500D01*
X316134461Y26296119D01*
X316372556Y26296119D01*
X316515413Y26248500D01*
X317277318Y25819928D02*
X317420175Y25772309D01*
X317467794Y25724690D01*
X317515413Y25629452D01*
X317515413Y25486595D01*
X317467794Y25391357D01*
X317420175Y25343738D01*
X317324937Y25296119D01*
X316943985Y25296119D01*
X316943985Y26296119D01*
X317277318Y26296119D01*
X317372556Y26248500D01*
X317420175Y26200880D01*
X317467794Y26105642D01*
X317467794Y26010404D01*
X317420175Y25915166D01*
X317372556Y25867547D01*
X317277318Y25819928D01*
X316943985Y25819928D01*
D11*
X262675390Y27114500D02*
X262675390Y17716500D01*
D10*
X263826437Y21836119D02*
X263826437Y22836119D01*
X264255009Y23074214D02*
X264350247Y23121833D01*
X264493104Y23121833D01*
X264588342Y23074214D01*
X264635961Y22978976D01*
X264635961Y22883738D01*
X264588342Y22788500D01*
X264255009Y22455166D01*
X264635961Y22455166D01*
X265635961Y21931357D02*
X265588342Y21883738D01*
X265445485Y21836119D01*
X265350247Y21836119D01*
X265207390Y21883738D01*
X265112151Y21978976D01*
X265064532Y22074214D01*
X265016913Y22264690D01*
X265016913Y22407547D01*
X265064532Y22598023D01*
X265112151Y22693261D01*
X265207390Y22788500D01*
X265350247Y22836119D01*
X265445485Y22836119D01*
X265588342Y22788500D01*
X265635961Y22740880D01*
X259683104Y25693738D02*
X259825961Y25646119D01*
X260064056Y25646119D01*
X260159294Y25693738D01*
X260206913Y25741357D01*
X260254532Y25836595D01*
X260254532Y25931833D01*
X260206913Y26027071D01*
X260159294Y26074690D01*
X260064056Y26122309D01*
X259873580Y26169928D01*
X259778342Y26217547D01*
X259730723Y26265166D01*
X259683104Y26360404D01*
X259683104Y26455642D01*
X259730723Y26550880D01*
X259778342Y26598500D01*
X259873580Y26646119D01*
X260111675Y26646119D01*
X260254532Y26598500D01*
X260683104Y25646119D02*
X260683104Y26646119D01*
X260921199Y26646119D01*
X261064056Y26598500D01*
X261159294Y26503261D01*
X261206913Y26408023D01*
X261254532Y26217547D01*
X261254532Y26074690D01*
X261206913Y25884214D01*
X261159294Y25788976D01*
X261064056Y25693738D01*
X260921199Y25646119D01*
X260683104Y25646119D01*
X261635485Y25931833D02*
X262111675Y25931833D01*
X261540247Y25646119D02*
X261873580Y26646119D01*
X262206913Y25646119D01*
X259706913Y23153738D02*
X259849770Y23106119D01*
X260087866Y23106119D01*
X260183104Y23153738D01*
X260230723Y23201357D01*
X260278342Y23296595D01*
X260278342Y23391833D01*
X260230723Y23487071D01*
X260183104Y23534690D01*
X260087866Y23582309D01*
X259897390Y23629928D01*
X259802151Y23677547D01*
X259754532Y23725166D01*
X259706913Y23820404D01*
X259706913Y23915642D01*
X259754532Y24010880D01*
X259802151Y24058500D01*
X259897390Y24106119D01*
X260135485Y24106119D01*
X260278342Y24058500D01*
X261278342Y23201357D02*
X261230723Y23153738D01*
X261087866Y23106119D01*
X260992628Y23106119D01*
X260849770Y23153738D01*
X260754532Y23248976D01*
X260706913Y23344214D01*
X260659294Y23534690D01*
X260659294Y23677547D01*
X260706913Y23868023D01*
X260754532Y23963261D01*
X260849770Y24058500D01*
X260992628Y24106119D01*
X261087866Y24106119D01*
X261230723Y24058500D01*
X261278342Y24010880D01*
X262183104Y23106119D02*
X261706913Y23106119D01*
X261706913Y24106119D01*
X259659294Y21566119D02*
X260278342Y21566119D01*
X259945009Y21185166D01*
X260087866Y21185166D01*
X260183104Y21137547D01*
X260230723Y21089928D01*
X260278342Y20994690D01*
X260278342Y20756595D01*
X260230723Y20661357D01*
X260183104Y20613738D01*
X260087866Y20566119D01*
X259802151Y20566119D01*
X259706913Y20613738D01*
X259659294Y20661357D01*
X260564056Y21566119D02*
X260897390Y20566119D01*
X261230723Y21566119D01*
X261468818Y21566119D02*
X262087866Y21566119D01*
X261754532Y21185166D01*
X261897390Y21185166D01*
X261992628Y21137547D01*
X262040247Y21089928D01*
X262087866Y20994690D01*
X262087866Y20756595D01*
X262040247Y20661357D01*
X261992628Y20613738D01*
X261897390Y20566119D01*
X261611675Y20566119D01*
X261516437Y20613738D01*
X261468818Y20661357D01*
X260135485Y18978500D02*
X260040247Y19026119D01*
X259897390Y19026119D01*
X259754532Y18978500D01*
X259659294Y18883261D01*
X259611675Y18788023D01*
X259564056Y18597547D01*
X259564056Y18454690D01*
X259611675Y18264214D01*
X259659294Y18168976D01*
X259754532Y18073738D01*
X259897390Y18026119D01*
X259992628Y18026119D01*
X260135485Y18073738D01*
X260183104Y18121357D01*
X260183104Y18454690D01*
X259992628Y18454690D01*
X260611675Y18026119D02*
X260611675Y19026119D01*
X261183104Y18026119D01*
X261183104Y19026119D01*
X261659294Y18026119D02*
X261659294Y19026119D01*
X261897390Y19026119D01*
X262040247Y18978500D01*
X262135485Y18883261D01*
X262183104Y18788023D01*
X262230723Y18597547D01*
X262230723Y18454690D01*
X262183104Y18264214D01*
X262135485Y18168976D01*
X262040247Y18073738D01*
X261897390Y18026119D01*
X261659294Y18026119D01*
X69600000Y-117000000D02*
X73200000Y-119000000D01*
X69600000Y-109600000D02*
X73200000Y-111600000D01*
X253317559Y-84105799D02*
X253793750Y-84105799D01*
X253222321Y-84391513D02*
X253555654Y-83391513D01*
X253888988Y-84391513D01*
X254222321Y-84391513D02*
X254222321Y-83391513D01*
X254793750Y-84391513D01*
X254793750Y-83391513D01*
X255222321Y-84343894D02*
X255365178Y-84391513D01*
X255603273Y-84391513D01*
X255698511Y-84343894D01*
X255746130Y-84296275D01*
X255793750Y-84201037D01*
X255793750Y-84105799D01*
X255746130Y-84010561D01*
X255698511Y-83962942D01*
X255603273Y-83915323D01*
X255412797Y-83867704D01*
X255317559Y-83820085D01*
X255269940Y-83772466D01*
X255222321Y-83677228D01*
X255222321Y-83581990D01*
X255269940Y-83486752D01*
X255317559Y-83439133D01*
X255412797Y-83391513D01*
X255650892Y-83391513D01*
X255793750Y-83439133D01*
X256222321Y-84391513D02*
X256222321Y-83391513D01*
X254984375Y-67127436D02*
X254984375Y-66127436D01*
X255412946Y-67079817D02*
X255555803Y-67127436D01*
X255793898Y-67127436D01*
X255889136Y-67079817D01*
X255936755Y-67032198D01*
X255984375Y-66936960D01*
X255984375Y-66841722D01*
X255936755Y-66746484D01*
X255889136Y-66698865D01*
X255793898Y-66651246D01*
X255603422Y-66603627D01*
X255508184Y-66556008D01*
X255460565Y-66508389D01*
X255412946Y-66413151D01*
X255412946Y-66317913D01*
X255460565Y-66222675D01*
X255508184Y-66175056D01*
X255603422Y-66127436D01*
X255841517Y-66127436D01*
X255984375Y-66175056D01*
X256603422Y-66127436D02*
X256793898Y-66127436D01*
X256889136Y-66175056D01*
X256984375Y-66270294D01*
X257031994Y-66460770D01*
X257031994Y-66794103D01*
X256984375Y-66984579D01*
X256889136Y-67079817D01*
X256793898Y-67127436D01*
X256603422Y-67127436D01*
X256508184Y-67079817D01*
X256412946Y-66984579D01*
X256365327Y-66794103D01*
X256365327Y-66460770D01*
X256412946Y-66270294D01*
X256508184Y-66175056D01*
X256603422Y-66127436D01*
X6500892Y-84391513D02*
X6167559Y-83915323D01*
X5929464Y-84391513D02*
X5929464Y-83391513D01*
X6310416Y-83391513D01*
X6405654Y-83439133D01*
X6453273Y-83486752D01*
X6500892Y-83581990D01*
X6500892Y-83724847D01*
X6453273Y-83820085D01*
X6405654Y-83867704D01*
X6310416Y-83915323D01*
X5929464Y-83915323D01*
X6929464Y-83867704D02*
X7262797Y-83867704D01*
X7405654Y-84391513D02*
X6929464Y-84391513D01*
X6929464Y-83391513D01*
X7405654Y-83391513D01*
X8358035Y-83439133D02*
X8262797Y-83391513D01*
X8119940Y-83391513D01*
X7977083Y-83439133D01*
X7881845Y-83534371D01*
X7834226Y-83629609D01*
X7786607Y-83820085D01*
X7786607Y-83962942D01*
X7834226Y-84153418D01*
X7881845Y-84248656D01*
X7977083Y-84343894D01*
X8119940Y-84391513D01*
X8215178Y-84391513D01*
X8358035Y-84343894D01*
X8405654Y-84296275D01*
X8405654Y-83962942D01*
X8215178Y-83962942D01*
X3405357Y-103441529D02*
X2833928Y-103441529D01*
X3119642Y-103441529D02*
X3119642Y-102441529D01*
X3024404Y-102584387D01*
X2929166Y-102679625D01*
X2833928Y-102727244D01*
X3833928Y-103346291D02*
X3881547Y-103393910D01*
X3833928Y-103441529D01*
X3786309Y-103393910D01*
X3833928Y-103346291D01*
X3833928Y-103441529D01*
X4262500Y-102536768D02*
X4310119Y-102489149D01*
X4405357Y-102441529D01*
X4643452Y-102441529D01*
X4738690Y-102489149D01*
X4786309Y-102536768D01*
X4833928Y-102632006D01*
X4833928Y-102727244D01*
X4786309Y-102870101D01*
X4214880Y-103441529D01*
X4833928Y-103441529D01*
X5738690Y-102441529D02*
X5262500Y-102441529D01*
X5214880Y-102917720D01*
X5262500Y-102870101D01*
X5357738Y-102822482D01*
X5595833Y-102822482D01*
X5691071Y-102870101D01*
X5738690Y-102917720D01*
X5786309Y-103012958D01*
X5786309Y-103251053D01*
X5738690Y-103346291D01*
X5691071Y-103393910D01*
X5595833Y-103441529D01*
X5357738Y-103441529D01*
X5262500Y-103393910D01*
X5214880Y-103346291D01*
X6643452Y-102774863D02*
X6643452Y-103441529D01*
X6214880Y-102774863D02*
X6214880Y-103298672D01*
X6262500Y-103393910D01*
X6357738Y-103441529D01*
X6500595Y-103441529D01*
X6595833Y-103393910D01*
X6643452Y-103346291D01*
X1214583Y-84343894D02*
X1357440Y-84391513D01*
X1595535Y-84391513D01*
X1690773Y-84343894D01*
X1738392Y-84296275D01*
X1786011Y-84201037D01*
X1786011Y-84105799D01*
X1738392Y-84010561D01*
X1690773Y-83962942D01*
X1595535Y-83915323D01*
X1405059Y-83867704D01*
X1309821Y-83820085D01*
X1262202Y-83772466D01*
X1214583Y-83677228D01*
X1214583Y-83581990D01*
X1262202Y-83486752D01*
X1309821Y-83439133D01*
X1405059Y-83391513D01*
X1643154Y-83391513D01*
X1786011Y-83439133D01*
X2071726Y-83391513D02*
X2643154Y-83391513D01*
X2357440Y-84391513D02*
X2357440Y-83391513D01*
X2976488Y-84391513D02*
X2976488Y-83391513D01*
X3357440Y-83391513D01*
X3452678Y-83439133D01*
X3500297Y-83486752D01*
X3547916Y-83581990D01*
X3547916Y-83724847D01*
X3500297Y-83820085D01*
X3452678Y-83867704D01*
X3357440Y-83915323D01*
X2976488Y-83915323D01*
X9977678Y-102536768D02*
X10025297Y-102489149D01*
X10120535Y-102441529D01*
X10358630Y-102441529D01*
X10453869Y-102489149D01*
X10501488Y-102536768D01*
X10549107Y-102632006D01*
X10549107Y-102727244D01*
X10501488Y-102870101D01*
X9930059Y-103441529D01*
X10549107Y-103441529D01*
X10977678Y-103346291D02*
X11025297Y-103393910D01*
X10977678Y-103441529D01*
X10930059Y-103393910D01*
X10977678Y-103346291D01*
X10977678Y-103441529D01*
X11406250Y-102536768D02*
X11453869Y-102489149D01*
X11549107Y-102441529D01*
X11787202Y-102441529D01*
X11882440Y-102489149D01*
X11930059Y-102536768D01*
X11977678Y-102632006D01*
X11977678Y-102727244D01*
X11930059Y-102870101D01*
X11358630Y-103441529D01*
X11977678Y-103441529D01*
X12882440Y-102441529D02*
X12406250Y-102441529D01*
X12358630Y-102917720D01*
X12406250Y-102870101D01*
X12501488Y-102822482D01*
X12739583Y-102822482D01*
X12834821Y-102870101D01*
X12882440Y-102917720D01*
X12930059Y-103012958D01*
X12930059Y-103251053D01*
X12882440Y-103346291D01*
X12834821Y-103393910D01*
X12739583Y-103441529D01*
X12501488Y-103441529D01*
X12406250Y-103393910D01*
X12358630Y-103346291D01*
X13787202Y-102774863D02*
X13787202Y-103441529D01*
X13358630Y-102774863D02*
X13358630Y-103298672D01*
X13406250Y-103393910D01*
X13501488Y-103441529D01*
X13644345Y-103441529D01*
X13739583Y-103393910D01*
X13787202Y-103346291D01*
D12*
X152138095Y-114507380D02*
X151947619Y-114507380D01*
X151852380Y-114555000D01*
X151804761Y-114602619D01*
X151709523Y-114745476D01*
X151661904Y-114935952D01*
X151661904Y-115316904D01*
X151709523Y-115412142D01*
X151757142Y-115459761D01*
X151852380Y-115507380D01*
X152042857Y-115507380D01*
X152138095Y-115459761D01*
X152185714Y-115412142D01*
X152233333Y-115316904D01*
X152233333Y-115078809D01*
X152185714Y-114983571D01*
X152138095Y-114935952D01*
X152042857Y-114888333D01*
X151852380Y-114888333D01*
X151757142Y-114935952D01*
X151709523Y-114983571D01*
X151661904Y-115078809D01*
X153090476Y-114840714D02*
X153090476Y-115507380D01*
X152661904Y-114840714D02*
X152661904Y-115364523D01*
X152709523Y-115459761D01*
X152804761Y-115507380D01*
X152947619Y-115507380D01*
X153042857Y-115459761D01*
X153090476Y-115412142D01*
X56738095Y-113657380D02*
X56547619Y-113657380D01*
X56452380Y-113705000D01*
X56404761Y-113752619D01*
X56309523Y-113895476D01*
X56261904Y-114085952D01*
X56261904Y-114466904D01*
X56309523Y-114562142D01*
X56357142Y-114609761D01*
X56452380Y-114657380D01*
X56642857Y-114657380D01*
X56738095Y-114609761D01*
X56785714Y-114562142D01*
X56833333Y-114466904D01*
X56833333Y-114228809D01*
X56785714Y-114133571D01*
X56738095Y-114085952D01*
X56642857Y-114038333D01*
X56452380Y-114038333D01*
X56357142Y-114085952D01*
X56309523Y-114133571D01*
X56261904Y-114228809D01*
X57690476Y-113990714D02*
X57690476Y-114657380D01*
X57261904Y-113990714D02*
X57261904Y-114514523D01*
X57309523Y-114609761D01*
X57404761Y-114657380D01*
X57547619Y-114657380D01*
X57642857Y-114609761D01*
X57690476Y-114562142D01*
X56214285Y-115357380D02*
X56880952Y-115357380D01*
X56452380Y-116357380D01*
X57690476Y-115690714D02*
X57690476Y-116357380D01*
X57261904Y-115690714D02*
X57261904Y-116214523D01*
X57309523Y-116309761D01*
X57404761Y-116357380D01*
X57547619Y-116357380D01*
X57642857Y-116309761D01*
X57690476Y-116262142D01*
X228433333Y-122491545D02*
X227861904Y-122491545D01*
X228147619Y-122491545D02*
X228147619Y-121491545D01*
X228052380Y-121634403D01*
X227957142Y-121729641D01*
X227861904Y-121777260D01*
X229290476Y-121824879D02*
X229290476Y-122491545D01*
X228861904Y-121824879D02*
X228861904Y-122348688D01*
X228909523Y-122443926D01*
X229004761Y-122491545D01*
X229147619Y-122491545D01*
X229242857Y-122443926D01*
X229290476Y-122396307D01*
X222956547Y-122491545D02*
X222385119Y-122491545D01*
X222670833Y-122491545D02*
X222670833Y-121491545D01*
X222575595Y-121634403D01*
X222480357Y-121729641D01*
X222385119Y-121777260D01*
X223385119Y-122396307D02*
X223432738Y-122443926D01*
X223385119Y-122491545D01*
X223337500Y-122443926D01*
X223385119Y-122396307D01*
X223385119Y-122491545D01*
X224337500Y-121491545D02*
X223861309Y-121491545D01*
X223813690Y-121967736D01*
X223861309Y-121920117D01*
X223956547Y-121872498D01*
X224194642Y-121872498D01*
X224289880Y-121920117D01*
X224337500Y-121967736D01*
X224385119Y-122062974D01*
X224385119Y-122301069D01*
X224337500Y-122396307D01*
X224289880Y-122443926D01*
X224194642Y-122491545D01*
X223956547Y-122491545D01*
X223861309Y-122443926D01*
X223813690Y-122396307D01*
X225242261Y-121824879D02*
X225242261Y-122491545D01*
X224813690Y-121824879D02*
X224813690Y-122348688D01*
X224861309Y-122443926D01*
X224956547Y-122491545D01*
X225099404Y-122491545D01*
X225194642Y-122443926D01*
X225242261Y-122396307D01*
X209383333Y-122491545D02*
X208811904Y-122491545D01*
X209097619Y-122491545D02*
X209097619Y-121491545D01*
X209002380Y-121634403D01*
X208907142Y-121729641D01*
X208811904Y-121777260D01*
X210240476Y-121824879D02*
X210240476Y-122491545D01*
X209811904Y-121824879D02*
X209811904Y-122348688D01*
X209859523Y-122443926D01*
X209954761Y-122491545D01*
X210097619Y-122491545D01*
X210192857Y-122443926D01*
X210240476Y-122396307D01*
X194381547Y-122491545D02*
X193810119Y-122491545D01*
X194095833Y-122491545D02*
X194095833Y-121491545D01*
X194000595Y-121634403D01*
X193905357Y-121729641D01*
X193810119Y-121777260D01*
X194810119Y-122396307D02*
X194857738Y-122443926D01*
X194810119Y-122491545D01*
X194762500Y-122443926D01*
X194810119Y-122396307D01*
X194810119Y-122491545D01*
X195762500Y-121491545D02*
X195286309Y-121491545D01*
X195238690Y-121967736D01*
X195286309Y-121920117D01*
X195381547Y-121872498D01*
X195619642Y-121872498D01*
X195714880Y-121920117D01*
X195762500Y-121967736D01*
X195810119Y-122062974D01*
X195810119Y-122301069D01*
X195762500Y-122396307D01*
X195714880Y-122443926D01*
X195619642Y-122491545D01*
X195381547Y-122491545D01*
X195286309Y-122443926D01*
X195238690Y-122396307D01*
X196667261Y-121824879D02*
X196667261Y-122491545D01*
X196238690Y-121824879D02*
X196238690Y-122348688D01*
X196286309Y-122443926D01*
X196381547Y-122491545D01*
X196524404Y-122491545D01*
X196619642Y-122443926D01*
X196667261Y-122396307D01*
X190333333Y-122491545D02*
X189761904Y-122491545D01*
X190047619Y-122491545D02*
X190047619Y-121491545D01*
X189952380Y-121634403D01*
X189857142Y-121729641D01*
X189761904Y-121777260D01*
X191190476Y-121824879D02*
X191190476Y-122491545D01*
X190761904Y-121824879D02*
X190761904Y-122348688D01*
X190809523Y-122443926D01*
X190904761Y-122491545D01*
X191047619Y-122491545D01*
X191142857Y-122443926D01*
X191190476Y-122396307D01*
X174791904Y-122602380D02*
X174220476Y-122602380D01*
X174506190Y-122602380D02*
X174506190Y-121602380D01*
X174410952Y-121745238D01*
X174315714Y-121840476D01*
X174220476Y-121888095D01*
X175649047Y-121935714D02*
X175649047Y-122602380D01*
X175220476Y-121935714D02*
X175220476Y-122459523D01*
X175268095Y-122554761D01*
X175363333Y-122602380D01*
X175506190Y-122602380D01*
X175601428Y-122554761D01*
X175649047Y-122507142D01*
X174172857Y-123302380D02*
X174839523Y-123302380D01*
X174410952Y-124302380D01*
X175649047Y-123635714D02*
X175649047Y-124302380D01*
X175220476Y-123635714D02*
X175220476Y-124159523D01*
X175268095Y-124254761D01*
X175363333Y-124302380D01*
X175506190Y-124302380D01*
X175601428Y-124254761D01*
X175649047Y-124207142D01*
X176839523Y-124254761D02*
X176934761Y-124302380D01*
X177125238Y-124302380D01*
X177220476Y-124254761D01*
X177268095Y-124159523D01*
X177268095Y-124111904D01*
X177220476Y-124016666D01*
X177125238Y-123969047D01*
X176982380Y-123969047D01*
X176887142Y-123921428D01*
X176839523Y-123826190D01*
X176839523Y-123778571D01*
X176887142Y-123683333D01*
X176982380Y-123635714D01*
X177125238Y-123635714D01*
X177220476Y-123683333D01*
X177553809Y-123635714D02*
X177934761Y-123635714D01*
X177696666Y-123302380D02*
X177696666Y-124159523D01*
X177744285Y-124254761D01*
X177839523Y-124302380D01*
X177934761Y-124302380D01*
X178696666Y-124302380D02*
X178696666Y-123778571D01*
X178649047Y-123683333D01*
X178553809Y-123635714D01*
X178363333Y-123635714D01*
X178268095Y-123683333D01*
X178696666Y-124254761D02*
X178601428Y-124302380D01*
X178363333Y-124302380D01*
X178268095Y-124254761D01*
X178220476Y-124159523D01*
X178220476Y-124064285D01*
X178268095Y-123969047D01*
X178363333Y-123921428D01*
X178601428Y-123921428D01*
X178696666Y-123873809D01*
X179172857Y-124302380D02*
X179172857Y-123302380D01*
X179172857Y-123683333D02*
X179268095Y-123635714D01*
X179458571Y-123635714D01*
X179553809Y-123683333D01*
X179601428Y-123730952D01*
X179649047Y-123826190D01*
X179649047Y-124111904D01*
X179601428Y-124207142D01*
X179553809Y-124254761D01*
X179458571Y-124302380D01*
X179268095Y-124302380D01*
X179172857Y-124254761D01*
X112585714Y-121491545D02*
X112395238Y-121491545D01*
X112300000Y-121539165D01*
X112252380Y-121586784D01*
X112157142Y-121729641D01*
X112109523Y-121920117D01*
X112109523Y-122301069D01*
X112157142Y-122396307D01*
X112204761Y-122443926D01*
X112300000Y-122491545D01*
X112490476Y-122491545D01*
X112585714Y-122443926D01*
X112633333Y-122396307D01*
X112680952Y-122301069D01*
X112680952Y-122062974D01*
X112633333Y-121967736D01*
X112585714Y-121920117D01*
X112490476Y-121872498D01*
X112300000Y-121872498D01*
X112204761Y-121920117D01*
X112157142Y-121967736D01*
X112109523Y-122062974D01*
X113538095Y-121824879D02*
X113538095Y-122491545D01*
X113109523Y-121824879D02*
X113109523Y-122348688D01*
X113157142Y-122443926D01*
X113252380Y-122491545D01*
X113395238Y-122491545D01*
X113490476Y-122443926D01*
X113538095Y-122396307D01*
X114728571Y-121443926D02*
X113871428Y-122729641D01*
X114966666Y-121491545D02*
X115633333Y-121491545D01*
X115204761Y-122491545D01*
X116442857Y-121824879D02*
X116442857Y-122491545D01*
X116014285Y-121824879D02*
X116014285Y-122348688D01*
X116061904Y-122443926D01*
X116157142Y-122491545D01*
X116300000Y-122491545D01*
X116395238Y-122443926D01*
X116442857Y-122396307D01*
X92035714Y-121491545D02*
X91845238Y-121491545D01*
X91750000Y-121539165D01*
X91702380Y-121586784D01*
X91607142Y-121729641D01*
X91559523Y-121920117D01*
X91559523Y-122301069D01*
X91607142Y-122396307D01*
X91654761Y-122443926D01*
X91750000Y-122491545D01*
X91940476Y-122491545D01*
X92035714Y-122443926D01*
X92083333Y-122396307D01*
X92130952Y-122301069D01*
X92130952Y-122062974D01*
X92083333Y-121967736D01*
X92035714Y-121920117D01*
X91940476Y-121872498D01*
X91750000Y-121872498D01*
X91654761Y-121920117D01*
X91607142Y-121967736D01*
X91559523Y-122062974D01*
X92988095Y-121824879D02*
X92988095Y-122491545D01*
X92559523Y-121824879D02*
X92559523Y-122348688D01*
X92607142Y-122443926D01*
X92702380Y-122491545D01*
X92845238Y-122491545D01*
X92940476Y-122443926D01*
X92988095Y-122396307D01*
X94083333Y-121824879D02*
X94464285Y-121824879D01*
X94226190Y-122491545D02*
X94226190Y-121634403D01*
X94273809Y-121539165D01*
X94369047Y-121491545D01*
X94464285Y-121491545D01*
X94940476Y-122491545D02*
X94845238Y-122443926D01*
X94797619Y-122348688D01*
X94797619Y-121491545D01*
X95321428Y-122491545D02*
X95321428Y-121824879D01*
X95321428Y-121491545D02*
X95273809Y-121539165D01*
X95321428Y-121586784D01*
X95369047Y-121539165D01*
X95321428Y-121491545D01*
X95321428Y-121586784D01*
X95797619Y-121824879D02*
X95797619Y-122824879D01*
X95797619Y-121872498D02*
X95892857Y-121824879D01*
X96083333Y-121824879D01*
X96178571Y-121872498D01*
X96226190Y-121920117D01*
X96273809Y-122015355D01*
X96273809Y-122301069D01*
X96226190Y-122396307D01*
X96178571Y-122443926D01*
X96083333Y-122491545D01*
X95892857Y-122491545D01*
X95797619Y-122443926D01*
X96702380Y-121824879D02*
X96702380Y-122824879D01*
X96702380Y-121872498D02*
X96797619Y-121824879D01*
X96988095Y-121824879D01*
X97083333Y-121872498D01*
X97130952Y-121920117D01*
X97178571Y-122015355D01*
X97178571Y-122301069D01*
X97130952Y-122396307D01*
X97083333Y-122443926D01*
X96988095Y-122491545D01*
X96797619Y-122491545D01*
X96702380Y-122443926D01*
X97988095Y-122443926D02*
X97892857Y-122491545D01*
X97702380Y-122491545D01*
X97607142Y-122443926D01*
X97559523Y-122348688D01*
X97559523Y-121967736D01*
X97607142Y-121872498D01*
X97702380Y-121824879D01*
X97892857Y-121824879D01*
X97988095Y-121872498D01*
X98035714Y-121967736D01*
X98035714Y-122062974D01*
X97559523Y-122158212D01*
X98892857Y-122491545D02*
X98892857Y-121491545D01*
X98892857Y-122443926D02*
X98797619Y-122491545D01*
X98607142Y-122491545D01*
X98511904Y-122443926D01*
X98464285Y-122396307D01*
X98416666Y-122301069D01*
X98416666Y-122015355D01*
X98464285Y-121920117D01*
X98511904Y-121872498D01*
X98607142Y-121824879D01*
X98797619Y-121824879D01*
X98892857Y-121872498D01*
X37933333Y-122491545D02*
X37361904Y-122491545D01*
X37647619Y-122491545D02*
X37647619Y-121491545D01*
X37552380Y-121634403D01*
X37457142Y-121729641D01*
X37361904Y-121777260D01*
X38790476Y-121824879D02*
X38790476Y-122491545D01*
X38361904Y-121824879D02*
X38361904Y-122348688D01*
X38409523Y-122443926D01*
X38504761Y-122491545D01*
X38647619Y-122491545D01*
X38742857Y-122443926D01*
X38790476Y-122396307D01*
X32456547Y-122491545D02*
X31885119Y-122491545D01*
X32170833Y-122491545D02*
X32170833Y-121491545D01*
X32075595Y-121634403D01*
X31980357Y-121729641D01*
X31885119Y-121777260D01*
X32885119Y-122396307D02*
X32932738Y-122443926D01*
X32885119Y-122491545D01*
X32837500Y-122443926D01*
X32885119Y-122396307D01*
X32885119Y-122491545D01*
X33837500Y-121491545D02*
X33361309Y-121491545D01*
X33313690Y-121967736D01*
X33361309Y-121920117D01*
X33456547Y-121872498D01*
X33694642Y-121872498D01*
X33789880Y-121920117D01*
X33837500Y-121967736D01*
X33885119Y-122062974D01*
X33885119Y-122301069D01*
X33837500Y-122396307D01*
X33789880Y-122443926D01*
X33694642Y-122491545D01*
X33456547Y-122491545D01*
X33361309Y-122443926D01*
X33313690Y-122396307D01*
X34742261Y-121824879D02*
X34742261Y-122491545D01*
X34313690Y-121824879D02*
X34313690Y-122348688D01*
X34361309Y-122443926D01*
X34456547Y-122491545D01*
X34599404Y-122491545D01*
X34694642Y-122443926D01*
X34742261Y-122396307D01*
X18883333Y-122491545D02*
X18311904Y-122491545D01*
X18597619Y-122491545D02*
X18597619Y-121491545D01*
X18502380Y-121634403D01*
X18407142Y-121729641D01*
X18311904Y-121777260D01*
X19740476Y-121824879D02*
X19740476Y-122491545D01*
X19311904Y-121824879D02*
X19311904Y-122348688D01*
X19359523Y-122443926D01*
X19454761Y-122491545D01*
X19597619Y-122491545D01*
X19692857Y-122443926D01*
X19740476Y-122396307D01*
X3881547Y-122491545D02*
X3310119Y-122491545D01*
X3595833Y-122491545D02*
X3595833Y-121491545D01*
X3500595Y-121634403D01*
X3405357Y-121729641D01*
X3310119Y-121777260D01*
X4310119Y-122396307D02*
X4357738Y-122443926D01*
X4310119Y-122491545D01*
X4262500Y-122443926D01*
X4310119Y-122396307D01*
X4310119Y-122491545D01*
X5262500Y-121491545D02*
X4786309Y-121491545D01*
X4738690Y-121967736D01*
X4786309Y-121920117D01*
X4881547Y-121872498D01*
X5119642Y-121872498D01*
X5214880Y-121920117D01*
X5262500Y-121967736D01*
X5310119Y-122062974D01*
X5310119Y-122301069D01*
X5262500Y-122396307D01*
X5214880Y-122443926D01*
X5119642Y-122491545D01*
X4881547Y-122491545D01*
X4786309Y-122443926D01*
X4738690Y-122396307D01*
X6167261Y-121824879D02*
X6167261Y-122491545D01*
X5738690Y-121824879D02*
X5738690Y-122348688D01*
X5786309Y-122443926D01*
X5881547Y-122491545D01*
X6024404Y-122491545D01*
X6119642Y-122443926D01*
X6167261Y-122396307D01*
X-166666Y-122491545D02*
X-738095Y-122491545D01*
X-452380Y-122491545D02*
X-452380Y-121491545D01*
X-547619Y-121634403D01*
X-642857Y-121729641D01*
X-738095Y-121777260D01*
X690476Y-121824879D02*
X690476Y-122491545D01*
X261904Y-121824879D02*
X261904Y-122348688D01*
X309523Y-122443926D01*
X404761Y-122491545D01*
X547619Y-122491545D01*
X642857Y-122443926D01*
X690476Y-122396307D01*
D11*
X258671390Y27428500D02*
X256011390Y27428500D01*
X258671390Y19748500D02*
X258671390Y27428500D01*
X256011390Y19748500D02*
X256011390Y27428500D01*
X258671390Y19748500D02*
X256011390Y19748500D01*
X258671390Y18478500D02*
X258671390Y17148500D01*
X258671390Y17148500D02*
X257341390Y17148500D01*
X80100000Y-117880000D02*
X81430000Y-117880000D01*
X78830000Y-117880000D02*
X78830000Y-115220000D01*
X81430000Y-117880000D02*
X81430000Y-116550000D01*
X78830000Y-115220000D02*
X76230000Y-115220000D01*
X76230000Y-117880000D02*
X76230000Y-115220000D01*
X78830000Y-117880000D02*
X76230000Y-117880000D01*
X80100000Y-113331500D02*
X81430000Y-113331500D01*
X78830000Y-113331500D02*
X78830000Y-110671500D01*
X81430000Y-113331500D02*
X81430000Y-112001500D01*
X78830000Y-110671500D02*
X76230000Y-110671500D01*
X78830000Y-113331500D02*
X76230000Y-113331500D01*
X76230000Y-113331500D02*
X76230000Y-110671500D01*
X74150242Y-116952422D02*
X74150242Y-119032422D01*
X69980242Y-120712422D02*
X69490242Y-120222422D01*
X68710242Y-116952422D02*
X68710242Y-119032422D01*
X72880242Y-120712422D02*
X73370242Y-120222422D01*
X72880242Y-120712422D02*
X69980242Y-120712422D01*
X72880242Y-115272422D02*
X73370242Y-115762422D01*
X72880242Y-115272422D02*
X69980242Y-115272422D01*
X69980242Y-115272422D02*
X69490242Y-115762422D01*
X74150242Y-109569996D02*
X74150242Y-111649996D01*
X69980242Y-113329996D02*
X69490242Y-112839996D01*
X68710242Y-109569996D02*
X68710242Y-111649996D01*
X72880242Y-113329996D02*
X73370242Y-112839996D01*
X72880242Y-113329996D02*
X69980242Y-113329996D01*
X72880242Y-107889996D02*
X73370242Y-108379996D01*
X72880242Y-107889996D02*
X69980242Y-107889996D01*
X69980242Y-107889996D02*
X69490242Y-108379996D01*
X277125992Y-6437792D02*
X277125992Y-6593792D01*
X277125992Y-4121792D02*
X277125992Y-4277792D01*
X279727122Y-6437629D02*
G75*
G02*
X277645031Y-6437792I-1041130J1079837D01*
G01*
X279727122Y-4277955D02*
G75*
G03*
X277645031Y-4277792I-1041130J-1079837D01*
G01*
X280358327Y-6436400D02*
G75*
G02*
X277125992Y-6593308I-1672335J1078608D01*
G01*
X280358327Y-4279184D02*
G75*
G03*
X277125992Y-4122276I-1672335J-1078608D01*
G01*
X269981992Y-6437792D02*
X269981992Y-6593792D01*
X269981992Y-4121792D02*
X269981992Y-4277792D01*
X272583122Y-6437629D02*
G75*
G02*
X270501031Y-6437792I-1041130J1079837D01*
G01*
X272583122Y-4277955D02*
G75*
G03*
X270501031Y-4277792I-1041130J-1079837D01*
G01*
X273214327Y-6436400D02*
G75*
G02*
X269981992Y-6593308I-1672335J1078608D01*
G01*
X273214327Y-4279184D02*
G75*
G03*
X269981992Y-4122276I-1672335J-1078608D01*
G01*
X262837992Y-6437792D02*
X262837992Y-6593792D01*
X262837992Y-4121792D02*
X262837992Y-4277792D01*
X265439122Y-6437629D02*
G75*
G02*
X263357031Y-6437792I-1041130J1079837D01*
G01*
X265439122Y-4277955D02*
G75*
G03*
X263357031Y-4277792I-1041130J-1079837D01*
G01*
X266070327Y-6436400D02*
G75*
G02*
X262837992Y-6593308I-1672335J1078608D01*
G01*
X266070327Y-4279184D02*
G75*
G03*
X262837992Y-4122276I-1672335J-1078608D01*
G01*
D10*
X277400277Y-8722553D02*
X277543134Y-8770172D01*
X277781230Y-8770172D01*
X277876468Y-8722553D01*
X277924087Y-8674934D01*
X277971706Y-8579696D01*
X277971706Y-8484458D01*
X277924087Y-8389220D01*
X277876468Y-8341601D01*
X277781230Y-8293982D01*
X277590753Y-8246363D01*
X277495515Y-8198744D01*
X277447896Y-8151125D01*
X277400277Y-8055887D01*
X277400277Y-7960649D01*
X277447896Y-7865411D01*
X277495515Y-7817792D01*
X277590753Y-7770172D01*
X277828849Y-7770172D01*
X277971706Y-7817792D01*
X278971706Y-8674934D02*
X278924087Y-8722553D01*
X278781230Y-8770172D01*
X278685992Y-8770172D01*
X278543134Y-8722553D01*
X278447896Y-8627315D01*
X278400277Y-8532077D01*
X278352658Y-8341601D01*
X278352658Y-8198744D01*
X278400277Y-8008268D01*
X278447896Y-7913030D01*
X278543134Y-7817792D01*
X278685992Y-7770172D01*
X278781230Y-7770172D01*
X278924087Y-7817792D01*
X278971706Y-7865411D01*
X279971706Y-8770172D02*
X279638372Y-8293982D01*
X279400277Y-8770172D02*
X279400277Y-7770172D01*
X279781230Y-7770172D01*
X279876468Y-7817792D01*
X279924087Y-7865411D01*
X279971706Y-7960649D01*
X279971706Y-8103506D01*
X279924087Y-8198744D01*
X279876468Y-8246363D01*
X279781230Y-8293982D01*
X279400277Y-8293982D01*
X270446753Y-8674934D02*
X270399134Y-8722553D01*
X270256277Y-8770172D01*
X270161039Y-8770172D01*
X270018182Y-8722553D01*
X269922944Y-8627315D01*
X269875325Y-8532077D01*
X269827706Y-8341601D01*
X269827706Y-8198744D01*
X269875325Y-8008268D01*
X269922944Y-7913030D01*
X270018182Y-7817792D01*
X270161039Y-7770172D01*
X270256277Y-7770172D01*
X270399134Y-7817792D01*
X270446753Y-7865411D01*
X270827706Y-8484458D02*
X271303896Y-8484458D01*
X270732468Y-8770172D02*
X271065801Y-7770172D01*
X271399134Y-8770172D01*
X271732468Y-8770172D02*
X271732468Y-7770172D01*
X272113420Y-7770172D01*
X272208658Y-7817792D01*
X272256277Y-7865411D01*
X272303896Y-7960649D01*
X272303896Y-8103506D01*
X272256277Y-8198744D01*
X272208658Y-8246363D01*
X272113420Y-8293982D01*
X271732468Y-8293982D01*
X272684849Y-8722553D02*
X272827706Y-8770172D01*
X273065801Y-8770172D01*
X273161039Y-8722553D01*
X273208658Y-8674934D01*
X273256277Y-8579696D01*
X273256277Y-8484458D01*
X273208658Y-8389220D01*
X273161039Y-8341601D01*
X273065801Y-8293982D01*
X272875325Y-8246363D01*
X272780087Y-8198744D01*
X272732468Y-8151125D01*
X272684849Y-8055887D01*
X272684849Y-7960649D01*
X272732468Y-7865411D01*
X272780087Y-7817792D01*
X272875325Y-7770172D01*
X273113420Y-7770172D01*
X273256277Y-7817792D01*
X263017039Y-8770172D02*
X263017039Y-7770172D01*
X263588468Y-8770172D01*
X263588468Y-7770172D01*
X264064658Y-7770172D02*
X264064658Y-8579696D01*
X264112277Y-8674934D01*
X264159896Y-8722553D01*
X264255134Y-8770172D01*
X264445611Y-8770172D01*
X264540849Y-8722553D01*
X264588468Y-8674934D01*
X264636087Y-8579696D01*
X264636087Y-7770172D01*
X265112277Y-8770172D02*
X265112277Y-7770172D01*
X265445611Y-8484458D01*
X265778944Y-7770172D01*
X265778944Y-8770172D01*
%LPC*%
D13*
X301545890Y0D03*
X291385890Y0D03*
D14*
X296465890Y0D03*
G36*
G01*
X258241390Y19328500D02*
X258241390Y17628500D01*
G75*
G02*
X258191390Y17578500I-50000J0D01*
G01*
X256491390Y17578500D01*
G75*
G02*
X256441390Y17628500I0J50000D01*
G01*
X256441390Y19328500D01*
G75*
G02*
X256491390Y19378500I50000J0D01*
G01*
X258191390Y19378500D01*
G75*
G02*
X258241390Y19328500I0J-50000D01*
G01*
G37*
D15*
X257341390Y21018500D03*
X257341390Y23558500D03*
X257341390Y26098500D03*
X77560000Y-116550000D03*
G36*
G01*
X80950000Y-117450000D02*
X79250000Y-117450000D01*
G75*
G02*
X79200000Y-117400000I0J50000D01*
G01*
X79200000Y-115700000D01*
G75*
G02*
X79250000Y-115650000I50000J0D01*
G01*
X80950000Y-115650000D01*
G75*
G02*
X81000000Y-115700000I0J-50000D01*
G01*
X81000000Y-117400000D01*
G75*
G02*
X80950000Y-117450000I-50000J0D01*
G01*
G37*
X77560000Y-112001500D03*
G36*
G01*
X80950000Y-112901500D02*
X79250000Y-112901500D01*
G75*
G02*
X79200000Y-112851500I0J50000D01*
G01*
X79200000Y-111151500D01*
G75*
G02*
X79250000Y-111101500I50000J0D01*
G01*
X80950000Y-111101500D01*
G75*
G02*
X81000000Y-111151500I0J-50000D01*
G01*
X81000000Y-112851500D01*
G75*
G02*
X80950000Y-112901500I-50000J0D01*
G01*
G37*
G36*
G01*
X69280242Y-115592422D02*
X69280242Y-116692422D01*
G75*
G02*
X69230242Y-116742422I-50000J0D01*
G01*
X67430242Y-116742422D01*
G75*
G02*
X67380242Y-116692422I0J50000D01*
G01*
X67380242Y-115592422D01*
G75*
G02*
X67430242Y-115542422I50000J0D01*
G01*
X69230242Y-115542422D01*
G75*
G02*
X69280242Y-115592422I0J-50000D01*
G01*
G37*
G36*
G01*
X75480242Y-115592422D02*
X75480242Y-116692422D01*
G75*
G02*
X75430242Y-116742422I-50000J0D01*
G01*
X73630242Y-116742422D01*
G75*
G02*
X73580242Y-116692422I0J50000D01*
G01*
X73580242Y-115592422D01*
G75*
G02*
X73630242Y-115542422I50000J0D01*
G01*
X75430242Y-115542422D01*
G75*
G02*
X75480242Y-115592422I0J-50000D01*
G01*
G37*
G36*
G01*
X69280242Y-119292422D02*
X69280242Y-120392422D01*
G75*
G02*
X69230242Y-120442422I-50000J0D01*
G01*
X67430242Y-120442422D01*
G75*
G02*
X67380242Y-120392422I0J50000D01*
G01*
X67380242Y-119292422D01*
G75*
G02*
X67430242Y-119242422I50000J0D01*
G01*
X69230242Y-119242422D01*
G75*
G02*
X69280242Y-119292422I0J-50000D01*
G01*
G37*
G36*
G01*
X75480242Y-119292422D02*
X75480242Y-120392422D01*
G75*
G02*
X75430242Y-120442422I-50000J0D01*
G01*
X73630242Y-120442422D01*
G75*
G02*
X73580242Y-120392422I0J50000D01*
G01*
X73580242Y-119292422D01*
G75*
G02*
X73630242Y-119242422I50000J0D01*
G01*
X75430242Y-119242422D01*
G75*
G02*
X75480242Y-119292422I0J-50000D01*
G01*
G37*
G36*
G01*
X69280242Y-108209996D02*
X69280242Y-109309996D01*
G75*
G02*
X69230242Y-109359996I-50000J0D01*
G01*
X67430242Y-109359996D01*
G75*
G02*
X67380242Y-109309996I0J50000D01*
G01*
X67380242Y-108209996D01*
G75*
G02*
X67430242Y-108159996I50000J0D01*
G01*
X69230242Y-108159996D01*
G75*
G02*
X69280242Y-108209996I0J-50000D01*
G01*
G37*
G36*
G01*
X75480242Y-108209996D02*
X75480242Y-109309996D01*
G75*
G02*
X75430242Y-109359996I-50000J0D01*
G01*
X73630242Y-109359996D01*
G75*
G02*
X73580242Y-109309996I0J50000D01*
G01*
X73580242Y-108209996D01*
G75*
G02*
X73630242Y-108159996I50000J0D01*
G01*
X75430242Y-108159996D01*
G75*
G02*
X75480242Y-108209996I0J-50000D01*
G01*
G37*
G36*
G01*
X69280242Y-111909996D02*
X69280242Y-113009996D01*
G75*
G02*
X69230242Y-113059996I-50000J0D01*
G01*
X67430242Y-113059996D01*
G75*
G02*
X67380242Y-113009996I0J50000D01*
G01*
X67380242Y-111909996D01*
G75*
G02*
X67430242Y-111859996I50000J0D01*
G01*
X69230242Y-111859996D01*
G75*
G02*
X69280242Y-111909996I0J-50000D01*
G01*
G37*
G36*
G01*
X75480242Y-111909996D02*
X75480242Y-113009996D01*
G75*
G02*
X75430242Y-113059996I-50000J0D01*
G01*
X73630242Y-113059996D01*
G75*
G02*
X73580242Y-113009996I0J50000D01*
G01*
X73580242Y-111909996D01*
G75*
G02*
X73630242Y-111859996I50000J0D01*
G01*
X75430242Y-111859996D01*
G75*
G02*
X75480242Y-111909996I0J-50000D01*
G01*
G37*
D16*
X49410992Y-123824992D03*
X304204992Y-123824992D03*
D17*
X279955992Y-5357792D03*
G36*
G01*
X276465992Y-6257792D02*
X276465992Y-4457792D01*
G75*
G02*
X276515992Y-4407792I50000J0D01*
G01*
X278315992Y-4407792D01*
G75*
G02*
X278365992Y-4457792I0J-50000D01*
G01*
X278365992Y-6257792D01*
G75*
G02*
X278315992Y-6307792I-50000J0D01*
G01*
X276515992Y-6307792D01*
G75*
G02*
X276465992Y-6257792I0J50000D01*
G01*
G37*
X272811992Y-5357792D03*
G36*
G01*
X269321992Y-6257792D02*
X269321992Y-4457792D01*
G75*
G02*
X269371992Y-4407792I50000J0D01*
G01*
X271171992Y-4407792D01*
G75*
G02*
X271221992Y-4457792I0J-50000D01*
G01*
X271221992Y-6257792D01*
G75*
G02*
X271171992Y-6307792I-50000J0D01*
G01*
X269371992Y-6307792D01*
G75*
G02*
X269321992Y-6257792I0J50000D01*
G01*
G37*
X265667992Y-5357792D03*
G36*
G01*
X262177992Y-6257792D02*
X262177992Y-4457792D01*
G75*
G02*
X262227992Y-4407792I50000J0D01*
G01*
X264027992Y-4407792D01*
G75*
G02*
X264077992Y-4457792I0J-50000D01*
G01*
X264077992Y-6257792D01*
G75*
G02*
X264027992Y-6307792I-50000J0D01*
G01*
X262227992Y-6307792D01*
G75*
G02*
X262177992Y-6257792I0J50000D01*
G01*
G37*
D18*
X309194898Y21550008D03*
X241410992Y-19049992D03*
X49410992Y-19049992D03*
D19*
X320525890Y23770000D03*
X311885890Y23770000D03*
D20*
X313315890Y24300000D03*
D21*
X311885890Y27950000D03*
D20*
X319095890Y24300000D03*
D21*
X320525890Y27950000D03*
D13*
X7461250Y-76200000D03*
X-2698750Y-76200000D03*
D14*
X2381250Y-76200000D03*
X171450000Y-122555000D03*
D22*
X171450000Y-107315000D03*
D13*
X119380000Y-114300000D03*
X109220000Y-114300000D03*
D14*
X114300000Y-114300000D03*
D13*
X100330100Y-114300120D03*
X90170100Y-114300120D03*
D14*
X95250100Y-114300120D03*
D13*
X228917500Y-114300000D03*
X218757500Y-114300000D03*
D14*
X223837500Y-114300000D03*
D13*
X200342500Y-114300000D03*
X190182500Y-114300000D03*
D14*
X195262500Y-114300000D03*
D13*
X38417500Y-114300000D03*
X28257500Y-114300000D03*
D14*
X33337500Y-114300000D03*
D13*
X9842500Y-114300000D03*
X-317500Y-114300000D03*
D14*
X4762500Y-114300000D03*
X256063750Y-54737000D03*
X256063750Y-78613000D03*
D22*
X271303750Y-54737000D03*
X271303750Y-78613000D03*
D13*
X264318750Y-71755000D03*
X264318750Y-61595000D03*
D14*
X264318750Y-66675000D03*
X361870890Y-92837000D03*
X361870890Y-116713000D03*
D22*
X346630890Y-92837000D03*
X346630890Y-116713000D03*
D13*
X358695890Y-104775000D03*
X348535890Y-104775000D03*
D14*
X353615890Y-104775000D03*
D13*
X9842500Y-57150000D03*
X-317500Y-57150000D03*
D14*
X4762500Y-57150000D03*
D13*
X12223750Y-76200000D03*
X2063750Y-76200000D03*
D14*
X7143750Y-76200000D03*
D13*
X245586250Y-95250000D03*
X235426250Y-95250000D03*
D14*
X240506250Y-95250000D03*
D13*
X339645890Y-114300000D03*
X329485890Y-114300000D03*
D14*
X334565890Y-114300000D03*
D13*
X320595890Y-114300000D03*
X310435890Y-114300000D03*
D14*
X315515890Y-114300000D03*
D13*
X296188025Y-119657913D03*
X286028025Y-119657913D03*
D14*
X291108025Y-119657913D03*
D13*
X277138025Y-119657913D03*
X266978025Y-119657913D03*
D14*
X272058025Y-119657913D03*
D13*
X258088025Y-119657913D03*
X247928025Y-119657913D03*
D14*
X253008025Y-119657913D03*
D13*
X233680000Y-114300000D03*
X223520000Y-114300000D03*
D14*
X228600000Y-114300000D03*
D13*
X214630000Y-114300000D03*
X204470000Y-114300000D03*
D14*
X209550000Y-114300000D03*
D13*
X195580000Y-114300000D03*
X185420000Y-114300000D03*
D14*
X190500000Y-114300000D03*
D13*
X176530000Y-114300000D03*
X166370000Y-114300000D03*
D14*
X171450000Y-114300000D03*
X152400000Y-122555000D03*
X57150000Y-122555000D03*
D22*
X152400000Y-107315000D03*
X57150000Y-107315000D03*
D13*
X119380000Y-114300000D03*
X109220000Y-114300000D03*
D14*
X114300000Y-114300000D03*
D13*
X43180000Y-114300000D03*
X33020000Y-114300000D03*
D14*
X38100000Y-114300000D03*
D13*
X24130000Y-114300000D03*
X13970000Y-114300000D03*
D14*
X19050000Y-114300000D03*
D13*
X5080000Y-114300000D03*
X-5080000Y-114300000D03*
D14*
X0Y-114300000D03*
D13*
X339645890Y-95250000D03*
X329485890Y-95250000D03*
D14*
X334565890Y-95250000D03*
D13*
X320595890Y-95250000D03*
X310435890Y-95250000D03*
D14*
X315515890Y-95250000D03*
D13*
X301545890Y-95250000D03*
X291385890Y-95250000D03*
D14*
X296465890Y-95250000D03*
D13*
X277138025Y-100607913D03*
X266978025Y-100607913D03*
D14*
X272058025Y-100607913D03*
D13*
X219392500Y-95250000D03*
X209232500Y-95250000D03*
D14*
X214312500Y-95250000D03*
D13*
X200342500Y-95250000D03*
X190182500Y-95250000D03*
D14*
X195262500Y-95250000D03*
D13*
X181292500Y-95250000D03*
X171132500Y-95250000D03*
D14*
X176212500Y-95250000D03*
D13*
X162242500Y-95250000D03*
X152082500Y-95250000D03*
D14*
X157162500Y-95250000D03*
D13*
X143192500Y-95250000D03*
X133032500Y-95250000D03*
D14*
X138112500Y-95250000D03*
D13*
X124142500Y-95250000D03*
X113982500Y-95250000D03*
D14*
X119062500Y-95250000D03*
D13*
X105092500Y-95250000D03*
X94932500Y-95250000D03*
D14*
X100012500Y-95250000D03*
D13*
X86042500Y-95250000D03*
X75882500Y-95250000D03*
D14*
X80962500Y-95250000D03*
D13*
X66992500Y-95250000D03*
X56832500Y-95250000D03*
D14*
X61912500Y-95250000D03*
D13*
X47942500Y-95250000D03*
X37782500Y-95250000D03*
D14*
X42862500Y-95250000D03*
D13*
X28892500Y-95250000D03*
X18732500Y-95250000D03*
D14*
X23812500Y-95250000D03*
X23844250Y-103505000D03*
X-31750Y-103505000D03*
D22*
X23844250Y-88265000D03*
X-31750Y-88265000D03*
D13*
X16986250Y-95250000D03*
X6826250Y-95250000D03*
D14*
X11906250Y-95250000D03*
D13*
X7461250Y-95250000D03*
X-2698750Y-95250000D03*
D14*
X2381250Y-95250000D03*
D13*
X358695890Y-76200000D03*
X348535890Y-76200000D03*
D14*
X353615890Y-76200000D03*
D13*
X339645890Y-76200000D03*
X329485890Y-76200000D03*
D14*
X334565890Y-76200000D03*
D13*
X320595890Y-76200000D03*
X310435890Y-76200000D03*
D14*
X315515890Y-76200000D03*
D13*
X301545890Y-76200000D03*
X291385890Y-76200000D03*
D14*
X296465890Y-76200000D03*
X266731750Y-84455000D03*
X242855750Y-84455000D03*
D22*
X266731750Y-69215000D03*
X242855750Y-69215000D03*
D13*
X259873750Y-76200000D03*
X249713750Y-76200000D03*
D14*
X254793750Y-76200000D03*
D13*
X247967500Y-76200000D03*
X237807500Y-76200000D03*
D14*
X242887500Y-76200000D03*
D13*
X228917500Y-76200000D03*
X218757500Y-76200000D03*
D14*
X223837500Y-76200000D03*
D13*
X209867500Y-76200000D03*
X199707500Y-76200000D03*
D14*
X204787500Y-76200000D03*
D13*
X190817500Y-76200000D03*
X180657500Y-76200000D03*
D14*
X185737500Y-76200000D03*
D13*
X171767500Y-76200000D03*
X161607500Y-76200000D03*
D14*
X166687500Y-76200000D03*
D13*
X152717500Y-76200000D03*
X142557500Y-76200000D03*
D14*
X147637500Y-76200000D03*
D13*
X133667500Y-76200000D03*
X123507500Y-76200000D03*
D14*
X128587500Y-76200000D03*
D13*
X114617500Y-76200000D03*
X104457500Y-76200000D03*
D14*
X109537500Y-76200000D03*
D13*
X95567500Y-76200000D03*
X85407500Y-76200000D03*
D14*
X90487500Y-76200000D03*
D13*
X76517500Y-76200000D03*
X66357500Y-76200000D03*
D14*
X71437500Y-76200000D03*
D13*
X57467500Y-76200000D03*
X47307500Y-76200000D03*
D14*
X52387500Y-76200000D03*
D13*
X38417500Y-76200000D03*
X28257500Y-76200000D03*
D14*
X33337500Y-76200000D03*
D13*
X358695890Y-57150000D03*
X348535890Y-57150000D03*
D14*
X353615890Y-57150000D03*
D13*
X339645890Y-57150000D03*
X329485890Y-57150000D03*
D14*
X334565890Y-57150000D03*
D13*
X320595890Y-57150000D03*
X310435890Y-57150000D03*
D14*
X315515890Y-57150000D03*
D13*
X301545890Y-57150000D03*
X291385890Y-57150000D03*
D14*
X296465890Y-57150000D03*
D13*
X267017500Y-57150000D03*
X256857500Y-57150000D03*
D14*
X261937500Y-57150000D03*
D13*
X243205000Y-57150000D03*
X233045000Y-57150000D03*
D14*
X238125000Y-57150000D03*
D13*
X224155000Y-57150000D03*
X213995000Y-57150000D03*
D14*
X219075000Y-57150000D03*
D13*
X205105000Y-57150000D03*
X194945000Y-57150000D03*
D14*
X200025000Y-57150000D03*
D13*
X186055000Y-57150000D03*
X175895000Y-57150000D03*
D14*
X180975000Y-57150000D03*
D13*
X167005000Y-57150000D03*
X156845000Y-57150000D03*
D14*
X161925000Y-57150000D03*
D13*
X147955000Y-57150000D03*
X137795000Y-57150000D03*
D14*
X142875000Y-57150000D03*
D13*
X128905000Y-57150000D03*
X118745000Y-57150000D03*
D14*
X123825000Y-57150000D03*
D13*
X109855000Y-57150000D03*
X99695000Y-57150000D03*
D14*
X104775000Y-57150000D03*
D13*
X90805000Y-57150000D03*
X80645000Y-57150000D03*
D14*
X85725000Y-57150000D03*
D13*
X71755000Y-57150000D03*
X61595000Y-57150000D03*
D14*
X66675000Y-57150000D03*
D13*
X52705000Y-57150000D03*
X42545000Y-57150000D03*
D14*
X47625000Y-57150000D03*
D13*
X33655000Y-57150000D03*
X23495000Y-57150000D03*
D14*
X28575000Y-57150000D03*
D13*
X358695890Y-38100000D03*
X348535890Y-38100000D03*
D14*
X353615890Y-38100000D03*
D13*
X339645890Y-38100000D03*
X329485890Y-38100000D03*
D14*
X334565890Y-38100000D03*
D13*
X320595890Y-38100000D03*
X310435890Y-38100000D03*
D14*
X315515890Y-38100000D03*
D13*
X301545890Y-38100000D03*
X291385890Y-38100000D03*
D14*
X296465890Y-38100000D03*
X269113000Y-46355000D03*
X245237000Y-46355000D03*
D22*
X269113000Y-31115000D03*
X245237000Y-31115000D03*
D13*
X262255000Y-38100000D03*
X252095000Y-38100000D03*
D14*
X257175000Y-38100000D03*
D13*
X233680000Y-38100000D03*
X223520000Y-38100000D03*
D14*
X228600000Y-38100000D03*
D13*
X214630000Y-38100000D03*
X204470000Y-38100000D03*
D14*
X209550000Y-38100000D03*
D13*
X195580000Y-38100000D03*
X185420000Y-38100000D03*
D14*
X190500000Y-38100000D03*
D13*
X176530000Y-38100000D03*
X166370000Y-38100000D03*
D14*
X171450000Y-38100000D03*
D13*
X157480000Y-38100000D03*
X147320000Y-38100000D03*
D14*
X152400000Y-38100000D03*
D13*
X138430000Y-38100000D03*
X128270000Y-38100000D03*
D14*
X133350000Y-38100000D03*
D13*
X119380000Y-38100000D03*
X109220000Y-38100000D03*
D14*
X114300000Y-38100000D03*
D13*
X100330000Y-38100000D03*
X90170000Y-38100000D03*
D14*
X95250000Y-38100000D03*
D13*
X81280000Y-38100000D03*
X71120000Y-38100000D03*
D14*
X76200000Y-38100000D03*
D13*
X62230000Y-38100000D03*
X52070000Y-38100000D03*
D14*
X57150000Y-38100000D03*
D13*
X43180000Y-38100000D03*
X33020000Y-38100000D03*
D14*
X38100000Y-38100000D03*
D13*
X24130000Y-38100000D03*
X13970000Y-38100000D03*
D14*
X19050000Y-38100000D03*
D13*
X5080000Y-38100000D03*
X-5080000Y-38100000D03*
D14*
X0Y-38100000D03*
D13*
X358695890Y-19050000D03*
X348535890Y-19050000D03*
D14*
X353615890Y-19050000D03*
D13*
X339645890Y-19050000D03*
X329485890Y-19050000D03*
D14*
X334565890Y-19050000D03*
D13*
X320595890Y-19050000D03*
X310435890Y-19050000D03*
D14*
X315515890Y-19050000D03*
D13*
X301545890Y-19050000D03*
X291385890Y-19050000D03*
D14*
X296465890Y-19050000D03*
D13*
X358695890Y0D03*
X348535890Y0D03*
D14*
X353615890Y0D03*
D13*
X339645890Y0D03*
X329485890Y0D03*
D14*
X334565890Y0D03*
D13*
X320595890Y0D03*
X310435890Y0D03*
D14*
X315515890Y0D03*
D13*
X249753595Y0D03*
X239593595Y0D03*
D14*
X244673595Y0D03*
D13*
X230703595Y0D03*
X220543595Y0D03*
D14*
X225623595Y0D03*
D13*
X211653595Y0D03*
X201493595Y0D03*
D14*
X206573595Y0D03*
D13*
X192603595Y0D03*
X182443595Y0D03*
D14*
X187523595Y0D03*
D13*
X168195714Y0D03*
X158035714Y0D03*
D14*
X163115714Y0D03*
D13*
X149145714Y0D03*
X138985714Y0D03*
D14*
X144065714Y0D03*
D13*
X130095714Y0D03*
X119935714Y0D03*
D14*
X125015714Y0D03*
D13*
X111045714Y0D03*
X100885714Y0D03*
D14*
X105965714Y0D03*
D13*
X86637833Y0D03*
X76477833Y0D03*
D14*
X81557833Y0D03*
D13*
X67587833Y0D03*
X57427833Y0D03*
D14*
X62507833Y0D03*
D13*
X48537833Y0D03*
X38377833Y0D03*
D14*
X43457833Y0D03*
D13*
X29487833Y0D03*
X19327833Y0D03*
D14*
X24407833Y0D03*
D13*
X5080000Y0D03*
X-5080000Y0D03*
D14*
X0Y0D03*
M02*
